# vtk DataFile Version 4.2
posterior statistics, q = 1
ASCII
DATASET UNSTRUCTURED_GRID
POINTS 22 double
0.0000000000e+00 0.0000000000e+00 0.0000000000e+00
0.0000000000e+00 1.0000000000e-01 0.0000000000e+00
1.0000000000e-01 0.0000000000e+00 0.0000000000e+00
1.0000000000e-01 1.0000000000e-01 0.0000000000e+00
2.0000000000e-01 0.0000000000e+00 0.0000000000e+00
2.0000000000e-01 1.0000000000e-01 0.0000000000e+00
3.0000000000e-01 0.0000000000e+00 0.0000000000e+00
3.0000000000e-01 1.0000000000e-01 0.0000000000e+00
4.0000000000e-01 0.0000000000e+00 0.0000000000e+00
4.0000000000e-01 1.0000000000e-01 0.0000000000e+00
5.0000000000e-01 0.0000000000e+00 0.0000000000e+00
5.0000000000e-01 1.0000000000e-01 0.0000000000e+00
6.0000000000e-01 0.0000000000e+00 0.0000000000e+00
6.0000000000e-01 1.0000000000e-01 0.0000000000e+00
7.0000000000e-01 0.0000000000e+00 0.0000000000e+00
7.0000000000e-01 1.0000000000e-01 0.0000000000e+00
8.0000000000e-01 0.0000000000e+00 0.0000000000e+00
8.0000000000e-01 1.0000000000e-01 0.0000000000e+00
9.0000000000e-01 0.0000000000e+00 0.0000000000e+00
9.0000000000e-01 1.0000000000e-01 0.0000000000e+00
1.0000000000e+00 0.0000000000e+00 0.0000000000e+00
1.0000000000e+00 1.0000000000e-01 0.0000000000e+00

CELLS 20 80
3 0 2 1
3 16 18 17
3 11 9 8
3 16 17 14
3 8 9 7
3 8 10 11
3 11 10 13
3 19 17 18
3 19 18 21
3 3 1 2
3 3 2 4
3 4 6 5
3 4 5 3
3 20 21 18
3 7 5 6
3 7 6 8
3 12 14 13
3 12 13 10
3 15 13 14
3 15 14 17

CELL_TYPES 20
5
5
5
5
5
5
5
5
5
5
5
5
5
5
5
5
5
5
5
5

POINT_DATA 22
VECTORS DISPLACEMENT_MEAN double
0.0000000000e+00 0.0000000000e+00 0.0000000000e+00
0.0000000000e+00 0.0000000000e+00 0.0000000000e+00
-2.5195236010e-08 -2.3567294328e-08 -1.5866097712e+20
2.4890577516e-08 -2.3576406132e-08 -1.5866097712e+20
-4.6122689741e-08 -9.5754899789e-08 -3.1732195425e+20
4.5802964143e-08 -9.5870177815e-08 -3.1732195425e+20
-6.4387278890e-08 -2.0742776181e-07 -4.7598293137e+20
6.4276813137e-08 -2.0763021400e-07 -4.7598293137e+20
-8.0111902367e-08 -3.5297851833e-07 -6.3464390849e+20
8.0708007050e-08 -3.5441294118e-07 -6.3464390849e+20
-9.3507371085e-08 -5.2964476918e-07 -7.9330488562e+20
9.4622543853e-08 -5.2954359631e-07 -7.9330488562e+20
-1.0478802279e-07 -7.3071181196e-07 -9.5196586274e+20
1.0556267807e-07 -7.2978311229e-07 -9.5196586274e+20
-1.1362881823e-07 -9.5049330299e-07 -1.1106268399e+21
1.1426976244e-07 -9.5111116033e-07 -1.1106268399e+21
-1.1986797533e-07 -1.1865790308e-06 -1.2692878170e+21
1.2054563357e-07 -1.1861912103e-06 -1.2692878170e+21
-1.2363951707e-07 -1.4318866431e-06 -1.4279487941e+21
1.2430120759e-07 -1.4320829599e-06 -1.4279487941e+21
-1.2514507049e-07 -1.6828781934e-06 -1.5866097712e+21
1.2549900637e-07 -1.6824947921e-06 -1.5866097712e+21
VECTORS DISPLACEMENT_STD double
0.0000000000e+00 0.0000000000e+00 0.0000000000e+00
0.0000000000e+00 0.0000000000e+00 0.0000000000e+00
5.8733955460e-10 5.4935280586e-10 1.8730989996e+20
5.8212266996e-10 5.4992998147e-10 1.8730989996e+20
1.0732560206e-09 2.2320191988e-09 3.7461979992e+20
1.0651268858e-09 2.2340743900e-09 3.7461979992e+20
1.4989387941e-09 4.8302519381e-09 5.6192969988e+20
1.4997424205e-09 4.8345033255e-09 5.6192969988e+20
1.8709365196e-09 8.2239805247e-09 7.4923959984e+20
1.8852832424e-09 8.2572818951e-09 7.4923959984e+20
2.1874339337e-09 1.2349120205e-08 9.3654949981e+20
2.2102031271e-09 1.2345802539e-08 9.3654949981e+20
2.4508721613e-09 1.7042335292e-08 1.1238593998e+21
2.4615928771e-09 1.7023097702e-08 1.1238593998e+21
2.6518737200e-09 2.2163381060e-08 1.3111692997e+21
2.6601669502e-09 2.2178654064e-08 1.3111692997e+21
2.7971380928e-09 2.7668075718e-08 1.4984791997e+21
2.8055740697e-09 2.7652049056e-08 1.4984791997e+21
2.8926909152e-09 3.3381684803e-08 1.6857890997e+21
2.9026047809e-09 3.3389574162e-08 1.6857890997e+21
2.9338769849e-09 3.9245465442e-08 1.8730989996e+21
2.9361272884e-09 3.9234945089e-08 1.8730989996e+21

CELL_DATA 20
SCALARS YOUNG_MODULUS_MEAN double 1
LOOKUP_TABLE default
2.3298491954e+11
2.3298491954e+11
2.3298491954e+11
2.3298491954e+11
2.3298491954e+11
2.3298491954e+11
2.3298491954e+11
2.3298491954e+11
2.3298491954e+11
2.3298491954e+11
2.3298491954e+11
2.3298491954e+11
2.3298491954e+11
2.3298491954e+11
2.3298491954e+11
2.3298491954e+11
2.3298491954e+11
2.3298491954e+11
2.3298491954e+11
2.3298491954e+11
SCALARS YOUNG_MODULUS_STD double 1
LOOKUP_TABLE default
5.4503456315e+09
5.4503456315e+09
5.4503456315e+09
5.4503456315e+09
5.4503456315e+09
5.4503456315e+09
5.4503456315e+09
5.4503456315e+09
5.4503456315e+09
5.4503456315e+09
5.4503456315e+09
5.4503456315e+09
5.4503456315e+09
5.4503456315e+09
5.4503456315e+09
5.4503456315e+09
5.4503456315e+09
5.4503456315e+09
5.4503456315e+09
5.4503456315e+09
