# vtk DataFile Version 4.2
SMC_aCS level 2, q = 0.4108
ASCII
DATASET UNSTRUCTURED_GRID
POINTS 22 double
0.0000000000e+00 0.0000000000e+00 0.0000000000e+00
0.0000000000e+00 1.0000000000e-01 0.0000000000e+00
1.0000000000e-01 0.0000000000e+00 0.0000000000e+00
1.0000000000e-01 1.0000000000e-01 0.0000000000e+00
2.0000000000e-01 0.0000000000e+00 0.0000000000e+00
2.0000000000e-01 1.0000000000e-01 0.0000000000e+00
3.0000000000e-01 0.0000000000e+00 0.0000000000e+00
3.0000000000e-01 1.0000000000e-01 0.0000000000e+00
4.0000000000e-01 0.0000000000e+00 0.0000000000e+00
4.0000000000e-01 1.0000000000e-01 0.0000000000e+00
5.0000000000e-01 0.0000000000e+00 0.0000000000e+00
5.0000000000e-01 1.0000000000e-01 0.0000000000e+00
6.0000000000e-01 0.0000000000e+00 0.0000000000e+00
6.0000000000e-01 1.0000000000e-01 0.0000000000e+00
7.0000000000e-01 0.0000000000e+00 0.0000000000e+00
7.0000000000e-01 1.0000000000e-01 0.0000000000e+00
8.0000000000e-01 0.0000000000e+00 0.0000000000e+00
8.0000000000e-01 1.0000000000e-01 0.0000000000e+00
9.0000000000e-01 0.0000000000e+00 0.0000000000e+00
9.0000000000e-01 1.0000000000e-01 0.0000000000e+00
1.0000000000e+00 0.0000000000e+00 0.0000000000e+00
1.0000000000e+00 1.0000000000e-01 0.0000000000e+00

CELLS 20 80
3 0 2 1
3 16 18 17
3 11 9 8
3 16 17 14
3 8 9 7
3 8 10 11
3 11 10 13
3 19 17 18
3 19 18 21
3 3 1 2
3 3 2 4
3 4 6 5
3 4 5 3
3 20 21 18
3 7 5 6
3 7 6 8
3 12 14 13
3 12 13 10
3 15 13 14
3 15 14 17

CELL_TYPES 20
5
5
5
5
5
5
5
5
5
5
5
5
5
5
5
5
5
5
5
5

POINT_DATA 22
VECTORS DISPLACEMENT_MEAN double
0.0000000000e+00 0.0000000000e+00 0.0000000000e+00
0.0000000000e+00 0.0000000000e+00 0.0000000000e+00
-2.5099356493e-08 -2.3478671109e-08 -1.4385768022e+20
2.4795795068e-08 -2.3487462046e-08 -1.4385768022e+20
-4.5944253129e-08 -9.5390303141e-08 -2.8771536043e+20
4.5625892282e-08 -9.5504333998e-08 -2.8771536043e+20
-6.4141005789e-08 -2.0662884809e-07 -4.3157304065e+20
6.4023521247e-08 -2.0682851588e-07 -4.3157304065e+20
-7.9799811168e-08 -3.5161014069e-07 -5.7543072086e+20
8.0390178639e-08 -3.5303794704e-07 -5.7543072086e+20
-9.3155304307e-08 -5.2759680036e-07 -7.1928840108e+20
9.4261793443e-08 -5.2749732015e-07 -7.1928840108e+20
-1.0440590648e-07 -7.2791167470e-07 -8.6314608129e+20
1.0516804505e-07 -7.2698804045e-07 -8.6314608129e+20
-1.1322073129e-07 -9.4688846266e-07 -1.0070037615e+21
1.1384569415e-07 -9.4750344035e-07 -1.0070037615e+21
-1.1944323378e-07 -1.1821168248e-06 -1.1508614417e+21
1.2010441527e-07 -1.1817227779e-06 -1.1508614417e+21
-1.2320552318e-07 -1.4265379572e-06 -1.2947191219e+21
1.2385023186e-07 -1.4267435567e-06 -1.2947191219e+21
-1.2469277093e-07 -1.6766368355e-06 -1.4385768022e+21
1.2504244627e-07 -1.6762440623e-06 -1.4385768022e+21
VECTORS DISPLACEMENT_STD double
0.0000000000e+00 0.0000000000e+00 0.0000000000e+00
0.0000000000e+00 0.0000000000e+00 0.0000000000e+00
8.6754300493e-10 8.0923783451e-10 1.8423685175e+20
8.5891024719e-10 8.0918342126e-10 1.8423685175e+20
1.5954751280e-09 3.3004045597e-09 3.6847370350e+20
1.5912096639e-09 3.3064661426e-09 3.6847370350e+20
2.2168924461e-09 7.1662907714e-09 5.5271055525e+20
2.2401466353e-09 7.1751782361e-09 5.5271055525e+20
2.7647321701e-09 1.2209020403e-08 7.3694740700e+20
2.8118275427e-09 1.2255612538e-08 7.3694740700e+20
3.2083451533e-09 1.8298698471e-08 9.2118425876e+20
3.2787425497e-09 1.8300179406e-08 9.2118425876e+20
3.5893969310e-09 2.5201548767e-08 1.1054211105e+21
3.6443133779e-09 2.5174031850e-08 1.1054211105e+21
3.8795732250e-09 3.2714458723e-08 1.2896579623e+21
3.9279177226e-09 3.2738719322e-08 1.2896579623e+21
4.0850126955e-09 4.0781027910e-08 1.4738948140e+21
4.1394721114e-09 4.0766895271e-08 1.4738948140e+21
4.2119005940e-09 4.9146639841e-08 1.6581316658e+21
4.2688128780e-09 4.9148551453e-08 1.6581316658e+21
4.2617516204e-09 5.7708395505e-08 1.8423685175e+21
4.3048909216e-09 5.7686951942e-08 1.8423685175e+21

CELL_DATA 20
SCALARS YOUNG_MODULUS_MEAN double 1
LOOKUP_TABLE default
2.3403399712e+11
2.3403399712e+11
2.3403399712e+11
2.3403399712e+11
2.3403399712e+11
2.3403399712e+11
2.3403399712e+11
2.3403399712e+11
2.3403399712e+11
2.3403399712e+11
2.3403399712e+11
2.3403399712e+11
2.3403399712e+11
2.3403399712e+11
2.3403399712e+11
2.3403399712e+11
2.3403399712e+11
2.3403399712e+11
2.3403399712e+11
2.3403399712e+11
SCALARS YOUNG_MODULUS_STD double 1
LOOKUP_TABLE default
8.1511228312e+09
8.1511228312e+09
8.1511228312e+09
8.1511228312e+09
8.1511228312e+09
8.1511228312e+09
8.1511228312e+09
8.1511228312e+09
8.1511228312e+09
8.1511228312e+09
8.1511228312e+09
8.1511228312e+09
8.1511228312e+09
8.1511228312e+09
8.1511228312e+09
8.1511228312e+09
8.1511228312e+09
8.1511228312e+09
8.1511228312e+09
8.1511228312e+09
