# vtk DataFile Version 4.2
SMC_aCS level 0, q = 0.0000
ASCII
DATASET UNSTRUCTURED_GRID
POINTS 22 double
0.0000000000e+00 0.0000000000e+00 0.0000000000e+00
0.0000000000e+00 1.0000000000e-01 0.0000000000e+00
1.0000000000e-01 0.0000000000e+00 0.0000000000e+00
1.0000000000e-01 1.0000000000e-01 0.0000000000e+00
2.0000000000e-01 0.0000000000e+00 0.0000000000e+00
2.0000000000e-01 1.0000000000e-01 0.0000000000e+00
3.0000000000e-01 0.0000000000e+00 0.0000000000e+00
3.0000000000e-01 1.0000000000e-01 0.0000000000e+00
4.0000000000e-01 0.0000000000e+00 0.0000000000e+00
4.0000000000e-01 1.0000000000e-01 0.0000000000e+00
5.0000000000e-01 0.0000000000e+00 0.0000000000e+00
5.0000000000e-01 1.0000000000e-01 0.0000000000e+00
6.0000000000e-01 0.0000000000e+00 0.0000000000e+00
6.0000000000e-01 1.0000000000e-01 0.0000000000e+00
7.0000000000e-01 0.0000000000e+00 0.0000000000e+00
7.0000000000e-01 1.0000000000e-01 0.0000000000e+00
8.0000000000e-01 0.0000000000e+00 0.0000000000e+00
8.0000000000e-01 1.0000000000e-01 0.0000000000e+00
9.0000000000e-01 0.0000000000e+00 0.0000000000e+00
9.0000000000e-01 1.0000000000e-01 0.0000000000e+00
1.0000000000e+00 0.0000000000e+00 0.0000000000e+00
1.0000000000e+00 1.0000000000e-01 0.0000000000e+00

CELLS 20 80
3 0 2 1
3 16 18 17
3 11 9 8
3 16 17 14
3 8 9 7
3 8 10 11
3 11 10 13
3 19 17 18
3 19 18 21
3 3 1 2
3 3 2 4
3 4 6 5
3 4 5 3
3 20 21 18
3 7 5 6
3 7 6 8
3 12 14 13
3 12 13 10
3 15 13 14
3 15 14 17

CELL_TYPES 20
5
5
5
5
5
5
5
5
5
5
5
5
5
5
5
5
5
5
5
5

POINT_DATA 22
VECTORS DISPLACEMENT_MEAN double
0.0000000000e+00 0.0000000000e+00 0.0000000000e+00
0.0000000000e+00 0.0000000000e+00 0.0000000000e+00
-3.6046872635e-08 -3.3718357214e-08 -7.3636912828e+19
3.5610435512e-08 -3.3729853455e-08 -7.3636912828e+19
-6.5977536596e-08 -1.3698739502e-07 -1.4727382566e+20
6.5524879823e-08 -1.3715548190e-07 -1.4727382566e+20
-9.2113155627e-08 -2.9673734724e-07 -2.2091073848e+20
9.1944895406e-08 -2.9702347216e-07 -2.2091073848e+20
-1.1459018045e-07 -5.0493609248e-07 -2.9454765131e+20
1.1544157259e-07 -5.0697888383e-07 -2.9454765131e+20
-1.3377419572e-07 -7.5765001898e-07 -3.6818456414e+20
1.3536537742e-07 -7.5751311773e-07 -3.6818456414e+20
-1.4995553247e-07 -1.0453350892e-06 -4.4182147697e+20
1.5104411726e-07 -1.0440140339e-06 -4.4182147697e+20
-1.6261175399e-07 -1.3598311283e-06 -5.1545838979e+20
1.6350843268e-07 -1.3607284344e-06 -5.1545838979e+20
-1.7155992422e-07 -1.6976840477e-06 -5.8909530262e+20
1.7250540954e-07 -1.6970975943e-06 -5.8909530262e+20
-1.7696060278e-07 -2.0487102659e-06 -6.6273221545e+20
1.7788425093e-07 -2.0490187616e-06 -6.6273221545e+20
-1.7904063224e-07 -2.4078896028e-06 -7.3636912828e+20
1.7956106867e-07 -2.4073086335e-06 -7.3636912828e+20
VECTORS DISPLACEMENT_STD double
0.0000000000e+00 0.0000000000e+00 0.0000000000e+00
0.0000000000e+00 0.0000000000e+00 0.0000000000e+00
2.6443377641e-08 2.4732683203e-08 1.5016872194e+20
2.6123429315e-08 2.4741185149e-08 1.5016872194e+20
4.8402979132e-08 1.0049074447e-07 3.0033744387e+20
4.8073787176e-08 1.0061534983e-07 3.0033744387e+20
6.7574483768e-08 2.1768800172e-07 4.5050616581e+20
6.7458794999e-08 2.1789801001e-07 4.5050616581e+20
8.4066277348e-08 3.7043124248e-07 6.0067488775e+20
8.4697985372e-08 3.7192949512e-07 6.0067488775e+20
9.8133073522e-08 5.5582589246e-07 7.5084360969e+20
9.9311962852e-08 5.5572883028e-07 7.5084360969e+20
1.1000155468e-07 7.6687313079e-07 9.0101233162e+20
1.1081332536e-07 7.6590506596e-07 9.0101233162e+20
1.1928906446e-07 9.9758711023e-07 1.0511810536e+21
1.1996321425e-07 9.9824684134e-07 1.0511810536e+21
1.2585267799e-07 1.2454433570e-06 1.2013497755e+21
1.2656563189e-07 1.2450127151e-06 1.2013497755e+21
1.2981887422e-07 1.5029634322e-06 1.3515184974e+21
1.3050865211e-07 1.5031877448e-06 1.3515184974e+21
1.3134223552e-07 1.7664655452e-06 1.5016872194e+21
1.3173273518e-07 1.7660323378e-06 1.5016872194e+21

CELL_DATA 20
SCALARS YOUNG_MODULUS_MEAN double 1
LOOKUP_TABLE default
2.3126787144e+11
2.3126787144e+11
2.3126787144e+11
2.3126787144e+11
2.3126787144e+11
2.3126787144e+11
2.3126787144e+11
2.3126787144e+11
2.3126787144e+11
2.3126787144e+11
2.3126787144e+11
2.3126787144e+11
2.3126787144e+11
2.3126787144e+11
2.3126787144e+11
2.3126787144e+11
2.3126787144e+11
2.3126787144e+11
2.3126787144e+11
2.3126787144e+11
SCALARS YOUNG_MODULUS_STD double 1
LOOKUP_TABLE default
1.0921120374e+11
1.0921120374e+11
1.0921120374e+11
1.0921120374e+11
1.0921120374e+11
1.0921120374e+11
1.0921120374e+11
1.0921120374e+11
1.0921120374e+11
1.0921120374e+11
1.0921120374e+11
1.0921120374e+11
1.0921120374e+11
1.0921120374e+11
1.0921120374e+11
1.0921120374e+11
1.0921120374e+11
1.0921120374e+11
1.0921120374e+11
1.0921120374e+11
