# vtk DataFile Version 4.2
SMC_aCS level 1, q = 0.0299
ASCII
DATASET UNSTRUCTURED_GRID
POINTS 22 double
0.0000000000e+00 0.0000000000e+00 0.0000000000e+00
0.0000000000e+00 1.0000000000e-01 0.0000000000e+00
1.0000000000e-01 0.0000000000e+00 0.0000000000e+00
1.0000000000e-01 1.0000000000e-01 0.0000000000e+00
2.0000000000e-01 0.0000000000e+00 0.0000000000e+00
2.0000000000e-01 1.0000000000e-01 0.0000000000e+00
3.0000000000e-01 0.0000000000e+00 0.0000000000e+00
3.0000000000e-01 1.0000000000e-01 0.0000000000e+00
4.0000000000e-01 0.0000000000e+00 0.0000000000e+00
4.0000000000e-01 1.0000000000e-01 0.0000000000e+00
5.0000000000e-01 0.0000000000e+00 0.0000000000e+00
5.0000000000e-01 1.0000000000e-01 0.0000000000e+00
6.0000000000e-01 0.0000000000e+00 0.0000000000e+00
6.0000000000e-01 1.0000000000e-01 0.0000000000e+00
7.0000000000e-01 0.0000000000e+00 0.0000000000e+00
7.0000000000e-01 1.0000000000e-01 0.0000000000e+00
8.0000000000e-01 0.0000000000e+00 0.0000000000e+00
8.0000000000e-01 1.0000000000e-01 0.0000000000e+00
9.0000000000e-01 0.0000000000e+00 0.0000000000e+00
9.0000000000e-01 1.0000000000e-01 0.0000000000e+00
1.0000000000e+00 0.0000000000e+00 0.0000000000e+00
1.0000000000e+00 1.0000000000e-01 0.0000000000e+00

CELLS 20 80
3 0 2 1
3 16 18 17
3 11 9 8
3 16 17 14
3 8 9 7
3 8 10 11
3 11 10 13
3 19 17 18
3 19 18 21
3 3 1 2
3 3 2 4
3 4 6 5
3 4 5 3
3 20 21 18
3 7 5 6
3 7 6 8
3 12 14 13
3 12 13 10
3 15 13 14
3 15 14 17

CELL_TYPES 20
5
5
5
5
5
5
5
5
5
5
5
5
5
5
5
5
5
5
5
5

POINT_DATA 22
VECTORS DISPLACEMENT_MEAN double
0.0000000000e+00 0.0000000000e+00 0.0000000000e+00
0.0000000000e+00 0.0000000000e+00 0.0000000000e+00
-2.4175006156e-08 -2.2617207889e-08 -1.3968239134e+20
2.3882579233e-08 -2.2624721060e-08 -1.3968239134e+20
-4.4243862910e-08 -9.1873005497e-08 -2.7936478269e+20
4.3936046439e-08 -9.1982093771e-08 -2.7936478269e+20
-6.1776820969e-08 -1.9899764767e-07 -4.1904717403e+20
6.1648524189e-08 -1.9918809348e-07 -4.1904717403e+20
-7.6853569004e-08 -3.3861397209e-07 -5.5872956537e+20
7.7406832790e-08 -3.3998567701e-07 -5.5872956537e+20
-8.9739159669e-08 -5.0810531602e-07 -6.9841195672e+20
9.0776495826e-08 -5.0800806827e-07 -6.9841195672e+20
-1.0059896643e-07 -7.0106063737e-07 -8.3809434806e+20
1.0129443484e-07 -7.0017132351e-07 -8.3809434806e+20
-1.0909028267e-07 -9.1201755676e-07 -9.7777673940e+20
1.0965597166e-07 -9.1261555487e-07 -9.7777673940e+20
-1.1509307270e-07 -1.1386316127e-06 -1.1174591307e+21
1.1568621093e-07 -1.1382429462e-06 -1.1174591307e+21
-1.1871590478e-07 -1.3740957632e-06 -1.2571415221e+21
1.1930179173e-07 -1.3743053186e-06 -1.2571415221e+21
-1.2012573589e-07 -1.6150373172e-06 -1.3968239134e+21
1.2044036872e-07 -1.6146486810e-06 -1.3968239134e+21
VECTORS DISPLACEMENT_STD double
0.0000000000e+00 0.0000000000e+00 0.0000000000e+00
0.0000000000e+00 0.0000000000e+00 0.0000000000e+00
3.5742223837e-09 3.3408020429e-09 1.8314435926e+20
3.5311435220e-09 3.3414226602e-09 1.8314435926e+20
6.5481055812e-09 1.3584591156e-08 3.6628871851e+20
6.5106239437e-09 1.3602674125e-08 3.6628871851e+20
9.1340776277e-09 2.9442714681e-08 5.4943307777e+20
9.1403460507e-09 2.9473819965e-08 5.4943307777e+20
1.1366950751e-08 5.0111457478e-08 7.3257743702e+20
1.1471630841e-08 5.0312379293e-08 7.3257743702e+20
1.3254985800e-08 7.5176230293e-08 9.1572179628e+20
1.3439767655e-08 7.5166002981e-08 9.1572179628e+20
1.4851596121e-08 1.0368361266e-07 1.0988661555e+21
1.4983582197e-08 1.0355203281e-07 1.0988661555e+21
1.6111709994e-08 1.3483427649e-07 1.2820105148e+21
1.6216054215e-08 1.3492319961e-07 1.2820105148e+21
1.6992944878e-08 1.6830183094e-07 1.4651548740e+21
1.7107047349e-08 1.6824584173e-07 1.4651548740e+21
1.7528811294e-08 2.0307326458e-07 1.6482992333e+21
1.7635625504e-08 2.0310345642e-07 1.6482992333e+21
1.7735819047e-08 2.3865182909e-07 1.8314435926e+21
1.7796686328e-08 2.3859117502e-07 1.8314435926e+21

CELL_DATA 20
SCALARS YOUNG_MODULUS_MEAN double 1
LOOKUP_TABLE default
2.4820726167e+11
2.4820726167e+11
2.4820726167e+11
2.4820726167e+11
2.4820726167e+11
2.4820726167e+11
2.4820726167e+11
2.4820726167e+11
2.4820726167e+11
2.4820726167e+11
2.4820726167e+11
2.4820726167e+11
2.4820726167e+11
2.4820726167e+11
2.4820726167e+11
2.4820726167e+11
2.4820726167e+11
2.4820726167e+11
2.4820726167e+11
2.4820726167e+11
SCALARS YOUNG_MODULUS_STD double 1
LOOKUP_TABLE default
3.7967124139e+10
3.7967124139e+10
3.7967124139e+10
3.7967124139e+10
3.7967124139e+10
3.7967124139e+10
3.7967124139e+10
3.7967124139e+10
3.7967124139e+10
3.7967124139e+10
3.7967124139e+10
3.7967124139e+10
3.7967124139e+10
3.7967124139e+10
3.7967124139e+10
3.7967124139e+10
3.7967124139e+10
3.7967124139e+10
3.7967124139e+10
3.7967124139e+10
