# vtk DataFile Version 4.2
posterior statistics, q = 1
ASCII
DATASET UNSTRUCTURED_GRID
POINTS 22 double
0.0000000000e+00 0.0000000000e+00 0.0000000000e+00
0.0000000000e+00 1.0000000000e-01 0.0000000000e+00
1.0000000000e-01 0.0000000000e+00 0.0000000000e+00
1.0000000000e-01 1.0000000000e-01 0.0000000000e+00
2.0000000000e-01 0.0000000000e+00 0.0000000000e+00
2.0000000000e-01 1.0000000000e-01 0.0000000000e+00
3.0000000000e-01 0.0000000000e+00 0.0000000000e+00
3.0000000000e-01 1.0000000000e-01 0.0000000000e+00
4.0000000000e-01 0.0000000000e+00 0.0000000000e+00
4.0000000000e-01 1.0000000000e-01 0.0000000000e+00
5.0000000000e-01 0.0000000000e+00 0.0000000000e+00
5.0000000000e-01 1.0000000000e-01 0.0000000000e+00
6.0000000000e-01 0.0000000000e+00 0.0000000000e+00
6.0000000000e-01 1.0000000000e-01 0.0000000000e+00
7.0000000000e-01 0.0000000000e+00 0.0000000000e+00
7.0000000000e-01 1.0000000000e-01 0.0000000000e+00
8.0000000000e-01 0.0000000000e+00 0.0000000000e+00
8.0000000000e-01 1.0000000000e-01 0.0000000000e+00
9.0000000000e-01 0.0000000000e+00 0.0000000000e+00
9.0000000000e-01 1.0000000000e-01 0.0000000000e+00
1.0000000000e+00 0.0000000000e+00 0.0000000000e+00
1.0000000000e+00 1.0000000000e-01 0.0000000000e+00

CELLS 20 80
3 0 2 1
3 16 18 17
3 11 9 8
3 16 17 14
3 8 9 7
3 8 10 11
3 11 10 13
3 19 17 18
3 19 18 21
3 3 1 2
3 3 2 4
3 4 6 5
3 4 5 3
3 20 21 18
3 7 5 6
3 7 6 8
3 12 14 13
3 12 13 10
3 15 13 14
3 15 14 17

CELL_TYPES 20
5
5
5
5
5
5
5
5
5
5
5
5
5
5
5
5
5
5
5
5

POINT_DATA 22
VECTORS DISPLACEMENT_MEAN double
0.0000000000e+00 0.0000000000e+00 0.0000000000e+00
0.0000000000e+00 0.0000000000e+00 0.0000000000e+00
-3.2183048146e-08 -3.0102471055e-08 5.8588504719e-22
3.1793399782e-08 -3.0112841169e-08 5.8588182754e-22
-5.8907804111e-08 -1.2230346043e-07 1.1717673961e-21
5.8505301602e-08 -1.2245473033e-07 1.1717620061e-21
-8.2241255555e-08 -2.6493540536e-07 1.7576504850e-21
8.2095252214e-08 -2.6519035338e-07 1.7576437409e-21
-1.0231075764e-07 -4.5082568627e-07 2.3435350368e-21
1.0307470872e-07 -4.5264837926e-07 2.3435292657e-21
-1.1943473260e-07 -6.7645483851e-07 2.9294265451e-21
1.2086151321e-07 -6.7633584077e-07 2.9294205871e-21
-1.3388148187e-07 -9.3330936671e-07 3.5153168521e-21
1.3486021515e-07 -9.3213111671e-07 3.5153097753e-21
-1.4518513923e-07 -1.2141019637e-06 4.1012025684e-21
1.4599565777e-07 -1.2149041893e-06 4.1011964087e-21
-1.5317658606e-07 -1.5157574442e-06 4.6870922794e-21
1.5403020218e-07 -1.5152335357e-06 4.6870870448e-21
-1.5799684841e-07 -1.8291715254e-06 5.2729824939e-21
1.5882974116e-07 -1.8294458434e-06 5.2729754548e-21
-1.5984981072e-07 -2.1498635414e-06 5.8588744010e-21
1.6032385383e-07 -2.1493419723e-06 5.8588647865e-21
VECTORS DISPLACEMENT_STD double
0.0000000000e+00 0.0000000000e+00 0.0000000000e+00
0.0000000000e+00 0.0000000000e+00 0.0000000000e+00
5.8712801484e-10 5.4917122804e-10 2.2280777296e-22
5.8001950637e-10 5.4936041410e-10 2.2280867011e-22
1.0746782570e-09 2.2312301683e-09 4.4561725848e-22
1.0673352453e-09 2.2339898445e-09 4.4561774610e-22
1.5003595959e-09 4.8333208808e-09 6.6841877292e-22
1.4976959995e-09 4.8379719978e-09 6.6841926747e-22
1.8664954221e-09 8.2245904432e-09 8.9121918848e-22
1.8804324822e-09 8.2578425490e-09 8.9122139717e-22
2.1788948374e-09 1.2340831877e-08 1.1140190327e-21
2.2049241576e-09 1.2338660954e-08 1.1140209979e-21
2.4424525706e-09 1.7026730135e-08 1.3368159301e-21
2.4603079871e-09 1.7005234857e-08 1.3368176692e-21
2.6486696410e-09 2.2149340004e-08 1.5596095345e-21
2.6634562498e-09 2.2163975321e-08 1.5596120216e-21
2.7944607511e-09 2.7652559668e-08 1.7824023555e-21
2.8100336059e-09 2.7643001799e-08 1.7824058474e-21
2.8823986944e-09 3.3370296115e-08 2.0051955190e-21
2.8975934846e-09 3.3375300606e-08 2.0051995224e-21
2.9162030151e-09 3.9220806790e-08 2.2279894598e-21
2.9248511702e-09 3.9211291599e-08 2.2279939388e-21

CELL_DATA 20
SCALARS YOUNG_MODULUS_MEAN double 1
LOOKUP_TABLE default
1.8236359842e+11
1.8236359842e+11
1.8236359842e+11
1.8236359842e+11
1.8236359842e+11
1.8236359842e+11
1.8236359842e+11
1.8236359842e+11
1.8236359842e+11
1.8236359842e+11
1.8236359842e+11
1.8236359842e+11
1.8236359842e+11
1.8236359842e+11
1.8236359842e+11
1.8236359842e+11
1.8236359842e+11
1.8236359842e+11
1.8236359842e+11
1.8236359842e+11
SCALARS YOUNG_MODULUS_STD double 1
LOOKUP_TABLE default
3.3374892521e+09
3.3374892521e+09
3.3374892521e+09
3.3374892521e+09
3.3374892521e+09
3.3374892521e+09
3.3374892521e+09
3.3374892521e+09
3.3374892521e+09
3.3374892521e+09
3.3374892521e+09
3.3374892521e+09
3.3374892521e+09
3.3374892521e+09
3.3374892521e+09
3.3374892521e+09
3.3374892521e+09
3.3374892521e+09
3.3374892521e+09
3.3374892521e+09
