# vtk DataFile Version 4.2
SMC_aCS level 2, q = 0.2168
ASCII
DATASET UNSTRUCTURED_GRID
POINTS 22 double
0.0000000000e+00 0.0000000000e+00 0.0000000000e+00
0.0000000000e+00 1.0000000000e-01 0.0000000000e+00
1.0000000000e-01 0.0000000000e+00 0.0000000000e+00
1.0000000000e-01 1.0000000000e-01 0.0000000000e+00
2.0000000000e-01 0.0000000000e+00 0.0000000000e+00
2.0000000000e-01 1.0000000000e-01 0.0000000000e+00
3.0000000000e-01 0.0000000000e+00 0.0000000000e+00
3.0000000000e-01 1.0000000000e-01 0.0000000000e+00
4.0000000000e-01 0.0000000000e+00 0.0000000000e+00
4.0000000000e-01 1.0000000000e-01 0.0000000000e+00
5.0000000000e-01 0.0000000000e+00 0.0000000000e+00
5.0000000000e-01 1.0000000000e-01 0.0000000000e+00
6.0000000000e-01 0.0000000000e+00 0.0000000000e+00
6.0000000000e-01 1.0000000000e-01 0.0000000000e+00
7.0000000000e-01 0.0000000000e+00 0.0000000000e+00
7.0000000000e-01 1.0000000000e-01 0.0000000000e+00
8.0000000000e-01 0.0000000000e+00 0.0000000000e+00
8.0000000000e-01 1.0000000000e-01 0.0000000000e+00
9.0000000000e-01 0.0000000000e+00 0.0000000000e+00
9.0000000000e-01 1.0000000000e-01 0.0000000000e+00
1.0000000000e+00 0.0000000000e+00 0.0000000000e+00
1.0000000000e+00 1.0000000000e-01 0.0000000000e+00

CELLS 20 80
3 0 2 1
3 16 18 17
3 11 9 8
3 16 17 14
3 8 9 7
3 8 10 11
3 11 10 13
3 19 17 18
3 19 18 21
3 3 1 2
3 3 2 4
3 4 6 5
3 4 5 3
3 20 21 18
3 7 5 6
3 7 6 8
3 12 14 13
3 12 13 10
3 15 13 14
3 15 14 17

CELL_TYPES 20
5
5
5
5
5
5
5
5
5
5
5
5
5
5
5
5
5
5
5
5

POINT_DATA 22
VECTORS DISPLACEMENT_MEAN double
0.0000000000e+00 0.0000000000e+00 0.0000000000e+00
0.0000000000e+00 0.0000000000e+00 0.0000000000e+00
-3.2072091878e-08 -2.9998687914e-08 4.6053665978e-22
3.1683786890e-08 -3.0009022275e-08 4.6052915349e-22
-5.8704709922e-08 -1.2188179946e-07 9.2107425756e-22
5.8303595105e-08 -1.2203254782e-07 9.2106604343e-22
-8.1957715515e-08 -2.6402199767e-07 1.3816159007e-21
8.1812215544e-08 -2.6427606671e-07 1.3816063903e-21
-1.0195802475e-07 -4.4927139174e-07 1.8421556495e-21
1.0271934198e-07 -4.5108780071e-07 1.8421457583e-21
-1.1902296203e-07 -6.7412265096e-07 2.3027014524e-21
1.2044482358e-07 -6.7400406349e-07 2.3026914283e-21
-1.3341990379e-07 -9.3009163160e-07 2.7632491668e-21
1.3439526273e-07 -9.2891744381e-07 2.7632380394e-21
-1.4468458996e-07 -1.2099161507e-06 3.2237931800e-21
1.4549231411e-07 -1.2107156104e-06 3.2237819503e-21
-1.5264848499e-07 -1.5105316250e-06 3.6843404786e-21
1.5349915813e-07 -1.5100095228e-06 3.6843288474e-21
-1.5745212870e-07 -1.8228651605e-06 4.1448870298e-21
1.5828214992e-07 -1.8231385327e-06 4.1448739131e-21
-1.5929870262e-07 -2.1424515389e-06 4.6054348070e-21
1.5977111139e-07 -2.1419317679e-06 4.6054196511e-21
VECTORS DISPLACEMENT_STD double
0.0000000000e+00 0.0000000000e+00 0.0000000000e+00
0.0000000000e+00 0.0000000000e+00 0.0000000000e+00
1.2089664849e-09 1.1308089418e-09 3.3530418134e-22
1.1943292196e-09 1.1311984984e-09 3.3530284479e-22
2.2128904803e-09 4.5943685625e-09 6.7061096150e-22
2.1977703450e-09 4.6000510644e-09 6.7061003818e-22
3.0894190380e-09 9.9523831395e-09 1.0059154200e-21
3.0839343758e-09 9.9619603432e-09 1.0059151662e-21
3.8433362954e-09 1.6935410927e-08 1.3412216409e-21
3.8720343616e-09 1.7003880971e-08 1.3412220755e-21
4.4866038852e-09 2.5411242111e-08 1.6765279493e-21
4.5402013546e-09 2.5406771923e-08 1.6765281871e-21
5.0293006366e-09 3.5060064518e-08 2.0118327118e-21
5.0660670651e-09 3.5015803181e-08 2.0118330642e-21
5.4539261365e-09 4.5608128127e-08 2.3471350390e-21
5.4843735244e-09 4.5638263986e-08 2.3471358710e-21
5.7541273897e-09 5.6939912618e-08 2.6824372130e-21
5.7861937519e-09 5.6920231828e-08 2.6824387404e-21
5.9352020847e-09 6.8713412705e-08 3.0177390234e-21
5.9664899669e-09 6.8723717547e-08 3.0177408339e-21
6.0048092056e-09 8.0760310735e-08 3.3530408266e-21
6.0226167866e-09 8.0740717823e-08 3.3530428757e-21

CELL_DATA 20
SCALARS YOUNG_MODULUS_MEAN double 1
LOOKUP_TABLE default
1.8319396037e+11
1.8319396037e+11
1.8319396037e+11
1.8319396037e+11
1.8319396037e+11
1.8319396037e+11
1.8319396037e+11
1.8319396037e+11
1.8319396037e+11
1.8319396037e+11
1.8319396037e+11
1.8319396037e+11
1.8319396037e+11
1.8319396037e+11
1.8319396037e+11
1.8319396037e+11
1.8319396037e+11
1.8319396037e+11
1.8319396037e+11
1.8319396037e+11
SCALARS YOUNG_MODULUS_STD double 1
LOOKUP_TABLE default
6.9259397432e+09
6.9259397432e+09
6.9259397432e+09
6.9259397432e+09
6.9259397432e+09
6.9259397432e+09
6.9259397432e+09
6.9259397432e+09
6.9259397432e+09
6.9259397432e+09
6.9259397432e+09
6.9259397432e+09
6.9259397432e+09
6.9259397432e+09
6.9259397432e+09
6.9259397432e+09
6.9259397432e+09
6.9259397432e+09
6.9259397432e+09
6.9259397432e+09
