# vtk DataFile Version 4.2
SMC_aCS level 0, q = 0.0000
ASCII
DATASET UNSTRUCTURED_GRID
POINTS 22 double
0.0000000000e+00 0.0000000000e+00 0.0000000000e+00
0.0000000000e+00 1.0000000000e-01 0.0000000000e+00
1.0000000000e-01 0.0000000000e+00 0.0000000000e+00
1.0000000000e-01 1.0000000000e-01 0.0000000000e+00
2.0000000000e-01 0.0000000000e+00 0.0000000000e+00
2.0000000000e-01 1.0000000000e-01 0.0000000000e+00
3.0000000000e-01 0.0000000000e+00 0.0000000000e+00
3.0000000000e-01 1.0000000000e-01 0.0000000000e+00
4.0000000000e-01 0.0000000000e+00 0.0000000000e+00
4.0000000000e-01 1.0000000000e-01 0.0000000000e+00
5.0000000000e-01 0.0000000000e+00 0.0000000000e+00
5.0000000000e-01 1.0000000000e-01 0.0000000000e+00
6.0000000000e-01 0.0000000000e+00 0.0000000000e+00
6.0000000000e-01 1.0000000000e-01 0.0000000000e+00
7.0000000000e-01 0.0000000000e+00 0.0000000000e+00
7.0000000000e-01 1.0000000000e-01 0.0000000000e+00
8.0000000000e-01 0.0000000000e+00 0.0000000000e+00
8.0000000000e-01 1.0000000000e-01 0.0000000000e+00
9.0000000000e-01 0.0000000000e+00 0.0000000000e+00
9.0000000000e-01 1.0000000000e-01 0.0000000000e+00
1.0000000000e+00 0.0000000000e+00 0.0000000000e+00
1.0000000000e+00 1.0000000000e-01 0.0000000000e+00

CELLS 20 80
3 0 2 1
3 16 18 17
3 11 9 8
3 16 17 14
3 8 9 7
3 8 10 11
3 11 10 13
3 19 17 18
3 19 18 21
3 3 1 2
3 3 2 4
3 4 6 5
3 4 5 3
3 20 21 18
3 7 5 6
3 7 6 8
3 12 14 13
3 12 13 10
3 15 13 14
3 15 14 17

CELL_TYPES 20
5
5
5
5
5
5
5
5
5
5
5
5
5
5
5
5
5
5
5
5

POINT_DATA 22
VECTORS DISPLACEMENT_MEAN double
0.0000000000e+00 0.0000000000e+00 0.0000000000e+00
0.0000000000e+00 0.0000000000e+00 0.0000000000e+00
-3.4392217946e-08 -3.2168821939e-08 -8.8070343179e-23
3.3975822601e-08 -3.2179903898e-08 -8.8077641485e-23
-6.2951465273e-08 -1.3069884641e-07 -1.7613823865e-22
6.2521333424e-08 -1.3086050006e-07 -1.7614745669e-22
-8.7886615725e-08 -2.8312160370e-07 -2.6419925247e-22
8.7730590146e-08 -2.8339405234e-07 -2.6420779331e-22
-1.0933376662e-07 -4.8177211766e-07 -3.5226244089e-22
1.1015015828e-07 -4.8371992740e-07 -3.5227086538e-22
-1.2763319793e-07 -7.2288933390e-07 -4.4032289096e-22
1.2915791832e-07 -7.2276216769e-07 -4.4033161262e-22
-1.4307162835e-07 -9.9737535755e-07 -5.2838075758e-22
1.4411754570e-07 -9.9611622788e-07 -5.2838961007e-22
-1.5515121279e-07 -1.2974426523e-06 -6.1644046077e-22
1.5601736848e-07 -1.2982999457e-06 -6.1644953222e-22
-1.6369122366e-07 -1.6198049401e-06 -7.0449684802e-22
1.6460343532e-07 -1.6192450685e-06 -7.0450578010e-22
-1.6884236760e-07 -1.9547329849e-06 -7.9255534959e-22
1.6973243335e-07 -1.9550261331e-06 -7.9256416661e-22
-1.7082252445e-07 -2.2974385502e-06 -8.8061274413e-22
1.7132910773e-07 -2.2968811785e-06 -8.8062230147e-22
VECTORS DISPLACEMENT_STD double
0.0000000000e+00 0.0000000000e+00 0.0000000000e+00
0.0000000000e+00 0.0000000000e+00 0.0000000000e+00
2.3983257641e-08 2.2432782491e-08 5.6880641471e-23
2.3692886230e-08 2.2440510444e-08 5.6880276816e-23
4.3898919601e-08 9.1142249441e-08 1.1375901679e-22
4.3598969100e-08 9.1254977882e-08 1.1375920704e-22
6.1287333995e-08 1.9743356988e-07 1.7063165401e-22
6.1178530263e-08 1.9762356071e-07 1.7063344044e-22
7.6243407675e-08 3.3596160736e-07 2.2750570305e-22
7.6812714702e-08 3.3731990368e-07 2.2750723185e-22
8.9004433336e-08 5.0410360761e-07 2.8437826624e-22
9.0067690205e-08 5.0401492883e-07 2.8437990083e-22
9.9770352965e-08 6.9551519480e-07 3.4124955824e-22
1.0049971870e-07 6.9463714642e-07 3.4125238608e-22
1.0819399654e-07 9.0476576568e-07 3.9812197327e-22
1.0879800630e-07 9.0536359539e-07 3.9812508954e-22
1.1414933450e-07 1.1295636491e-06 4.5499302482e-22
1.1478546117e-07 1.1291732252e-06 4.5499684169e-22
1.1774146143e-07 1.3631242064e-06 5.1186352006e-22
1.1836214475e-07 1.3633286320e-06 5.1186811900e-22
1.1912231485e-07 1.6021083824e-06 5.6873432800e-22
1.1947557841e-07 1.6017197018e-06 5.6873954666e-22

CELL_DATA 20
SCALARS YOUNG_MODULUS_MEAN double 1
LOOKUP_TABLE default
2.3230374264e+11
2.3230374264e+11
2.3230374264e+11
2.3230374264e+11
2.3230374264e+11
2.3230374264e+11
2.3230374264e+11
2.3230374264e+11
2.3230374264e+11
2.3230374264e+11
2.3230374264e+11
2.3230374264e+11
2.3230374264e+11
2.3230374264e+11
2.3230374264e+11
2.3230374264e+11
2.3230374264e+11
2.3230374264e+11
2.3230374264e+11
2.3230374264e+11
SCALARS YOUNG_MODULUS_STD double 1
LOOKUP_TABLE default
1.0510188807e+11
1.0510188807e+11
1.0510188807e+11
1.0510188807e+11
1.0510188807e+11
1.0510188807e+11
1.0510188807e+11
1.0510188807e+11
1.0510188807e+11
1.0510188807e+11
1.0510188807e+11
1.0510188807e+11
1.0510188807e+11
1.0510188807e+11
1.0510188807e+11
1.0510188807e+11
1.0510188807e+11
1.0510188807e+11
1.0510188807e+11
1.0510188807e+11
