# vtk DataFile Version 4.2
SMC_aCS level 1, q = 0.0135
ASCII
DATASET UNSTRUCTURED_GRID
POINTS 22 double
0.0000000000e+00 0.0000000000e+00 0.0000000000e+00
0.0000000000e+00 1.0000000000e-01 0.0000000000e+00
1.0000000000e-01 0.0000000000e+00 0.0000000000e+00
1.0000000000e-01 1.0000000000e-01 0.0000000000e+00
2.0000000000e-01 0.0000000000e+00 0.0000000000e+00
2.0000000000e-01 1.0000000000e-01 0.0000000000e+00
3.0000000000e-01 0.0000000000e+00 0.0000000000e+00
3.0000000000e-01 1.0000000000e-01 0.0000000000e+00
4.0000000000e-01 0.0000000000e+00 0.0000000000e+00
4.0000000000e-01 1.0000000000e-01 0.0000000000e+00
5.0000000000e-01 0.0000000000e+00 0.0000000000e+00
5.0000000000e-01 1.0000000000e-01 0.0000000000e+00
6.0000000000e-01 0.0000000000e+00 0.0000000000e+00
6.0000000000e-01 1.0000000000e-01 0.0000000000e+00
7.0000000000e-01 0.0000000000e+00 0.0000000000e+00
7.0000000000e-01 1.0000000000e-01 0.0000000000e+00
8.0000000000e-01 0.0000000000e+00 0.0000000000e+00
8.0000000000e-01 1.0000000000e-01 0.0000000000e+00
9.0000000000e-01 0.0000000000e+00 0.0000000000e+00
9.0000000000e-01 1.0000000000e-01 0.0000000000e+00
1.0000000000e+00 0.0000000000e+00 0.0000000000e+00
1.0000000000e+00 1.0000000000e-01 0.0000000000e+00

CELLS 20 80
3 0 2 1
3 16 18 17
3 11 9 8
3 16 17 14
3 8 9 7
3 8 10 11
3 11 10 13
3 19 17 18
3 19 18 21
3 3 1 2
3 3 2 4
3 4 6 5
3 4 5 3
3 20 21 18
3 7 5 6
3 7 6 8
3 12 14 13
3 12 13 10
3 15 13 14
3 15 14 17

CELL_TYPES 20
5
5
5
5
5
5
5
5
5
5
5
5
5
5
5
5
5
5
5
5

POINT_DATA 22
VECTORS DISPLACEMENT_MEAN double
0.0000000000e+00 0.0000000000e+00 0.0000000000e+00
0.0000000000e+00 0.0000000000e+00 0.0000000000e+00
-3.0656255195e-08 -2.8674382566e-08 2.1792679788e-22
3.0285092102e-08 -2.8684260712e-08 2.1791921426e-22
-5.6113164534e-08 -1.1650127350e-07 4.3585589274e-22
5.5729757108e-08 -1.1664536702e-07 4.3584748199e-22
-7.8339655909e-08 -2.5236662979e-07 6.5378791549e-22
7.8200579098e-08 -2.5260948284e-07 6.5377849221e-22
-9.7457042643e-08 -4.2943810741e-07 8.7171732663e-22
9.8184751187e-08 -4.3117433020e-07 8.7170721870e-22
-1.1376864072e-07 -6.4436320833e-07 1.0896540837e-21
1.1512773357e-07 -6.4424985595e-07 1.0896440400e-21
-1.2753002312e-07 -8.8903232509e-07 1.3075928741e-21
1.2846232441e-07 -8.8790997234e-07 1.3075818909e-21
-1.3829742474e-07 -1.1565038670e-06 1.5255275533e-21
1.3906949154e-07 -1.1572680342e-06 1.5255167391e-21
-1.4590975009e-07 -1.4438485382e-06 1.7434667465e-21
1.4672286989e-07 -1.4433494844e-06 1.7434553787e-21
-1.5050133483e-07 -1.7423939716e-06 1.9614047089e-21
1.5129471439e-07 -1.7426552757e-06 1.9613921607e-21
-1.5226639092e-07 -2.0478720680e-06 2.1793439992e-21
1.5271794500e-07 -2.0473752425e-06 2.1793298519e-21
VECTORS DISPLACEMENT_STD double
0.0000000000e+00 0.0000000000e+00 0.0000000000e+00
0.0000000000e+00 0.0000000000e+00 0.0000000000e+00
5.0755273739e-09 4.7474035142e-09 3.4564929995e-22
5.0140766708e-09 4.7490389651e-09 3.4564914692e-22
9.2902378591e-09 1.9288246363e-08 6.9130091545e-22
9.2267599531e-09 1.9312102850e-08 6.9130146090e-22
1.2970112152e-08 4.1782459391e-08 1.0369505376e-21
1.2947086242e-08 4.1822666758e-08 1.0369511155e-21
1.6135235193e-08 7.1098862393e-08 1.3825974646e-21
1.6255716466e-08 7.1386315843e-08 1.3825982611e-21
1.8835824748e-08 1.0668240729e-07 1.7282433937e-21
1.9060839607e-08 1.0666364038e-07 1.7282436593e-21
2.1114194125e-08 1.4719044690e-07 2.0738882131e-21
2.1268548292e-08 1.4700462733e-07 2.0738884539e-21
2.2896872450e-08 1.9147371385e-07 2.4195316103e-21
2.3024697789e-08 1.9160023132e-07 2.4195323341e-21
2.4157188346e-08 2.3904722651e-07 2.7651746927e-21
2.4291810522e-08 2.3896460190e-07 2.7651754929e-21
2.4917382762e-08 2.8847516577e-07 3.1108191218e-21
2.5048736695e-08 2.8851842794e-07 3.1108193587e-21
2.5209609927e-08 3.3905089429e-07 3.4564635262e-21
2.5284370365e-08 3.3896863860e-07 3.4564633753e-21

CELL_DATA 20
SCALARS YOUNG_MODULUS_MEAN double 1
LOOKUP_TABLE default
1.9706237178e+11
1.9706237178e+11
1.9706237178e+11
1.9706237178e+11
1.9706237178e+11
1.9706237178e+11
1.9706237178e+11
1.9706237178e+11
1.9706237178e+11
1.9706237178e+11
1.9706237178e+11
1.9706237178e+11
1.9706237178e+11
1.9706237178e+11
1.9706237178e+11
1.9706237178e+11
1.9706237178e+11
1.9706237178e+11
1.9706237178e+11
1.9706237178e+11
SCALARS YOUNG_MODULUS_STD double 1
LOOKUP_TABLE default
3.5447175649e+10
3.5447175649e+10
3.5447175649e+10
3.5447175649e+10
3.5447175649e+10
3.5447175649e+10
3.5447175649e+10
3.5447175649e+10
3.5447175649e+10
3.5447175649e+10
3.5447175649e+10
3.5447175649e+10
3.5447175649e+10
3.5447175649e+10
3.5447175649e+10
3.5447175649e+10
3.5447175649e+10
3.5447175649e+10
3.5447175649e+10
3.5447175649e+10
