# vtk DataFile Version 4.2
posterior statistics, q = 1
ASCII
DATASET UNSTRUCTURED_GRID
POINTS 22 double
0.0000000000e+00 0.0000000000e+00 0.0000000000e+00
0.0000000000e+00 1.0000000000e-01 0.0000000000e+00
1.0000000000e-01 0.0000000000e+00 0.0000000000e+00
1.0000000000e-01 1.0000000000e-01 0.0000000000e+00
2.0000000000e-01 0.0000000000e+00 0.0000000000e+00
2.0000000000e-01 1.0000000000e-01 0.0000000000e+00
3.0000000000e-01 0.0000000000e+00 0.0000000000e+00
3.0000000000e-01 1.0000000000e-01 0.0000000000e+00
4.0000000000e-01 0.0000000000e+00 0.0000000000e+00
4.0000000000e-01 1.0000000000e-01 0.0000000000e+00
5.0000000000e-01 0.0000000000e+00 0.0000000000e+00
5.0000000000e-01 1.0000000000e-01 0.0000000000e+00
6.0000000000e-01 0.0000000000e+00 0.0000000000e+00
6.0000000000e-01 1.0000000000e-01 0.0000000000e+00
7.0000000000e-01 0.0000000000e+00 0.0000000000e+00
7.0000000000e-01 1.0000000000e-01 0.0000000000e+00
8.0000000000e-01 0.0000000000e+00 0.0000000000e+00
8.0000000000e-01 1.0000000000e-01 0.0000000000e+00
9.0000000000e-01 0.0000000000e+00 0.0000000000e+00
9.0000000000e-01 1.0000000000e-01 0.0000000000e+00
1.0000000000e+00 0.0000000000e+00 0.0000000000e+00
1.0000000000e+00 1.0000000000e-01 0.0000000000e+00

CELLS 20 80
3 0 2 1
3 16 18 17
3 11 9 8
3 16 17 14
3 8 9 7
3 8 10 11
3 11 10 13
3 19 17 18
3 19 18 21
3 3 1 2
3 3 2 4
3 4 6 5
3 4 5 3
3 20 21 18
3 7 5 6
3 7 6 8
3 12 14 13
3 12 13 10
3 15 13 14
3 15 14 17

CELL_TYPES 20
5
5
5
5
5
5
5
5
5
5
5
5
5
5
5
5
5
5
5
5

POINT_DATA 22
VECTORS DISPLACEMENT_MEAN double
0.0000000000e+00 0.0000000000e+00 0.0000000000e+00
0.0000000000e+00 0.0000000000e+00 0.0000000000e+00
-2.8839651748e-08 -2.6975219316e-08 3.8546132070e-22
2.8490482736e-08 -2.6984512111e-08 3.8545689950e-22
-5.2788056249e-08 -1.0959773575e-07 7.7092199002e-22
5.2427368469e-08 -1.0973329069e-07 7.7091584569e-22
-7.3697468269e-08 -2.3741209321e-07 1.1563815972e-21
7.3566632759e-08 -2.3764055548e-07 1.1563747211e-21
-9.1682012442e-08 -4.0399081318e-07 1.5418367227e-21
9.2366599025e-08 -4.0562415229e-07 1.5418306647e-21
-1.0702703110e-07 -6.0618005720e-07 1.9272987929e-21
1.0830558793e-07 -6.0607342176e-07 1.9272920002e-21
-1.1997295269e-07 -8.3635077035e-07 2.3127591745e-21
1.2085000843e-07 -8.3529492506e-07 2.3127517207e-21
-1.3010230838e-07 -1.0879727011e-06 2.6982177421e-21
1.3082862468e-07 -1.0886915859e-06 2.6982110454e-21
-1.3726354875e-07 -1.3582901354e-06 3.0836792717e-21
1.3802848535e-07 -1.3578206541e-06 3.0836738659e-21
-1.4158304909e-07 -1.6391446062e-06 3.4691409749e-21
1.4232941521e-07 -1.6393904262e-06 3.4691343009e-21
-1.4324351292e-07 -1.9265209299e-06 3.8546043104e-21
1.4366830918e-07 -1.9260535449e-06 3.8545956904e-21
VECTORS DISPLACEMENT_STD double
0.0000000000e+00 0.0000000000e+00 0.0000000000e+00
0.0000000000e+00 0.0000000000e+00 0.0000000000e+00
5.5550943900e-10 5.1959673716e-10 9.4374464330e-23
5.4878374468e-10 5.1977573499e-10 9.4376469425e-23
1.0168036622e-09 2.1110718408e-09 1.8874785526e-22
1.0098560933e-09 2.1136829003e-09 1.8874831707e-22
1.4195608051e-09 4.5730322913e-09 2.8311639954e-22
1.4170406512e-09 4.5774329319e-09 2.8311686407e-22
1.7659791368e-09 7.7816719824e-09 3.7748576337e-22
1.7791656451e-09 7.8131333641e-09 3.7748556221e-22
2.0615549218e-09 1.1676241671e-08 4.7185744098e-22
2.0861824864e-09 1.1674187659e-08 4.7185827614e-22
2.3109192935e-09 1.6109790482e-08 5.6623125163e-22
2.3278131432e-09 1.6089452788e-08 5.6623036102e-22
2.5060309663e-09 2.0956532697e-08 6.6060134760e-22
2.5200212726e-09 2.0970379858e-08 6.6060080850e-22
2.6439707950e-09 2.6163387745e-08 7.5497071626e-22
2.6587050056e-09 2.6154344596e-08 7.5497063844e-22
2.7271730206e-09 3.1573207215e-08 8.4934090259e-22
2.7415495266e-09 3.1577942199e-08 8.4934053383e-22
2.7591568789e-09 3.7108650629e-08 9.4371203871e-22
2.7673393053e-09 3.7099647859e-08 9.4371119492e-22

CELL_DATA 20
SCALARS YOUNG_MODULUS_MEAN double 1
LOOKUP_TABLE default
2.0351264415e+11
2.0351264415e+11
2.0351264415e+11
2.0351264415e+11
2.0351264415e+11
2.0351264415e+11
2.0351264415e+11
2.0351264415e+11
2.0351264415e+11
2.0351264415e+11
2.0351264415e+11
2.0351264415e+11
2.0351264415e+11
2.0351264415e+11
2.0351264415e+11
2.0351264415e+11
2.0351264415e+11
2.0351264415e+11
2.0351264415e+11
2.0351264415e+11
SCALARS YOUNG_MODULUS_STD double 1
LOOKUP_TABLE default
3.9193044604e+09
3.9193044604e+09
3.9193044604e+09
3.9193044604e+09
3.9193044604e+09
3.9193044604e+09
3.9193044604e+09
3.9193044604e+09
3.9193044604e+09
3.9193044604e+09
3.9193044604e+09
3.9193044604e+09
3.9193044604e+09
3.9193044604e+09
3.9193044604e+09
3.9193044604e+09
3.9193044604e+09
3.9193044604e+09
3.9193044604e+09
3.9193044604e+09
