# vtk DataFile Version 4.2
SMC_aCS level 0, q = 0.0000
ASCII
DATASET UNSTRUCTURED_GRID
POINTS 22 double
0.0000000000e+00 0.0000000000e+00 0.0000000000e+00
0.0000000000e+00 1.0000000000e-01 0.0000000000e+00
1.0000000000e-01 0.0000000000e+00 0.0000000000e+00
1.0000000000e-01 1.0000000000e-01 0.0000000000e+00
2.0000000000e-01 0.0000000000e+00 0.0000000000e+00
2.0000000000e-01 1.0000000000e-01 0.0000000000e+00
3.0000000000e-01 0.0000000000e+00 0.0000000000e+00
3.0000000000e-01 1.0000000000e-01 0.0000000000e+00
4.0000000000e-01 0.0000000000e+00 0.0000000000e+00
4.0000000000e-01 1.0000000000e-01 0.0000000000e+00
5.0000000000e-01 0.0000000000e+00 0.0000000000e+00
5.0000000000e-01 1.0000000000e-01 0.0000000000e+00
6.0000000000e-01 0.0000000000e+00 0.0000000000e+00
6.0000000000e-01 1.0000000000e-01 0.0000000000e+00
7.0000000000e-01 0.0000000000e+00 0.0000000000e+00
7.0000000000e-01 1.0000000000e-01 0.0000000000e+00
8.0000000000e-01 0.0000000000e+00 0.0000000000e+00
8.0000000000e-01 1.0000000000e-01 0.0000000000e+00
9.0000000000e-01 0.0000000000e+00 0.0000000000e+00
9.0000000000e-01 1.0000000000e-01 0.0000000000e+00
1.0000000000e+00 0.0000000000e+00 0.0000000000e+00
1.0000000000e+00 1.0000000000e-01 0.0000000000e+00

CELLS 20 80
3 0 2 1
3 16 18 17
3 11 9 8
3 16 17 14
3 8 9 7
3 8 10 11
3 11 10 13
3 19 17 18
3 19 18 21
3 3 1 2
3 3 2 4
3 4 6 5
3 4 5 3
3 20 21 18
3 7 5 6
3 7 6 8
3 12 14 13
3 12 13 10
3 15 13 14
3 15 14 17

CELL_TYPES 20
5
5
5
5
5
5
5
5
5
5
5
5
5
5
5
5
5
5
5
5

POINT_DATA 22
VECTORS DISPLACEMENT_MEAN double
0.0000000000e+00 0.0000000000e+00 0.0000000000e+00
0.0000000000e+00 0.0000000000e+00 0.0000000000e+00
-3.5576153421e-08 -3.3276218081e-08 7.1152180024e-23
3.5145423867e-08 -3.3287681530e-08 7.1143278009e-23
-6.5118539028e-08 -1.3519809101e-07 1.4230270906e-22
6.4673600098e-08 -1.3536530951e-07 1.4229239701e-22
-9.0912069978e-08 -2.9286792802e-07 2.1344910630e-22
9.0750673294e-08 -2.9314975557e-07 2.1343820918e-22
-1.1309752868e-07 -4.9835688987e-07 2.8458881934e-22
1.1394202422e-07 -5.0037175203e-07 2.8457721124e-22
-1.3202690906e-07 -7.4777444970e-07 3.5573256501e-22
1.3360411721e-07 -7.4764290586e-07 3.5572036326e-22
-1.4799679998e-07 -1.0317095220e-06 4.2687008568e-22
1.4907872253e-07 -1.0304070474e-06 4.2685744286e-22
-1.6049221827e-07 -1.3421064883e-06 4.9800186541e-22
1.6138819095e-07 -1.3429932936e-06 4.9798899989e-22
-1.6932621489e-07 -1.6755659420e-06 5.6913843395e-22
1.7026982899e-07 -1.6749867970e-06 5.6912472519e-22
-1.7465468446e-07 -2.0220237227e-06 6.4027294841e-22
1.7557539030e-07 -2.0223269624e-06 6.4025828092e-22
-1.7670300726e-07 -2.3765267614e-06 7.1140822319e-22
1.7722702943e-07 -2.3759502025e-06 7.1139273704e-22
VECTORS DISPLACEMENT_STD double
0.0000000000e+00 0.0000000000e+00 0.0000000000e+00
0.0000000000e+00 0.0000000000e+00 0.0000000000e+00
2.6537323798e-08 2.4821732792e-08 8.0785416704e-23
2.6216029657e-08 2.4830283724e-08 8.0785553269e-23
4.8573878547e-08 1.0084832600e-07 1.6156675604e-22
4.8241985205e-08 1.0097305931e-07 1.6156769503e-22
6.7814049754e-08 2.1845900381e-07 2.4233945713e-22
6.7693659109e-08 2.1866922747e-07 2.4233938320e-22
8.4362851254e-08 3.7173940637e-07 3.2311184148e-22
8.4992785900e-08 3.7324235270e-07 3.2311044614e-22
9.8482845920e-08 5.5778747255e-07 4.0388631946e-22
9.9659332960e-08 5.5768935003e-07 4.0388406474e-22
1.1039526830e-07 7.6958319037e-07 4.8465614809e-22
1.1120230690e-07 7.6861163536e-07 4.8465322955e-22
1.1971597696e-07 1.0011176315e-06 5.6542424008e-22
1.2038430996e-07 1.0017791263e-06 5.6542119588e-22
1.2630552097e-07 1.2498550763e-06 6.4619074700e-22
1.2700939114e-07 1.2494230746e-06 6.4618659318e-22
1.3028018683e-07 1.5082883645e-06 7.2695688868e-22
1.3096696903e-07 1.5085145601e-06 7.2695155419e-22
1.3180809247e-07 1.7727228528e-06 8.0772282180e-22
1.3219897638e-07 1.7722927801e-06 8.0771650603e-22

CELL_DATA 20
SCALARS YOUNG_MODULUS_MEAN double 1
LOOKUP_TABLE default
2.3336536471e+11
2.3336536471e+11
2.3336536471e+11
2.3336536471e+11
2.3336536471e+11
2.3336536471e+11
2.3336536471e+11
2.3336536471e+11
2.3336536471e+11
2.3336536471e+11
2.3336536471e+11
2.3336536471e+11
2.3336536471e+11
2.3336536471e+11
2.3336536471e+11
2.3336536471e+11
2.3336536471e+11
2.3336536471e+11
2.3336536471e+11
2.3336536471e+11
SCALARS YOUNG_MODULUS_STD double 1
LOOKUP_TABLE default
1.0902023020e+11
1.0902023020e+11
1.0902023020e+11
1.0902023020e+11
1.0902023020e+11
1.0902023020e+11
1.0902023020e+11
1.0902023020e+11
1.0902023020e+11
1.0902023020e+11
1.0902023020e+11
1.0902023020e+11
1.0902023020e+11
1.0902023020e+11
1.0902023020e+11
1.0902023020e+11
1.0902023020e+11
1.0902023020e+11
1.0902023020e+11
1.0902023020e+11
