# vtk DataFile Version 4.2
SMC_aCS level 2, q = 0.0248
ASCII
DATASET UNSTRUCTURED_GRID
POINTS 22 double
0.0000000000e+00 0.0000000000e+00 0.0000000000e+00
0.0000000000e+00 1.0000000000e-01 0.0000000000e+00
1.0000000000e-01 0.0000000000e+00 0.0000000000e+00
1.0000000000e-01 1.0000000000e-01 0.0000000000e+00
2.0000000000e-01 0.0000000000e+00 0.0000000000e+00
2.0000000000e-01 1.0000000000e-01 0.0000000000e+00
3.0000000000e-01 0.0000000000e+00 0.0000000000e+00
3.0000000000e-01 1.0000000000e-01 0.0000000000e+00
4.0000000000e-01 0.0000000000e+00 0.0000000000e+00
4.0000000000e-01 1.0000000000e-01 0.0000000000e+00
5.0000000000e-01 0.0000000000e+00 0.0000000000e+00
5.0000000000e-01 1.0000000000e-01 0.0000000000e+00
6.0000000000e-01 0.0000000000e+00 0.0000000000e+00
6.0000000000e-01 1.0000000000e-01 0.0000000000e+00
7.0000000000e-01 0.0000000000e+00 0.0000000000e+00
7.0000000000e-01 1.0000000000e-01 0.0000000000e+00
8.0000000000e-01 0.0000000000e+00 0.0000000000e+00
8.0000000000e-01 1.0000000000e-01 0.0000000000e+00
9.0000000000e-01 0.0000000000e+00 0.0000000000e+00
9.0000000000e-01 1.0000000000e-01 0.0000000000e+00
1.0000000000e+00 0.0000000000e+00 0.0000000000e+00
1.0000000000e+00 1.0000000000e-01 0.0000000000e+00

CELLS 20 80
3 0 2 1
3 16 18 17
3 11 9 8
3 16 17 14
3 8 9 7
3 8 10 11
3 11 10 13
3 19 17 18
3 19 18 21
3 3 1 2
3 3 2 4
3 4 6 5
3 4 5 3
3 20 21 18
3 7 5 6
3 7 6 8
3 12 14 13
3 12 13 10
3 15 13 14
3 15 14 17

CELL_TYPES 20
5
5
5
5
5
5
5
5
5
5
5
5
5
5
5
5
5
5
5
5

POINT_DATA 22
VECTORS DISPLACEMENT_MEAN double
0.0000000000e+00 0.0000000000e+00 0.0000000000e+00
0.0000000000e+00 0.0000000000e+00 0.0000000000e+00
-2.8221179242e-08 -2.6396729963e-08 4.4398030208e-23
2.7879498235e-08 -2.6405823471e-08 4.4391022980e-23
-5.1656005082e-08 -1.0724738885e-07 8.8792954830e-23
5.1303052329e-08 -1.0738003678e-07 8.8786645733e-23
-7.2117010285e-08 -2.3232074005e-07 1.3319003581e-22
7.1988980570e-08 -2.3254430289e-07 1.3318324129e-22
-8.9715872058e-08 -3.9532714370e-07 1.7758542030e-22
9.0385777535e-08 -3.9692545551e-07 1.7757880278e-22
-1.0473181351e-07 -5.9318039610e-07 2.2198639448e-22
1.0598295141e-07 -5.9307604748e-07 2.2197913864e-22
-1.1740010703e-07 -8.1841504903e-07 2.6638544826e-22
1.1825835413e-07 -8.1738184657e-07 2.6637763661e-22
-1.2731223652e-07 -1.0646408936e-06 3.1078176944e-22
1.2802297681e-07 -1.0653443618e-06 3.1077413596e-22
-1.3431990256e-07 -1.3291613127e-06 3.5518130091e-22
1.3506843493e-07 -1.3287018995e-06 3.5517321638e-22
-1.3854677029e-07 -1.6039927992e-06 3.9958013235e-22
1.3927713043e-07 -1.6042333475e-06 3.9957094128e-22
-1.4017162512e-07 -1.8852062761e-06 4.4397963413e-22
1.4058731153e-07 -1.8847489143e-06 4.4396884346e-22
VECTORS DISPLACEMENT_STD double
0.0000000000e+00 0.0000000000e+00 0.0000000000e+00
0.0000000000e+00 0.0000000000e+00 0.0000000000e+00
9.2587748932e-10 8.6602114867e-10 6.1298588895e-23
9.1466765466e-10 8.6631948755e-10 6.1297557173e-23
1.6947247981e-09 3.5185610874e-09 1.2259469423e-22
1.6831451612e-09 3.5229129868e-09 1.2259457963e-22
2.3660073113e-09 7.6219544786e-09 1.8388992450e-22
2.3618069258e-09 7.6292891048e-09 1.8388891362e-22
2.9433889229e-09 1.2969851477e-08 2.4518748917e-22
2.9653671116e-09 1.3022288723e-08 2.4518694168e-22
3.4360303554e-09 1.9461000235e-08 3.0648525811e-22
3.4770775566e-09 1.9457576776e-08 3.0648479768e-22
3.8516504011e-09 2.6850475110e-08 3.6778175782e-22
3.8798076817e-09 2.6816577912e-08 3.6778086131e-22
4.1768465059e-09 3.4928626799e-08 4.2907793320e-22
4.2001643989e-09 3.4951706110e-08 4.2907726261e-22
4.4067532785e-09 4.3606984971e-08 4.9037381885e-22
4.4313110501e-09 4.3591912592e-08 4.9037289692e-22
4.5454279117e-09 5.2623627564e-08 5.5166918795e-22
4.5693894906e-09 5.2631519446e-08 5.5166802687e-22
4.5987359787e-09 6.1849649825e-08 6.1296465132e-22
4.6123737748e-09 6.1834644747e-08 6.1296320901e-22

CELL_DATA 20
SCALARS YOUNG_MODULUS_MEAN double 1
LOOKUP_TABLE default
2.0811913405e+11
2.0811913405e+11
2.0811913405e+11
2.0811913405e+11
2.0811913405e+11
2.0811913405e+11
2.0811913405e+11
2.0811913405e+11
2.0811913405e+11
2.0811913405e+11
2.0811913405e+11
2.0811913405e+11
2.0811913405e+11
2.0811913405e+11
2.0811913405e+11
2.0811913405e+11
2.0811913405e+11
2.0811913405e+11
2.0811913405e+11
2.0811913405e+11
SCALARS YOUNG_MODULUS_STD double 1
LOOKUP_TABLE default
6.8268056397e+09
6.8268056397e+09
6.8268056397e+09
6.8268056397e+09
6.8268056397e+09
6.8268056397e+09
6.8268056397e+09
6.8268056397e+09
6.8268056397e+09
6.8268056397e+09
6.8268056397e+09
6.8268056397e+09
6.8268056397e+09
6.8268056397e+09
6.8268056397e+09
6.8268056397e+09
6.8268056397e+09
6.8268056397e+09
6.8268056397e+09
6.8268056397e+09
