# vtk DataFile Version 4.2
SMC_aCS level 3, q = 0.5079
ASCII
DATASET UNSTRUCTURED_GRID
POINTS 22 double
0.0000000000e+00 0.0000000000e+00 0.0000000000e+00
0.0000000000e+00 1.0000000000e-01 0.0000000000e+00
1.0000000000e-01 0.0000000000e+00 0.0000000000e+00
1.0000000000e-01 1.0000000000e-01 0.0000000000e+00
2.0000000000e-01 0.0000000000e+00 0.0000000000e+00
2.0000000000e-01 1.0000000000e-01 0.0000000000e+00
3.0000000000e-01 0.0000000000e+00 0.0000000000e+00
3.0000000000e-01 1.0000000000e-01 0.0000000000e+00
4.0000000000e-01 0.0000000000e+00 0.0000000000e+00
4.0000000000e-01 1.0000000000e-01 0.0000000000e+00
5.0000000000e-01 0.0000000000e+00 0.0000000000e+00
5.0000000000e-01 1.0000000000e-01 0.0000000000e+00
6.0000000000e-01 0.0000000000e+00 0.0000000000e+00
6.0000000000e-01 1.0000000000e-01 0.0000000000e+00
7.0000000000e-01 0.0000000000e+00 0.0000000000e+00
7.0000000000e-01 1.0000000000e-01 0.0000000000e+00
8.0000000000e-01 0.0000000000e+00 0.0000000000e+00
8.0000000000e-01 1.0000000000e-01 0.0000000000e+00
9.0000000000e-01 0.0000000000e+00 0.0000000000e+00
9.0000000000e-01 1.0000000000e-01 0.0000000000e+00
1.0000000000e+00 0.0000000000e+00 0.0000000000e+00
1.0000000000e+00 1.0000000000e-01 0.0000000000e+00

CELLS 20 80
3 0 2 1
3 16 18 17
3 11 9 8
3 16 17 14
3 8 9 7
3 8 10 11
3 11 10 13
3 19 17 18
3 19 18 21
3 3 1 2
3 3 2 4
3 4 6 5
3 4 5 3
3 20 21 18
3 7 5 6
3 7 6 8
3 12 14 13
3 12 13 10
3 15 13 14
3 15 14 17

CELL_TYPES 20
5
5
5
5
5
5
5
5
5
5
5
5
5
5
5
5
5
5
5
5

POINT_DATA 22
VECTORS DISPLACEMENT_MEAN double
0.0000000000e+00 0.0000000000e+00 0.0000000000e+00
0.0000000000e+00 0.0000000000e+00 0.0000000000e+00
-2.8276609527e-08 -2.6448576778e-08 -9.3863636194e-24
2.7934257411e-08 -2.6457688147e-08 -9.3899909803e-24
-5.1757464594e-08 -1.0745803750e-07 -1.8771240344e-23
5.1403818593e-08 -1.0759094597e-07 -1.8777392148e-23
-7.2258658030e-08 -2.3277705000e-07 -2.8150610026e-23
7.2130376848e-08 -2.3300105195e-07 -2.8157919020e-23
-8.9892086393e-08 -3.9610362069e-07 -3.7533047901e-23
9.0563307657e-08 -3.9770507179e-07 -3.7539851672e-23
-1.0493752122e-07 -5.9434548413e-07 -4.6911364609e-23
1.0619111653e-07 -5.9424093056e-07 -4.6918901762e-23
-1.1763069702e-07 -8.2002252896e-07 -5.6293188989e-23
1.1849062983e-07 -8.1898729715e-07 -5.6300416112e-23
-1.2756229530e-07 -1.0667319950e-06 -6.5677481028e-23
1.2827443158e-07 -1.0674368449e-06 -6.5683468905e-23
-1.3458372536e-07 -1.3317719686e-06 -7.5059052548e-23
1.3533372795e-07 -1.3313116531e-06 -7.5064955101e-23
-1.3881889524e-07 -1.6071432621e-06 -8.4439827509e-23
1.3955068991e-07 -1.6073842829e-06 -8.4447358315e-23
-1.4044694151e-07 -1.8889090810e-06 -9.3819644250e-23
1.4086344438e-07 -1.8884508209e-06 -9.3829311216e-23
VECTORS DISPLACEMENT_STD double
0.0000000000e+00 0.0000000000e+00 0.0000000000e+00
0.0000000000e+00 0.0000000000e+00 0.0000000000e+00
2.0048665625e-10 1.8752554883e-10 7.9282570040e-23
1.9805931322e-10 1.8759015021e-10 7.9281063539e-23
3.6697048146e-10 7.6189836705e-10 1.5855749381e-22
3.6446306259e-10 7.6284071394e-10 1.5855655078e-22
5.1232792671e-10 1.6504345176e-09 2.3783585841e-22
5.1141838820e-10 1.6520227350e-09 2.3783391381e-22
6.3735236032e-10 2.8084516414e-09 3.1711351323e-22
6.4211144952e-10 2.8198062409e-09 3.1711231370e-22
7.4402741687e-10 4.2140249755e-09 3.9639218135e-22
7.5291565122e-10 4.2132836704e-09 3.9639024548e-22
8.3402449984e-10 5.8141190768e-09 4.7566961321e-22
8.4012159054e-10 5.8067790821e-09 4.7566884006e-22
9.0444146151e-10 7.5633371314e-09 5.5494659878e-22
9.0949064615e-10 7.5683346543e-09 5.5494625137e-22
9.5422476503e-10 9.4425220470e-09 6.3422336651e-22
9.5954242917e-10 9.4392583207e-09 6.3422160065e-22
9.8425294247e-10 1.1394958028e-08 7.1349841904e-22
9.8944150887e-10 1.1396666912e-08 7.1349726240e-22
9.9579610690e-10 1.3392732436e-08 7.9277268554e-22
9.9874919320e-10 1.3389483283e-08 7.9277211114e-22

CELL_DATA 20
SCALARS YOUNG_MODULUS_MEAN double 1
LOOKUP_TABLE default
2.0749850481e+11
2.0749850481e+11
2.0749850481e+11
2.0749850481e+11
2.0749850481e+11
2.0749850481e+11
2.0749850481e+11
2.0749850481e+11
2.0749850481e+11
2.0749850481e+11
2.0749850481e+11
2.0749850481e+11
2.0749850481e+11
2.0749850481e+11
2.0749850481e+11
2.0749850481e+11
2.0749850481e+11
2.0749850481e+11
2.0749850481e+11
2.0749850481e+11
SCALARS YOUNG_MODULUS_STD double 1
LOOKUP_TABLE default
1.4712905059e+09
1.4712905059e+09
1.4712905059e+09
1.4712905059e+09
1.4712905059e+09
1.4712905059e+09
1.4712905059e+09
1.4712905059e+09
1.4712905059e+09
1.4712905059e+09
1.4712905059e+09
1.4712905059e+09
1.4712905059e+09
1.4712905059e+09
1.4712905059e+09
1.4712905059e+09
1.4712905059e+09
1.4712905059e+09
1.4712905059e+09
1.4712905059e+09
