# vtk DataFile Version 4.2
SMC_aCS level 1, q = 0.0205
ASCII
DATASET UNSTRUCTURED_GRID
POINTS 22 double
0.0000000000e+00 0.0000000000e+00 0.0000000000e+00
0.0000000000e+00 1.0000000000e-01 0.0000000000e+00
1.0000000000e-01 0.0000000000e+00 0.0000000000e+00
1.0000000000e-01 1.0000000000e-01 0.0000000000e+00
2.0000000000e-01 0.0000000000e+00 0.0000000000e+00
2.0000000000e-01 1.0000000000e-01 0.0000000000e+00
3.0000000000e-01 0.0000000000e+00 0.0000000000e+00
3.0000000000e-01 1.0000000000e-01 0.0000000000e+00
4.0000000000e-01 0.0000000000e+00 0.0000000000e+00
4.0000000000e-01 1.0000000000e-01 0.0000000000e+00
5.0000000000e-01 0.0000000000e+00 0.0000000000e+00
5.0000000000e-01 1.0000000000e-01 0.0000000000e+00
6.0000000000e-01 0.0000000000e+00 0.0000000000e+00
6.0000000000e-01 1.0000000000e-01 0.0000000000e+00
7.0000000000e-01 0.0000000000e+00 0.0000000000e+00
7.0000000000e-01 1.0000000000e-01 0.0000000000e+00
8.0000000000e-01 0.0000000000e+00 0.0000000000e+00
8.0000000000e-01 1.0000000000e-01 0.0000000000e+00
9.0000000000e-01 0.0000000000e+00 0.0000000000e+00
9.0000000000e-01 1.0000000000e-01 0.0000000000e+00
1.0000000000e+00 0.0000000000e+00 0.0000000000e+00
1.0000000000e+00 1.0000000000e-01 0.0000000000e+00

CELLS 20 80
3 0 2 1
3 16 18 17
3 11 9 8
3 16 17 14
3 8 9 7
3 8 10 11
3 11 10 13
3 19 17 18
3 19 18 21
3 3 1 2
3 3 2 4
3 4 6 5
3 4 5 3
3 20 21 18
3 7 5 6
3 7 6 8
3 12 14 13
3 12 13 10
3 15 13 14
3 15 14 17

CELL_TYPES 20
5
5
5
5
5
5
5
5
5
5
5
5
5
5
5
5
5
5
5
5

POINT_DATA 22
VECTORS DISPLACEMENT_MEAN double
0.0000000000e+00 0.0000000000e+00 0.0000000000e+00
0.0000000000e+00 0.0000000000e+00 0.0000000000e+00
-2.7081794883e-08 -2.5331004786e-08 5.4711640601e-22
2.6753908692e-08 -2.5339731159e-08 5.4710715595e-22
-4.9570477623e-08 -1.0291744939e-07 1.0942304965e-21
4.9231774765e-08 -1.0304474188e-07 1.0942216615e-21
-6.9205402913e-08 -2.2294116682e-07 1.6413476122e-21
6.9082542190e-08 -2.2315570367e-07 1.6413376742e-21
-8.6093739174e-08 -3.7936645119e-07 2.1884651508e-21
8.6736598303e-08 -3.8090023375e-07 2.1884552724e-21
-1.0050343633e-07 -5.6923169929e-07 2.7355892227e-21
1.0170406157e-07 -5.6913156358e-07 2.7355788351e-21
-1.1266026805e-07 -7.8537286827e-07 3.2827149192e-21
1.1348386480e-07 -7.8438137968e-07 3.2827037467e-21
-1.2217221137e-07 -1.0216577435e-06 3.8298356073e-21
1.2285425668e-07 -1.0223328103e-06 3.8298247165e-21
-1.2889695426e-07 -1.2754985795e-06 4.3769595963e-21
1.2961526585e-07 -1.2750577144e-06 4.3769479528e-21
-1.3295316906e-07 -1.5392341904e-06 4.9240814828e-21
1.3365404209e-07 -1.5394650269e-06 4.9240688776e-21
-1.3451242301e-07 -1.8090941291e-06 5.4712046990e-21
1.3491132675e-07 -1.8086552325e-06 5.4711905894e-21
VECTORS DISPLACEMENT_STD double
0.0000000000e+00 0.0000000000e+00 0.0000000000e+00
0.0000000000e+00 0.0000000000e+00 0.0000000000e+00
3.9436316370e-09 3.6886828329e-09 2.9109935526e-22
3.8958850839e-09 3.6899535611e-09 2.9110237768e-22
7.2184175627e-09 1.4986765507e-08 5.8219990134e-22
7.1690958943e-09 1.5005301748e-08 5.8220187503e-22
1.0077641366e-08 3.2464533552e-08 8.7329975494e-22
1.0059750475e-08 3.2495774256e-08 8.7330086774e-22
1.2536908835e-08 5.5243071789e-08 1.1644018952e-21
1.2630521523e-08 5.5466420110e-08 1.1644035280e-21
1.4635238648e-08 8.2891113671e-08 1.4555035244e-21
1.4810072838e-08 8.2876531980e-08 1.4555047932e-21
1.6405507804e-08 1.1436543639e-07 1.7466052847e-21
1.6525439375e-08 1.1422105653e-07 1.7466068402e-21
1.7790630200e-08 1.4877307124e-07 2.0377078999e-21
1.7889949151e-08 1.4887137399e-07 2.0377088755e-21
1.8769882458e-08 1.8573719256e-07 2.3288107744e-21
1.8874482480e-08 1.8567299410e-07 2.3288113688e-21
1.9360545561e-08 2.2414218393e-07 2.6199140139e-21
1.9462606192e-08 2.2417579818e-07 2.6199142197e-21
1.9587603009e-08 2.6343899554e-07 2.9110178037e-21
1.9645691087e-08 2.6337508374e-07 2.9110175086e-21

CELL_DATA 20
SCALARS YOUNG_MODULUS_MEAN double 1
LOOKUP_TABLE default
2.2158272969e+11
2.2158272969e+11
2.2158272969e+11
2.2158272969e+11
2.2158272969e+11
2.2158272969e+11
2.2158272969e+11
2.2158272969e+11
2.2158272969e+11
2.2158272969e+11
2.2158272969e+11
2.2158272969e+11
2.2158272969e+11
2.2158272969e+11
2.2158272969e+11
2.2158272969e+11
2.2158272969e+11
2.2158272969e+11
2.2158272969e+11
2.2158272969e+11
SCALARS YOUNG_MODULUS_STD double 1
LOOKUP_TABLE default
3.4779416865e+10
3.4779416865e+10
3.4779416865e+10
3.4779416865e+10
3.4779416865e+10
3.4779416865e+10
3.4779416865e+10
3.4779416865e+10
3.4779416865e+10
3.4779416865e+10
3.4779416865e+10
3.4779416865e+10
3.4779416865e+10
3.4779416865e+10
3.4779416865e+10
3.4779416865e+10
3.4779416865e+10
3.4779416865e+10
3.4779416865e+10
3.4779416865e+10
