# vtk DataFile Version 4.2
posterior statistics, q = 1
ASCII
DATASET UNSTRUCTURED_GRID
POINTS 22 double
0.0000000000e+00 0.0000000000e+00 0.0000000000e+00
0.0000000000e+00 1.0000000000e-01 0.0000000000e+00
1.0000000000e-01 0.0000000000e+00 0.0000000000e+00
1.0000000000e-01 1.0000000000e-01 0.0000000000e+00
2.0000000000e-01 0.0000000000e+00 0.0000000000e+00
2.0000000000e-01 1.0000000000e-01 0.0000000000e+00
3.0000000000e-01 0.0000000000e+00 0.0000000000e+00
3.0000000000e-01 1.0000000000e-01 0.0000000000e+00
4.0000000000e-01 0.0000000000e+00 0.0000000000e+00
4.0000000000e-01 1.0000000000e-01 0.0000000000e+00
5.0000000000e-01 0.0000000000e+00 0.0000000000e+00
5.0000000000e-01 1.0000000000e-01 0.0000000000e+00
6.0000000000e-01 0.0000000000e+00 0.0000000000e+00
6.0000000000e-01 1.0000000000e-01 0.0000000000e+00
7.0000000000e-01 0.0000000000e+00 0.0000000000e+00
7.0000000000e-01 1.0000000000e-01 0.0000000000e+00
8.0000000000e-01 0.0000000000e+00 0.0000000000e+00
8.0000000000e-01 1.0000000000e-01 0.0000000000e+00
9.0000000000e-01 0.0000000000e+00 0.0000000000e+00
9.0000000000e-01 1.0000000000e-01 0.0000000000e+00
1.0000000000e+00 0.0000000000e+00 0.0000000000e+00
1.0000000000e+00 1.0000000000e-01 0.0000000000e+00

CELLS 20 80
3 0 2 1
3 16 18 17
3 11 9 8
3 16 17 14
3 8 9 7
3 8 10 11
3 11 10 13
3 19 17 18
3 19 18 21
3 3 1 2
3 3 2 4
3 4 6 5
3 4 5 3
3 20 21 18
3 7 5 6
3 7 6 8
3 12 14 13
3 12 13 10
3 15 13 14
3 15 14 17

CELL_TYPES 20
5
5
5
5
5
5
5
5
5
5
5
5
5
5
5
5
5
5
5
5

POINT_DATA 22
VECTORS DISPLACEMENT_MEAN double
0.0000000000e+00 0.0000000000e+00 0.0000000000e+00
0.0000000000e+00 0.0000000000e+00 0.0000000000e+00
-3.4303771433e-08 -3.2086093336e-08 -4.9210266860e-21
3.3888446932e-08 -3.2097146795e-08 -4.9210310315e-21
-6.2789572905e-08 -1.3036272801e-07 -9.8420559964e-21
6.2360547226e-08 -1.3052396594e-07 -9.8420629818e-21
-8.7660597596e-08 -2.8239349949e-07 -1.4763085132e-20
8.7504973268e-08 -2.8266524747e-07 -1.4763093293e-20
-1.0905259283e-07 -4.8053314365e-07 -1.9684113858e-20
1.0986688496e-07 -4.8247594421e-07 -1.9684122237e-20
-1.2730496346e-07 -7.2103027842e-07 -2.4605137600e-20
1.2882576273e-07 -7.2090343924e-07 -2.4605145765e-20
-1.4270369085e-07 -9.9481040598e-07 -2.9526160329e-20
1.4374691841e-07 -9.9355451442e-07 -2.9526170204e-20
-1.5475221020e-07 -1.2941060173e-06 -3.4447191841e-20
1.5561613840e-07 -1.2949611060e-06 -3.4447200933e-20
-1.6327025872e-07 -1.6156392855e-06 -3.9368223182e-20
1.6418012444e-07 -1.6150808537e-06 -3.9368231142e-20
-1.6840815545e-07 -1.9497059954e-06 -4.4289254613e-20
1.6929593222e-07 -1.9499983897e-06 -4.4289264514e-20
-1.7038321993e-07 -2.2915302243e-06 -4.9210284164e-20
1.7088850043e-07 -2.2909742860e-06 -4.9210296410e-20
VECTORS DISPLACEMENT_STD double
0.0000000000e+00 0.0000000000e+00 0.0000000000e+00
0.0000000000e+00 0.0000000000e+00 0.0000000000e+00
5.3784926069e-10 5.0307825812e-10 1.1443151646e-21
5.3133738266e-10 5.0325156544e-10 1.1443181130e-21
9.8447849771e-10 2.0439588405e-09 2.2886308978e-21
9.7775179873e-10 2.0464868920e-09 2.2886341618e-21
1.3744316044e-09 4.4276512051e-09 3.4329441964e-21
1.3719915687e-09 4.4319119451e-09 3.4329487725e-21
1.7098369648e-09 7.5342851603e-09 4.5772549577e-21
1.7226042614e-09 7.5647463546e-09 4.5772571736e-21
1.9960161120e-09 1.1305042740e-08 5.7215628109e-21
2.0198607426e-09 1.1303054027e-08 5.7215639483e-21
2.2374529509e-09 1.5597644779e-08 6.8658731076e-21
2.2538097289e-09 1.5577953639e-08 6.8658749638e-21
2.4263618364e-09 2.0290304406e-08 8.0101869618e-21
2.4399073774e-09 2.0303711353e-08 8.0101886149e-21
2.5599164255e-09 2.5331628534e-08 9.1545001806e-21
2.5741822214e-09 2.5322872875e-08 9.1545014187e-21
2.6404735724e-09 3.0569464650e-08 1.0298812714e-20
2.6543930355e-09 3.0574049104e-08 1.0298813966e-20
2.6714406331e-09 3.5928931004e-08 1.1443124641e-20
2.6793629324e-09 3.5920214441e-08 1.1443126417e-20

CELL_DATA 20
SCALARS YOUNG_MODULUS_MEAN double 1
LOOKUP_TABLE default
1.7107450238e+11
1.7107450238e+11
1.7107450238e+11
1.7107450238e+11
1.7107450238e+11
1.7107450238e+11
1.7107450238e+11
1.7107450238e+11
1.7107450238e+11
1.7107450238e+11
1.7107450238e+11
1.7107450238e+11
1.7107450238e+11
1.7107450238e+11
1.7107450238e+11
1.7107450238e+11
1.7107450238e+11
1.7107450238e+11
1.7107450238e+11
1.7107450238e+11
SCALARS YOUNG_MODULUS_STD double 1
LOOKUP_TABLE default
2.6827037812e+09
2.6827037812e+09
2.6827037812e+09
2.6827037812e+09
2.6827037812e+09
2.6827037812e+09
2.6827037812e+09
2.6827037812e+09
2.6827037812e+09
2.6827037812e+09
2.6827037812e+09
2.6827037812e+09
2.6827037812e+09
2.6827037812e+09
2.6827037812e+09
2.6827037812e+09
2.6827037812e+09
2.6827037812e+09
2.6827037812e+09
2.6827037812e+09
