# vtk DataFile Version 4.2
SMC_aCS level 0, q = 0.0000
ASCII
DATASET UNSTRUCTURED_GRID
POINTS 22 double
0.0000000000e+00 0.0000000000e+00 0.0000000000e+00
0.0000000000e+00 1.0000000000e-01 0.0000000000e+00
1.0000000000e-01 0.0000000000e+00 0.0000000000e+00
1.0000000000e-01 1.0000000000e-01 0.0000000000e+00
2.0000000000e-01 0.0000000000e+00 0.0000000000e+00
2.0000000000e-01 1.0000000000e-01 0.0000000000e+00
3.0000000000e-01 0.0000000000e+00 0.0000000000e+00
3.0000000000e-01 1.0000000000e-01 0.0000000000e+00
4.0000000000e-01 0.0000000000e+00 0.0000000000e+00
4.0000000000e-01 1.0000000000e-01 0.0000000000e+00
5.0000000000e-01 0.0000000000e+00 0.0000000000e+00
5.0000000000e-01 1.0000000000e-01 0.0000000000e+00
6.0000000000e-01 0.0000000000e+00 0.0000000000e+00
6.0000000000e-01 1.0000000000e-01 0.0000000000e+00
7.0000000000e-01 0.0000000000e+00 0.0000000000e+00
7.0000000000e-01 1.0000000000e-01 0.0000000000e+00
8.0000000000e-01 0.0000000000e+00 0.0000000000e+00
8.0000000000e-01 1.0000000000e-01 0.0000000000e+00
9.0000000000e-01 0.0000000000e+00 0.0000000000e+00
9.0000000000e-01 1.0000000000e-01 0.0000000000e+00
1.0000000000e+00 0.0000000000e+00 0.0000000000e+00
1.0000000000e+00 1.0000000000e-01 0.0000000000e+00

CELLS 20 80
3 0 2 1
3 16 18 17
3 11 9 8
3 16 17 14
3 8 9 7
3 8 10 11
3 11 10 13
3 19 17 18
3 19 18 21
3 3 1 2
3 3 2 4
3 4 6 5
3 4 5 3
3 20 21 18
3 7 5 6
3 7 6 8
3 12 14 13
3 12 13 10
3 15 13 14
3 15 14 17

CELL_TYPES 20
5
5
5
5
5
5
5
5
5
5
5
5
5
5
5
5
5
5
5
5

POINT_DATA 22
VECTORS DISPLACEMENT_MEAN double
0.0000000000e+00 0.0000000000e+00 0.0000000000e+00
0.0000000000e+00 0.0000000000e+00 0.0000000000e+00
-3.6814157817e-08 -3.4434187685e-08 -2.9235111370e-22
3.6368439429e-08 -3.4446050048e-08 -2.9235725956e-22
-6.7384580460e-08 -1.3990281074e-07 -5.8470289165e-22
6.6924158227e-08 -1.4007584823e-07 -5.8471040345e-22
-9.4075693123e-08 -3.0305935536e-07 -8.7706042932e-22
9.3908680041e-08 -3.0335099015e-07 -8.7706789852e-22
-1.1703317726e-07 -5.1569906888e-07 -1.1694236133e-21
1.1790706016e-07 -5.1778404564e-07 -1.1694313961e-21
-1.3662127574e-07 -7.7379603910e-07 -1.4617813225e-21
1.3825336871e-07 -7.7365991770e-07 -1.4617892286e-21
-1.5314689833e-07 -1.0676116868e-06 -1.7541357635e-21
1.5426647039e-07 -1.0662638878e-06 -1.7541440599e-21
-1.6607714111e-07 -1.3888100684e-06 -2.0464923151e-21
1.6700429249e-07 -1.3897277335e-06 -2.0465005067e-21
-1.7521854946e-07 -1.7338734824e-06 -2.3388481626e-21
1.7619500011e-07 -1.7332741840e-06 -2.3388566011e-21
-1.8073244292e-07 -2.0923875485e-06 -2.6312082368e-21
1.8168518813e-07 -2.0927013405e-06 -2.6312167118e-21
-1.8285204472e-07 -2.4592268371e-06 -2.9235676200e-21
1.8339430218e-07 -2.4586302146e-06 -2.9235768330e-21
VECTORS DISPLACEMENT_STD double
0.0000000000e+00 0.0000000000e+00 0.0000000000e+00
0.0000000000e+00 0.0000000000e+00 0.0000000000e+00
2.7615961797e-08 2.5830638754e-08 4.0856681035e-22
2.7281608311e-08 2.5839537248e-08 4.0856914547e-22
5.0548215958e-08 1.0494741441e-07 8.1713141406e-22
5.0202832455e-08 1.0507721764e-07 8.1713438445e-22
7.0570424568e-08 2.2733850442e-07 1.2256928439e-21
7.0445140515e-08 2.2755727284e-07 1.2256955772e-21
8.7791869860e-08 3.8684915340e-07 1.6342542944e-21
8.8447408876e-08 3.8841318860e-07 1.6342580476e-21
1.0248578686e-07 5.8045934285e-07 2.0428116504e-21
1.0371009348e-07 5.8035723204e-07 2.0428150565e-21
1.1488240243e-07 8.0086372486e-07 2.4513695336e-21
1.1572224398e-07 7.9985267996e-07 2.4513726179e-21
1.2458196129e-07 1.0418091318e-06 2.8599301302e-21
1.2527745940e-07 1.0424975138e-06 2.8599323296e-21
1.3143934439e-07 1.3006567769e-06 3.2684900859e-21
1.3217182411e-07 1.3002072161e-06 3.2684919601e-21
1.3557556481e-07 1.5695943634e-06 3.6770498058e-21
1.3629026201e-07 1.5698297530e-06 3.6770516895e-21
1.3716557381e-07 1.8447770752e-06 4.0856089074e-21
1.3757234561e-07 1.8443295217e-06 4.0856108552e-21

CELL_DATA 20
SCALARS YOUNG_MODULUS_MEAN double 1
LOOKUP_TABLE default
2.2800136256e+11
2.2800136256e+11
2.2800136256e+11
2.2800136256e+11
2.2800136256e+11
2.2800136256e+11
2.2800136256e+11
2.2800136256e+11
2.2800136256e+11
2.2800136256e+11
2.2800136256e+11
2.2800136256e+11
2.2800136256e+11
2.2800136256e+11
2.2800136256e+11
2.2800136256e+11
2.2800136256e+11
2.2800136256e+11
2.2800136256e+11
2.2800136256e+11
SCALARS YOUNG_MODULUS_STD double 1
LOOKUP_TABLE default
1.0890414419e+11
1.0890414419e+11
1.0890414419e+11
1.0890414419e+11
1.0890414419e+11
1.0890414419e+11
1.0890414419e+11
1.0890414419e+11
1.0890414419e+11
1.0890414419e+11
1.0890414419e+11
1.0890414419e+11
1.0890414419e+11
1.0890414419e+11
1.0890414419e+11
1.0890414419e+11
1.0890414419e+11
1.0890414419e+11
1.0890414419e+11
1.0890414419e+11
