# vtk DataFile Version 4.2
SMC_aCS level 2, q = 0.1531
ASCII
DATASET UNSTRUCTURED_GRID
POINTS 22 double
0.0000000000e+00 0.0000000000e+00 0.0000000000e+00
0.0000000000e+00 1.0000000000e-01 0.0000000000e+00
1.0000000000e-01 0.0000000000e+00 0.0000000000e+00
1.0000000000e-01 1.0000000000e-01 0.0000000000e+00
2.0000000000e-01 0.0000000000e+00 0.0000000000e+00
2.0000000000e-01 1.0000000000e-01 0.0000000000e+00
3.0000000000e-01 0.0000000000e+00 0.0000000000e+00
3.0000000000e-01 1.0000000000e-01 0.0000000000e+00
4.0000000000e-01 0.0000000000e+00 0.0000000000e+00
4.0000000000e-01 1.0000000000e-01 0.0000000000e+00
5.0000000000e-01 0.0000000000e+00 0.0000000000e+00
5.0000000000e-01 1.0000000000e-01 0.0000000000e+00
6.0000000000e-01 0.0000000000e+00 0.0000000000e+00
6.0000000000e-01 1.0000000000e-01 0.0000000000e+00
7.0000000000e-01 0.0000000000e+00 0.0000000000e+00
7.0000000000e-01 1.0000000000e-01 0.0000000000e+00
8.0000000000e-01 0.0000000000e+00 0.0000000000e+00
8.0000000000e-01 1.0000000000e-01 0.0000000000e+00
9.0000000000e-01 0.0000000000e+00 0.0000000000e+00
9.0000000000e-01 1.0000000000e-01 0.0000000000e+00
1.0000000000e+00 0.0000000000e+00 0.0000000000e+00
1.0000000000e+00 1.0000000000e-01 0.0000000000e+00

CELLS 20 80
3 0 2 1
3 16 18 17
3 11 9 8
3 16 17 14
3 8 9 7
3 8 10 11
3 11 10 13
3 19 17 18
3 19 18 21
3 3 1 2
3 3 2 4
3 4 6 5
3 4 5 3
3 20 21 18
3 7 5 6
3 7 6 8
3 12 14 13
3 12 13 10
3 15 13 14
3 15 14 17

CELL_TYPES 20
5
5
5
5
5
5
5
5
5
5
5
5
5
5
5
5
5
5
5
5

POINT_DATA 22
VECTORS DISPLACEMENT_MEAN double
0.0000000000e+00 0.0000000000e+00 0.0000000000e+00
0.0000000000e+00 0.0000000000e+00 0.0000000000e+00
-3.4244125964e-08 -3.2030303841e-08 -4.5732060034e-21
3.3829523606e-08 -3.2041338081e-08 -4.5732139091e-21
-6.2680397925e-08 -1.3013606063e-07 -9.1464105853e-21
6.2252118212e-08 -1.3029701820e-07 -9.1464207819e-21
-8.7508178277e-08 -2.8190248954e-07 -1.3719612217e-20
8.7352824540e-08 -2.8217376503e-07 -1.3719622725e-20
-1.0886297831e-07 -4.7969761963e-07 -1.8292812240e-20
1.0967585460e-07 -4.8163704216e-07 -1.8292822538e-20
-1.2708361275e-07 -7.1977659150e-07 -2.2866007779e-20
1.2860176773e-07 -7.1964997287e-07 -2.2866017946e-20
-1.4245556569e-07 -9.9308068557e-07 -2.7439202453e-20
1.4349697935e-07 -9.9182697769e-07 -2.7439213858e-20
-1.5448313576e-07 -1.2918558985e-06 -3.2012405046e-20
1.5534556181e-07 -1.2927095004e-06 -3.2012416186e-20
-1.6298637357e-07 -1.6128301027e-06 -3.6585605576e-20
1.6389465727e-07 -1.6122726419e-06 -3.6585616514e-20
-1.6811533682e-07 -1.9463159562e-06 -4.1158807721e-20
1.6900156997e-07 -1.9466078421e-06 -4.1158819632e-20
-1.7008696717e-07 -2.2875458404e-06 -4.5732008258e-20
1.7059136911e-07 -2.2869908687e-06 -4.5732021407e-20
VECTORS DISPLACEMENT_STD double
0.0000000000e+00 0.0000000000e+00 0.0000000000e+00
0.0000000000e+00 0.0000000000e+00 0.0000000000e+00
1.4218643178e-09 1.3299433067e-09 1.6931227340e-21
1.4046494442e-09 1.3304014639e-09 1.6931268216e-21
2.6025783613e-09 5.4034324388e-09 3.3862438926e-21
2.5847955847e-09 5.4101156238e-09 3.3862481596e-21
3.6334627533e-09 1.1704988219e-08 5.0793580728e-21
3.6270122474e-09 1.1716251959e-08 5.0793627607e-21
4.5201441132e-09 1.9917720470e-08 6.7724683093e-21
4.5538958812e-09 1.9998248024e-08 6.7724732889e-21
5.2766905056e-09 2.9886137358e-08 8.4655723828e-21
5.3397264378e-09 2.9880879974e-08 8.4655760026e-21
5.9149556319e-09 4.1234108092e-08 1.0158673862e-20
5.9581965931e-09 4.1182052376e-08 1.0158678593e-20
6.4143572731e-09 5.3639675537e-08 1.1851779344e-20
6.4501664167e-09 5.3675118292e-08 1.1851784253e-20
6.7674236777e-09 6.6966976356e-08 1.3544883431e-20
6.8051368954e-09 6.6943829798e-08 1.3544888261e-20
6.9803854520e-09 8.0813778463e-08 1.5237987403e-20
7.0171831001e-09 8.0825897977e-08 1.5237992667e-20
7.0622503198e-09 9.4982123626e-08 1.6931090934e-20
7.0831937987e-09 9.4959080421e-08 1.6931096836e-20

CELL_DATA 20
SCALARS YOUNG_MODULUS_MEAN double 1
LOOKUP_TABLE default
1.7162743633e+11
1.7162743633e+11
1.7162743633e+11
1.7162743633e+11
1.7162743633e+11
1.7162743633e+11
1.7162743633e+11
1.7162743633e+11
1.7162743633e+11
1.7162743633e+11
1.7162743633e+11
1.7162743633e+11
1.7162743633e+11
1.7162743633e+11
1.7162743633e+11
1.7162743633e+11
1.7162743633e+11
1.7162743633e+11
1.7162743633e+11
1.7162743633e+11
SCALARS YOUNG_MODULUS_STD double 1
LOOKUP_TABLE default
7.1756037820e+09
7.1756037820e+09
7.1756037820e+09
7.1756037820e+09
7.1756037820e+09
7.1756037820e+09
7.1756037820e+09
7.1756037820e+09
7.1756037820e+09
7.1756037820e+09
7.1756037820e+09
7.1756037820e+09
7.1756037820e+09
7.1756037820e+09
7.1756037820e+09
7.1756037820e+09
7.1756037820e+09
7.1756037820e+09
7.1756037820e+09
7.1756037820e+09
