# vtk DataFile Version 4.2
SMC_aCS level 1, q = 0.0100
ASCII
DATASET UNSTRUCTURED_GRID
POINTS 22 double
0.0000000000e+00 0.0000000000e+00 0.0000000000e+00
0.0000000000e+00 1.0000000000e-01 0.0000000000e+00
1.0000000000e-01 0.0000000000e+00 0.0000000000e+00
1.0000000000e-01 1.0000000000e-01 0.0000000000e+00
2.0000000000e-01 0.0000000000e+00 0.0000000000e+00
2.0000000000e-01 1.0000000000e-01 0.0000000000e+00
3.0000000000e-01 0.0000000000e+00 0.0000000000e+00
3.0000000000e-01 1.0000000000e-01 0.0000000000e+00
4.0000000000e-01 0.0000000000e+00 0.0000000000e+00
4.0000000000e-01 1.0000000000e-01 0.0000000000e+00
5.0000000000e-01 0.0000000000e+00 0.0000000000e+00
5.0000000000e-01 1.0000000000e-01 0.0000000000e+00
6.0000000000e-01 0.0000000000e+00 0.0000000000e+00
6.0000000000e-01 1.0000000000e-01 0.0000000000e+00
7.0000000000e-01 0.0000000000e+00 0.0000000000e+00
7.0000000000e-01 1.0000000000e-01 0.0000000000e+00
8.0000000000e-01 0.0000000000e+00 0.0000000000e+00
8.0000000000e-01 1.0000000000e-01 0.0000000000e+00
9.0000000000e-01 0.0000000000e+00 0.0000000000e+00
9.0000000000e-01 1.0000000000e-01 0.0000000000e+00
1.0000000000e+00 0.0000000000e+00 0.0000000000e+00
1.0000000000e+00 1.0000000000e-01 0.0000000000e+00

CELLS 20 80
3 0 2 1
3 16 18 17
3 11 9 8
3 16 17 14
3 8 9 7
3 8 10 11
3 11 10 13
3 19 17 18
3 19 18 21
3 3 1 2
3 3 2 4
3 4 6 5
3 4 5 3
3 20 21 18
3 7 5 6
3 7 6 8
3 12 14 13
3 12 13 10
3 15 13 14
3 15 14 17

CELL_TYPES 20
5
5
5
5
5
5
5
5
5
5
5
5
5
5
5
5
5
5
5
5

POINT_DATA 22
VECTORS DISPLACEMENT_MEAN double
0.0000000000e+00 0.0000000000e+00 0.0000000000e+00
0.0000000000e+00 0.0000000000e+00 0.0000000000e+00
-3.2380126150e-08 -3.0286808315e-08 -4.2797570152e-21
3.1988091713e-08 -3.0297241932e-08 -4.2797669484e-21
-5.9268535401e-08 -1.2305240509e-07 -8.5595162653e-21
5.8863568103e-08 -1.2320460131e-07 -8.5595266882e-21
-8.2744872939e-08 -2.6655777937e-07 -1.2839271850e-20
8.2597975523e-08 -2.6681428860e-07 -1.2839282986e-20
-1.0293727381e-07 -4.5358638892e-07 -1.7119027567e-20
1.0370590306e-07 -4.5542024347e-07 -1.7119037689e-20
-1.2016611015e-07 -6.8059721709e-07 -2.1398775925e-20
1.2160162788e-07 -6.8047749065e-07 -2.1398785820e-20
-1.3470132638e-07 -9.3902463477e-07 -2.5678522410e-20
1.3568605309e-07 -9.3783916957e-07 -2.5678533246e-20
-1.4607420348e-07 -1.2215367098e-06 -2.9958275817e-20
1.4688968536e-07 -1.2223438479e-06 -2.9958285514e-20
-1.5411458720e-07 -1.5250394255e-06 -3.4238026524e-20
1.5497343057e-07 -1.5245123087e-06 -3.4238036438e-20
-1.5896436719e-07 -1.8403727476e-06 -3.8517779764e-20
1.5980236029e-07 -1.8406487454e-06 -3.8517790104e-20
-1.6082867641e-07 -2.1630285721e-06 -4.2797532036e-20
1.6130562240e-07 -2.1625038090e-06 -4.2797542860e-20
VECTORS DISPLACEMENT_STD double
0.0000000000e+00 0.0000000000e+00 0.0000000000e+00
0.0000000000e+00 0.0000000000e+00 0.0000000000e+00
5.8223330378e-09 5.4459295139e-09 2.0105784309e-21
5.7518405682e-09 5.4478056026e-09 2.0105818582e-21
1.0657189851e-08 2.2126290682e-08 4.0211541027e-21
1.0584371898e-08 2.2153657378e-08 4.0211573302e-21
1.4878515457e-08 4.7930269269e-08 6.0317255180e-21
1.4852101549e-08 4.7976392689e-08 6.0317281607e-21
1.8509350067e-08 8.1560244870e-08 8.0422942051e-21
1.8647558778e-08 8.1889993799e-08 8.0422977770e-21
2.1607300413e-08 1.2237950044e-07 1.0052861729e-20
2.1865423629e-08 1.2235797220e-07 1.0052865636e-20
2.4220905723e-08 1.6884783367e-07 1.2063429659e-20
2.4397971336e-08 1.6863467288e-07 1.2063434043e-20
2.6265884726e-08 2.1964687566e-07 1.4073997346e-20
2.6412518099e-08 2.1979200873e-07 1.4074002064e-20
2.7711641657e-08 2.7422028530e-07 1.6084561843e-20
2.7866071943e-08 2.7412550342e-07 1.6084566636e-20
2.8583689966e-08 3.3092097914e-07 1.8095124571e-20
2.8734371124e-08 3.3097060684e-07 1.8095130002e-20
2.8918915007e-08 3.8893834627e-07 2.0105687154e-20
2.9004675588e-08 3.8884398761e-07 2.0105693114e-20

CELL_DATA 20
SCALARS YOUNG_MODULUS_MEAN double 1
LOOKUP_TABLE default
1.8756319263e+11
1.8756319263e+11
1.8756319263e+11
1.8756319263e+11
1.8756319263e+11
1.8756319263e+11
1.8756319263e+11
1.8756319263e+11
1.8756319263e+11
1.8756319263e+11
1.8756319263e+11
1.8756319263e+11
1.8756319263e+11
1.8756319263e+11
1.8756319263e+11
1.8756319263e+11
1.8756319263e+11
1.8756319263e+11
1.8756319263e+11
1.8756319263e+11
SCALARS YOUNG_MODULUS_STD double 1
LOOKUP_TABLE default
3.6995610254e+10
3.6995610254e+10
3.6995610254e+10
3.6995610254e+10
3.6995610254e+10
3.6995610254e+10
3.6995610254e+10
3.6995610254e+10
3.6995610254e+10
3.6995610254e+10
3.6995610254e+10
3.6995610254e+10
3.6995610254e+10
3.6995610254e+10
3.6995610254e+10
3.6995610254e+10
3.6995610254e+10
3.6995610254e+10
3.6995610254e+10
3.6995610254e+10
