# vtk DataFile Version 4.0
vtk output
ASCII
DATASET UNSTRUCTURED_GRID
POINTS 22 float
0.0000000e+00 0.0000000e+00 0.0000000e+00 
0.0000000e+00 1.0000000e-01 0.0000000e+00 
1.0000000e-01 0.0000000e+00 0.0000000e+00 
1.0000000e-01 1.0000000e-01 0.0000000e+00 
2.0000000e-01 0.0000000e+00 0.0000000e+00 
2.0000000e-01 1.0000000e-01 0.0000000e+00 
3.0000001e-01 0.0000000e+00 0.0000000e+00 
3.0000001e-01 1.0000000e-01 0.0000000e+00 
4.0000001e-01 0.0000000e+00 0.0000000e+00 
4.0000001e-01 1.0000000e-01 0.0000000e+00 
5.0000000e-01 0.0000000e+00 0.0000000e+00 
5.0000000e-01 1.0000000e-01 0.0000000e+00 
6.0000002e-01 0.0000000e+00 0.0000000e+00 
6.0000002e-01 1.0000000e-01 0.0000000e+00 
6.9999999e-01 0.0000000e+00 0.0000000e+00 
6.9999999e-01 1.0000000e-01 0.0000000e+00 
8.0000001e-01 0.0000000e+00 0.0000000e+00 
8.0000001e-01 1.0000000e-01 0.0000000e+00 
8.9999998e-01 0.0000000e+00 0.0000000e+00 
8.9999998e-01 1.0000000e-01 0.0000000e+00 
1.0000000e+00 0.0000000e+00 0.0000000e+00 
1.0000000e+00 1.0000000e-01 0.0000000e+00 

CELLS 20 80
3 0 2 1
3 16 18 17
3 11 9 8
3 16 17 14
3 8 9 7
3 8 10 11
3 11 10 13
3 19 17 18
3 19 18 21
3 3 1 2
3 3 2 4
3 4 6 5
3 4 5 3
3 20 21 18
3 7 5 6
3 7 6 8
3 12 14 13
3 12 13 10
3 15 13 14
3 15 14 17

CELL_TYPES 20
5
5
5
5
5
5
5
5
5
5
5
5
5
5
5
5
5
5
5
5
POINT_DATA 22
FIELD FieldData 2
DISPLACEMENT 3 22  float
0.0000000e+00 0.0000000e+00 0.0000000e+00 
0.0000000e+00 0.0000000e+00 0.0000000e+00 
-2.8356983e-08 -2.6523754e-08 1.5062516e-25 
2.8013657e-08 -2.6532890e-08 1.9704006e-25 
-5.1904578e-08 -1.0776347e-07 3.1905191e-25 
5.1549925e-08 -1.0789676e-07 3.5581034e-25 
-7.2464040e-08 -2.3343868e-07 4.8793488e-25 
7.2335396e-08 -2.3366333e-07 5.0870529e-25 
-9.0147594e-08 -3.9722948e-07 6.5769828e-25 
9.0820720e-08 -3.9883548e-07 6.6117573e-25 
-1.0523579e-07 -5.9603485e-07 8.1368320e-25 
1.0649295e-07 -5.9592998e-07 8.0151088e-25 
-1.1796504e-07 -8.2235334e-07 9.7107584e-25 
1.1882742e-07 -8.2131515e-07 9.4292751e-25 
-1.2792488e-07 -1.0697640e-06 1.1384970e-24 
1.2863903e-07 -1.0704708e-06 1.0940376e-24 
-1.3496626e-07 -1.3355574e-06 1.2967695e-24 
1.3571839e-07 -1.3350957e-06 1.2373597e-24 
-1.3921347e-07 -1.6117114e-06 1.4608891e-24 
1.3994735e-07 -1.6119531e-06 1.3865851e-24 
-1.4084614e-07 -1.8942781e-06 1.6218240e-24 
1.4126383e-07 -1.8938184e-06 1.5328486e-24 
REACTION 3 22  float
1.0000000e+03 3.0595880e+02 -2.4868996e-14 
-1.0000000e+03 -2.0595882e+02 4.0856207e-14 
3.8653525e-12 -7.9580786e-13 -1.5436263e-13 
-2.9558578e-12 -6.2527761e-13 1.1670526e-13 
-1.7038815e-11 -6.4233063e-12 -6.6259498e-14 
-1.0913936e-11 -4.1779913e-12 -2.4069635e-13 
8.1854523e-12 -1.7791990e-11 1.1546319e-13 
2.5153213e-12 4.5474735e-13 5.5955240e-14 
3.8539838e-11 -1.2462920e-11 1.0835777e-13 
-6.4801498e-12 3.7800874e-12 1.3677948e-13 
4.7748472e-12 -2.2993163e-11 -9.3161590e-14 
2.0520474e-10 -5.5109695e-11 2.3786528e-14 
3.7516656e-12 -3.3537617e-12 6.2172489e-15 
-6.8212103e-12 -5.4328098e-11 -1.0026702e-13 
-8.2593488e-11 -1.0139445e-11 -7.1054274e-15 
-7.0826900e-11 1.2937562e-10 7.9047879e-14 
3.2855496e-11 6.5405459e-11 -2.0428104e-14 
-1.8872015e-11 6.6719963e-12 -2.3980817e-14 
-1.1013412e-11 -1.5234747e-10 6.7723605e-14 
4.8089532e-11 5.6928684e-11 4.4408921e-15 
-1.2647661e-11 -7.2560624e-11 -2.3536728e-14 
-9.5212727e-13 -1.2965629e-11 -6.6613381e-16 
CELL_DATA 20
FIELD FieldData 1
YOUNG_MODULUS 1 20  float
2.0690000e+11
2.0690000e+11
2.0690000e+11
2.0690000e+11
2.0690000e+11
2.0690000e+11
2.0690000e+11
2.0690000e+11
2.0690000e+11
2.0690000e+11
2.0690000e+11
2.0690000e+11
2.0690000e+11
2.0690000e+11
2.0690000e+11
2.0690000e+11
2.0690000e+11
2.0690000e+11
2.0690000e+11
2.0690000e+11
