# vtk DataFile Version 4.2
posterior statistics, q = 1
ASCII
DATASET UNSTRUCTURED_GRID
POINTS 22 double
0.0000000000e+00 0.0000000000e+00 0.0000000000e+00
0.0000000000e+00 1.0000000000e-01 0.0000000000e+00
1.0000000000e-01 0.0000000000e+00 0.0000000000e+00
1.0000000000e-01 1.0000000000e-01 0.0000000000e+00
2.0000000000e-01 0.0000000000e+00 0.0000000000e+00
2.0000000000e-01 1.0000000000e-01 0.0000000000e+00
3.0000000000e-01 0.0000000000e+00 0.0000000000e+00
3.0000000000e-01 1.0000000000e-01 0.0000000000e+00
4.0000000000e-01 0.0000000000e+00 0.0000000000e+00
4.0000000000e-01 1.0000000000e-01 0.0000000000e+00
5.0000000000e-01 0.0000000000e+00 0.0000000000e+00
5.0000000000e-01 1.0000000000e-01 0.0000000000e+00
6.0000000000e-01 0.0000000000e+00 0.0000000000e+00
6.0000000000e-01 1.0000000000e-01 0.0000000000e+00
7.0000000000e-01 0.0000000000e+00 0.0000000000e+00
7.0000000000e-01 1.0000000000e-01 0.0000000000e+00
8.0000000000e-01 0.0000000000e+00 0.0000000000e+00
8.0000000000e-01 1.0000000000e-01 0.0000000000e+00
9.0000000000e-01 0.0000000000e+00 0.0000000000e+00
9.0000000000e-01 1.0000000000e-01 0.0000000000e+00
1.0000000000e+00 0.0000000000e+00 0.0000000000e+00
1.0000000000e+00 1.0000000000e-01 0.0000000000e+00

CELLS 20 80
3 0 2 1
3 16 18 17
3 11 9 8
3 16 17 14
3 8 9 7
3 8 10 11
3 11 10 13
3 19 17 18
3 19 18 21
3 3 1 2
3 3 2 4
3 4 6 5
3 4 5 3
3 20 21 18
3 7 5 6
3 7 6 8
3 12 14 13
3 12 13 10
3 15 13 14
3 15 14 17

CELL_TYPES 20
5
5
5
5
5
5
5
5
5
5
5
5
5
5
5
5
5
5
5
5

POINT_DATA 22
VECTORS DISPLACEMENT_MEAN double
0.0000000000e+00 0.0000000000e+00 0.0000000000e+00
0.0000000000e+00 0.0000000000e+00 0.0000000000e+00
-2.8430479547e-08 -2.6593655599e-08 -7.9327360746e+20
2.8087072518e-08 -2.6600459079e-08 -7.9327360746e+20
-5.2039910714e-08 -1.0804994333e-07 -1.5865472149e+21
5.1683799389e-08 -1.0818343931e-07 -1.5865472149e+21
-7.2639512204e-08 -2.3404399717e-07 -2.3798208224e+21
7.2526722781e-08 -2.3428734182e-07 -2.3798208224e+21
-9.0384378258e-08 -3.9825818384e-07 -3.1730944298e+21
9.1038152828e-08 -3.9986277408e-07 -3.1730944298e+21
-1.0547394321e-07 -5.9760856160e-07 -3.9663680373e+21
1.0674588306e-07 -5.9746436581e-07 -3.9663680373e+21
-1.1820259535e-07 -8.2440638731e-07 -4.7596416447e+21
1.1909534208e-07 -8.2338106178e-07 -4.7596416447e+21
-1.2812615501e-07 -1.0723986876e-06 -5.5529152522e+21
1.2888317612e-07 -1.0731087070e-06 -5.5529152522e+21
-1.3520153298e-07 -1.3387881142e-06 -6.3461888597e+21
1.3597909822e-07 -1.3383190791e-06 -6.3461888597e+21
-1.3944310235e-07 -1.6155939724e-06 -7.1394624671e+21
1.4028354615e-07 -1.6158566066e-06 -7.1394624671e+21
-1.4119062093e-07 -1.8989808386e-06 -7.9327360746e+21
1.4169655745e-07 -1.8985545785e-06 -7.9327360746e+21
VECTORS DISPLACEMENT_STD double
0.0000000000e+00 0.0000000000e+00 0.0000000000e+00
0.0000000000e+00 0.0000000000e+00 0.0000000000e+00
5.7133604913e-10 5.3440311986e-10 1.1903705513e+20
5.6222342758e-10 5.3599094592e-10 1.1903705513e+20
1.0416871573e-09 2.1603321433e-09 2.3807411026e+20
1.0320789031e-09 2.1643339290e-09 2.3807411026e+20
1.4603684790e-09 4.6774700697e-09 3.5711116538e+20
1.4442583969e-09 4.6790723593e-09 3.5711116538e+20
1.8210862493e-09 7.9508354740e-09 4.7614822051e+20
1.8104193984e-09 7.9821152821e-09 4.7614822051e+20
2.1312548214e-09 1.1921111252e-08 5.9518527564e+20
2.1310991196e-09 1.1913978919e-08 5.9518527564e+20
2.3891691852e-09 1.6440536710e-08 7.1422233077e+20
2.3874604124e-09 1.6415761333e-08 7.1422233077e+20
2.5889682268e-09 2.1381035789e-08 8.3325938590e+20
2.5762971920e-09 2.1383585632e-08 8.3325938590e+20
2.7403819371e-09 2.6663936554e-08 9.5229644103e+20
2.7219341350e-09 2.6655085518e-08 9.5229644103e+20
2.8347164455e-09 3.2154254942e-08 1.0713334962e+21
2.8221770365e-09 3.2162660718e-08 1.0713334962e+21
2.8872720842e-09 3.7775183095e-08 1.1903705513e+21
2.8831328890e-09 3.7760419073e-08 1.1903705513e+21

CELL_DATA 20
SCALARS YOUNG_MODULUS_MEAN double 1
LOOKUP_TABLE default
2.0643496114e+11
2.0643496114e+11
2.0643496114e+11
2.0643496114e+11
2.0643496114e+11
2.0643496114e+11
2.0643496114e+11
2.0643496114e+11
2.0643496114e+11
2.0643496114e+11
2.0643496114e+11
2.0643496114e+11
2.0643496114e+11
2.0643496114e+11
2.0643496114e+11
2.0643496114e+11
2.0643496114e+11
2.0643496114e+11
2.0643496114e+11
2.0643496114e+11
SCALARS YOUNG_MODULUS_STD double 1
LOOKUP_TABLE default
4.1411034303e+09
4.1411034303e+09
4.1411034303e+09
4.1411034303e+09
4.1411034303e+09
4.1411034303e+09
4.1411034303e+09
4.1411034303e+09
4.1411034303e+09
4.1411034303e+09
4.1411034303e+09
4.1411034303e+09
4.1411034303e+09
4.1411034303e+09
4.1411034303e+09
4.1411034303e+09
4.1411034303e+09
4.1411034303e+09
4.1411034303e+09
4.1411034303e+09
