# vtk DataFile Version 4.2
SMC_aCS level 2, q = 0.3371
ASCII
DATASET UNSTRUCTURED_GRID
POINTS 22 double
0.0000000000e+00 0.0000000000e+00 0.0000000000e+00
0.0000000000e+00 1.0000000000e-01 0.0000000000e+00
1.0000000000e-01 0.0000000000e+00 0.0000000000e+00
1.0000000000e-01 1.0000000000e-01 0.0000000000e+00
2.0000000000e-01 0.0000000000e+00 0.0000000000e+00
2.0000000000e-01 1.0000000000e-01 0.0000000000e+00
3.0000000000e-01 0.0000000000e+00 0.0000000000e+00
3.0000000000e-01 1.0000000000e-01 0.0000000000e+00
4.0000000000e-01 0.0000000000e+00 0.0000000000e+00
4.0000000000e-01 1.0000000000e-01 0.0000000000e+00
5.0000000000e-01 0.0000000000e+00 0.0000000000e+00
5.0000000000e-01 1.0000000000e-01 0.0000000000e+00
6.0000000000e-01 0.0000000000e+00 0.0000000000e+00
6.0000000000e-01 1.0000000000e-01 0.0000000000e+00
7.0000000000e-01 0.0000000000e+00 0.0000000000e+00
7.0000000000e-01 1.0000000000e-01 0.0000000000e+00
8.0000000000e-01 0.0000000000e+00 0.0000000000e+00
8.0000000000e-01 1.0000000000e-01 0.0000000000e+00
9.0000000000e-01 0.0000000000e+00 0.0000000000e+00
9.0000000000e-01 1.0000000000e-01 0.0000000000e+00
1.0000000000e+00 0.0000000000e+00 0.0000000000e+00
1.0000000000e+00 1.0000000000e-01 0.0000000000e+00

CELLS 20 80
3 0 2 1
3 16 18 17
3 11 9 8
3 16 17 14
3 8 9 7
3 8 10 11
3 11 10 13
3 19 17 18
3 19 18 21
3 3 1 2
3 3 2 4
3 4 6 5
3 4 5 3
3 20 21 18
3 7 5 6
3 7 6 8
3 12 14 13
3 12 13 10
3 15 13 14
3 15 14 17

CELL_TYPES 20
5
5
5
5
5
5
5
5
5
5
5
5
5
5
5
5
5
5
5
5

POINT_DATA 22
VECTORS DISPLACEMENT_MEAN double
0.0000000000e+00 0.0000000000e+00 0.0000000000e+00
0.0000000000e+00 0.0000000000e+00 0.0000000000e+00
-2.8288352425e-08 -2.6460868195e-08 -7.8840689821e+20
2.7945159784e-08 -2.6468061182e-08 -7.8840689821e+20
-5.1777837900e-08 -1.0750622961e-07 -1.5768137964e+21
5.1420573304e-08 -1.0763708829e-07 -1.5768137964e+21
-7.2273782914e-08 -2.3286966470e-07 -2.3652206946e+21
7.2162874748e-08 -2.3311336882e-07 -2.3652206946e+21
-8.9931720450e-08 -3.9625816377e-07 -3.1536275928e+21
9.0584651291e-08 -3.9786277929e-07 -3.1536275928e+21
-1.0494539690e-07 -5.9461800756e-07 -3.9420344910e+21
1.0622489181e-07 -5.9447102999e-07 -3.9420344910e+21
-1.1761123197e-07 -8.2031591170e-07 -4.7304413893e+21
1.1850651465e-07 -8.1928462751e-07 -4.7304413893e+21
-1.2750745060e-07 -1.0670939587e-06 -5.5188482875e+21
1.2825529266e-07 -1.0677985429e-06 -5.5188482875e+21
-1.3454713134e-07 -1.3321939570e-06 -6.3072551857e+21
1.3531261771e-07 -1.3317212243e-06 -6.3072551857e+21
-1.3879083814e-07 -1.6076678080e-06 -7.0956620839e+21
1.3961724258e-07 -1.6079302260e-06 -7.0956620839e+21
-1.4053487406e-07 -1.8897104400e-06 -7.8840689821e+21
1.4100759297e-07 -1.8892617699e-06 -7.8840689821e+21
VECTORS DISPLACEMENT_STD double
0.0000000000e+00 0.0000000000e+00 0.0000000000e+00
0.0000000000e+00 0.0000000000e+00 0.0000000000e+00
9.8996742070e-10 9.2589341086e-10 1.3387933750e+20
9.7732032616e-10 9.2651563936e-10 1.3387933750e+20
1.8102468688e-09 3.7588898720e-09 2.6775867501e+20
1.7977074247e-09 3.7655075487e-09 2.6775867501e+20
2.5300142877e-09 8.1404269655e-09 4.0163801251e+20
2.5193085288e-09 8.1466721499e-09 4.0163801251e+20
3.1402002709e-09 1.3847896363e-08 5.3551735001e+20
3.1669400877e-09 1.3904879869e-08 5.3551735001e+20
3.6743793870e-09 2.0769518507e-08 6.6939668752e+20
3.7095355338e-09 2.0763797582e-08 6.6939668752e+20
4.1203984435e-09 2.8647576863e-08 8.0327602502e+20
4.1364798316e-09 2.8609058882e-08 8.0327602502e+20
4.4719484124e-09 3.7236306695e-08 9.3715536252e+20
4.4684708797e-09 3.7257137789e-08 9.3715536252e+20
4.7332842753e-09 4.6460052361e-08 1.0710347000e+21
4.7191642313e-09 4.6447847545e-08 1.0710347000e+21
4.8925019424e-09 5.6059362369e-08 1.2049140375e+21
4.8873378854e-09 5.6069808477e-08 1.2049140375e+21
4.9527134814e-09 6.5889372924e-08 1.3387933750e+21
4.9293154378e-09 6.5869603906e-08 1.3387933750e+21

CELL_DATA 20
SCALARS YOUNG_MODULUS_MEAN double 1
LOOKUP_TABLE default
2.0764561579e+11
2.0764561579e+11
2.0764561579e+11
2.0764561579e+11
2.0764561579e+11
2.0764561579e+11
2.0764561579e+11
2.0764561579e+11
2.0764561579e+11
2.0764561579e+11
2.0764561579e+11
2.0764561579e+11
2.0764561579e+11
2.0764561579e+11
2.0764561579e+11
2.0764561579e+11
2.0764561579e+11
2.0764561579e+11
2.0764561579e+11
2.0764561579e+11
SCALARS YOUNG_MODULUS_STD double 1
LOOKUP_TABLE default
7.2650569662e+09
7.2650569662e+09
7.2650569662e+09
7.2650569662e+09
7.2650569662e+09
7.2650569662e+09
7.2650569662e+09
7.2650569662e+09
7.2650569662e+09
7.2650569662e+09
7.2650569662e+09
7.2650569662e+09
7.2650569662e+09
7.2650569662e+09
7.2650569662e+09
7.2650569662e+09
7.2650569662e+09
7.2650569662e+09
7.2650569662e+09
7.2650569662e+09
