# vtk DataFile Version 4.2
SMC_aCS level 0, q = 0.0000
ASCII
DATASET UNSTRUCTURED_GRID
POINTS 22 double
0.0000000000e+00 0.0000000000e+00 0.0000000000e+00
0.0000000000e+00 1.0000000000e-01 0.0000000000e+00
1.0000000000e-01 0.0000000000e+00 0.0000000000e+00
1.0000000000e-01 1.0000000000e-01 0.0000000000e+00
2.0000000000e-01 0.0000000000e+00 0.0000000000e+00
2.0000000000e-01 1.0000000000e-01 0.0000000000e+00
3.0000000000e-01 0.0000000000e+00 0.0000000000e+00
3.0000000000e-01 1.0000000000e-01 0.0000000000e+00
4.0000000000e-01 0.0000000000e+00 0.0000000000e+00
4.0000000000e-01 1.0000000000e-01 0.0000000000e+00
5.0000000000e-01 0.0000000000e+00 0.0000000000e+00
5.0000000000e-01 1.0000000000e-01 0.0000000000e+00
6.0000000000e-01 0.0000000000e+00 0.0000000000e+00
6.0000000000e-01 1.0000000000e-01 0.0000000000e+00
7.0000000000e-01 0.0000000000e+00 0.0000000000e+00
7.0000000000e-01 1.0000000000e-01 0.0000000000e+00
8.0000000000e-01 0.0000000000e+00 0.0000000000e+00
8.0000000000e-01 1.0000000000e-01 0.0000000000e+00
9.0000000000e-01 0.0000000000e+00 0.0000000000e+00
9.0000000000e-01 1.0000000000e-01 0.0000000000e+00
1.0000000000e+00 0.0000000000e+00 0.0000000000e+00
1.0000000000e+00 1.0000000000e-01 0.0000000000e+00

CELLS 20 80
3 0 2 1
3 16 18 17
3 11 9 8
3 16 17 14
3 8 9 7
3 8 10 11
3 11 10 13
3 19 17 18
3 19 18 21
3 3 1 2
3 3 2 4
3 4 6 5
3 4 5 3
3 20 21 18
3 7 5 6
3 7 6 8
3 12 14 13
3 12 13 10
3 15 13 14
3 15 14 17

CELL_TYPES 20
5
5
5
5
5
5
5
5
5
5
5
5
5
5
5
5
5
5
5
5

POINT_DATA 22
VECTORS DISPLACEMENT_MEAN double
0.0000000000e+00 0.0000000000e+00 0.0000000000e+00
0.0000000000e+00 0.0000000000e+00 0.0000000000e+00
-3.6843728695e-08 -3.4460903986e-08 -5.5886044534e+20
3.6398419941e-08 -3.4471659510e-08 -5.5886044534e+20
-6.7437196314e-08 -1.4001883594e-07 -1.1177208907e+21
6.6980326433e-08 -1.4018856779e-07 -1.1177208907e+21
-9.4145029973e-08 -3.0330711385e-07 -1.6765813360e+21
9.3985135517e-08 -3.0360696780e-07 -1.6765813360e+21
-1.1712914176e-07 -5.1612334430e-07 -2.2354417813e+21
1.1799740222e-07 -5.1820793917e-07 -2.2354417813e+21
-1.3672113951e-07 -7.7445966527e-07 -2.7943022267e+21
1.3835915310e-07 -7.7429531439e-07 -2.7943022267e+21
-1.5325759715e-07 -1.0684960166e-06 -3.3531626720e+21
1.5437441814e-07 -1.0671510709e-06 -3.3531626720e+21
-1.6619706527e-07 -1.3899745706e-06 -3.9120231174e+21
1.6710966205e-07 -1.3908949915e-06 -3.9120231174e+21
-1.7535114463e-07 -1.7353522413e-06 -4.4708835627e+21
1.7630977954e-07 -1.7347460115e-06 -4.4708835627e+21
-1.8087365100e-07 -2.0942124675e-06 -5.0297440080e+21
1.8185300655e-07 -2.0945459775e-06 -5.0297440080e+21
-1.8307709703e-07 -2.4615247016e-06 -5.5886044534e+21
1.8363032241e-07 -2.4609391714e-06 -5.5886044534e+21
VECTORS DISPLACEMENT_STD double
0.0000000000e+00 0.0000000000e+00 0.0000000000e+00
0.0000000000e+00 0.0000000000e+00 0.0000000000e+00
2.6651423966e-08 2.4930012894e-08 3.7565676302e+20
2.6332570203e-08 2.4939793577e-08 3.7565676302e+20
4.8784795636e-08 1.0129060308e-07 7.5131352605e+20
4.8462904589e-08 1.0141787723e-07 7.5131352605e+20
6.8105739586e-08 2.1942251397e-07 1.1269702891e+21
6.8002590922e-08 2.1963090861e-07 1.1269702891e+21
8.4737062627e-08 3.7339014149e-07 1.5026270521e+21
8.5385189990e-08 3.7489613809e-07 1.5026270521e+21
9.8926553400e-08 5.6027928254e-07 1.8782838151e+21
1.0012420237e-07 5.6018098860e-07 1.8782838151e+21
1.1089875673e-07 7.7305475458e-07 2.2539405781e+21
1.1174597917e-07 7.7208007060e-07 2.2539405781e+21
1.2025816516e-07 1.0056797721e-06 2.6295973412e+21
1.2097744991e-07 1.0063519152e-06 2.6295973412e+21
1.2688677078e-07 1.2556105830e-06 3.0052541042e+21
1.2765758019e-07 1.2551733993e-06 3.0052541042e+21
1.3087994844e-07 1.5152853221e-06 3.3809108672e+21
1.3163625152e-07 1.5155121580e-06 3.3809108672e+21
1.3242320284e-07 1.7810040801e-06 3.7565676302e+21
1.3288957828e-07 1.7805767572e-06 3.7565676302e+21

CELL_DATA 20
SCALARS YOUNG_MODULUS_MEAN double 1
LOOKUP_TABLE default
2.2526090108e+11
2.2526090108e+11
2.2526090108e+11
2.2526090108e+11
2.2526090108e+11
2.2526090108e+11
2.2526090108e+11
2.2526090108e+11
2.2526090108e+11
2.2526090108e+11
2.2526090108e+11
2.2526090108e+11
2.2526090108e+11
2.2526090108e+11
2.2526090108e+11
2.2526090108e+11
2.2526090108e+11
2.2526090108e+11
2.2526090108e+11
2.2526090108e+11
SCALARS YOUNG_MODULUS_STD double 1
LOOKUP_TABLE default
1.0837831772e+11
1.0837831772e+11
1.0837831772e+11
1.0837831772e+11
1.0837831772e+11
1.0837831772e+11
1.0837831772e+11
1.0837831772e+11
1.0837831772e+11
1.0837831772e+11
1.0837831772e+11
1.0837831772e+11
1.0837831772e+11
1.0837831772e+11
1.0837831772e+11
1.0837831772e+11
1.0837831772e+11
1.0837831772e+11
1.0837831772e+11
1.0837831772e+11
