# vtk DataFile Version 4.2
SMC_aCS level 1, q = 0.0192
ASCII
DATASET UNSTRUCTURED_GRID
POINTS 22 double
0.0000000000e+00 0.0000000000e+00 0.0000000000e+00
0.0000000000e+00 1.0000000000e-01 0.0000000000e+00
1.0000000000e-01 0.0000000000e+00 0.0000000000e+00
1.0000000000e-01 1.0000000000e-01 0.0000000000e+00
2.0000000000e-01 0.0000000000e+00 0.0000000000e+00
2.0000000000e-01 1.0000000000e-01 0.0000000000e+00
3.0000000000e-01 0.0000000000e+00 0.0000000000e+00
3.0000000000e-01 1.0000000000e-01 0.0000000000e+00
4.0000000000e-01 0.0000000000e+00 0.0000000000e+00
4.0000000000e-01 1.0000000000e-01 0.0000000000e+00
5.0000000000e-01 0.0000000000e+00 0.0000000000e+00
5.0000000000e-01 1.0000000000e-01 0.0000000000e+00
6.0000000000e-01 0.0000000000e+00 0.0000000000e+00
6.0000000000e-01 1.0000000000e-01 0.0000000000e+00
7.0000000000e-01 0.0000000000e+00 0.0000000000e+00
7.0000000000e-01 1.0000000000e-01 0.0000000000e+00
8.0000000000e-01 0.0000000000e+00 0.0000000000e+00
8.0000000000e-01 1.0000000000e-01 0.0000000000e+00
9.0000000000e-01 0.0000000000e+00 0.0000000000e+00
9.0000000000e-01 1.0000000000e-01 0.0000000000e+00
1.0000000000e+00 0.0000000000e+00 0.0000000000e+00
1.0000000000e+00 1.0000000000e-01 0.0000000000e+00

CELLS 20 80
3 0 2 1
3 16 18 17
3 11 9 8
3 16 17 14
3 8 9 7
3 8 10 11
3 11 10 13
3 19 17 18
3 19 18 21
3 3 1 2
3 3 2 4
3 4 6 5
3 4 5 3
3 20 21 18
3 7 5 6
3 7 6 8
3 12 14 13
3 12 13 10
3 15 13 14
3 15 14 17

CELL_TYPES 20
5
5
5
5
5
5
5
5
5
5
5
5
5
5
5
5
5
5
5
5

POINT_DATA 22
VECTORS DISPLACEMENT_MEAN double
0.0000000000e+00 0.0000000000e+00 0.0000000000e+00
0.0000000000e+00 0.0000000000e+00 0.0000000000e+00
-2.7136606527e-08 -2.5382651585e-08 -7.6731782480e+20
2.6808343072e-08 -2.5389400775e-08 -7.6731782480e+20
-4.9672131657e-08 -1.0313114042e-07 -1.5346356496e+21
4.9330257487e-08 -1.0325346616e-07 -1.5346356496e+21
-6.9337004771e-08 -2.2339874253e-07 -2.3019534744e+21
6.9226296185e-08 -2.2362654289e-07 -2.3019534744e+21
-8.6275697866e-08 -3.8014529831e-07 -3.0692712992e+21
8.6902137935e-08 -3.8168584698e-07 -3.0692712992e+21
-1.0069068575e-07 -5.7044767547e-07 -3.8365891240e+21
1.0190364515e-07 -5.7029921125e-07 -3.8365891240e+21
-1.1285243911e-07 -7.8699014524e-07 -4.6039069488e+21
1.1368612518e-07 -7.8600498776e-07 -4.6039069488e+21
-1.2236707165e-07 -1.0237726401e-06 -5.3712247736e+21
1.2305778147e-07 -1.0244514620e-06 -5.3712247736e+21
-1.2913202513e-07 -1.2781681325e-06 -6.1385425984e+21
1.2984137496e-07 -1.2777014136e-06 -6.1385425984e+21
-1.3318335167e-07 -1.5424845707e-06 -6.9058604232e+21
1.3395039423e-07 -1.5427375604e-06 -6.9058604232e+21
-1.3482794240e-07 -1.8130571133e-06 -7.6731782480e+21
1.3527814773e-07 -1.8126423386e-06 -7.6731782480e+21
VECTORS DISPLACEMENT_STD double
0.0000000000e+00 0.0000000000e+00 0.0000000000e+00
0.0000000000e+00 0.0000000000e+00 0.0000000000e+00
4.2789267093e-09 4.0016820706e-09 1.8341880287e+20
4.2258071656e-09 4.0028824415e-09 1.8341880287e+20
7.8355688953e-09 1.6258920744e-08 3.6683760574e+20
7.7763408916e-09 1.6277988296e-08 3.6683760574e+20
1.0940694624e-08 3.5219320340e-08 5.5025640860e+20
1.0916312188e-08 3.5256969864e-08 5.5025640860e+20
1.3605683953e-08 5.9930158131e-08 7.3367521147e+20
1.3698823251e-08 6.0173257062e-08 7.3367521147e+20
1.5882501934e-08 8.9916045068e-08 9.1709401434e+20
1.6058408435e-08 8.9899841244e-08 9.1709401434e+20
1.7783409569e-08 1.2403842592e-07 1.1005128172e+21
1.7910076699e-08 1.2388563649e-07 1.1005128172e+21
1.9282454500e-08 1.6132616786e-07 1.2839316201e+21
1.9378227889e-08 1.6142851202e-07 1.2839316201e+21
2.0328557075e-08 2.0134416833e-07 1.4673504229e+21
2.0436049113e-08 2.0127917395e-07 1.4673504229e+21
2.0972659133e-08 2.4291595528e-07 1.6507692258e+21
2.1062828378e-08 2.4295433204e-07 1.6507692258e+21
2.1235478286e-08 2.8546227155e-07 1.8341880287e+21
2.1264907106e-08 2.8537395496e-07 1.8341880287e+21

CELL_DATA 20
SCALARS YOUNG_MODULUS_MEAN double 1
LOOKUP_TABLE default
2.2195692554e+11
2.2195692554e+11
2.2195692554e+11
2.2195692554e+11
2.2195692554e+11
2.2195692554e+11
2.2195692554e+11
2.2195692554e+11
2.2195692554e+11
2.2195692554e+11
2.2195692554e+11
2.2195692554e+11
2.2195692554e+11
2.2195692554e+11
2.2195692554e+11
2.2195692554e+11
2.2195692554e+11
2.2195692554e+11
2.2195692554e+11
2.2195692554e+11
SCALARS YOUNG_MODULUS_STD double 1
LOOKUP_TABLE default
3.7699721505e+10
3.7699721505e+10
3.7699721505e+10
3.7699721505e+10
3.7699721505e+10
3.7699721505e+10
3.7699721505e+10
3.7699721505e+10
3.7699721505e+10
3.7699721505e+10
3.7699721505e+10
3.7699721505e+10
3.7699721505e+10
3.7699721505e+10
3.7699721505e+10
3.7699721505e+10
3.7699721505e+10
3.7699721505e+10
3.7699721505e+10
3.7699721505e+10
