# vtk DataFile Version 4.2
SMC_aCS level 2, q = 0.1794
ASCII
DATASET UNSTRUCTURED_GRID
POINTS 22 double
0.0000000000e+00 0.0000000000e+00 0.0000000000e+00
0.0000000000e+00 1.0000000000e-01 0.0000000000e+00
1.0000000000e-01 0.0000000000e+00 0.0000000000e+00
1.0000000000e-01 1.0000000000e-01 0.0000000000e+00
2.0000000000e-01 0.0000000000e+00 0.0000000000e+00
2.0000000000e-01 1.0000000000e-01 0.0000000000e+00
3.0000000000e-01 0.0000000000e+00 0.0000000000e+00
3.0000000000e-01 1.0000000000e-01 0.0000000000e+00
4.0000000000e-01 0.0000000000e+00 0.0000000000e+00
4.0000000000e-01 1.0000000000e-01 0.0000000000e+00
5.0000000000e-01 0.0000000000e+00 0.0000000000e+00
5.0000000000e-01 1.0000000000e-01 0.0000000000e+00
6.0000000000e-01 0.0000000000e+00 0.0000000000e+00
6.0000000000e-01 1.0000000000e-01 0.0000000000e+00
7.0000000000e-01 0.0000000000e+00 0.0000000000e+00
7.0000000000e-01 1.0000000000e-01 0.0000000000e+00
8.0000000000e-01 0.0000000000e+00 0.0000000000e+00
8.0000000000e-01 1.0000000000e-01 0.0000000000e+00
9.0000000000e-01 0.0000000000e+00 0.0000000000e+00
9.0000000000e-01 1.0000000000e-01 0.0000000000e+00
1.0000000000e+00 0.0000000000e+00 0.0000000000e+00
1.0000000000e+00 1.0000000000e-01 0.0000000000e+00

CELLS 20 80
3 0 2 1
3 16 18 17
3 11 9 8
3 16 17 14
3 8 9 7
3 8 10 11
3 11 10 13
3 19 17 18
3 19 18 21
3 3 1 2
3 3 2 4
3 4 6 5
3 4 5 3
3 20 21 18
3 7 5 6
3 7 6 8
3 12 14 13
3 12 13 10
3 15 13 14
3 15 14 17

CELL_TYPES 20
5
5
5
5
5
5
5
5
5
5
5
5
5
5
5
5
5
5
5
5

POINT_DATA 22
VECTORS DISPLACEMENT_MEAN double
0.0000000000e+00 0.0000000000e+00 0.0000000000e+00
0.0000000000e+00 0.0000000000e+00 0.0000000000e+00
-3.2389036651e-08 -3.0295142768e-08 -1.3463411187e-22
3.1996894332e-08 -3.0305579256e-08 -1.3464328855e-22
-5.9284845169e-08 -1.2308626717e-07 -2.6926921910e-22
5.8879766430e-08 -1.2323850527e-07 -2.6927847462e-22
-8.2767643025e-08 -2.6663113188e-07 -4.0390388124e-22
8.2620705185e-08 -2.6688771169e-07 -4.0391371192e-22
-1.0296560053e-07 -4.5371120875e-07 -5.3854412863e-22
1.0373444129e-07 -4.5554556795e-07 -5.3855375051e-22
-1.2019917797e-07 -6.8078450673e-07 -6.7317826747e-22
1.2163509073e-07 -6.8066474734e-07 -6.7318811167e-22
-1.3473839406e-07 -9.3928303956e-07 -8.0781155346e-22
1.3572339175e-07 -9.3809724814e-07 -8.0782130596e-22
-1.4611440080e-07 -1.2218728575e-06 -9.4244815438e-22
1.4693010709e-07 -1.2226802177e-06 -9.4245715744e-22
-1.5415699711e-07 -1.5254590923e-06 -1.0770807975e-21
1.5501607682e-07 -1.5249318305e-06 -1.0770897732e-21
-1.5900811168e-07 -1.8408791892e-06 -1.2117154115e-21
1.5984633538e-07 -1.8411552630e-06 -1.2117254388e-21
-1.6087293392e-07 -2.1636238035e-06 -1.3463482517e-21
1.6135001116e-07 -2.1630988960e-06 -1.3463597935e-21
VECTORS DISPLACEMENT_STD double
0.0000000000e+00 0.0000000000e+00 0.0000000000e+00
0.0000000000e+00 0.0000000000e+00 0.0000000000e+00
1.2902891809e-09 1.2068742695e-09 1.5970847720e-22
1.2746673211e-09 1.2072900302e-09 1.5970685892e-22
2.3617434239e-09 4.9034147130e-09 3.1941993649e-22
2.3456062130e-09 4.9094794557e-09 3.1941873078e-22
3.2972328100e-09 1.0621843078e-08 4.7913265765e-22
3.2913792149e-09 1.0632064505e-08 4.7913250645e-22
4.1018632880e-09 1.8074593272e-08 6.3884355906e-22
4.1324917667e-09 1.8147669043e-08 6.3884411517e-22
4.7884011051e-09 2.7120562216e-08 7.9855309453e-22
4.8456038777e-09 2.7115791335e-08 7.9855365951e-22
5.3676030562e-09 3.7418425156e-08 9.5826307047e-22
5.4068426261e-09 3.7371186522e-08 9.5826396130e-22
5.8207915402e-09 4.8676017922e-08 1.1179721622e-21
5.8532870111e-09 4.8708180909e-08 1.1179734940e-21
6.1411862194e-09 6.0770049570e-08 1.2776800483e-21
6.1754095670e-09 6.0749044926e-08 1.2776814347e-21
6.3344411382e-09 7.3335509385e-08 1.4373880467e-21
6.3678336403e-09 7.3346507396e-08 1.4373896703e-21
6.4087304723e-09 8.6192757611e-08 1.5970959313e-21
6.4277359032e-09 8.6171846756e-08 1.5970982072e-21

CELL_DATA 20
SCALARS YOUNG_MODULUS_MEAN double 1
LOOKUP_TABLE default
1.8143219680e+11
1.8143219680e+11
1.8143219680e+11
1.8143219680e+11
1.8143219680e+11
1.8143219680e+11
1.8143219680e+11
1.8143219680e+11
1.8143219680e+11
1.8143219680e+11
1.8143219680e+11
1.8143219680e+11
1.8143219680e+11
1.8143219680e+11
1.8143219680e+11
1.8143219680e+11
1.8143219680e+11
1.8143219680e+11
1.8143219680e+11
1.8143219680e+11
SCALARS YOUNG_MODULUS_STD double 1
LOOKUP_TABLE default
7.2686981671e+09
7.2686981671e+09
7.2686981671e+09
7.2686981671e+09
7.2686981671e+09
7.2686981671e+09
7.2686981671e+09
7.2686981671e+09
7.2686981671e+09
7.2686981671e+09
7.2686981671e+09
7.2686981671e+09
7.2686981671e+09
7.2686981671e+09
7.2686981671e+09
7.2686981671e+09
7.2686981671e+09
7.2686981671e+09
7.2686981671e+09
7.2686981671e+09
