# vtk DataFile Version 4.2
SMC_aCS level 3, q = 1.0000
ASCII
DATASET UNSTRUCTURED_GRID
POINTS 22 double
0.0000000000e+00 0.0000000000e+00 0.0000000000e+00
0.0000000000e+00 1.0000000000e-01 0.0000000000e+00
1.0000000000e-01 0.0000000000e+00 0.0000000000e+00
1.0000000000e-01 1.0000000000e-01 0.0000000000e+00
2.0000000000e-01 0.0000000000e+00 0.0000000000e+00
2.0000000000e-01 1.0000000000e-01 0.0000000000e+00
3.0000000000e-01 0.0000000000e+00 0.0000000000e+00
3.0000000000e-01 1.0000000000e-01 0.0000000000e+00
4.0000000000e-01 0.0000000000e+00 0.0000000000e+00
4.0000000000e-01 1.0000000000e-01 0.0000000000e+00
5.0000000000e-01 0.0000000000e+00 0.0000000000e+00
5.0000000000e-01 1.0000000000e-01 0.0000000000e+00
6.0000000000e-01 0.0000000000e+00 0.0000000000e+00
6.0000000000e-01 1.0000000000e-01 0.0000000000e+00
7.0000000000e-01 0.0000000000e+00 0.0000000000e+00
7.0000000000e-01 1.0000000000e-01 0.0000000000e+00
8.0000000000e-01 0.0000000000e+00 0.0000000000e+00
8.0000000000e-01 1.0000000000e-01 0.0000000000e+00
9.0000000000e-01 0.0000000000e+00 0.0000000000e+00
9.0000000000e-01 1.0000000000e-01 0.0000000000e+00
1.0000000000e+00 0.0000000000e+00 0.0000000000e+00
1.0000000000e+00 1.0000000000e-01 0.0000000000e+00

CELLS 20 80
3 0 2 1
3 16 18 17
3 11 9 8
3 16 17 14
3 8 9 7
3 8 10 11
3 11 10 13
3 19 17 18
3 19 18 21
3 3 1 2
3 3 2 4
3 4 6 5
3 4 5 3
3 20 21 18
3 7 5 6
3 7 6 8
3 12 14 13
3 12 13 10
3 15 13 14
3 15 14 17

CELL_TYPES 20
5
5
5
5
5
5
5
5
5
5
5
5
5
5
5
5
5
5
5
5

POINT_DATA 22
VECTORS DISPLACEMENT_MEAN double
0.0000000000e+00 0.0000000000e+00 0.0000000000e+00
0.0000000000e+00 0.0000000000e+00 0.0000000000e+00
-3.2436245024e-08 -3.0339299204e-08 -2.9533511435e-22
3.2043531142e-08 -3.0349750903e-08 -2.9534116745e-22
-5.9371255307e-08 -1.2326567055e-07 -5.9066755504e-22
5.8965586149e-08 -1.2341813054e-07 -5.9067558003e-22
-8.2888280321e-08 -2.6701975789e-07 -8.8599907373e-22
8.2741128314e-08 -2.6727671168e-07 -8.8600722179e-22
-1.0311567719e-07 -4.5437251179e-07 -1.1813328634e-21
1.0388563857e-07 -4.5620954464e-07 -1.1813412392e-21
-1.2037437329e-07 -6.8177677858e-07 -1.4766577289e-21
1.2181237895e-07 -6.8165684464e-07 -1.4766659282e-21
-1.3493478090e-07 -9.4065208382e-07 -1.7719801618e-21
1.3592121427e-07 -9.3946456406e-07 -1.7719890759e-21
-1.4632736864e-07 -1.2236537882e-06 -2.0673059551e-21
1.4714426385e-07 -1.2244623252e-06 -2.0673139898e-21
-1.5438168737e-07 -1.5276825126e-06 -2.3626279112e-21
1.5524201923e-07 -1.5271544824e-06 -2.3626350110e-21
-1.5923987265e-07 -1.8435623475e-06 -2.6579503258e-21
1.6007931809e-07 -1.8438388237e-06 -2.6579586076e-21
-1.6110741295e-07 -2.1667773755e-06 -2.9532707892e-21
1.6158518554e-07 -2.1662517030e-06 -2.9532812240e-21
VECTORS DISPLACEMENT_STD double
0.0000000000e+00 0.0000000000e+00 0.0000000000e+00
0.0000000000e+00 0.0000000000e+00 0.0000000000e+00
5.8740943682e-10 5.4943445660e-10 1.7143974298e-22
5.8029752111e-10 5.4962373334e-10 1.7143573040e-22
1.0751933714e-09 2.2322996407e-09 3.4287837174e-22
1.0678468400e-09 2.2350606397e-09 3.4287623405e-22
1.5010787477e-09 4.8356375864e-09 5.1431706001e-22
1.4984138746e-09 4.8402909328e-09 5.1431565200e-22
1.8673900700e-09 8.2285326510e-09 6.8575182463e-22
1.8813338104e-09 8.2618006951e-09 6.8574946408e-22
2.1799392244e-09 1.2346747080e-08 8.5718440999e-22
2.2059810211e-09 1.2344575117e-08 8.5718259550e-22
2.4436232861e-09 1.7034891381e-08 1.0286182737e-21
2.4614872611e-09 1.7013385800e-08 1.0286166597e-21
2.6499392004e-09 2.2159956618e-08 1.2000533276e-21
2.6647328967e-09 2.2174598950e-08 1.2000514226e-21
2.7958001910e-09 2.7665814083e-08 1.3714888864e-21
2.8113805102e-09 2.7656251633e-08 1.3714862229e-21
2.8837802847e-09 3.3386291153e-08 1.5429233782e-21
2.8989823581e-09 3.3391298043e-08 1.5429208337e-21
2.9176008084e-09 3.9239606093e-08 1.7143576852e-21
2.9262531088e-09 3.9230086341e-08 1.7143558510e-21

CELL_DATA 20
SCALARS YOUNG_MODULUS_MEAN double 1
LOOKUP_TABLE default
1.8093900682e+11
1.8093900682e+11
1.8093900682e+11
1.8093900682e+11
1.8093900682e+11
1.8093900682e+11
1.8093900682e+11
1.8093900682e+11
1.8093900682e+11
1.8093900682e+11
1.8093900682e+11
1.8093900682e+11
1.8093900682e+11
1.8093900682e+11
1.8093900682e+11
1.8093900682e+11
1.8093900682e+11
1.8093900682e+11
1.8093900682e+11
1.8093900682e+11
SCALARS YOUNG_MODULUS_STD double 1
LOOKUP_TABLE default
3.2769661682e+09
3.2769661682e+09
3.2769661682e+09
3.2769661682e+09
3.2769661682e+09
3.2769661682e+09
3.2769661682e+09
3.2769661682e+09
3.2769661682e+09
3.2769661682e+09
3.2769661682e+09
3.2769661682e+09
3.2769661682e+09
3.2769661682e+09
3.2769661682e+09
3.2769661682e+09
3.2769661682e+09
3.2769661682e+09
3.2769661682e+09
3.2769661682e+09
