# vtk DataFile Version 4.2
SMC_aCS level 0, q = 0.0000
ASCII
DATASET UNSTRUCTURED_GRID
POINTS 22 double
0.0000000000e+00 0.0000000000e+00 0.0000000000e+00
0.0000000000e+00 1.0000000000e-01 0.0000000000e+00
1.0000000000e-01 0.0000000000e+00 0.0000000000e+00
1.0000000000e-01 1.0000000000e-01 0.0000000000e+00
2.0000000000e-01 0.0000000000e+00 0.0000000000e+00
2.0000000000e-01 1.0000000000e-01 0.0000000000e+00
3.0000000000e-01 0.0000000000e+00 0.0000000000e+00
3.0000000000e-01 1.0000000000e-01 0.0000000000e+00
4.0000000000e-01 0.0000000000e+00 0.0000000000e+00
4.0000000000e-01 1.0000000000e-01 0.0000000000e+00
5.0000000000e-01 0.0000000000e+00 0.0000000000e+00
5.0000000000e-01 1.0000000000e-01 0.0000000000e+00
6.0000000000e-01 0.0000000000e+00 0.0000000000e+00
6.0000000000e-01 1.0000000000e-01 0.0000000000e+00
7.0000000000e-01 0.0000000000e+00 0.0000000000e+00
7.0000000000e-01 1.0000000000e-01 0.0000000000e+00
8.0000000000e-01 0.0000000000e+00 0.0000000000e+00
8.0000000000e-01 1.0000000000e-01 0.0000000000e+00
9.0000000000e-01 0.0000000000e+00 0.0000000000e+00
9.0000000000e-01 1.0000000000e-01 0.0000000000e+00
1.0000000000e+00 0.0000000000e+00 0.0000000000e+00
1.0000000000e+00 1.0000000000e-01 0.0000000000e+00

CELLS 20 80
3 0 2 1
3 16 18 17
3 11 9 8
3 16 17 14
3 8 9 7
3 8 10 11
3 11 10 13
3 19 17 18
3 19 18 21
3 3 1 2
3 3 2 4
3 4 6 5
3 4 5 3
3 20 21 18
3 7 5 6
3 7 6 8
3 12 14 13
3 12 13 10
3 15 13 14
3 15 14 17

CELL_TYPES 20
5
5
5
5
5
5
5
5
5
5
5
5
5
5
5
5
5
5
5
5

POINT_DATA 22
VECTORS DISPLACEMENT_MEAN double
0.0000000000e+00 0.0000000000e+00 0.0000000000e+00
0.0000000000e+00 0.0000000000e+00 0.0000000000e+00
-3.6969602261e-08 -3.4579582921e-08 3.3421349783e-23
3.6522001867e-08 -3.4591495371e-08 3.3412213622e-23
-6.7669105742e-08 -1.4049353768e-07 6.6846771414e-23
6.7206739417e-08 -1.4066730580e-07 6.6836680964e-23
-9.4472919208e-08 -3.0433899601e-07 1.0027920461e-22
9.4305200929e-08 -3.0463186220e-07 1.0026825175e-22
-1.1752733924e-07 -5.1787656144e-07 1.3370866376e-22
1.1840491203e-07 -5.1997034183e-07 1.3369787866e-22
-1.3719814669e-07 -7.7706332272e-07 1.6714255234e-22
1.3883713102e-07 -7.7692662656e-07 1.6713088704e-22
-1.5379354722e-07 -1.0721195804e-06 2.0057776523e-22
1.5491784658e-07 -1.0707660904e-06 2.0056429819e-22
-1.6677838679e-07 -1.3946741930e-06 2.3400515851e-22
1.6770945298e-07 -1.3955957329e-06 2.3399164058e-22
-1.7595839390e-07 -1.7411946060e-06 2.6743519498e-22
1.7693896753e-07 -1.7405927770e-06 2.6742049823e-22
-1.8149556928e-07 -2.1012224652e-06 3.0086269251e-22
1.8245233737e-07 -2.1015375822e-06 3.0084675053e-22
-1.8362412090e-07 -2.4696106995e-06 3.3429130450e-22
1.8416866799e-07 -2.4690115578e-06 3.3427400188e-22
VECTORS DISPLACEMENT_STD double
0.0000000000e+00 0.0000000000e+00 0.0000000000e+00
0.0000000000e+00 0.0000000000e+00 0.0000000000e+00
2.7631481904e-08 2.5845155514e-08 3.2364700547e-23
2.7296940512e-08 2.5854059008e-08 3.2365153921e-23
5.0576623940e-08 1.0500639462e-07 6.4725604745e-23
5.0231046331e-08 1.0513627080e-07 6.4726483456e-23
7.0610084984e-08 2.2746626814e-07 9.7085585271e-23
7.0484730523e-08 2.2768515951e-07 9.7085092322e-23
8.7841208689e-08 3.8706656173e-07 1.2944201177e-22
8.8497116117e-08 3.8863147592e-07 1.2944112280e-22
1.0254338364e-07 5.8078555967e-07 1.6179496652e-22
1.0376837831e-07 5.8068339147e-07 1.6179358520e-22
1.1494696608e-07 8.0131380844e-07 1.9414792094e-22
1.1578727962e-07 8.0030219533e-07 1.9414572520e-22
1.2465197607e-07 1.0423946261e-06 2.2650072514e-22
1.2534786505e-07 1.0430833950e-06 2.2649824710e-22
1.3151321300e-07 1.3013877430e-06 2.5885323292e-22
1.3224610438e-07 1.3009379295e-06 2.5884955255e-22
1.3565175797e-07 1.5704764718e-06 2.9120663649e-22
1.3636685682e-07 1.5707119937e-06 2.9120135897e-22
1.3724266055e-07 1.8458138356e-06 3.2355961689e-22
1.3764966096e-07 1.8453660307e-06 3.2355313034e-22

CELL_DATA 20
SCALARS YOUNG_MODULUS_MEAN double 1
LOOKUP_TABLE default
2.2784486211e+11
2.2784486211e+11
2.2784486211e+11
2.2784486211e+11
2.2784486211e+11
2.2784486211e+11
2.2784486211e+11
2.2784486211e+11
2.2784486211e+11
2.2784486211e+11
2.2784486211e+11
2.2784486211e+11
2.2784486211e+11
2.2784486211e+11
2.2784486211e+11
2.2784486211e+11
2.2784486211e+11
2.2784486211e+11
2.2784486211e+11
2.2784486211e+11
SCALARS YOUNG_MODULUS_STD double 1
LOOKUP_TABLE default
1.0933532166e+11
1.0933532166e+11
1.0933532166e+11
1.0933532166e+11
1.0933532166e+11
1.0933532166e+11
1.0933532166e+11
1.0933532166e+11
1.0933532166e+11
1.0933532166e+11
1.0933532166e+11
1.0933532166e+11
1.0933532166e+11
1.0933532166e+11
1.0933532166e+11
1.0933532166e+11
1.0933532166e+11
1.0933532166e+11
1.0933532166e+11
1.0933532166e+11
