# vtk DataFile Version 4.2
SMC_aCS level 1, q = 0.0113
ASCII
DATASET UNSTRUCTURED_GRID
POINTS 22 double
0.0000000000e+00 0.0000000000e+00 0.0000000000e+00
0.0000000000e+00 1.0000000000e-01 0.0000000000e+00
1.0000000000e-01 0.0000000000e+00 0.0000000000e+00
1.0000000000e-01 1.0000000000e-01 0.0000000000e+00
2.0000000000e-01 0.0000000000e+00 0.0000000000e+00
2.0000000000e-01 1.0000000000e-01 0.0000000000e+00
3.0000000000e-01 0.0000000000e+00 0.0000000000e+00
3.0000000000e-01 1.0000000000e-01 0.0000000000e+00
4.0000000000e-01 0.0000000000e+00 0.0000000000e+00
4.0000000000e-01 1.0000000000e-01 0.0000000000e+00
5.0000000000e-01 0.0000000000e+00 0.0000000000e+00
5.0000000000e-01 1.0000000000e-01 0.0000000000e+00
6.0000000000e-01 0.0000000000e+00 0.0000000000e+00
6.0000000000e-01 1.0000000000e-01 0.0000000000e+00
7.0000000000e-01 0.0000000000e+00 0.0000000000e+00
7.0000000000e-01 1.0000000000e-01 0.0000000000e+00
8.0000000000e-01 0.0000000000e+00 0.0000000000e+00
8.0000000000e-01 1.0000000000e-01 0.0000000000e+00
9.0000000000e-01 0.0000000000e+00 0.0000000000e+00
9.0000000000e-01 1.0000000000e-01 0.0000000000e+00
1.0000000000e+00 0.0000000000e+00 0.0000000000e+00
1.0000000000e+00 1.0000000000e-01 0.0000000000e+00

CELLS 20 80
3 0 2 1
3 16 18 17
3 11 9 8
3 16 17 14
3 8 9 7
3 8 10 11
3 11 10 13
3 19 17 18
3 19 18 21
3 3 1 2
3 3 2 4
3 4 6 5
3 4 5 3
3 20 21 18
3 7 5 6
3 7 6 8
3 12 14 13
3 12 13 10
3 15 13 14
3 15 14 17

CELL_TYPES 20
5
5
5
5
5
5
5
5
5
5
5
5
5
5
5
5
5
5
5
5

POINT_DATA 22
VECTORS DISPLACEMENT_MEAN double
0.0000000000e+00 0.0000000000e+00 0.0000000000e+00
0.0000000000e+00 0.0000000000e+00 0.0000000000e+00
-3.0390819621e-08 -2.8426106932e-08 -1.3726367684e-23
3.0022870225e-08 -2.8435899548e-08 -1.3735516691e-23
-5.5627311649e-08 -1.1549255335e-07 -2.7451109240e-23
5.5247223936e-08 -1.1563539924e-07 -2.7460092596e-23
-7.7661356117e-08 -2.5018152659e-07 -4.1172383804e-23
7.7523483496e-08 -2.5042227692e-07 -4.1182415398e-23
-9.6613215963e-08 -4.2571984014e-07 -5.4896784943e-23
9.7334623682e-08 -4.2744102994e-07 -5.4906351571e-23
-1.1278358093e-07 -6.3878402337e-07 -6.8616955288e-23
1.1413090614e-07 -6.3867165245e-07 -6.8626668047e-23
-1.2642581112e-07 -8.8133468544e-07 -8.2336883531e-23
1.2735004013e-07 -8.8022205053e-07 -8.2347431805e-23
-1.3709998376e-07 -1.1464903391e-06 -9.6061987481e-23
1.3786536566e-07 -1.1472478898e-06 -9.6072582993e-23
-1.4464639819e-07 -1.4313470516e-06 -1.0978441368e-22
1.4545247764e-07 -1.4308523188e-06 -1.0979528228e-22
-1.4919822694e-07 -1.7273075450e-06 -1.2350890544e-22
1.4998473706e-07 -1.7275665866e-06 -1.2352064935e-22
-1.5094800038e-07 -2.0301406753e-06 -1.3723225723e-22
1.5139564471e-07 -2.0296481516e-06 -1.3724523801e-22
VECTORS DISPLACEMENT_STD double
0.0000000000e+00 0.0000000000e+00 0.0000000000e+00
0.0000000000e+00 0.0000000000e+00 0.0000000000e+00
5.4315820397e-09 5.0804398761e-09 1.3943303857e-22
5.3658204921e-09 5.0821900560e-09 1.3943306329e-22
9.9419597970e-09 2.0641341245e-08 2.7886570465e-22
9.8740288356e-09 2.0666871295e-08 2.7886547230e-22
1.3879981926e-08 4.4713551772e-08 4.1830130342e-22
1.3855340720e-08 4.4756579737e-08 4.1830131006e-22
1.7267142353e-08 7.6086537530e-08 5.5773720522e-22
1.7396075539e-08 7.6394156202e-08 5.5773776188e-22
2.0157181681e-08 1.1416631311e-07 6.9717221525e-22
2.0397981617e-08 1.1414622968e-07 6.9717329099e-22
2.2595381552e-08 1.5751604294e-07 8.3660790788e-22
2.2760563859e-08 1.5731718790e-07 8.3660842618e-22
2.4503117017e-08 2.0490583709e-07 9.7604075059e-22
2.4639909465e-08 2.0504122992e-07 9.7604193000e-22
2.5851845667e-08 2.5581669185e-07 1.1154721992e-21
2.5995911759e-08 2.5572827101e-07 1.1154733561e-21
2.6665368683e-08 3.0871206357e-07 1.2549039302e-21
2.6805937261e-08 3.0875836063e-07 1.2549048152e-21
2.6978095953e-08 3.6283574342e-07 1.3943357322e-21
2.7058100931e-08 3.6274771740e-07 1.3943368122e-21

CELL_DATA 20
SCALARS YOUNG_MODULUS_MEAN double 1
LOOKUP_TABLE default
1.9978159427e+11
1.9978159427e+11
1.9978159427e+11
1.9978159427e+11
1.9978159427e+11
1.9978159427e+11
1.9978159427e+11
1.9978159427e+11
1.9978159427e+11
1.9978159427e+11
1.9978159427e+11
1.9978159427e+11
1.9978159427e+11
1.9978159427e+11
1.9978159427e+11
1.9978159427e+11
1.9978159427e+11
1.9978159427e+11
1.9978159427e+11
1.9978159427e+11
SCALARS YOUNG_MODULUS_STD double 1
LOOKUP_TABLE default
3.9009977456e+10
3.9009977456e+10
3.9009977456e+10
3.9009977456e+10
3.9009977456e+10
3.9009977456e+10
3.9009977456e+10
3.9009977456e+10
3.9009977456e+10
3.9009977456e+10
3.9009977456e+10
3.9009977456e+10
3.9009977456e+10
3.9009977456e+10
3.9009977456e+10
3.9009977456e+10
3.9009977456e+10
3.9009977456e+10
3.9009977456e+10
3.9009977456e+10
