# vtk DataFile Version 4.2
SMC_aCS level 3, q = 1.0000
ASCII
DATASET UNSTRUCTURED_GRID
POINTS 22 double
0.0000000000e+00 0.0000000000e+00 0.0000000000e+00
0.0000000000e+00 1.0000000000e-01 0.0000000000e+00
1.0000000000e-01 0.0000000000e+00 0.0000000000e+00
1.0000000000e-01 1.0000000000e-01 0.0000000000e+00
2.0000000000e-01 0.0000000000e+00 0.0000000000e+00
2.0000000000e-01 1.0000000000e-01 0.0000000000e+00
3.0000000000e-01 0.0000000000e+00 0.0000000000e+00
3.0000000000e-01 1.0000000000e-01 0.0000000000e+00
4.0000000000e-01 0.0000000000e+00 0.0000000000e+00
4.0000000000e-01 1.0000000000e-01 0.0000000000e+00
5.0000000000e-01 0.0000000000e+00 0.0000000000e+00
5.0000000000e-01 1.0000000000e-01 0.0000000000e+00
6.0000000000e-01 0.0000000000e+00 0.0000000000e+00
6.0000000000e-01 1.0000000000e-01 0.0000000000e+00
7.0000000000e-01 0.0000000000e+00 0.0000000000e+00
7.0000000000e-01 1.0000000000e-01 0.0000000000e+00
8.0000000000e-01 0.0000000000e+00 0.0000000000e+00
8.0000000000e-01 1.0000000000e-01 0.0000000000e+00
9.0000000000e-01 0.0000000000e+00 0.0000000000e+00
9.0000000000e-01 1.0000000000e-01 0.0000000000e+00
1.0000000000e+00 0.0000000000e+00 0.0000000000e+00
1.0000000000e+00 1.0000000000e-01 0.0000000000e+00

CELLS 20 80
3 0 2 1
3 16 18 17
3 11 9 8
3 16 17 14
3 8 9 7
3 8 10 11
3 11 10 13
3 19 17 18
3 19 18 21
3 3 1 2
3 3 2 4
3 4 6 5
3 4 5 3
3 20 21 18
3 7 5 6
3 7 6 8
3 12 14 13
3 12 13 10
3 15 13 14
3 15 14 17

CELL_TYPES 20
5
5
5
5
5
5
5
5
5
5
5
5
5
5
5
5
5
5
5
5

POINT_DATA 22
VECTORS DISPLACEMENT_MEAN double
0.0000000000e+00 0.0000000000e+00 0.0000000000e+00
0.0000000000e+00 0.0000000000e+00 0.0000000000e+00
-2.4141236839e-08 -2.2581182870e-08 -2.2158223537e+20
2.3849251215e-08 -2.2588682192e-08 -2.2158223537e+20
-4.4189936489e-08 -9.1746356995e-08 -4.4316447075e+20
4.3887461012e-08 -9.1858118858e-08 -4.4316447075e+20
-6.1690175525e-08 -1.9874188145e-07 -6.6474670612e+20
6.1589687471e-08 -1.9893294922e-07 -6.6474670612e+20
-7.6751229097e-08 -3.3819327168e-07 -8.8632894149e+20
7.7325915576e-08 -3.3956386767e-07 -8.8632894149e+20
-8.9596879004e-08 -5.0746499839e-07 -1.1079111769e+21
9.0671688142e-08 -5.0737394502e-07 -1.1079111769e+21
-1.0043440448e-07 -7.0015356304e-07 -1.3294934122e+21
1.0117655379e-07 -6.9927014180e-07 -1.3294934122e+21
-1.0891011955e-07 -9.1080822719e-07 -1.5510756476e+21
1.0952313799e-07 -9.1141312339e-07 -1.5510756476e+21
-1.1490225833e-07 -1.1371170759e-06 -1.7726578830e+21
1.1555719634e-07 -1.1367254573e-06 -1.7726578830e+21
-1.1851874074e-07 -1.3722489714e-06 -1.9942401184e+21
1.1916151827e-07 -1.3724634776e-06 -1.9942401184e+21
-1.1993641525e-07 -1.6128645529e-06 -2.2158223537e+21
1.2029897941e-07 -1.6124783044e-06 -2.2158223537e+21
VECTORS DISPLACEMENT_STD double
0.0000000000e+00 0.0000000000e+00 0.0000000000e+00
0.0000000000e+00 0.0000000000e+00 0.0000000000e+00
5.3682158049e-10 5.0201103233e-10 4.3455015951e+19
5.3008958360e-10 5.0208582760e-10 4.3455015951e+19
9.8317369723e-10 2.0400296189e-09 8.6910031902e+19
9.7553314450e-10 2.0423421675e-09 8.6910031902e+19
1.3729060032e-09 4.4186992796e-09 1.3036504785e+20
1.3688692455e-09 4.4223940758e-09 1.3036504785e+20
1.7117479460e-09 7.5213547673e-09 1.7382006380e+20
1.7195329040e-09 7.5517545153e-09 1.7382006380e+20
1.9982379299e-09 1.1289796400e-08 2.1727507976e+20
2.0152052866e-09 1.1287711640e-08 2.1727507976e+20
2.2417932916e-09 1.5577566905e-08 2.6073009571e+20
2.2485408968e-09 1.5557696374e-08 2.6073009571e+20
2.4322841190e-09 2.0267532076e-08 3.0418511166e+20
2.4375059454e-09 2.0281146158e-08 3.0418511166e+20
2.5617021450e-09 2.5301978722e-08 3.4764012761e+20
2.5690401518e-09 2.5293056245e-08 3.4764012761e+20
2.6487445789e-09 3.0535375238e-08 3.9109514356e+20
2.6549719301e-09 3.0540499315e-08 3.9109514356e+20
2.6797071558e-09 3.5895890214e-08 4.3455015951e+20
2.6851162670e-09 3.5892484113e-08 4.3455015951e+20

CELL_DATA 20
SCALARS YOUNG_MODULUS_MEAN double 1
LOOKUP_TABLE default
2.4313950058e+11
2.4313950058e+11
2.4313950058e+11
2.4313950058e+11
2.4313950058e+11
2.4313950058e+11
2.4313950058e+11
2.4313950058e+11
2.4313950058e+11
2.4313950058e+11
2.4313950058e+11
2.4313950058e+11
2.4313950058e+11
2.4313950058e+11
2.4313950058e+11
2.4313950058e+11
2.4313950058e+11
2.4313950058e+11
2.4313950058e+11
2.4313950058e+11
SCALARS YOUNG_MODULUS_STD double 1
LOOKUP_TABLE default
5.4124013660e+09
5.4124013660e+09
5.4124013660e+09
5.4124013660e+09
5.4124013660e+09
5.4124013660e+09
5.4124013660e+09
5.4124013660e+09
5.4124013660e+09
5.4124013660e+09
5.4124013660e+09
5.4124013660e+09
5.4124013660e+09
5.4124013660e+09
5.4124013660e+09
5.4124013660e+09
5.4124013660e+09
5.4124013660e+09
5.4124013660e+09
5.4124013660e+09
