# vtk DataFile Version 4.2
SMC_aCS level 1, q = 0.0356
ASCII
DATASET UNSTRUCTURED_GRID
POINTS 22 double
0.0000000000e+00 0.0000000000e+00 0.0000000000e+00
0.0000000000e+00 1.0000000000e-01 0.0000000000e+00
1.0000000000e-01 0.0000000000e+00 0.0000000000e+00
1.0000000000e-01 1.0000000000e-01 0.0000000000e+00
2.0000000000e-01 0.0000000000e+00 0.0000000000e+00
2.0000000000e-01 1.0000000000e-01 0.0000000000e+00
3.0000000000e-01 0.0000000000e+00 0.0000000000e+00
3.0000000000e-01 1.0000000000e-01 0.0000000000e+00
4.0000000000e-01 0.0000000000e+00 0.0000000000e+00
4.0000000000e-01 1.0000000000e-01 0.0000000000e+00
5.0000000000e-01 0.0000000000e+00 0.0000000000e+00
5.0000000000e-01 1.0000000000e-01 0.0000000000e+00
6.0000000000e-01 0.0000000000e+00 0.0000000000e+00
6.0000000000e-01 1.0000000000e-01 0.0000000000e+00
7.0000000000e-01 0.0000000000e+00 0.0000000000e+00
7.0000000000e-01 1.0000000000e-01 0.0000000000e+00
8.0000000000e-01 0.0000000000e+00 0.0000000000e+00
8.0000000000e-01 1.0000000000e-01 0.0000000000e+00
9.0000000000e-01 0.0000000000e+00 0.0000000000e+00
9.0000000000e-01 1.0000000000e-01 0.0000000000e+00
1.0000000000e+00 0.0000000000e+00 0.0000000000e+00
1.0000000000e+00 1.0000000000e-01 0.0000000000e+00

CELLS 20 80
3 0 2 1
3 16 18 17
3 11 9 8
3 16 17 14
3 8 9 7
3 8 10 11
3 11 10 13
3 19 17 18
3 19 18 21
3 3 1 2
3 3 2 4
3 4 6 5
3 4 5 3
3 20 21 18
3 7 5 6
3 7 6 8
3 12 14 13
3 12 13 10
3 15 13 14
3 15 14 17

CELL_TYPES 20
5
5
5
5
5
5
5
5
5
5
5
5
5
5
5
5
5
5
5
5

POINT_DATA 22
VECTORS DISPLACEMENT_MEAN double
0.0000000000e+00 0.0000000000e+00 0.0000000000e+00
0.0000000000e+00 0.0000000000e+00 0.0000000000e+00
-2.3257241422e-08 -2.1754286455e-08 -1.9535131654e+20
2.2975892353e-08 -2.1761416495e-08 -1.9535131654e+20
-4.2567581642e-08 -8.8381846702e-08 -3.9070263309e+20
4.2276933543e-08 -8.8490534779e-08 -3.9070263309e+20
-5.9428796878e-08 -1.9145100593e-07 -5.8605394963e+20
5.9325169755e-08 -1.9163490468e-07 -5.8605394963e+20
-7.3936394401e-08 -3.2578277474e-07 -7.8140526617e+20
7.4486775273e-08 -3.2710127271e-07 -7.8140526617e+20
-8.6310941265e-08 -4.8884083621e-07 -9.7675658272e+20
8.7341322093e-08 -4.8875071290e-07 -9.7675658272e+20
-9.6749901966e-08 -6.7445668597e-07 -1.1721078993e+21
9.7457690654e-08 -6.7360165913e-07 -1.1721078993e+21
-1.0491445354e-07 -8.7737008043e-07 -1.3674592158e+21
1.0549882264e-07 -8.7795011283e-07 -1.3674592158e+21
-1.1069030340e-07 -1.0953608918e-06 -1.5628105323e+21
1.1131073364e-07 -1.0949866817e-06 -1.5628105323e+21
-1.1417394997e-07 -1.3218553731e-06 -1.7581618489e+21
1.1477656495e-07 -1.3220609579e-06 -1.7581618489e+21
-1.1553805955e-07 -1.5536273864e-06 -1.9535131654e+21
1.1588264630e-07 -1.5532544077e-06 -1.9535131654e+21
VECTORS DISPLACEMENT_STD double
0.0000000000e+00 0.0000000000e+00 0.0000000000e+00
0.0000000000e+00 0.0000000000e+00 0.0000000000e+00
3.1115550520e-09 2.9098640491e-09 8.2426759574e+19
3.0738752666e-09 2.9110780451e-09 8.2426759574e+19
5.6973356731e-09 1.1824942266e-08 1.6485351915e+20
5.6578147302e-09 1.1841110407e-08 1.6485351915e+20
7.9524669770e-09 2.5618272593e-08 2.4728027872e+20
7.9400287971e-09 2.5643176850e-08 2.4728027872e+20
9.8926091087e-09 4.3592318223e-08 3.2970703830e+20
9.9660413149e-09 4.3769711879e-08 3.2970703830e+20
1.1549293972e-08 6.5408346380e-08 4.1213379787e+20
1.1686403022e-08 6.5397893840e-08 4.1213379787e+20
1.2944389633e-08 9.0240305977e-08 4.9456055744e+20
1.3037735253e-08 9.0125933263e-08 4.9456055744e+20
1.4037256349e-08 1.1738893233e-07 5.7698731702e+20
1.4116601830e-08 1.1746651847e-07 5.7698731702e+20
1.4807312530e-08 1.4655051285e-07 6.5941407659e+20
1.4886731847e-08 1.4649901660e-07 6.5941407659e+20
1.5269538188e-08 1.7683992220e-07 7.4184083616e+20
1.5348930242e-08 1.7686591093e-07 7.4184083616e+20
1.5450521848e-08 2.0782988943e-07 8.2426759574e+20
1.5497319789e-08 2.0778155449e-07 8.2426759574e+20

CELL_DATA 20
SCALARS YOUNG_MODULUS_MEAN double 1
LOOKUP_TABLE default
2.5705039657e+11
2.5705039657e+11
2.5705039657e+11
2.5705039657e+11
2.5705039657e+11
2.5705039657e+11
2.5705039657e+11
2.5705039657e+11
2.5705039657e+11
2.5705039657e+11
2.5705039657e+11
2.5705039657e+11
2.5705039657e+11
2.5705039657e+11
2.5705039657e+11
2.5705039657e+11
2.5705039657e+11
2.5705039657e+11
2.5705039657e+11
2.5705039657e+11
SCALARS YOUNG_MODULUS_STD double 1
LOOKUP_TABLE default
3.6501390286e+10
3.6501390286e+10
3.6501390286e+10
3.6501390286e+10
3.6501390286e+10
3.6501390286e+10
3.6501390286e+10
3.6501390286e+10
3.6501390286e+10
3.6501390286e+10
3.6501390286e+10
3.6501390286e+10
3.6501390286e+10
3.6501390286e+10
3.6501390286e+10
3.6501390286e+10
3.6501390286e+10
3.6501390286e+10
3.6501390286e+10
3.6501390286e+10
