# vtk DataFile Version 4.2
SMC_aCS level 2, q = 0.6295
ASCII
DATASET UNSTRUCTURED_GRID
POINTS 22 double
0.0000000000e+00 0.0000000000e+00 0.0000000000e+00
0.0000000000e+00 1.0000000000e-01 0.0000000000e+00
1.0000000000e-01 0.0000000000e+00 0.0000000000e+00
1.0000000000e-01 1.0000000000e-01 0.0000000000e+00
2.0000000000e-01 0.0000000000e+00 0.0000000000e+00
2.0000000000e-01 1.0000000000e-01 0.0000000000e+00
3.0000000000e-01 0.0000000000e+00 0.0000000000e+00
3.0000000000e-01 1.0000000000e-01 0.0000000000e+00
4.0000000000e-01 0.0000000000e+00 0.0000000000e+00
4.0000000000e-01 1.0000000000e-01 0.0000000000e+00
5.0000000000e-01 0.0000000000e+00 0.0000000000e+00
5.0000000000e-01 1.0000000000e-01 0.0000000000e+00
6.0000000000e-01 0.0000000000e+00 0.0000000000e+00
6.0000000000e-01 1.0000000000e-01 0.0000000000e+00
7.0000000000e-01 0.0000000000e+00 0.0000000000e+00
7.0000000000e-01 1.0000000000e-01 0.0000000000e+00
8.0000000000e-01 0.0000000000e+00 0.0000000000e+00
8.0000000000e-01 1.0000000000e-01 0.0000000000e+00
9.0000000000e-01 0.0000000000e+00 0.0000000000e+00
9.0000000000e-01 1.0000000000e-01 0.0000000000e+00
1.0000000000e+00 0.0000000000e+00 0.0000000000e+00
1.0000000000e+00 1.0000000000e-01 0.0000000000e+00

CELLS 20 80
3 0 2 1
3 16 18 17
3 11 9 8
3 16 17 14
3 8 9 7
3 8 10 11
3 11 10 13
3 19 17 18
3 19 18 21
3 3 1 2
3 3 2 4
3 4 6 5
3 4 5 3
3 20 21 18
3 7 5 6
3 7 6 8
3 12 14 13
3 12 13 10
3 15 13 14
3 15 14 17

CELL_TYPES 20
5
5
5
5
5
5
5
5
5
5
5
5
5
5
5
5
5
5
5
5

POINT_DATA 22
VECTORS DISPLACEMENT_MEAN double
0.0000000000e+00 0.0000000000e+00 0.0000000000e+00
0.0000000000e+00 0.0000000000e+00 0.0000000000e+00
-2.4094303444e-08 -2.2537087835e-08 -2.0662600972e+20
2.3802681156e-08 -2.2544446875e-08 -2.0662600972e+20
-4.4102165521e-08 -9.1566325405e-08 -4.1325201945e+20
4.3802002815e-08 -9.1678750559e-08 -4.1325201945e+20
-6.1569206658e-08 -1.9835140690e-07 -6.1987802917e+20
6.1465877553e-08 -1.9854247481e-07 -6.1987802917e+20
-7.6597966675e-08 -3.3752348201e-07 -8.2650403890e+20
7.7170870713e-08 -3.3889125047e-07 -8.2650403890e+20
-8.9418887395e-08 -5.0645531115e-07 -1.0331300486e+21
9.0488099816e-08 -5.0636280299e-07 -1.0331300486e+21
-1.0023185417e-07 -6.9875540273e-07 -1.2397560583e+21
1.0096546193e-07 -6.9787008840e-07 -1.2397560583e+21
-1.0869738418e-07 -9.0897826349e-07 -1.4463820681e+21
1.0929986177e-07 -9.0957681314e-07 -1.4463820681e+21
-1.1467698388e-07 -1.1348255293e-06 -1.6530080778e+21
1.1531147579e-07 -1.1344326774e-06 -1.6530080778e+21
-1.1828661059e-07 -1.3694676457e-06 -1.8596340875e+21
1.1890159029e-07 -1.3696806395e-06 -1.8596340875e+21
-1.1969770142e-07 -1.6095831177e-06 -2.0662600972e+21
1.2004131778e-07 -1.6091964025e-06 -2.0662600972e+21
VECTORS DISPLACEMENT_STD double
0.0000000000e+00 0.0000000000e+00 0.0000000000e+00
0.0000000000e+00 0.0000000000e+00 0.0000000000e+00
6.9059469368e-10 6.4621855551e-10 6.9672944072e+19
6.8270109850e-10 6.4668940787e-10 6.9672944072e+19
1.2642214258e-09 2.6244716303e-09 1.3934588814e+20
1.2548415616e-09 2.6284039771e-09 1.3934588814e+20
1.7650401986e-09 5.6841144369e-09 2.0901883222e+20
1.7616609079e-09 5.6902702217e-09 2.0901883222e+20
2.1951340881e-09 9.6725467142e-09 2.7869177629e+20
2.2132877933e-09 9.7117079951e-09 2.7869177629e+20
2.5640615862e-09 1.4514692438e-08 3.4836472036e+20
2.5947910058e-09 1.4510779109e-08 3.4836472036e+20
2.8729393079e-09 2.0025072627e-08 4.1803766443e+20
2.8961675304e-09 1.9999889749e-08 4.1803766443e+20
3.1133429560e-09 2.6049978155e-08 4.8771060850e+20
3.1362932995e-09 2.6066280879e-08 4.8771060850e+20
3.2844756012e-09 3.2519957500e-08 5.5738355258e+20
3.3098365347e-09 3.2507616576e-08 5.5738355258e+20
3.3898232949e-09 3.9242214104e-08 6.2705649665e+20
3.4155503472e-09 3.9247370002e-08 6.2705649665e+20
3.4313811386e-09 4.6129989357e-08 6.9672944072e+20
3.4571481659e-09 4.6120035837e-08 6.9672944072e+20

CELL_DATA 20
SCALARS YOUNG_MODULUS_MEAN double 1
LOOKUP_TABLE default
2.4369202441e+11
2.4369202441e+11
2.4369202441e+11
2.4369202441e+11
2.4369202441e+11
2.4369202441e+11
2.4369202441e+11
2.4369202441e+11
2.4369202441e+11
2.4369202441e+11
2.4369202441e+11
2.4369202441e+11
2.4369202441e+11
2.4369202441e+11
2.4369202441e+11
2.4369202441e+11
2.4369202441e+11
2.4369202441e+11
2.4369202441e+11
2.4369202441e+11
SCALARS YOUNG_MODULUS_STD double 1
LOOKUP_TABLE default
6.9838882859e+09
6.9838882859e+09
6.9838882859e+09
6.9838882859e+09
6.9838882859e+09
6.9838882859e+09
6.9838882859e+09
6.9838882859e+09
6.9838882859e+09
6.9838882859e+09
6.9838882859e+09
6.9838882859e+09
6.9838882859e+09
6.9838882859e+09
6.9838882859e+09
6.9838882859e+09
6.9838882859e+09
6.9838882859e+09
6.9838882859e+09
6.9838882859e+09
