# vtk DataFile Version 4.2
SMC_aCS level 0, q = 0.0000
ASCII
DATASET UNSTRUCTURED_GRID
POINTS 22 double
0.0000000000e+00 0.0000000000e+00 0.0000000000e+00
0.0000000000e+00 1.0000000000e-01 0.0000000000e+00
1.0000000000e-01 0.0000000000e+00 0.0000000000e+00
1.0000000000e-01 1.0000000000e-01 0.0000000000e+00
2.0000000000e-01 0.0000000000e+00 0.0000000000e+00
2.0000000000e-01 1.0000000000e-01 0.0000000000e+00
3.0000000000e-01 0.0000000000e+00 0.0000000000e+00
3.0000000000e-01 1.0000000000e-01 0.0000000000e+00
4.0000000000e-01 0.0000000000e+00 0.0000000000e+00
4.0000000000e-01 1.0000000000e-01 0.0000000000e+00
5.0000000000e-01 0.0000000000e+00 0.0000000000e+00
5.0000000000e-01 1.0000000000e-01 0.0000000000e+00
6.0000000000e-01 0.0000000000e+00 0.0000000000e+00
6.0000000000e-01 1.0000000000e-01 0.0000000000e+00
7.0000000000e-01 0.0000000000e+00 0.0000000000e+00
7.0000000000e-01 1.0000000000e-01 0.0000000000e+00
8.0000000000e-01 0.0000000000e+00 0.0000000000e+00
8.0000000000e-01 1.0000000000e-01 0.0000000000e+00
9.0000000000e-01 0.0000000000e+00 0.0000000000e+00
9.0000000000e-01 1.0000000000e-01 0.0000000000e+00
1.0000000000e+00 0.0000000000e+00 0.0000000000e+00
1.0000000000e+00 1.0000000000e-01 0.0000000000e+00

CELLS 20 80
3 0 2 1
3 16 18 17
3 11 9 8
3 16 17 14
3 8 9 7
3 8 10 11
3 11 10 13
3 19 17 18
3 19 18 21
3 3 1 2
3 3 2 4
3 4 6 5
3 4 5 3
3 20 21 18
3 7 5 6
3 7 6 8
3 12 14 13
3 12 13 10
3 15 13 14
3 15 14 17

CELL_TYPES 20
5
5
5
5
5
5
5
5
5
5
5
5
5
5
5
5
5
5
5
5

POINT_DATA 22
VECTORS DISPLACEMENT_MEAN double
0.0000000000e+00 0.0000000000e+00 0.0000000000e+00
0.0000000000e+00 0.0000000000e+00 0.0000000000e+00
-3.6047928545e-08 -3.3718454181e-08 -4.4638581165e+19
3.5611396361e-08 -3.3729835138e-08 -4.4638581165e+19
-6.5980410338e-08 -1.3699087843e-07 -8.9277162331e+19
6.5529032506e-08 -1.3715954237e-07 -8.9277162331e+19
-9.2115440868e-08 -2.9674625922e-07 -1.3391574350e+20
9.1950180791e-08 -2.9703147699e-07 -1.3391574350e+20
-1.1459627808e-07 -5.0495596492e-07 -1.7855432466e+20
1.1545113268e-07 -5.0699763391e-07 -1.7855432466e+20
-1.3377481351e-07 -7.5767737493e-07 -2.2319290583e+20
1.3537208264e-07 -7.5754388061e-07 -2.2319290583e+20
-1.4995694650e-07 -1.0453732621e-06 -2.6783148699e+20
1.5105154002e-07 -1.0440520768e-06 -2.6783148699e+20
-1.6261962993e-07 -1.3598816610e-06 -3.1247006816e+20
1.6352316931e-07 -1.3607799529e-06 -3.1247006816e+20
-1.7157431722e-07 -1.6977610456e-06 -3.5710864932e+20
1.7252480212e-07 -1.6971745991e-06 -3.5710864932e+20
-1.7697368474e-07 -2.0488162930e-06 -4.0174723049e+20
1.7790036392e-07 -2.0491240759e-06 -4.0174723049e+20
-1.7905459256e-07 -2.4080234077e-06 -4.4638581165e+20
1.7957539454e-07 -2.4074384162e-06 -4.4638581165e+20
VECTORS DISPLACEMENT_STD double
0.0000000000e+00 0.0000000000e+00 0.0000000000e+00
0.0000000000e+00 0.0000000000e+00 0.0000000000e+00
2.6442627133e-08 2.4732561988e-08 9.1032043920e+19
2.6122362276e-08 2.4741004921e-08 9.1032043920e+19
4.8401778152e-08 1.0048820493e-07 1.8206408784e+20
4.8070677274e-08 1.0061260293e-07 1.8206408784e+20
6.7573314954e-08 2.1768184583e-07 2.7309613176e+20
6.7454585327e-08 2.1789193920e-07 2.7309613176e+20
8.4063093408e-08 3.7041836479e-07 3.6412817568e+20
8.4690986760e-08 3.7191614530e-07 3.6412817568e+20
9.8134053489e-08 5.5580730597e-07 4.5516021960e+20
9.9306755290e-08 5.5570927908e-07 4.5516021960e+20
1.1000336955e-07 7.6685104044e-07 5.4619226352e+20
1.1080905231e-07 7.6588408452e-07 5.4619226352e+20
1.1929067793e-07 9.9756530111e-07 6.3722430744e+20
1.1995963753e-07 9.9822464629e-07 6.3722430744e+20
1.2585757087e-07 1.2454222568e-06 7.2825635136e+20
1.2656005853e-07 1.2449910974e-06 7.2825635136e+20
1.2981678769e-07 1.5029383864e-06 8.1928839528e+20
1.3050361984e-07 1.5031627669e-06 8.1928839528e+20
1.3133784013e-07 1.7664346811e-06 9.1032043920e+20
1.3172922551e-07 1.7660061698e-06 9.1032043920e+20

CELL_DATA 20
SCALARS YOUNG_MODULUS_MEAN double 1
LOOKUP_TABLE default
2.3126787144e+11
2.3126787144e+11
2.3126787144e+11
2.3126787144e+11
2.3126787144e+11
2.3126787144e+11
2.3126787144e+11
2.3126787144e+11
2.3126787144e+11
2.3126787144e+11
2.3126787144e+11
2.3126787144e+11
2.3126787144e+11
2.3126787144e+11
2.3126787144e+11
2.3126787144e+11
2.3126787144e+11
2.3126787144e+11
2.3126787144e+11
2.3126787144e+11
SCALARS YOUNG_MODULUS_STD double 1
LOOKUP_TABLE default
1.0921120374e+11
1.0921120374e+11
1.0921120374e+11
1.0921120374e+11
1.0921120374e+11
1.0921120374e+11
1.0921120374e+11
1.0921120374e+11
1.0921120374e+11
1.0921120374e+11
1.0921120374e+11
1.0921120374e+11
1.0921120374e+11
1.0921120374e+11
1.0921120374e+11
1.0921120374e+11
1.0921120374e+11
1.0921120374e+11
1.0921120374e+11
1.0921120374e+11
