# vtk DataFile Version 4.2
SMC_aCS level 3, q = 0.8986
ASCII
DATASET UNSTRUCTURED_GRID
POINTS 69 double
5.0000000000e-01 2.5000000000e-01 0.0000000000e+00
4.0000000000e-01 2.5000000000e-01 0.0000000000e+00
5.0000000000e-01 1.2500000000e-01 0.0000000000e+00
3.5833333330e-01 1.4419872980e-01 0.0000000000e+00
3.0000000000e-01 2.5000000000e-01 0.0000000000e+00
5.0000000000e-01 0.0000000000e+00 0.0000000000e+00
5.0000000000e-01 0.0000000000e+00 0.0000000000e+00
3.0000000000e-01 7.6794919200e-02 0.0000000000e+00
2.5000000000e-01 1.6339745960e-01 0.0000000000e+00
4.0000000000e-01 0.0000000000e+00 0.0000000000e+00
2.0000000000e-01 2.5000000000e-01 0.0000000000e+00
3.0000000000e-01 0.0000000000e+00 0.0000000000e+00
2.2166666670e-01 7.9438052400e-02 0.0000000000e+00
1.5000000000e-01 1.6339745960e-01 0.0000000000e+00
5.0000000000e-01 -1.2500000000e-01 0.0000000000e+00
3.5833333330e-01 -1.0580127020e-01 0.0000000000e+00
2.0000000000e-01 0.0000000000e+00 0.0000000000e+00
1.0000000000e-01 2.5000000000e-01 0.0000000000e+00
1.3000000000e-01 7.3038475800e-02 0.0000000000e+00
2.5000000000e-01 -8.6602540400e-02 0.0000000000e+00
3.0000000000e-01 -1.7320508080e-01 0.0000000000e+00
1.0000000000e-01 0.0000000000e+00 0.0000000000e+00
1.5000000000e-01 -8.6602540400e-02 0.0000000000e+00
0.0000000000e+00 2.5000000000e-01 0.0000000000e+00
0.0000000000e+00 2.5000000000e-01 0.0000000000e+00
5.0000000000e-01 -2.5000000000e-01 0.0000000000e+00
2.2166666670e-01 -1.7056194760e-01 0.0000000000e+00
4.0000000000e-01 -2.5000000000e-01 0.0000000000e+00
0.0000000000e+00 1.2500000000e-01 0.0000000000e+00
3.0000000000e-01 -2.5000000000e-01 0.0000000000e+00
0.0000000000e+00 0.0000000000e+00 0.0000000000e+00
0.0000000000e+00 0.0000000000e+00 0.0000000000e+00
0.0000000000e+00 0.0000000000e+00 0.0000000000e+00
1.3000000000e-01 -1.7696152420e-01 0.0000000000e+00
2.0000000000e-01 -2.5000000000e-01 0.0000000000e+00
-1.0000000000e-01 2.5000000000e-01 0.0000000000e+00
0.0000000000e+00 -1.2500000000e-01 0.0000000000e+00
1.0000000000e-01 -2.5000000000e-01 0.0000000000e+00
-1.0000000000e-01 0.0000000000e+00 0.0000000000e+00
-1.4166666670e-01 1.4419872980e-01 0.0000000000e+00
-2.0000000000e-01 2.5000000000e-01 0.0000000000e+00
0.0000000000e+00 -2.5000000000e-01 0.0000000000e+00
0.0000000000e+00 -2.5000000000e-01 0.0000000000e+00
-2.0000000000e-01 7.6794919200e-02 0.0000000000e+00
-1.4166666670e-01 -1.0580127020e-01 0.0000000000e+00
-2.0000000000e-01 0.0000000000e+00 0.0000000000e+00
-2.5000000000e-01 1.6339745960e-01 0.0000000000e+00
-1.0000000000e-01 -2.5000000000e-01 0.0000000000e+00
-2.7833333330e-01 7.9438052400e-02 0.0000000000e+00
-3.0000000000e-01 2.5000000000e-01 0.0000000000e+00
-2.0000000000e-01 -1.7320508080e-01 0.0000000000e+00
-2.5000000000e-01 -8.6602540400e-02 0.0000000000e+00
-3.0000000000e-01 0.0000000000e+00 0.0000000000e+00
-3.5000000000e-01 1.6339745960e-01 0.0000000000e+00
-2.0000000000e-01 -2.5000000000e-01 0.0000000000e+00
-2.7833333330e-01 -1.7056194760e-01 0.0000000000e+00
-3.7000000000e-01 7.3038475800e-02 0.0000000000e+00
-4.0000000000e-01 2.5000000000e-01 0.0000000000e+00
-3.5000000000e-01 -8.6602540400e-02 0.0000000000e+00
-4.0000000000e-01 0.0000000000e+00 0.0000000000e+00
-3.0000000000e-01 -2.5000000000e-01 0.0000000000e+00
-3.7000000000e-01 -1.7696152420e-01 0.0000000000e+00
-5.0000000000e-01 2.5000000000e-01 0.0000000000e+00
-5.0000000000e-01 1.2500000000e-01 0.0000000000e+00
-4.0000000000e-01 -2.5000000000e-01 0.0000000000e+00
-5.0000000000e-01 0.0000000000e+00 0.0000000000e+00
-5.0000000000e-01 0.0000000000e+00 0.0000000000e+00
-5.0000000000e-01 -1.2500000000e-01 0.0000000000e+00
-5.0000000000e-01 -2.5000000000e-01 0.0000000000e+00

CELLS 96 384
3 68 64 67
3 47 42 36
3 52 59 58
3 58 59 67
3 52 58 51
3 51 58 55
3 52 51 45
3 55 58 61
3 51 55 50
3 45 51 44
3 61 58 67
3 50 55 54
3 50 54 47
3 44 51 50
3 50 47 44
3 44 47 36
3 60 54 55
3 60 55 61
3 38 45 44
3 38 44 36
3 64 60 61
3 64 61 67
3 31 38 36
3 59 66 67
3 66 59 63
3 38 31 28
3 49 57 53
3 53 57 63
3 49 53 46
3 46 53 48
3 49 46 40
3 48 53 56
3 46 48 43
3 40 46 39
3 56 53 63
3 43 48 45
3 43 45 38
3 39 46 43
3 43 38 39
3 39 38 28
3 52 45 48
3 52 48 56
3 35 40 39
3 35 39 28
3 59 52 56
3 59 56 63
3 23 35 28
3 57 62 63
3 42 37 36
3 27 25 14
3 16 21 22
3 22 21 36
3 16 22 19
3 19 22 26
3 16 19 11
3 26 22 33
3 19 26 20
3 11 19 15
3 33 22 36
3 20 26 29
3 20 29 27
3 15 19 20
3 20 27 15
3 15 27 14
3 34 29 26
3 34 26 33
3 9 11 15
3 9 15 14
3 37 34 33
3 37 33 36
3 5 9 14
3 21 31 36
3 31 21 28
3 9 5 2
3 10 17 13
3 13 17 28
3 10 13 8
3 8 13 12
3 10 8 4
3 12 13 18
3 8 12 7
3 4 8 3
3 18 13 28
3 7 12 11
3 7 11 9
3 3 8 7
3 7 9 3
3 3 9 2
3 16 11 12
3 16 12 18
3 1 4 3
3 1 3 2
3 21 16 18
3 21 18 28
3 0 1 2
3 17 23 28

CELL_TYPES 96
5
5
5
5
5
5
5
5
5
5
5
5
5
5
5
5
5
5
5
5
5
5
5
5
5
5
5
5
5
5
5
5
5
5
5
5
5
5
5
5
5
5
5
5
5
5
5
5
5
5
5
5
5
5
5
5
5
5
5
5
5
5
5
5
5
5
5
5
5
5
5
5
5
5
5
5
5
5
5
5
5
5
5
5
5
5
5
5
5
5
5
5
5
5
5
5

POINT_DATA 69
VECTORS DISPLACEMENT_MEAN double
1.0744492095e-06 -3.1485352371e-06 1.3745334450e-19
1.0237487247e-06 -2.6270159655e-06 1.2370806922e-19
4.8362043201e-07 -3.0914513253e-06 1.3745380327e-19
5.5110898814e-07 -2.4293771852e-06 1.1798112502e-19
9.7835862695e-07 -2.1737960188e-06 1.0996276915e-19
-1.0410061437e-08 -3.0716725041e-06 1.3745425705e-19
0.0000000000e+00 0.0000000000e+00 0.0000000000e+00
2.7746369579e-07 -2.1628439375e-06 1.0996312696e-19
5.9540606377e-07 -1.9468262393e-06 1.0309026687e-19
-1.0347619709e-08 -2.6168776977e-06 1.2370876499e-19
9.1171732437e-07 -1.7457467332e-06 9.6217435085e-20
-9.6346241960e-09 -2.1622462449e-06 1.0996328048e-19
2.7329672673e-07 -1.8183751245e-06 9.9195874427e-20
5.4469838088e-07 -1.5282847528e-06 8.9344850623e-20
-5.0166097199e-07 -3.0963940193e-06 1.3745463800e-19
-4.1308929282e-07 -2.4298756076e-06 1.1798174995e-19
-9.1008073194e-09 -1.7251651603e-06 9.6217821179e-20
8.2051524955e-07 -1.3460433057e-06 8.2471973821e-20
2.2872255436e-07 -1.4379321589e-06 8.6595923031e-20
-3.2115156282e-07 -1.9421708440e-06 1.0309071825e-19
-6.7074547672e-07 -2.1671758782e-06 1.0996368898e-19
-7.6254583965e-09 -1.3178143841e-06 8.2472385144e-20
-2.9341007785e-07 -1.5201387834e-06 8.9345252905e-20
6.9571653942e-07 -9.8733294635e-07 6.8726470730e-20
0.0000000000e+00 0.0000000000e+00 0.0000000000e+00
-1.0975352668e-06 -3.1584211632e-06 1.3745499445e-19
-6.2431582701e-07 -1.8256529829e-06 9.9196325285e-20
-1.0432759590e-06 -2.6289716326e-06 1.2370935260e-19
3.2813916229e-07 -9.6543393297e-07 6.8726709201e-20
-9.9396630610e-07 -2.1739315285e-06 1.0996383189e-19
0.0000000000e+00 0.0000000000e+00 0.0000000000e+00
-5.4176724086e-09 -9.6001563230e-07 6.8726968548e-20
0.0000000000e+00 0.0000000000e+00 0.0000000000e+00
-5.9071447735e-07 -1.4501788457e-06 8.6596316303e-20
-9.2493169807e-07 -1.7462603894e-06 9.6218286686e-20
5.9177641288e-07 -6.9139924442e-07 5.4981159455e-20
-3.3462889738e-07 -9.6547442646e-07 6.8727113208e-20
-8.2825714214e-07 -1.3479004481e-06 8.2472710579e-20
-4.0873165706e-09 -6.6417403774e-07 5.4981538705e-20
3.0013224577e-07 -5.6601022795e-07 4.9254167371e-20
4.7892157105e-07 -4.4910173218e-07 4.1236020641e-20
0.0000000000e+00 0.0000000000e+00 0.0000000000e+00
-6.9864450404e-07 -9.8876738245e-07 6.8727126948e-20
1.3419093381e-07 -4.1856271253e-07 4.1236135435e-20
-2.2087054983e-07 -5.6279584585e-07 4.9254354596e-20
-2.7777341251e-09 -4.1550386020e-07 4.1236193942e-20
2.5602333865e-07 -3.2462201236e-07 3.4363466664e-20
-5.9650104274e-07 -6.9131008728e-07 5.4981596307e-20
1.0599986319e-07 -2.5503843933e-07 3.0468969118e-20
3.5212057634e-07 -2.5237360374e-07 2.7490796944e-20
-3.2243501220e-07 -4.3275965122e-07 4.1236252465e-20
-1.3366221563e-07 -3.1333732906e-07 3.4363530011e-20
-1.9560254380e-09 -2.1322425529e-07 2.7490837770e-20
1.6217800950e-07 -1.4820457193e-07 2.0618195557e-20
-4.8280900244e-07 -4.4987306400e-07 4.1236282431e-20
-2.4620844064e-07 -2.7099781948e-07 3.0469018070e-20
5.7169769460e-08 -1.0893062410e-07 1.7869073388e-20
2.2450221429e-07 -8.4430168139e-08 1.3745525761e-20
-8.1958549657e-08 -1.3829447294e-07 2.0618196934e-20
-8.8668480957e-10 -6.8984595873e-08 1.3745488583e-20
-3.5545386350e-07 -2.5313636783e-07 2.7490891893e-20
-1.6011494688e-07 -1.2169894193e-07 1.7869128786e-20
0.0000000000e+00 0.0000000000e+00 0.0000000000e+00
0.0000000000e+00 0.0000000000e+00 0.0000000000e+00
-2.2550198789e-07 -8.5923874594e-08 1.3745437589e-20
0.0000000000e+00 0.0000000000e+00 0.0000000000e+00
0.0000000000e+00 0.0000000000e+00 0.0000000000e+00
0.0000000000e+00 0.0000000000e+00 0.0000000000e+00
0.0000000000e+00 0.0000000000e+00 0.0000000000e+00
VECTORS DISPLACEMENT_STD double
1.5868262955e-07 7.6404492206e-08 4.6462784579e-20
1.4194009696e-07 3.5260904655e-08 4.1816076550e-20
1.4144839545e-07 5.4706549806e-08 4.6461755148e-20
1.3701681979e-07 2.7957397074e-08 3.9879321471e-20
1.3219293900e-07 2.3555550654e-08 3.7169434261e-20
1.5538418991e-07 4.8868248195e-08 4.6460735105e-20
0.0000000000e+00 0.0000000000e+00 0.0000000000e+00
1.4002922633e-07 2.3124924234e-08 3.7168474538e-20
1.2972844374e-07 2.2596821533e-08 3.4845681230e-20
1.5343457221e-07 3.2931245694e-08 4.1814401668e-20
1.2387541876e-07 2.3744464000e-08 3.2522699066e-20
1.5011027021e-07 2.3243348264e-08 3.7168055272e-20
1.3406763291e-07 2.4004035329e-08 3.3528807375e-20
1.2297915305e-07 2.7475763864e-08 3.0199140916e-20
1.4298377320e-07 5.7075426234e-08 4.6459726511e-20
1.4073681442e-07 2.8465142595e-08 3.9877814190e-20
1.4192118292e-07 2.5442191610e-08 3.2521746397e-20
1.1891897176e-07 2.8912588651e-08 2.7876229064e-20
1.2690547384e-07 2.9942704965e-08 2.9269619374e-20
1.3619580559e-07 2.3179302202e-08 3.4844472162e-20
1.3493514359e-07 2.3896198811e-08 3.7167175927e-20
1.2984895668e-07 3.1782380594e-08 2.7875521984e-20
1.2766444589e-07 2.8417812883e-08 3.0198269806e-20
1.2548900930e-07 3.2117052868e-08 2.3230106565e-20
0.0000000000e+00 0.0000000000e+00 0.0000000000e+00
1.6397106891e-07 8.1255506606e-08 4.6458984018e-20
1.2873424888e-07 2.4103929905e-08 3.3527683647e-20
1.4634668324e-07 3.6676444007e-08 4.1812952831e-20
1.1630988244e-07 3.2987068171e-08 2.3229789123e-20
1.3554882419e-07 2.4546927400e-08 3.7166844873e-20
0.0000000000e+00 0.0000000000e+00 0.0000000000e+00
1.1691155960e-07 3.2366912041e-08 2.3229350048e-20
0.0000000000e+00 0.0000000000e+00 0.0000000000e+00
1.2116809884e-07 2.8904478218e-08 2.9268754473e-20
1.2560734980e-07 2.4834618457e-08 3.2520741575e-20
1.0070024463e-07 2.5681745422e-08 1.8584208208e-20
1.1400166226e-07 3.2824215343e-08 2.3229005130e-20
1.1775909715e-07 2.9336503905e-08 2.7874814036e-20
1.0327281488e-07 2.2372569577e-08 1.8583355797e-20
8.9458798995e-08 2.0379486509e-08 1.6647954500e-20
7.6713106771e-08 1.9485265860e-08 1.3937866011e-20
0.0000000000e+00 0.0000000000e+00 0.0000000000e+00
1.2089541639e-07 3.2196617724e-08 2.3228853263e-20
8.0081012915e-08 1.4810300698e-08 1.3937515604e-20
8.9082904484e-08 1.9590484020e-08 1.6647251329e-20
8.6402839132e-08 1.4063464087e-08 1.3937291744e-20
6.5032565921e-08 1.4032985699e-08 1.1614574690e-20
9.7966404527e-08 2.5247318709e-08 1.8582794969e-20
6.1549870321e-08 9.7841180661e-09 1.0298070027e-20
5.4320656731e-08 1.5410649176e-08 9.2916008884e-21
7.5163373670e-08 1.6654229371e-08 1.3936893747e-20
6.7442587423e-08 1.1428278259e-08 1.1614076677e-20
6.3390157378e-08 7.2736724425e-09 9.2912816109e-21
4.0429278025e-08 9.1083322257e-09 6.9685023728e-21
7.4807296173e-08 1.8864072835e-08 1.3936676119e-20
5.7340348214e-08 1.2567489344e-08 1.0297581049e-20
3.7840276852e-08 5.0768011771e-09 6.0392913188e-21
3.4491073819e-08 7.8637336327e-09 4.6455375442e-21
4.2248316149e-08 6.1409431897e-09 6.9682049836e-21
3.3649683545e-08 2.6115702743e-09 4.6454416067e-21
5.2987328060e-08 1.4983662096e-08 9.2907940636e-21
3.4906982840e-08 8.3324856943e-09 6.0389684274e-21
0.0000000000e+00 0.0000000000e+00 0.0000000000e+00
0.0000000000e+00 0.0000000000e+00 0.0000000000e+00
3.3604627134e-08 7.6481290046e-09 4.6452655794e-21
0.0000000000e+00 0.0000000000e+00 0.0000000000e+00
0.0000000000e+00 0.0000000000e+00 0.0000000000e+00
0.0000000000e+00 0.0000000000e+00 0.0000000000e+00
0.0000000000e+00 0.0000000000e+00 0.0000000000e+00

CELL_DATA 96
SCALARS YOUNG_MODULUS_MEAN double 1
LOOKUP_TABLE default
7.3875678478e+10
7.3875678478e+10
7.3875678478e+10
7.3875678478e+10
7.3875678478e+10
7.3875678478e+10
7.3875678478e+10
7.3875678478e+10
7.3875678478e+10
7.3875678478e+10
7.3875678478e+10
7.3875678478e+10
7.3875678478e+10
7.3875678478e+10
7.3875678478e+10
7.3875678478e+10
7.3875678478e+10
7.3875678478e+10
7.3875678478e+10
7.3875678478e+10
7.3875678478e+10
7.3875678478e+10
7.3875678478e+10
7.3875678478e+10
7.5668280364e+10
7.5668280364e+10
7.5668280364e+10
7.5668280364e+10
7.5668280364e+10
7.5668280364e+10
7.5668280364e+10
7.5668280364e+10
7.5668280364e+10
7.5668280364e+10
7.5668280364e+10
7.5668280364e+10
7.5668280364e+10
7.5668280364e+10
7.5668280364e+10
7.5668280364e+10
7.5668280364e+10
7.5668280364e+10
7.5668280364e+10
7.5668280364e+10
7.5668280364e+10
7.5668280364e+10
7.5668280364e+10
7.5668280364e+10
5.1331232809e+10
5.1331232809e+10
5.1331232809e+10
5.1331232809e+10
5.1331232809e+10
5.1331232809e+10
5.1331232809e+10
5.1331232809e+10
5.1331232809e+10
5.1331232809e+10
5.1331232809e+10
5.1331232809e+10
5.1331232809e+10
5.1331232809e+10
5.1331232809e+10
5.1331232809e+10
5.1331232809e+10
5.1331232809e+10
5.1331232809e+10
5.1331232809e+10
5.1331232809e+10
5.1331232809e+10
5.1331232809e+10
5.1331232809e+10
5.7769325273e+10
5.7769325273e+10
5.7769325273e+10
5.7769325273e+10
5.7769325273e+10
5.7769325273e+10
5.7769325273e+10
5.7769325273e+10
5.7769325273e+10
5.7769325273e+10
5.7769325273e+10
5.7769325273e+10
5.7769325273e+10
5.7769325273e+10
5.7769325273e+10
5.7769325273e+10
5.7769325273e+10
5.7769325273e+10
5.7769325273e+10
5.7769325273e+10
5.7769325273e+10
5.7769325273e+10
5.7769325273e+10
5.7769325273e+10
SCALARS YOUNG_MODULUS_STD double 1
LOOKUP_TABLE default
2.7351064355e+10
2.7351064355e+10
2.7351064355e+10
2.7351064355e+10
2.7351064355e+10
2.7351064355e+10
2.7351064355e+10
2.7351064355e+10
2.7351064355e+10
2.7351064355e+10
2.7351064355e+10
2.7351064355e+10
2.7351064355e+10
2.7351064355e+10
2.7351064355e+10
2.7351064355e+10
2.7351064355e+10
2.7351064355e+10
2.7351064355e+10
2.7351064355e+10
2.7351064355e+10
2.7351064355e+10
2.7351064355e+10
2.7351064355e+10
2.7641646968e+10
2.7641646968e+10
2.7641646968e+10
2.7641646968e+10
2.7641646968e+10
2.7641646968e+10
2.7641646968e+10
2.7641646968e+10
2.7641646968e+10
2.7641646968e+10
2.7641646968e+10
2.7641646968e+10
2.7641646968e+10
2.7641646968e+10
2.7641646968e+10
2.7641646968e+10
2.7641646968e+10
2.7641646968e+10
2.7641646968e+10
2.7641646968e+10
2.7641646968e+10
2.7641646968e+10
2.7641646968e+10
2.7641646968e+10
2.6907038701e+10
2.6907038701e+10
2.6907038701e+10
2.6907038701e+10
2.6907038701e+10
2.6907038701e+10
2.6907038701e+10
2.6907038701e+10
2.6907038701e+10
2.6907038701e+10
2.6907038701e+10
2.6907038701e+10
2.6907038701e+10
2.6907038701e+10
2.6907038701e+10
2.6907038701e+10
2.6907038701e+10
2.6907038701e+10
2.6907038701e+10
2.6907038701e+10
2.6907038701e+10
2.6907038701e+10
2.6907038701e+10
2.6907038701e+10
3.2369816532e+10
3.2369816532e+10
3.2369816532e+10
3.2369816532e+10
3.2369816532e+10
3.2369816532e+10
3.2369816532e+10
3.2369816532e+10
3.2369816532e+10
3.2369816532e+10
3.2369816532e+10
3.2369816532e+10
3.2369816532e+10
3.2369816532e+10
3.2369816532e+10
3.2369816532e+10
3.2369816532e+10
3.2369816532e+10
3.2369816532e+10
3.2369816532e+10
3.2369816532e+10
3.2369816532e+10
3.2369816532e+10
3.2369816532e+10
