# vtk DataFile Version 4.2
SMC_aCS level 0, q = 0.0000
ASCII
DATASET UNSTRUCTURED_GRID
POINTS 69 double
5.0000000000e-01 2.5000000000e-01 0.0000000000e+00
4.0000000000e-01 2.5000000000e-01 0.0000000000e+00
5.0000000000e-01 1.2500000000e-01 0.0000000000e+00
3.5833333330e-01 1.4419872980e-01 0.0000000000e+00
3.0000000000e-01 2.5000000000e-01 0.0000000000e+00
5.0000000000e-01 0.0000000000e+00 0.0000000000e+00
5.0000000000e-01 0.0000000000e+00 0.0000000000e+00
3.0000000000e-01 7.6794919200e-02 0.0000000000e+00
2.5000000000e-01 1.6339745960e-01 0.0000000000e+00
4.0000000000e-01 0.0000000000e+00 0.0000000000e+00
2.0000000000e-01 2.5000000000e-01 0.0000000000e+00
3.0000000000e-01 0.0000000000e+00 0.0000000000e+00
2.2166666670e-01 7.9438052400e-02 0.0000000000e+00
1.5000000000e-01 1.6339745960e-01 0.0000000000e+00
5.0000000000e-01 -1.2500000000e-01 0.0000000000e+00
3.5833333330e-01 -1.0580127020e-01 0.0000000000e+00
2.0000000000e-01 0.0000000000e+00 0.0000000000e+00
1.0000000000e-01 2.5000000000e-01 0.0000000000e+00
1.3000000000e-01 7.3038475800e-02 0.0000000000e+00
2.5000000000e-01 -8.6602540400e-02 0.0000000000e+00
3.0000000000e-01 -1.7320508080e-01 0.0000000000e+00
1.0000000000e-01 0.0000000000e+00 0.0000000000e+00
1.5000000000e-01 -8.6602540400e-02 0.0000000000e+00
0.0000000000e+00 2.5000000000e-01 0.0000000000e+00
0.0000000000e+00 2.5000000000e-01 0.0000000000e+00
5.0000000000e-01 -2.5000000000e-01 0.0000000000e+00
2.2166666670e-01 -1.7056194760e-01 0.0000000000e+00
4.0000000000e-01 -2.5000000000e-01 0.0000000000e+00
0.0000000000e+00 1.2500000000e-01 0.0000000000e+00
3.0000000000e-01 -2.5000000000e-01 0.0000000000e+00
0.0000000000e+00 0.0000000000e+00 0.0000000000e+00
0.0000000000e+00 0.0000000000e+00 0.0000000000e+00
0.0000000000e+00 0.0000000000e+00 0.0000000000e+00
1.3000000000e-01 -1.7696152420e-01 0.0000000000e+00
2.0000000000e-01 -2.5000000000e-01 0.0000000000e+00
-1.0000000000e-01 2.5000000000e-01 0.0000000000e+00
0.0000000000e+00 -1.2500000000e-01 0.0000000000e+00
1.0000000000e-01 -2.5000000000e-01 0.0000000000e+00
-1.0000000000e-01 0.0000000000e+00 0.0000000000e+00
-1.4166666670e-01 1.4419872980e-01 0.0000000000e+00
-2.0000000000e-01 2.5000000000e-01 0.0000000000e+00
0.0000000000e+00 -2.5000000000e-01 0.0000000000e+00
0.0000000000e+00 -2.5000000000e-01 0.0000000000e+00
-2.0000000000e-01 7.6794919200e-02 0.0000000000e+00
-1.4166666670e-01 -1.0580127020e-01 0.0000000000e+00
-2.0000000000e-01 0.0000000000e+00 0.0000000000e+00
-2.5000000000e-01 1.6339745960e-01 0.0000000000e+00
-1.0000000000e-01 -2.5000000000e-01 0.0000000000e+00
-2.7833333330e-01 7.9438052400e-02 0.0000000000e+00
-3.0000000000e-01 2.5000000000e-01 0.0000000000e+00
-2.0000000000e-01 -1.7320508080e-01 0.0000000000e+00
-2.5000000000e-01 -8.6602540400e-02 0.0000000000e+00
-3.0000000000e-01 0.0000000000e+00 0.0000000000e+00
-3.5000000000e-01 1.6339745960e-01 0.0000000000e+00
-2.0000000000e-01 -2.5000000000e-01 0.0000000000e+00
-2.7833333330e-01 -1.7056194760e-01 0.0000000000e+00
-3.7000000000e-01 7.3038475800e-02 0.0000000000e+00
-4.0000000000e-01 2.5000000000e-01 0.0000000000e+00
-3.5000000000e-01 -8.6602540400e-02 0.0000000000e+00
-4.0000000000e-01 0.0000000000e+00 0.0000000000e+00
-3.0000000000e-01 -2.5000000000e-01 0.0000000000e+00
-3.7000000000e-01 -1.7696152420e-01 0.0000000000e+00
-5.0000000000e-01 2.5000000000e-01 0.0000000000e+00
-5.0000000000e-01 1.2500000000e-01 0.0000000000e+00
-4.0000000000e-01 -2.5000000000e-01 0.0000000000e+00
-5.0000000000e-01 0.0000000000e+00 0.0000000000e+00
-5.0000000000e-01 0.0000000000e+00 0.0000000000e+00
-5.0000000000e-01 -1.2500000000e-01 0.0000000000e+00
-5.0000000000e-01 -2.5000000000e-01 0.0000000000e+00

CELLS 96 384
3 68 64 67
3 47 42 36
3 52 59 58
3 58 59 67
3 52 58 51
3 51 58 55
3 52 51 45
3 55 58 61
3 51 55 50
3 45 51 44
3 61 58 67
3 50 55 54
3 50 54 47
3 44 51 50
3 50 47 44
3 44 47 36
3 60 54 55
3 60 55 61
3 38 45 44
3 38 44 36
3 64 60 61
3 64 61 67
3 31 38 36
3 59 66 67
3 66 59 63
3 38 31 28
3 49 57 53
3 53 57 63
3 49 53 46
3 46 53 48
3 49 46 40
3 48 53 56
3 46 48 43
3 40 46 39
3 56 53 63
3 43 48 45
3 43 45 38
3 39 46 43
3 43 38 39
3 39 38 28
3 52 45 48
3 52 48 56
3 35 40 39
3 35 39 28
3 59 52 56
3 59 56 63
3 23 35 28
3 57 62 63
3 42 37 36
3 27 25 14
3 16 21 22
3 22 21 36
3 16 22 19
3 19 22 26
3 16 19 11
3 26 22 33
3 19 26 20
3 11 19 15
3 33 22 36
3 20 26 29
3 20 29 27
3 15 19 20
3 20 27 15
3 15 27 14
3 34 29 26
3 34 26 33
3 9 11 15
3 9 15 14
3 37 34 33
3 37 33 36
3 5 9 14
3 21 31 36
3 31 21 28
3 9 5 2
3 10 17 13
3 13 17 28
3 10 13 8
3 8 13 12
3 10 8 4
3 12 13 18
3 8 12 7
3 4 8 3
3 18 13 28
3 7 12 11
3 7 11 9
3 3 8 7
3 7 9 3
3 3 9 2
3 16 11 12
3 16 12 18
3 1 4 3
3 1 3 2
3 21 16 18
3 21 18 28
3 0 1 2
3 17 23 28

CELL_TYPES 96
5
5
5
5
5
5
5
5
5
5
5
5
5
5
5
5
5
5
5
5
5
5
5
5
5
5
5
5
5
5
5
5
5
5
5
5
5
5
5
5
5
5
5
5
5
5
5
5
5
5
5
5
5
5
5
5
5
5
5
5
5
5
5
5
5
5
5
5
5
5
5
5
5
5
5
5
5
5
5
5
5
5
5
5
5
5
5
5
5
5
5
5
5
5
5
5

POINT_DATA 69
VECTORS DISPLACEMENT_MEAN double
1.0972356313e-06 -3.3097000372e-06 1.4555584333e-20
1.0565732086e-06 -2.7998599849e-06 1.3100474782e-20
5.0885574229e-07 -3.2638406823e-06 1.4555510829e-20
5.8053543666e-07 -2.6031963264e-06 1.2494090548e-20
1.0203166190e-06 -2.3447411918e-06 1.1645329179e-20
-1.4329776576e-09 -3.2476431195e-06 1.4555465493e-20
0.0000000000e+00 0.0000000000e+00 0.0000000000e+00
2.9922721099e-07 -2.3359937725e-06 1.1645177057e-20
6.3368350164e-07 -2.1168391051e-06 1.0917614404e-20
-1.5384218282e-09 -2.7916903698e-06 1.3100322383e-20
9.6717264235e-07 -1.9095061872e-06 1.0189986038e-20
-1.2414766885e-09 -2.3355022493e-06 1.1645132568e-20
2.9809693280e-07 -1.9877996879e-06 1.0505214307e-20
5.9304781889e-07 -1.6890270797e-06 9.4622234542e-21
-5.1169831173e-07 -3.2652795653e-06 1.4555577124e-20
-4.2339497336e-07 -2.6031243167e-06 1.2493988258e-20
-1.3798854009e-09 -1.8930877548e-06 1.0189867578e-20
8.9429162850e-07 -1.4964665658e-06 8.7345751449e-21
2.5608727911e-07 -1.5981488752e-06 9.1711280427e-21
-3.3258946459e-07 -2.1130083320e-06 1.0917504632e-20
-6.9302767647e-07 -2.3390988191e-06 1.1645146488e-20
-1.0824121113e-09 -1.4739878222e-06 8.7345210035e-21
-3.1161342394e-07 -1.6825065063e-06 9.4622393698e-21
7.9327935083e-07 -1.1169383406e-06 7.2790156293e-21
0.0000000000e+00 0.0000000000e+00 0.0000000000e+00
-1.1010858003e-06 -3.3116622303e-06 1.4555691593e-20
-6.5464028577e-07 -1.9933053155e-06 1.0505208503e-20
-1.0604257748e-06 -2.8001089610e-06 1.3100394141e-20
3.8357759353e-07 -1.0972686659e-06 7.2790054495e-21
-1.0229391183e-06 -2.3442581321e-06 1.1645193733e-20
0.0000000000e+00 0.0000000000e+00 0.0000000000e+00
-6.6972730412e-10 -1.0926475188e-06 7.2790862347e-21
0.0000000000e+00 0.0000000000e+00 0.0000000000e+00
-6.3570054420e-07 -1.6075480595e-06 9.1712143947e-21
-9.6983157628e-07 -1.9092710225e-06 1.0189946483e-20
6.7903845717e-07 -7.8818825934e-07 5.8233300075e-21
-3.8456827073e-07 -1.0971526751e-06 7.2791345804e-21
-8.9503224783e-07 -1.4972096816e-06 8.7346805662e-21
-5.6054386850e-10 -7.5626515131e-07 5.8234533152e-21
3.4777608776e-07 -6.4540736336e-07 5.2167968951e-21
5.5018346581e-07 -5.1260362622e-07 4.3676306631e-21
0.0000000000e+00 0.0000000000e+00 0.0000000000e+00
-7.9343509715e-07 -1.1176096793e-06 7.2792113171e-21
1.5710188054e-07 -4.7691831403e-07 4.3676338051e-21
-2.5183046391e-07 -6.4054586267e-07 5.2169523475e-21
-1.6993870646e-10 -4.7312615215e-07 4.3676718914e-21
2.9549641565e-07 -3.7023521479e-07 3.6396148461e-21
-6.8067479597e-07 -7.8696712041e-07 5.8235068674e-21
1.2382493879e-07 -2.9050659219e-07 3.2271937228e-21
4.0441424466e-07 -2.8806337728e-07 2.9117098001e-21
-3.6792436688e-07 -4.9252122219e-07 4.3677083009e-21
-1.5164984817e-07 -3.5640227383e-07 3.6397681036e-21
-1.9906676066e-10 -2.4268214159e-07 2.9118101733e-21
1.8705680051e-07 -1.6892878567e-07 2.1838651200e-21
-5.5099953015e-07 -5.1219279197e-07 4.3676890404e-21
-2.8070026669e-07 -3.0809864490e-07 3.2272092592e-21
6.7032960254e-08 -1.2385758796e-07 1.8926675849e-21
2.5768150379e-07 -9.6339766684e-08 1.4560876924e-21
-9.2992402285e-08 -1.5697139899e-07 2.1838277085e-21
8.6475538688e-11 -7.8080645457e-08 1.4558931721e-21
-4.0530051227e-07 -2.8781962630e-07 2.9117387866e-21
-1.8245637887e-07 -1.3811369587e-07 1.8926604377e-21
0.0000000000e+00 0.0000000000e+00 0.0000000000e+00
0.0000000000e+00 0.0000000000e+00 0.0000000000e+00
-2.5688774883e-07 -9.7460479454e-08 1.4559341672e-21
0.0000000000e+00 0.0000000000e+00 0.0000000000e+00
0.0000000000e+00 0.0000000000e+00 0.0000000000e+00
0.0000000000e+00 0.0000000000e+00 0.0000000000e+00
0.0000000000e+00 0.0000000000e+00 0.0000000000e+00
VECTORS DISPLACEMENT_STD double
4.5822232614e-07 1.3391444120e-06 9.5191695910e-21
4.4831742469e-07 1.1656393766e-06 8.5675705317e-21
2.7421118068e-07 1.3325002309e-06 9.5203967790e-21
2.9564459448e-07 1.0962626182e-06 8.1717923035e-21
4.4140298613e-07 1.0013726900e-06 7.6159880192e-21
1.9347342699e-07 1.3301880998e-06 9.5217056408e-21
0.0000000000e+00 0.0000000000e+00 0.0000000000e+00
2.2274905198e-07 1.0006442681e-06 7.6169860161e-21
3.1605956586e-07 9.2000605467e-07 7.1406154226e-21
1.9266318828e-07 1.1646576187e-06 8.5695651484e-21
4.3367484920e-07 8.4056439194e-07 6.6644612570e-21
1.9129137908e-07 1.0006336228e-06 7.6174167695e-21
2.2252754124e-07 8.7425769665e-07 6.8712894637e-21
3.1163520002e-07 7.6082774300e-07 6.1889511918e-21
2.7730239054e-07 1.3321365038e-06 9.5229075601e-21
2.5399417002e-07 1.0961126853e-06 8.1735620803e-21
1.8792581268e-07 8.3973512069e-07 6.6653239425e-21
4.2667206270e-07 6.8282830390e-07 5.7129748268e-21
2.1412556716e-07 7.2912082363e-07 5.9987495335e-21
2.3219756896e-07 9.1969245756e-07 7.1417498552e-21
3.3512159871e-07 1.0007448087e-06 7.6183663783e-21
1.8274434487e-07 6.8222268756e-07 5.7132541279e-21
2.2883100430e-07 7.6058512271e-07 6.1894986532e-21
4.2383294081e-07 5.2958557708e-07 4.7610653530e-21
0.0000000000e+00 0.0000000000e+00 0.0000000000e+00
4.6208059538e-07 1.3381509832e-06 9.5239284791e-21
3.2777779754e-07 8.7444528977e-07 6.8722451107e-21
4.5257141332e-07 1.1653400866e-06 8.5713297402e-21
2.6196831331e-07 5.2580162925e-07 4.7611219060e-21
4.4558254589e-07 1.0011393239e-06 7.6187481072e-21
0.0000000000e+00 0.0000000000e+00 0.0000000000e+00
1.7659208964e-07 5.2589208272e-07 4.7611434626e-21
0.0000000000e+00 0.0000000000e+00 0.0000000000e+00
3.3193641664e-07 7.2945502913e-07 5.9992555506e-21
4.3776713685e-07 8.4039385758e-07 6.6661801543e-21
3.6136481029e-07 3.7954059582e-07 3.8089221159e-21
2.6503005696e-07 5.2624146312e-07 4.7613437878e-21
4.3049682771e-07 6.8294333825e-07 5.7138137228e-21
1.5842525002e-07 3.6402105335e-07 3.8090715902e-21
2.1856965808e-07 3.1099907794e-07 3.4122674554e-21
2.9018481527e-07 2.4757492827e-07 2.8569554278e-21
0.0000000000e+00 0.0000000000e+00 0.0000000000e+00
4.2740480881e-07 5.3041010681e-07 4.7616849484e-21
1.4534723706e-07 2.2951580240e-07 2.8569145930e-21
1.8827977097e-07 3.0863728340e-07 3.4124556727e-21
1.3316560779e-07 2.2764947151e-07 2.8569096890e-21
1.7455666226e-07 1.7849863452e-07 2.3809231844e-21
3.6567330538e-07 3.7955792800e-07 3.8095405222e-21
1.1255067596e-07 1.3966191136e-07 2.1110878201e-21
2.1179633188e-07 1.3971036373e-07 1.9048859201e-21
2.1623762057e-07 2.3781927661e-07 2.8570920248e-21
1.2992340532e-07 1.7165872649e-07 2.3807922613e-21
9.8186895139e-08 1.1660248941e-07 1.9047019887e-21
1.0969728688e-07 8.1681098157e-08 1.4287027425e-21
2.9345106953e-07 2.4788329749e-07 2.8572865677e-21
1.6473671881e-07 1.4908213660e-07 2.1111049897e-21
6.7359298218e-08 5.9387492537e-08 1.2381660197e-21
1.3460870101e-07 4.7350312312e-08 9.5263358610e-22
8.0945817024e-08 7.5612313049e-08 1.4284850631e-21
5.3297461072e-08 3.7194429267e-08 9.5241382677e-22
2.1429362772e-07 1.4026030609e-07 1.9049166467e-21
1.0488834837e-07 6.7469588070e-08 1.2380577349e-21
0.0000000000e+00 0.0000000000e+00 0.0000000000e+00
0.0000000000e+00 0.0000000000e+00 0.0000000000e+00
1.3563757426e-07 4.8275740190e-08 9.5249979896e-22
0.0000000000e+00 0.0000000000e+00 0.0000000000e+00
0.0000000000e+00 0.0000000000e+00 0.0000000000e+00
0.0000000000e+00 0.0000000000e+00 0.0000000000e+00
0.0000000000e+00 0.0000000000e+00 0.0000000000e+00

CELL_DATA 96
SCALARS YOUNG_MODULUS_MEAN double 1
LOOKUP_TABLE default
7.7586383699e+10
7.7586383699e+10
7.7586383699e+10
7.7586383699e+10
7.7586383699e+10
7.7586383699e+10
7.7586383699e+10
7.7586383699e+10
7.7586383699e+10
7.7586383699e+10
7.7586383699e+10
7.7586383699e+10
7.7586383699e+10
7.7586383699e+10
7.7586383699e+10
7.7586383699e+10
7.7586383699e+10
7.7586383699e+10
7.7586383699e+10
7.7586383699e+10
7.7586383699e+10
7.7586383699e+10
7.7586383699e+10
7.7586383699e+10
7.7376222618e+10
7.7376222618e+10
7.7376222618e+10
7.7376222618e+10
7.7376222618e+10
7.7376222618e+10
7.7376222618e+10
7.7376222618e+10
7.7376222618e+10
7.7376222618e+10
7.7376222618e+10
7.7376222618e+10
7.7376222618e+10
7.7376222618e+10
7.7376222618e+10
7.7376222618e+10
7.7376222618e+10
7.7376222618e+10
7.7376222618e+10
7.7376222618e+10
7.7376222618e+10
7.7376222618e+10
7.7376222618e+10
7.7376222618e+10
7.4687396036e+10
7.4687396036e+10
7.4687396036e+10
7.4687396036e+10
7.4687396036e+10
7.4687396036e+10
7.4687396036e+10
7.4687396036e+10
7.4687396036e+10
7.4687396036e+10
7.4687396036e+10
7.4687396036e+10
7.4687396036e+10
7.4687396036e+10
7.4687396036e+10
7.4687396036e+10
7.4687396036e+10
7.4687396036e+10
7.4687396036e+10
7.4687396036e+10
7.4687396036e+10
7.4687396036e+10
7.4687396036e+10
7.4687396036e+10
7.6914171156e+10
7.6914171156e+10
7.6914171156e+10
7.6914171156e+10
7.6914171156e+10
7.6914171156e+10
7.6914171156e+10
7.6914171156e+10
7.6914171156e+10
7.6914171156e+10
7.6914171156e+10
7.6914171156e+10
7.6914171156e+10
7.6914171156e+10
7.6914171156e+10
7.6914171156e+10
7.6914171156e+10
7.6914171156e+10
7.6914171156e+10
7.6914171156e+10
7.6914171156e+10
7.6914171156e+10
7.6914171156e+10
7.6914171156e+10
SCALARS YOUNG_MODULUS_STD double 1
LOOKUP_TABLE default
3.5779678697e+10
3.5779678697e+10
3.5779678697e+10
3.5779678697e+10
3.5779678697e+10
3.5779678697e+10
3.5779678697e+10
3.5779678697e+10
3.5779678697e+10
3.5779678697e+10
3.5779678697e+10
3.5779678697e+10
3.5779678697e+10
3.5779678697e+10
3.5779678697e+10
3.5779678697e+10
3.5779678697e+10
3.5779678697e+10
3.5779678697e+10
3.5779678697e+10
3.5779678697e+10
3.5779678697e+10
3.5779678697e+10
3.5779678697e+10
3.5665386381e+10
3.5665386381e+10
3.5665386381e+10
3.5665386381e+10
3.5665386381e+10
3.5665386381e+10
3.5665386381e+10
3.5665386381e+10
3.5665386381e+10
3.5665386381e+10
3.5665386381e+10
3.5665386381e+10
3.5665386381e+10
3.5665386381e+10
3.5665386381e+10
3.5665386381e+10
3.5665386381e+10
3.5665386381e+10
3.5665386381e+10
3.5665386381e+10
3.5665386381e+10
3.5665386381e+10
3.5665386381e+10
3.5665386381e+10
3.5332589159e+10
3.5332589159e+10
3.5332589159e+10
3.5332589159e+10
3.5332589159e+10
3.5332589159e+10
3.5332589159e+10
3.5332589159e+10
3.5332589159e+10
3.5332589159e+10
3.5332589159e+10
3.5332589159e+10
3.5332589159e+10
3.5332589159e+10
3.5332589159e+10
3.5332589159e+10
3.5332589159e+10
3.5332589159e+10
3.5332589159e+10
3.5332589159e+10
3.5332589159e+10
3.5332589159e+10
3.5332589159e+10
3.5332589159e+10
3.7095968641e+10
3.7095968641e+10
3.7095968641e+10
3.7095968641e+10
3.7095968641e+10
3.7095968641e+10
3.7095968641e+10
3.7095968641e+10
3.7095968641e+10
3.7095968641e+10
3.7095968641e+10
3.7095968641e+10
3.7095968641e+10
3.7095968641e+10
3.7095968641e+10
3.7095968641e+10
3.7095968641e+10
3.7095968641e+10
3.7095968641e+10
3.7095968641e+10
3.7095968641e+10
3.7095968641e+10
3.7095968641e+10
3.7095968641e+10
