# vtk DataFile Version 4.2
SMC_aCS level 4, q = 1.0000
ASCII
DATASET UNSTRUCTURED_GRID
POINTS 69 double
5.0000000000e-01 2.5000000000e-01 0.0000000000e+00
4.0000000000e-01 2.5000000000e-01 0.0000000000e+00
5.0000000000e-01 1.2500000000e-01 0.0000000000e+00
3.5833333330e-01 1.4419872980e-01 0.0000000000e+00
3.0000000000e-01 2.5000000000e-01 0.0000000000e+00
5.0000000000e-01 0.0000000000e+00 0.0000000000e+00
5.0000000000e-01 0.0000000000e+00 0.0000000000e+00
3.0000000000e-01 7.6794919200e-02 0.0000000000e+00
2.5000000000e-01 1.6339745960e-01 0.0000000000e+00
4.0000000000e-01 0.0000000000e+00 0.0000000000e+00
2.0000000000e-01 2.5000000000e-01 0.0000000000e+00
3.0000000000e-01 0.0000000000e+00 0.0000000000e+00
2.2166666670e-01 7.9438052400e-02 0.0000000000e+00
1.5000000000e-01 1.6339745960e-01 0.0000000000e+00
5.0000000000e-01 -1.2500000000e-01 0.0000000000e+00
3.5833333330e-01 -1.0580127020e-01 0.0000000000e+00
2.0000000000e-01 0.0000000000e+00 0.0000000000e+00
1.0000000000e-01 2.5000000000e-01 0.0000000000e+00
1.3000000000e-01 7.3038475800e-02 0.0000000000e+00
2.5000000000e-01 -8.6602540400e-02 0.0000000000e+00
3.0000000000e-01 -1.7320508080e-01 0.0000000000e+00
1.0000000000e-01 0.0000000000e+00 0.0000000000e+00
1.5000000000e-01 -8.6602540400e-02 0.0000000000e+00
0.0000000000e+00 2.5000000000e-01 0.0000000000e+00
0.0000000000e+00 2.5000000000e-01 0.0000000000e+00
5.0000000000e-01 -2.5000000000e-01 0.0000000000e+00
2.2166666670e-01 -1.7056194760e-01 0.0000000000e+00
4.0000000000e-01 -2.5000000000e-01 0.0000000000e+00
0.0000000000e+00 1.2500000000e-01 0.0000000000e+00
3.0000000000e-01 -2.5000000000e-01 0.0000000000e+00
0.0000000000e+00 0.0000000000e+00 0.0000000000e+00
0.0000000000e+00 0.0000000000e+00 0.0000000000e+00
0.0000000000e+00 0.0000000000e+00 0.0000000000e+00
1.3000000000e-01 -1.7696152420e-01 0.0000000000e+00
2.0000000000e-01 -2.5000000000e-01 0.0000000000e+00
-1.0000000000e-01 2.5000000000e-01 0.0000000000e+00
0.0000000000e+00 -1.2500000000e-01 0.0000000000e+00
1.0000000000e-01 -2.5000000000e-01 0.0000000000e+00
-1.0000000000e-01 0.0000000000e+00 0.0000000000e+00
-1.4166666670e-01 1.4419872980e-01 0.0000000000e+00
-2.0000000000e-01 2.5000000000e-01 0.0000000000e+00
0.0000000000e+00 -2.5000000000e-01 0.0000000000e+00
0.0000000000e+00 -2.5000000000e-01 0.0000000000e+00
-2.0000000000e-01 7.6794919200e-02 0.0000000000e+00
-1.4166666670e-01 -1.0580127020e-01 0.0000000000e+00
-2.0000000000e-01 0.0000000000e+00 0.0000000000e+00
-2.5000000000e-01 1.6339745960e-01 0.0000000000e+00
-1.0000000000e-01 -2.5000000000e-01 0.0000000000e+00
-2.7833333330e-01 7.9438052400e-02 0.0000000000e+00
-3.0000000000e-01 2.5000000000e-01 0.0000000000e+00
-2.0000000000e-01 -1.7320508080e-01 0.0000000000e+00
-2.5000000000e-01 -8.6602540400e-02 0.0000000000e+00
-3.0000000000e-01 0.0000000000e+00 0.0000000000e+00
-3.5000000000e-01 1.6339745960e-01 0.0000000000e+00
-2.0000000000e-01 -2.5000000000e-01 0.0000000000e+00
-2.7833333330e-01 -1.7056194760e-01 0.0000000000e+00
-3.7000000000e-01 7.3038475800e-02 0.0000000000e+00
-4.0000000000e-01 2.5000000000e-01 0.0000000000e+00
-3.5000000000e-01 -8.6602540400e-02 0.0000000000e+00
-4.0000000000e-01 0.0000000000e+00 0.0000000000e+00
-3.0000000000e-01 -2.5000000000e-01 0.0000000000e+00
-3.7000000000e-01 -1.7696152420e-01 0.0000000000e+00
-5.0000000000e-01 2.5000000000e-01 0.0000000000e+00
-5.0000000000e-01 1.2500000000e-01 0.0000000000e+00
-4.0000000000e-01 -2.5000000000e-01 0.0000000000e+00
-5.0000000000e-01 0.0000000000e+00 0.0000000000e+00
-5.0000000000e-01 0.0000000000e+00 0.0000000000e+00
-5.0000000000e-01 -1.2500000000e-01 0.0000000000e+00
-5.0000000000e-01 -2.5000000000e-01 0.0000000000e+00

CELLS 96 384
3 68 64 67
3 47 42 36
3 52 59 58
3 58 59 67
3 52 58 51
3 51 58 55
3 52 51 45
3 55 58 61
3 51 55 50
3 45 51 44
3 61 58 67
3 50 55 54
3 50 54 47
3 44 51 50
3 50 47 44
3 44 47 36
3 60 54 55
3 60 55 61
3 38 45 44
3 38 44 36
3 64 60 61
3 64 61 67
3 31 38 36
3 59 66 67
3 66 59 63
3 38 31 28
3 49 57 53
3 53 57 63
3 49 53 46
3 46 53 48
3 49 46 40
3 48 53 56
3 46 48 43
3 40 46 39
3 56 53 63
3 43 48 45
3 43 45 38
3 39 46 43
3 43 38 39
3 39 38 28
3 52 45 48
3 52 48 56
3 35 40 39
3 35 39 28
3 59 52 56
3 59 56 63
3 23 35 28
3 57 62 63
3 42 37 36
3 27 25 14
3 16 21 22
3 22 21 36
3 16 22 19
3 19 22 26
3 16 19 11
3 26 22 33
3 19 26 20
3 11 19 15
3 33 22 36
3 20 26 29
3 20 29 27
3 15 19 20
3 20 27 15
3 15 27 14
3 34 29 26
3 34 26 33
3 9 11 15
3 9 15 14
3 37 34 33
3 37 33 36
3 5 9 14
3 21 31 36
3 31 21 28
3 9 5 2
3 10 17 13
3 13 17 28
3 10 13 8
3 8 13 12
3 10 8 4
3 12 13 18
3 8 12 7
3 4 8 3
3 18 13 28
3 7 12 11
3 7 11 9
3 3 8 7
3 7 9 3
3 3 9 2
3 16 11 12
3 16 12 18
3 1 4 3
3 1 3 2
3 21 16 18
3 21 18 28
3 0 1 2
3 17 23 28

CELL_TYPES 96
5
5
5
5
5
5
5
5
5
5
5
5
5
5
5
5
5
5
5
5
5
5
5
5
5
5
5
5
5
5
5
5
5
5
5
5
5
5
5
5
5
5
5
5
5
5
5
5
5
5
5
5
5
5
5
5
5
5
5
5
5
5
5
5
5
5
5
5
5
5
5
5
5
5
5
5
5
5
5
5
5
5
5
5
5
5
5
5
5
5
5
5
5
5
5
5

POINT_DATA 69
VECTORS DISPLACEMENT_MEAN double
1.0715419752e-06 -3.1482954165e-06 1.7712282307e-19
1.0208501406e-06 -2.6267570734e-06 1.5941044059e-19
4.8063913067e-07 -3.0912245678e-06 1.7712310203e-19
5.4816287470e-07 -2.4291130974e-06 1.5203044384e-19
9.7548833427e-07 -2.1735160664e-06 1.4169802196e-19
-1.3463850007e-08 -3.0713501358e-06 1.7712327437e-19
0.0000000000e+00 0.0000000000e+00 0.0000000000e+00
2.7448034897e-07 -2.1625915535e-06 1.4169832680e-19
5.9252638229e-07 -1.9465508290e-06 1.3284200746e-19
-1.3405941067e-08 -2.6165999768e-06 1.5941086970e-19
9.0891128794e-07 -1.7454384475e-06 1.2398575590e-19
-1.2678936765e-08 -2.1620153965e-06 1.4169846179e-19
2.7037833672e-07 -1.8181242186e-06 1.2782366782e-19
5.4189337377e-07 -1.5279722281e-06 1.1512977031e-19
-5.0455581556e-07 -3.0959598036e-06 1.7712346638e-19
-4.1600036113e-07 -2.4296167204e-06 1.5203087798e-19
-1.2059655239e-08 -1.7249671880e-06 1.2398612256e-19
8.1778204744e-07 -1.3456650140e-06 1.0627351784e-19
2.2590412791e-07 -1.4376692546e-06 1.1158743356e-19
-3.2404281853e-07 -1.9419882289e-06 1.3284240498e-19
-6.7355283511e-07 -2.1669697121e-06 1.4169875760e-19
-1.0411850056e-08 -1.3176351844e-06 1.0627384801e-19
-2.9621880112e-07 -1.5200189781e-06 1.1513007939e-19
6.9297647679e-07 -9.8688371036e-07 8.8561219016e-20
0.0000000000e+00 0.0000000000e+00 0.0000000000e+00
-1.1002193477e-06 -3.1579494933e-06 1.7712357574e-19
-6.2709952683e-07 -1.8255134171e-06 1.2782402471e-19
-1.0459938033e-06 -2.6286627328e-06 1.5941121616e-19
3.2552025410e-07 -9.6506774236e-07 8.8561368735e-20
-9.9668836708e-07 -2.1737281903e-06 1.4169887394e-19
0.0000000000e+00 0.0000000000e+00 0.0000000000e+00
-8.0247821139e-09 -9.5983243800e-07 8.8561627832e-20
0.0000000000e+00 0.0000000000e+00 0.0000000000e+00
-5.9345101866e-07 -1.4501229673e-06 1.1158775378e-19
-9.2763238915e-07 -1.7461484054e-06 1.2398645130e-19
5.8951509224e-07 -6.9101248290e-07 7.0848967508e-20
-3.3725768123e-07 -9.6546333821e-07 8.8561895844e-20
-8.3093600132e-07 -1.3478855434e-06 1.0627419514e-19
-6.4410828199e-09 -6.6401937347e-07 7.0849342355e-20
2.9810281739e-07 -5.6575463847e-07 6.3468969400e-20
4.7717780406e-07 -4.4873812158e-07 5.3136709293e-20
0.0000000000e+00 0.0000000000e+00 0.0000000000e+00
-7.0136047842e-07 -9.8884246996e-07 8.8562057220e-20
1.3236004651e-07 -4.1838746069e-07 5.3136900147e-20
-2.2291577013e-07 -5.6275047660e-07 6.3469394283e-20
-4.7679809248e-09 -4.1540181367e-07 5.3137019086e-20
2.5453873397e-07 -3.2435938534e-07 4.4280649854e-20
-5.9868209620e-07 -6.9139217152e-07 7.0849727834e-20
1.0459004472e-07 -2.5488079871e-07 3.9262268715e-20
3.5087536999e-07 -2.5202657017e-07 3.5424498868e-20
-3.2413675091e-07 -4.3282548187e-07 5.3137212659e-20
-1.3521301490e-07 -3.1334869797e-07 4.4280928172e-20
-3.4199388977e-09 -2.1316549040e-07 3.5424656839e-20
1.6125155013e-07 -1.4799499663e-07 2.6568494147e-20
-4.8445746261e-07 -4.5002586740e-07 5.3137289582e-20
-2.4750299136e-07 -2.7112105240e-07 3.9262459189e-20
5.6306037297e-08 -1.0882212530e-07 2.3026027942e-20
2.2370456719e-07 -8.4241062269e-08 1.7712424448e-20
-8.2930209845e-08 -1.3834304189e-07 2.6568498213e-20
-1.6550447715e-09 -6.8961127380e-08 1.7712327514e-20
-3.5660908596e-07 -2.5335886441e-07 3.5424797394e-20
-1.6089841398e-07 -1.2183109778e-07 2.3026053326e-20
0.0000000000e+00 0.0000000000e+00 0.0000000000e+00
0.0000000000e+00 0.0000000000e+00 0.0000000000e+00
-2.2622982127e-07 -8.6062931024e-08 1.7712323250e-20
0.0000000000e+00 0.0000000000e+00 0.0000000000e+00
0.0000000000e+00 0.0000000000e+00 0.0000000000e+00
0.0000000000e+00 0.0000000000e+00 0.0000000000e+00
0.0000000000e+00 0.0000000000e+00 0.0000000000e+00
VECTORS DISPLACEMENT_STD double
1.6014569840e-07 7.5672919623e-08 3.1151430255e-20
1.4325414062e-07 3.4543156409e-08 2.8035938633e-20
1.4209355917e-07 5.3010362647e-08 3.1150785555e-20
1.3776791160e-07 2.7611288473e-08 2.6737392199e-20
1.3345494706e-07 2.3955164956e-08 2.4920468671e-20
1.5507007694e-07 4.6469585062e-08 3.1150076456e-20
0.0000000000e+00 0.0000000000e+00 0.0000000000e+00
1.4035792175e-07 2.3361846669e-08 2.4919855643e-20
1.3057500508e-07 2.3222394184e-08 2.3362419251e-20
1.5313744950e-07 3.1832565889e-08 2.8034867134e-20
1.2511833983e-07 2.4483324641e-08 2.1804887236e-20
1.4986782073e-07 2.3347824752e-08 2.4919603201e-20
1.3444654838e-07 2.4494597894e-08 2.2479492093e-20
1.2377548097e-07 2.7815889198e-08 2.0246970211e-20
1.4198479207e-07 5.3623249560e-08 3.1149546206e-20
1.3998845290e-07 2.7603894594e-08 2.6736496580e-20
1.4180573319e-07 2.5712283721e-08 2.1804303247e-20
1.2005070825e-07 2.9154917103e-08 1.8689487065e-20
1.2730064607e-07 2.9984639365e-08 1.9623727467e-20
1.3572650043e-07 2.3397895023e-08 2.3361704210e-20
1.3388625974e-07 2.3691239069e-08 2.4919101766e-20
1.2993396643e-07 3.1564896072e-08 1.8689002185e-20
1.2746755032e-07 2.8383716745e-08 2.0246429420e-20
1.2623731098e-07 3.1823229672e-08 1.5574100314e-20
0.0000000000e+00 0.0000000000e+00 0.0000000000e+00
1.6084990602e-07 7.6647377952e-08 3.1149175276e-20
1.2801874141e-07 2.4193825541e-08 2.2478835076e-20
1.4405734410e-07 3.4829964374e-08 2.8034094552e-20
1.1674040336e-07 3.2534700325e-08 1.5573932280e-20
1.3383705852e-07 2.4158701679e-08 2.4918939215e-20
0.0000000000e+00 0.0000000000e+00 0.0000000000e+00
1.1721059276e-07 3.1843060954e-08 1.5573715121e-20
0.0000000000e+00 0.0000000000e+00 0.0000000000e+00
1.2087803292e-07 2.8734043522e-08 1.9623202008e-20
1.2448871645e-07 2.4762425938e-08 2.1803712920e-20
1.0114460988e-07 2.5335381722e-08 1.2458909080e-20
1.1434708530e-07 3.2378987879e-08 1.5573545012e-20
1.1732692481e-07 2.9065585399e-08 1.8688576118e-20
1.0356650031e-07 2.1987860728e-08 1.2458567398e-20
8.9811038872e-08 2.0073731813e-08 1.1160802897e-20
7.7006069876e-08 1.9300406639e-08 9.3437608861e-21
0.0000000000e+00 0.0000000000e+00 0.0000000000e+00
1.2117772097e-07 3.1828970975e-08 1.5573401116e-20
8.0365820660e-08 1.4575810734e-08 9.3436437795e-21
8.9332126381e-08 1.9263598343e-08 1.1160445324e-20
8.6665496557e-08 1.3800030096e-08 9.3435298763e-21
6.5285194537e-08 1.3897744825e-08 7.7861984592e-21
9.8183715030e-08 2.4892957606e-08 1.2458171135e-20
6.1771825022e-08 9.6528086588e-09 6.9036379315e-21
5.4509096102e-08 1.5364833350e-08 6.2287659082e-21
7.5350410854e-08 1.6403626671e-08 9.3432489331e-21
6.7637069388e-08 1.1229373924e-08 7.7859535816e-21
6.3591577993e-08 7.1247270341e-09 6.2286871318e-21
4.0582500308e-08 9.0786374512e-09 4.6714110009e-21
7.4946716740e-08 1.8627905583e-08 9.3430507783e-21
5.7480189187e-08 1.2427753657e-08 6.9033442239e-21
3.7978226581e-08 5.0310133185e-09 4.0485165794e-21
3.4603428968e-08 7.8672406167e-09 3.1140788371e-21
4.2371946626e-08 6.0607394431e-09 4.6712897964e-21
3.3761260071e-08 2.5561253613e-09 3.1141053076e-21
5.3070998346e-08 1.4891665503e-08 6.2283473066e-21
3.4987753114e-08 8.2951480944e-09 4.0483235677e-21
0.0000000000e+00 0.0000000000e+00 0.0000000000e+00
0.0000000000e+00 0.0000000000e+00 0.0000000000e+00
3.3654505939e-08 7.6347635392e-09 3.1139713270e-21
0.0000000000e+00 0.0000000000e+00 0.0000000000e+00
0.0000000000e+00 0.0000000000e+00 0.0000000000e+00
0.0000000000e+00 0.0000000000e+00 0.0000000000e+00
0.0000000000e+00 0.0000000000e+00 0.0000000000e+00

CELL_DATA 96
SCALARS YOUNG_MODULUS_MEAN double 1
LOOKUP_TABLE default
7.3338939918e+10
7.3338939918e+10
7.3338939918e+10
7.3338939918e+10
7.3338939918e+10
7.3338939918e+10
7.3338939918e+10
7.3338939918e+10
7.3338939918e+10
7.3338939918e+10
7.3338939918e+10
7.3338939918e+10
7.3338939918e+10
7.3338939918e+10
7.3338939918e+10
7.3338939918e+10
7.3338939918e+10
7.3338939918e+10
7.3338939918e+10
7.3338939918e+10
7.3338939918e+10
7.3338939918e+10
7.3338939918e+10
7.3338939918e+10
7.6318643797e+10
7.6318643797e+10
7.6318643797e+10
7.6318643797e+10
7.6318643797e+10
7.6318643797e+10
7.6318643797e+10
7.6318643797e+10
7.6318643797e+10
7.6318643797e+10
7.6318643797e+10
7.6318643797e+10
7.6318643797e+10
7.6318643797e+10
7.6318643797e+10
7.6318643797e+10
7.6318643797e+10
7.6318643797e+10
7.6318643797e+10
7.6318643797e+10
7.6318643797e+10
7.6318643797e+10
7.6318643797e+10
7.6318643797e+10
5.1174413246e+10
5.1174413246e+10
5.1174413246e+10
5.1174413246e+10
5.1174413246e+10
5.1174413246e+10
5.1174413246e+10
5.1174413246e+10
5.1174413246e+10
5.1174413246e+10
5.1174413246e+10
5.1174413246e+10
5.1174413246e+10
5.1174413246e+10
5.1174413246e+10
5.1174413246e+10
5.1174413246e+10
5.1174413246e+10
5.1174413246e+10
5.1174413246e+10
5.1174413246e+10
5.1174413246e+10
5.1174413246e+10
5.1174413246e+10
5.7757026175e+10
5.7757026175e+10
5.7757026175e+10
5.7757026175e+10
5.7757026175e+10
5.7757026175e+10
5.7757026175e+10
5.7757026175e+10
5.7757026175e+10
5.7757026175e+10
5.7757026175e+10
5.7757026175e+10
5.7757026175e+10
5.7757026175e+10
5.7757026175e+10
5.7757026175e+10
5.7757026175e+10
5.7757026175e+10
5.7757026175e+10
5.7757026175e+10
5.7757026175e+10
5.7757026175e+10
5.7757026175e+10
5.7757026175e+10
SCALARS YOUNG_MODULUS_STD double 1
LOOKUP_TABLE default
2.7453148510e+10
2.7453148510e+10
2.7453148510e+10
2.7453148510e+10
2.7453148510e+10
2.7453148510e+10
2.7453148510e+10
2.7453148510e+10
2.7453148510e+10
2.7453148510e+10
2.7453148510e+10
2.7453148510e+10
2.7453148510e+10
2.7453148510e+10
2.7453148510e+10
2.7453148510e+10
2.7453148510e+10
2.7453148510e+10
2.7453148510e+10
2.7453148510e+10
2.7453148510e+10
2.7453148510e+10
2.7453148510e+10
2.7453148510e+10
2.7662971622e+10
2.7662971622e+10
2.7662971622e+10
2.7662971622e+10
2.7662971622e+10
2.7662971622e+10
2.7662971622e+10
2.7662971622e+10
2.7662971622e+10
2.7662971622e+10
2.7662971622e+10
2.7662971622e+10
2.7662971622e+10
2.7662971622e+10
2.7662971622e+10
2.7662971622e+10
2.7662971622e+10
2.7662971622e+10
2.7662971622e+10
2.7662971622e+10
2.7662971622e+10
2.7662971622e+10
2.7662971622e+10
2.7662971622e+10
2.7062382218e+10
2.7062382218e+10
2.7062382218e+10
2.7062382218e+10
2.7062382218e+10
2.7062382218e+10
2.7062382218e+10
2.7062382218e+10
2.7062382218e+10
2.7062382218e+10
2.7062382218e+10
2.7062382218e+10
2.7062382218e+10
2.7062382218e+10
2.7062382218e+10
2.7062382218e+10
2.7062382218e+10
2.7062382218e+10
2.7062382218e+10
2.7062382218e+10
2.7062382218e+10
2.7062382218e+10
2.7062382218e+10
2.7062382218e+10
3.2225821682e+10
3.2225821682e+10
3.2225821682e+10
3.2225821682e+10
3.2225821682e+10
3.2225821682e+10
3.2225821682e+10
3.2225821682e+10
3.2225821682e+10
3.2225821682e+10
3.2225821682e+10
3.2225821682e+10
3.2225821682e+10
3.2225821682e+10
3.2225821682e+10
3.2225821682e+10
3.2225821682e+10
3.2225821682e+10
3.2225821682e+10
3.2225821682e+10
3.2225821682e+10
3.2225821682e+10
3.2225821682e+10
3.2225821682e+10
