# vtk DataFile Version 4.2
SMC_aCS level 2, q = 0.1720
ASCII
DATASET UNSTRUCTURED_GRID
POINTS 69 double
5.0000000000e-01 2.5000000000e-01 0.0000000000e+00
4.0000000000e-01 2.5000000000e-01 0.0000000000e+00
5.0000000000e-01 1.2500000000e-01 0.0000000000e+00
3.5833333330e-01 1.4419872980e-01 0.0000000000e+00
3.0000000000e-01 2.5000000000e-01 0.0000000000e+00
5.0000000000e-01 0.0000000000e+00 0.0000000000e+00
5.0000000000e-01 0.0000000000e+00 0.0000000000e+00
3.0000000000e-01 7.6794919200e-02 0.0000000000e+00
2.5000000000e-01 1.6339745960e-01 0.0000000000e+00
4.0000000000e-01 0.0000000000e+00 0.0000000000e+00
2.0000000000e-01 2.5000000000e-01 0.0000000000e+00
3.0000000000e-01 0.0000000000e+00 0.0000000000e+00
2.2166666670e-01 7.9438052400e-02 0.0000000000e+00
1.5000000000e-01 1.6339745960e-01 0.0000000000e+00
5.0000000000e-01 -1.2500000000e-01 0.0000000000e+00
3.5833333330e-01 -1.0580127020e-01 0.0000000000e+00
2.0000000000e-01 0.0000000000e+00 0.0000000000e+00
1.0000000000e-01 2.5000000000e-01 0.0000000000e+00
1.3000000000e-01 7.3038475800e-02 0.0000000000e+00
2.5000000000e-01 -8.6602540400e-02 0.0000000000e+00
3.0000000000e-01 -1.7320508080e-01 0.0000000000e+00
1.0000000000e-01 0.0000000000e+00 0.0000000000e+00
1.5000000000e-01 -8.6602540400e-02 0.0000000000e+00
0.0000000000e+00 2.5000000000e-01 0.0000000000e+00
0.0000000000e+00 2.5000000000e-01 0.0000000000e+00
5.0000000000e-01 -2.5000000000e-01 0.0000000000e+00
2.2166666670e-01 -1.7056194760e-01 0.0000000000e+00
4.0000000000e-01 -2.5000000000e-01 0.0000000000e+00
0.0000000000e+00 1.2500000000e-01 0.0000000000e+00
3.0000000000e-01 -2.5000000000e-01 0.0000000000e+00
0.0000000000e+00 0.0000000000e+00 0.0000000000e+00
0.0000000000e+00 0.0000000000e+00 0.0000000000e+00
0.0000000000e+00 0.0000000000e+00 0.0000000000e+00
1.3000000000e-01 -1.7696152420e-01 0.0000000000e+00
2.0000000000e-01 -2.5000000000e-01 0.0000000000e+00
-1.0000000000e-01 2.5000000000e-01 0.0000000000e+00
0.0000000000e+00 -1.2500000000e-01 0.0000000000e+00
1.0000000000e-01 -2.5000000000e-01 0.0000000000e+00
-1.0000000000e-01 0.0000000000e+00 0.0000000000e+00
-1.4166666670e-01 1.4419872980e-01 0.0000000000e+00
-2.0000000000e-01 2.5000000000e-01 0.0000000000e+00
0.0000000000e+00 -2.5000000000e-01 0.0000000000e+00
0.0000000000e+00 -2.5000000000e-01 0.0000000000e+00
-2.0000000000e-01 7.6794919200e-02 0.0000000000e+00
-1.4166666670e-01 -1.0580127020e-01 0.0000000000e+00
-2.0000000000e-01 0.0000000000e+00 0.0000000000e+00
-2.5000000000e-01 1.6339745960e-01 0.0000000000e+00
-1.0000000000e-01 -2.5000000000e-01 0.0000000000e+00
-2.7833333330e-01 7.9438052400e-02 0.0000000000e+00
-3.0000000000e-01 2.5000000000e-01 0.0000000000e+00
-2.0000000000e-01 -1.7320508080e-01 0.0000000000e+00
-2.5000000000e-01 -8.6602540400e-02 0.0000000000e+00
-3.0000000000e-01 0.0000000000e+00 0.0000000000e+00
-3.5000000000e-01 1.6339745960e-01 0.0000000000e+00
-2.0000000000e-01 -2.5000000000e-01 0.0000000000e+00
-2.7833333330e-01 -1.7056194760e-01 0.0000000000e+00
-3.7000000000e-01 7.3038475800e-02 0.0000000000e+00
-4.0000000000e-01 2.5000000000e-01 0.0000000000e+00
-3.5000000000e-01 -8.6602540400e-02 0.0000000000e+00
-4.0000000000e-01 0.0000000000e+00 0.0000000000e+00
-3.0000000000e-01 -2.5000000000e-01 0.0000000000e+00
-3.7000000000e-01 -1.7696152420e-01 0.0000000000e+00
-5.0000000000e-01 2.5000000000e-01 0.0000000000e+00
-5.0000000000e-01 1.2500000000e-01 0.0000000000e+00
-4.0000000000e-01 -2.5000000000e-01 0.0000000000e+00
-5.0000000000e-01 0.0000000000e+00 0.0000000000e+00
-5.0000000000e-01 0.0000000000e+00 0.0000000000e+00
-5.0000000000e-01 -1.2500000000e-01 0.0000000000e+00
-5.0000000000e-01 -2.5000000000e-01 0.0000000000e+00

CELLS 96 384
3 68 64 67
3 47 42 36
3 52 59 58
3 58 59 67
3 52 58 51
3 51 58 55
3 52 51 45
3 55 58 61
3 51 55 50
3 45 51 44
3 61 58 67
3 50 55 54
3 50 54 47
3 44 51 50
3 50 47 44
3 44 47 36
3 60 54 55
3 60 55 61
3 38 45 44
3 38 44 36
3 64 60 61
3 64 61 67
3 31 38 36
3 59 66 67
3 66 59 63
3 38 31 28
3 49 57 53
3 53 57 63
3 49 53 46
3 46 53 48
3 49 46 40
3 48 53 56
3 46 48 43
3 40 46 39
3 56 53 63
3 43 48 45
3 43 45 38
3 39 46 43
3 43 38 39
3 39 38 28
3 52 45 48
3 52 48 56
3 35 40 39
3 35 39 28
3 59 52 56
3 59 56 63
3 23 35 28
3 57 62 63
3 42 37 36
3 27 25 14
3 16 21 22
3 22 21 36
3 16 22 19
3 19 22 26
3 16 19 11
3 26 22 33
3 19 26 20
3 11 19 15
3 33 22 36
3 20 26 29
3 20 29 27
3 15 19 20
3 20 27 15
3 15 27 14
3 34 29 26
3 34 26 33
3 9 11 15
3 9 15 14
3 37 34 33
3 37 33 36
3 5 9 14
3 21 31 36
3 31 21 28
3 9 5 2
3 10 17 13
3 13 17 28
3 10 13 8
3 8 13 12
3 10 8 4
3 12 13 18
3 8 12 7
3 4 8 3
3 18 13 28
3 7 12 11
3 7 11 9
3 3 8 7
3 7 9 3
3 3 9 2
3 16 11 12
3 16 12 18
3 1 4 3
3 1 3 2
3 21 16 18
3 21 18 28
3 0 1 2
3 17 23 28

CELL_TYPES 96
5
5
5
5
5
5
5
5
5
5
5
5
5
5
5
5
5
5
5
5
5
5
5
5
5
5
5
5
5
5
5
5
5
5
5
5
5
5
5
5
5
5
5
5
5
5
5
5
5
5
5
5
5
5
5
5
5
5
5
5
5
5
5
5
5
5
5
5
5
5
5
5
5
5
5
5
5
5
5
5
5
5
5
5
5
5
5
5
5
5
5
5
5
5
5
5

POINT_DATA 69
VECTORS DISPLACEMENT_MEAN double
1.0556810778e-06 -3.1079988533e-06 1.0406217371e-19
1.0109219650e-06 -2.6101072674e-06 9.3655880411e-20
4.8721883484e-07 -3.0575566636e-06 1.0406245619e-19
5.5396192562e-07 -2.4200049052e-06 8.9320173926e-20
9.7091997379e-07 -2.1724855907e-06 8.3249604599e-20
4.4796735017e-09 -3.0399540665e-06 1.0406265831e-19
0.0000000000e+00 0.0000000000e+00 0.0000000000e+00
2.8704085670e-07 -2.1627981438e-06 8.3249986070e-20
6.0026200355e-07 -1.9533231461e-06 7.8046659406e-20
4.4338095506e-09 -2.6011365901e-06 9.3656398115e-20
9.1224390691e-07 -1.7569622448e-06 7.2843333753e-20
4.8679493809e-09 -2.1622175272e-06 8.3250136641e-20
2.8416629512e-07 -1.8292042893e-06 7.5098401894e-20
5.5548207101e-07 -1.5461158771e-06 6.7640422146e-20
-4.7755804299e-07 -3.0603569613e-06 1.0406290706e-19
-3.9235811838e-07 -2.4201043512e-06 8.9320667319e-20
4.8817913566e-09 -1.7385940769e-06 7.2843890457e-20
8.3195782442e-07 -1.3663004448e-06 6.2437153787e-20
2.4202689623e-07 -1.4586280520e-06 6.5559374213e-20
-3.0434901807e-07 -1.9489861339e-06 7.8047198644e-20
-6.4612670938e-07 -2.1663103877e-06 8.3250510219e-20
5.4045028066e-09 -1.3408287519e-06 6.2437664200e-20
-2.8081474272e-07 -1.5384664154e-06 6.7640960423e-20
7.2212313060e-07 -1.0117642557e-06 5.2031028932e-20
0.0000000000e+00 0.0000000000e+00 0.0000000000e+00
-1.0486363953e-06 -3.1127841091e-06 1.0406320484e-19
-6.0507043136e-07 -1.8352307095e-06 7.5098938954e-20
-1.0027157354e-06 -2.6109628609e-06 9.3656885178e-20
3.4907567778e-07 -9.9116248128e-07 5.2031199537e-20
-9.6064677106e-07 -2.1720879913e-06 8.3250653810e-20
0.0000000000e+00 0.0000000000e+00 0.0000000000e+00
6.2017195335e-09 -9.8554274203e-07 5.2031433473e-20
0.0000000000e+00 0.0000000000e+00 0.0000000000e+00
-5.7938111687e-07 -1.4687339575e-06 6.5559916345e-20
-9.0136582570e-07 -1.7566068916e-06 7.2844426614e-20
6.1624303298e-07 -7.1138086357e-07 4.1624732064e-20
-3.3510792387e-07 -9.9008661313e-07 5.2031635516e-20
-8.1809364288e-07 -1.3665112293e-06 6.2438150414e-20
5.8882790592e-09 -6.8220718324e-07 4.1625153887e-20
3.1693597853e-07 -5.8230612734e-07 3.7288927645e-20
4.9889647216e-07 -4.6279205772e-07 3.1218499084e-20
0.0000000000e+00 0.0000000000e+00 0.0000000000e+00
-7.0581800492e-07 -1.0111170589e-06 5.2031733111e-20
1.4561023145e-07 -4.3046781456e-07 3.1218767337e-20
-2.1929060162e-07 -5.7767811632e-07 3.7289354937e-20
5.3818818730e-09 -4.2687996835e-07 3.1218914620e-20
2.6912934413e-07 -3.3447857117e-07 2.6015561569e-20
-6.0469878077e-07 -7.0918704623e-07 4.1625385169e-20
1.1476865536e-07 -2.6249254577e-07 2.3067252512e-20
3.6676052449e-07 -2.6061536827e-07 2.0812460626e-20
-3.2493746686e-07 -4.4385597020e-07 3.1219114674e-20
-1.3131481873e-07 -3.2146297640e-07 2.6015921203e-20
3.9356300697e-09 -2.1908579411e-07 2.0812692588e-20
1.7040794097e-07 -1.5303042867e-07 1.5609471932e-20
-4.8988483035e-07 -4.6117101370e-07 3.1219233758e-20
-2.4805317121e-07 -2.7756896918e-07 2.3067568205e-20
6.2315974513e-08 -1.1222866828e-07 1.3528248436e-20
2.3385064284e-07 -8.7467263250e-08 1.0406419141e-20
-8.0434093246e-08 -1.4165714977e-07 1.5609653513e-20
2.2098948092e-09 -7.0820177855e-08 1.0406449018e-20
-3.6075526554e-07 -2.5889260008e-07 2.0812980813e-20
-1.6149855932e-07 -1.2431099457e-07 1.3528439115e-20
0.0000000000e+00 0.0000000000e+00 0.0000000000e+00
0.0000000000e+00 0.0000000000e+00 0.0000000000e+00
-2.2881969248e-07 -8.7585188460e-08 1.0406518156e-20
0.0000000000e+00 0.0000000000e+00 0.0000000000e+00
0.0000000000e+00 0.0000000000e+00 0.0000000000e+00
0.0000000000e+00 0.0000000000e+00 0.0000000000e+00
0.0000000000e+00 0.0000000000e+00 0.0000000000e+00
VECTORS DISPLACEMENT_STD double
1.7016174811e-07 1.3352546906e-07 5.4459899056e-20
1.5294813143e-07 7.8202449017e-08 4.9014142424e-20
1.4142035094e-07 1.1353228343e-07 5.4459789738e-20
1.3859897985e-07 6.5566690012e-08 4.6744948789e-20
1.4195633216e-07 5.5598419558e-08 4.3568409284e-20
1.4969411533e-07 1.0764762742e-07 5.4459759390e-20
0.0000000000e+00 0.0000000000e+00 0.0000000000e+00
1.3854922344e-07 5.5139798165e-08 4.3568159532e-20
1.3289228347e-07 5.2164711892e-08 4.0845379954e-20
1.4816104260e-07 7.5855385065e-08 4.9013945586e-20
1.3152584136e-07 5.2061547741e-08 3.8122610072e-20
1.4556516105e-07 5.5154160137e-08 4.3568079351e-20
1.3403454726e-07 5.3321164481e-08 3.9302264107e-20
1.2712251940e-07 5.7492136406e-08 3.5399576551e-20
1.4226294269e-07 1.1667016403e-07 5.4459901124e-20
1.3949578739e-07 6.5880142076e-08 4.6744854314e-20
1.3929697686e-07 5.4823948625e-08 3.8122187106e-20
1.2554619854e-07 5.8604633606e-08 3.2676874757e-20
1.2875353360e-07 6.1441445005e-08 3.4310234813e-20
1.3538385532e-07 5.2530980353e-08 4.0845026853e-20
1.3705761706e-07 5.5454035451e-08 4.3568023761e-20
1.3029027339e-07 6.4574325061e-08 3.2676308504e-20
1.2906028031e-07 5.9293336842e-08 3.5399061816e-20
1.3480246227e-07 6.1870155067e-08 2.7231174168e-20
0.0000000000e+00 0.0000000000e+00 0.0000000000e+00
1.7520808725e-07 1.4068677699e-07 5.4460073475e-20
1.3105214152e-07 5.2634734375e-08 3.9301942304e-20
1.5573061369e-07 7.9483240232e-08 4.9014089859e-20
1.2395938467e-07 6.4580078099e-08 2.7230826674e-20
1.4303334419e-07 5.5882736389e-08 4.3568066821e-20
0.0000000000e+00 0.0000000000e+00 0.0000000000e+00
1.2096722099e-07 6.5310643112e-08 2.7230399840e-20
0.0000000000e+00 0.0000000000e+00 0.0000000000e+00
1.2527023858e-07 5.9480601588e-08 3.4309732272e-20
1.3116721902e-07 5.2211252546e-08 3.8121954764e-20
1.1026035384e-07 4.8754045445e-08 2.1785382453e-20
1.2303824772e-07 6.5823522364e-08 2.7230022885e-20
1.2384988544e-07 5.8978736630e-08 3.2675834345e-20
1.0787152585e-07 4.5437871668e-08 2.1784514245e-20
9.5510607417e-08 3.9837451922e-08 1.9515853333e-20
8.4928229212e-08 3.3587557008e-08 1.6339154982e-20
0.0000000000e+00 0.0000000000e+00 0.0000000000e+00
1.3381095891e-07 6.3304614641e-08 2.7229798362e-20
8.4361966958e-08 2.9204871286e-08 1.6338739200e-20
9.5160041880e-08 3.8938517515e-08 1.9515046390e-20
9.0573399068e-08 2.8519494805e-08 1.6338515633e-20
6.9789107891e-08 2.4167609345e-08 1.3615855129e-20
1.0999206190e-07 4.8806508699e-08 2.1783834878e-20
6.4888677730e-08 1.8155748831e-08 1.2072617441e-20
6.0449829711e-08 2.1860023650e-08 1.0892852934e-20
8.2096072678e-08 3.0954297443e-08 1.6338167232e-20
7.1598355186e-08 2.1955681703e-08 1.3615279758e-20
6.6578623671e-08 1.4645511398e-08 1.0892411231e-20
4.3421481793e-08 1.2817261607e-08 8.1695805024e-21
8.4689786000e-08 3.3292767833e-08 1.6338016725e-20
6.2569324949e-08 2.0723887889e-08 1.2072111445e-20
3.9908454002e-08 8.2197381204e-09 7.0802063146e-21
3.8378559593e-08 9.5262944828e-09 5.4464338506e-21
4.4844767578e-08 1.0364929183e-08 8.1691497640e-21
3.5452234318e-08 4.8316238431e-09 5.4461801983e-21
6.0221916378e-08 2.1805530442e-08 1.0891969122e-20
3.8229066676e-08 1.1349031718e-08 7.0798909696e-21
0.0000000000e+00 0.0000000000e+00 0.0000000000e+00
0.0000000000e+00 0.0000000000e+00 0.0000000000e+00
3.8163421974e-08 9.5429051391e-09 5.4461441734e-21
0.0000000000e+00 0.0000000000e+00 0.0000000000e+00
0.0000000000e+00 0.0000000000e+00 0.0000000000e+00
0.0000000000e+00 0.0000000000e+00 0.0000000000e+00
0.0000000000e+00 0.0000000000e+00 0.0000000000e+00

CELL_DATA 96
SCALARS YOUNG_MODULUS_MEAN double 1
LOOKUP_TABLE default
7.4827716777e+10
7.4827716777e+10
7.4827716777e+10
7.4827716777e+10
7.4827716777e+10
7.4827716777e+10
7.4827716777e+10
7.4827716777e+10
7.4827716777e+10
7.4827716777e+10
7.4827716777e+10
7.4827716777e+10
7.4827716777e+10
7.4827716777e+10
7.4827716777e+10
7.4827716777e+10
7.4827716777e+10
7.4827716777e+10
7.4827716777e+10
7.4827716777e+10
7.4827716777e+10
7.4827716777e+10
7.4827716777e+10
7.4827716777e+10
7.1610504797e+10
7.1610504797e+10
7.1610504797e+10
7.1610504797e+10
7.1610504797e+10
7.1610504797e+10
7.1610504797e+10
7.1610504797e+10
7.1610504797e+10
7.1610504797e+10
7.1610504797e+10
7.1610504797e+10
7.1610504797e+10
7.1610504797e+10
7.1610504797e+10
7.1610504797e+10
7.1610504797e+10
7.1610504797e+10
7.1610504797e+10
7.1610504797e+10
7.1610504797e+10
7.1610504797e+10
7.1610504797e+10
7.1610504797e+10
6.4505752474e+10
6.4505752474e+10
6.4505752474e+10
6.4505752474e+10
6.4505752474e+10
6.4505752474e+10
6.4505752474e+10
6.4505752474e+10
6.4505752474e+10
6.4505752474e+10
6.4505752474e+10
6.4505752474e+10
6.4505752474e+10
6.4505752474e+10
6.4505752474e+10
6.4505752474e+10
6.4505752474e+10
6.4505752474e+10
6.4505752474e+10
6.4505752474e+10
6.4505752474e+10
6.4505752474e+10
6.4505752474e+10
6.4505752474e+10
6.6749165830e+10
6.6749165830e+10
6.6749165830e+10
6.6749165830e+10
6.6749165830e+10
6.6749165830e+10
6.6749165830e+10
6.6749165830e+10
6.6749165830e+10
6.6749165830e+10
6.6749165830e+10
6.6749165830e+10
6.6749165830e+10
6.6749165830e+10
6.6749165830e+10
6.6749165830e+10
6.6749165830e+10
6.6749165830e+10
6.6749165830e+10
6.6749165830e+10
6.6749165830e+10
6.6749165830e+10
6.6749165830e+10
6.6749165830e+10
SCALARS YOUNG_MODULUS_STD double 1
LOOKUP_TABLE default
2.8130158748e+10
2.8130158748e+10
2.8130158748e+10
2.8130158748e+10
2.8130158748e+10
2.8130158748e+10
2.8130158748e+10
2.8130158748e+10
2.8130158748e+10
2.8130158748e+10
2.8130158748e+10
2.8130158748e+10
2.8130158748e+10
2.8130158748e+10
2.8130158748e+10
2.8130158748e+10
2.8130158748e+10
2.8130158748e+10
2.8130158748e+10
2.8130158748e+10
2.8130158748e+10
2.8130158748e+10
2.8130158748e+10
2.8130158748e+10
2.7336045617e+10
2.7336045617e+10
2.7336045617e+10
2.7336045617e+10
2.7336045617e+10
2.7336045617e+10
2.7336045617e+10
2.7336045617e+10
2.7336045617e+10
2.7336045617e+10
2.7336045617e+10
2.7336045617e+10
2.7336045617e+10
2.7336045617e+10
2.7336045617e+10
2.7336045617e+10
2.7336045617e+10
2.7336045617e+10
2.7336045617e+10
2.7336045617e+10
2.7336045617e+10
2.7336045617e+10
2.7336045617e+10
2.7336045617e+10
3.2657715420e+10
3.2657715420e+10
3.2657715420e+10
3.2657715420e+10
3.2657715420e+10
3.2657715420e+10
3.2657715420e+10
3.2657715420e+10
3.2657715420e+10
3.2657715420e+10
3.2657715420e+10
3.2657715420e+10
3.2657715420e+10
3.2657715420e+10
3.2657715420e+10
3.2657715420e+10
3.2657715420e+10
3.2657715420e+10
3.2657715420e+10
3.2657715420e+10
3.2657715420e+10
3.2657715420e+10
3.2657715420e+10
3.2657715420e+10
3.3841613129e+10
3.3841613129e+10
3.3841613129e+10
3.3841613129e+10
3.3841613129e+10
3.3841613129e+10
3.3841613129e+10
3.3841613129e+10
3.3841613129e+10
3.3841613129e+10
3.3841613129e+10
3.3841613129e+10
3.3841613129e+10
3.3841613129e+10
3.3841613129e+10
3.3841613129e+10
3.3841613129e+10
3.3841613129e+10
3.3841613129e+10
3.3841613129e+10
3.3841613129e+10
3.3841613129e+10
3.3841613129e+10
3.3841613129e+10
