# vtk DataFile Version 4.2
SMC_aCS level 1, q = 0.0122
ASCII
DATASET UNSTRUCTURED_GRID
POINTS 69 double
5.0000000000e-01 2.5000000000e-01 0.0000000000e+00
4.0000000000e-01 2.5000000000e-01 0.0000000000e+00
5.0000000000e-01 1.2500000000e-01 0.0000000000e+00
3.5833333330e-01 1.4419872980e-01 0.0000000000e+00
3.0000000000e-01 2.5000000000e-01 0.0000000000e+00
5.0000000000e-01 0.0000000000e+00 0.0000000000e+00
5.0000000000e-01 0.0000000000e+00 0.0000000000e+00
3.0000000000e-01 7.6794919200e-02 0.0000000000e+00
2.5000000000e-01 1.6339745960e-01 0.0000000000e+00
4.0000000000e-01 0.0000000000e+00 0.0000000000e+00
2.0000000000e-01 2.5000000000e-01 0.0000000000e+00
3.0000000000e-01 0.0000000000e+00 0.0000000000e+00
2.2166666670e-01 7.9438052400e-02 0.0000000000e+00
1.5000000000e-01 1.6339745960e-01 0.0000000000e+00
5.0000000000e-01 -1.2500000000e-01 0.0000000000e+00
3.5833333330e-01 -1.0580127020e-01 0.0000000000e+00
2.0000000000e-01 0.0000000000e+00 0.0000000000e+00
1.0000000000e-01 2.5000000000e-01 0.0000000000e+00
1.3000000000e-01 7.3038475800e-02 0.0000000000e+00
2.5000000000e-01 -8.6602540400e-02 0.0000000000e+00
3.0000000000e-01 -1.7320508080e-01 0.0000000000e+00
1.0000000000e-01 0.0000000000e+00 0.0000000000e+00
1.5000000000e-01 -8.6602540400e-02 0.0000000000e+00
0.0000000000e+00 2.5000000000e-01 0.0000000000e+00
0.0000000000e+00 2.5000000000e-01 0.0000000000e+00
5.0000000000e-01 -2.5000000000e-01 0.0000000000e+00
2.2166666670e-01 -1.7056194760e-01 0.0000000000e+00
4.0000000000e-01 -2.5000000000e-01 0.0000000000e+00
0.0000000000e+00 1.2500000000e-01 0.0000000000e+00
3.0000000000e-01 -2.5000000000e-01 0.0000000000e+00
0.0000000000e+00 0.0000000000e+00 0.0000000000e+00
0.0000000000e+00 0.0000000000e+00 0.0000000000e+00
0.0000000000e+00 0.0000000000e+00 0.0000000000e+00
1.3000000000e-01 -1.7696152420e-01 0.0000000000e+00
2.0000000000e-01 -2.5000000000e-01 0.0000000000e+00
-1.0000000000e-01 2.5000000000e-01 0.0000000000e+00
0.0000000000e+00 -1.2500000000e-01 0.0000000000e+00
1.0000000000e-01 -2.5000000000e-01 0.0000000000e+00
-1.0000000000e-01 0.0000000000e+00 0.0000000000e+00
-1.4166666670e-01 1.4419872980e-01 0.0000000000e+00
-2.0000000000e-01 2.5000000000e-01 0.0000000000e+00
0.0000000000e+00 -2.5000000000e-01 0.0000000000e+00
0.0000000000e+00 -2.5000000000e-01 0.0000000000e+00
-2.0000000000e-01 7.6794919200e-02 0.0000000000e+00
-1.4166666670e-01 -1.0580127020e-01 0.0000000000e+00
-2.0000000000e-01 0.0000000000e+00 0.0000000000e+00
-2.5000000000e-01 1.6339745960e-01 0.0000000000e+00
-1.0000000000e-01 -2.5000000000e-01 0.0000000000e+00
-2.7833333330e-01 7.9438052400e-02 0.0000000000e+00
-3.0000000000e-01 2.5000000000e-01 0.0000000000e+00
-2.0000000000e-01 -1.7320508080e-01 0.0000000000e+00
-2.5000000000e-01 -8.6602540400e-02 0.0000000000e+00
-3.0000000000e-01 0.0000000000e+00 0.0000000000e+00
-3.5000000000e-01 1.6339745960e-01 0.0000000000e+00
-2.0000000000e-01 -2.5000000000e-01 0.0000000000e+00
-2.7833333330e-01 -1.7056194760e-01 0.0000000000e+00
-3.7000000000e-01 7.3038475800e-02 0.0000000000e+00
-4.0000000000e-01 2.5000000000e-01 0.0000000000e+00
-3.5000000000e-01 -8.6602540400e-02 0.0000000000e+00
-4.0000000000e-01 0.0000000000e+00 0.0000000000e+00
-3.0000000000e-01 -2.5000000000e-01 0.0000000000e+00
-3.7000000000e-01 -1.7696152420e-01 0.0000000000e+00
-5.0000000000e-01 2.5000000000e-01 0.0000000000e+00
-5.0000000000e-01 1.2500000000e-01 0.0000000000e+00
-4.0000000000e-01 -2.5000000000e-01 0.0000000000e+00
-5.0000000000e-01 0.0000000000e+00 0.0000000000e+00
-5.0000000000e-01 0.0000000000e+00 0.0000000000e+00
-5.0000000000e-01 -1.2500000000e-01 0.0000000000e+00
-5.0000000000e-01 -2.5000000000e-01 0.0000000000e+00

CELLS 96 384
3 68 64 67
3 47 42 36
3 52 59 58
3 58 59 67
3 52 58 51
3 51 58 55
3 52 51 45
3 55 58 61
3 51 55 50
3 45 51 44
3 61 58 67
3 50 55 54
3 50 54 47
3 44 51 50
3 50 47 44
3 44 47 36
3 60 54 55
3 60 55 61
3 38 45 44
3 38 44 36
3 64 60 61
3 64 61 67
3 31 38 36
3 59 66 67
3 66 59 63
3 38 31 28
3 49 57 53
3 53 57 63
3 49 53 46
3 46 53 48
3 49 46 40
3 48 53 56
3 46 48 43
3 40 46 39
3 56 53 63
3 43 48 45
3 43 45 38
3 39 46 43
3 43 38 39
3 39 38 28
3 52 45 48
3 52 48 56
3 35 40 39
3 35 39 28
3 59 52 56
3 59 56 63
3 23 35 28
3 57 62 63
3 42 37 36
3 27 25 14
3 16 21 22
3 22 21 36
3 16 22 19
3 19 22 26
3 16 19 11
3 26 22 33
3 19 26 20
3 11 19 15
3 33 22 36
3 20 26 29
3 20 29 27
3 15 19 20
3 20 27 15
3 15 27 14
3 34 29 26
3 34 26 33
3 9 11 15
3 9 15 14
3 37 34 33
3 37 33 36
3 5 9 14
3 21 31 36
3 31 21 28
3 9 5 2
3 10 17 13
3 13 17 28
3 10 13 8
3 8 13 12
3 10 8 4
3 12 13 18
3 8 12 7
3 4 8 3
3 18 13 28
3 7 12 11
3 7 11 9
3 3 8 7
3 7 9 3
3 3 9 2
3 16 11 12
3 16 12 18
3 1 4 3
3 1 3 2
3 21 16 18
3 21 18 28
3 0 1 2
3 17 23 28

CELL_TYPES 96
5
5
5
5
5
5
5
5
5
5
5
5
5
5
5
5
5
5
5
5
5
5
5
5
5
5
5
5
5
5
5
5
5
5
5
5
5
5
5
5
5
5
5
5
5
5
5
5
5
5
5
5
5
5
5
5
5
5
5
5
5
5
5
5
5
5
5
5
5
5
5
5
5
5
5
5
5
5
5
5
5
5
5
5
5
5
5
5
5
5
5
5
5
5
5
5

POINT_DATA 69
VECTORS DISPLACEMENT_MEAN double
1.0247090365e-06 -3.0582841649e-06 5.3901550376e-20
9.8320301467e-07 -2.5757336652e-06 4.8511295830e-20
4.7157899502e-07 -3.0115117026e-06 5.3901426730e-20
5.3743927646e-07 -2.3907563680e-06 4.6265250616e-20
9.4606429836e-07 -2.1490480557e-06 4.3121008155e-20
-1.8508398514e-09 -2.9952653638e-06 5.3901242782e-20
0.0000000000e+00 0.0000000000e+00 0.0000000000e+00
2.7594122739e-07 -2.1400539622e-06 4.3120881397e-20
5.8428155657e-07 -1.9353531305e-06 4.0425819329e-20
-1.9027067516e-09 -2.5675006085e-06 4.8511017475e-20
8.9151161986e-07 -1.7428425589e-06 3.7730698069e-20
-1.5222274126e-09 -2.1395260698e-06 4.3120820047e-20
2.7377847652e-07 -1.8143286045e-06 3.8898554736e-20
5.4263264630e-07 -1.5368617019e-06 3.5035577523e-20
-4.7479679297e-07 -3.0138923965e-06 5.3901040353e-20
-3.9182954492e-07 -2.3908362583e-06 4.6264994450e-20
-1.5395436862e-09 -1.7257880662e-06 3.7730656478e-20
8.1679850041e-07 -1.3596850677e-06 3.2340462290e-20
2.3331846761e-07 -1.4515905395e-06 3.3957560891e-20
-3.0625155893e-07 -1.9313808595e-06 4.0425687921e-20
-6.4117315525e-07 -2.1433355335e-06 4.3120689886e-20
-1.0645199167e-09 -1.3361527530e-06 3.2340522814e-20
-2.8444667518e-07 -1.5299555760e-06 3.5035569475e-20
7.1420308840e-07 -1.0103733409e-06 2.6950285866e-20
0.0000000000e+00 0.0000000000e+00 0.0000000000e+00
-1.0300638622e-06 -3.0622275257e-06 5.3900914993e-20
-6.0257636929e-07 -1.8200378640e-06 3.8898439140e-20
-9.8770629515e-07 -2.5764283004e-06 4.8510728892e-20
3.4321262113e-07 -9.9096422382e-07 2.6950302169e-20
-9.4877592149e-07 -2.1486891094e-06 4.3120612725e-20
0.0000000000e+00 0.0000000000e+00 0.0000000000e+00
-3.1453307268e-10 -9.8584632962e-07 2.6950433148e-20
0.0000000000e+00 0.0000000000e+00 0.0000000000e+00
-5.8012305385e-07 -1.4612520512e-06 3.3957560244e-20
-8.9379266382e-07 -1.7426464996e-06 3.7730546658e-20
6.1086146169e-07 -7.1140130073e-07 2.1560088626e-20
-3.4286852538e-07 -9.9049453014e-07 2.6950533609e-20
-8.1655960804e-07 -1.3602781985e-06 3.2340517915e-20
2.8678134254e-13 -6.8260382175e-07 2.1560371143e-20
3.1221441528e-07 -5.8254890443e-07 1.9314346075e-20
4.9499953268e-07 -4.6260677458e-07 1.6170192580e-20
0.0000000000e+00 0.0000000000e+00 0.0000000000e+00
-7.1232919251e-07 -1.0105741157e-06 2.6950567517e-20
1.4119072307e-07 -4.3064237102e-07 1.6170270275e-20
-2.2497103885e-07 -5.7827980138e-07 1.9314659331e-20
4.0409641076e-10 -4.2717064242e-07 1.6170329782e-20
2.6567682702e-07 -3.3434293897e-07 1.3475249376e-20
-6.1085072426e-07 -7.1019919697e-07 2.1560647616e-20
1.1134561920e-07 -2.6248548217e-07 1.1948104287e-20
3.6404651545e-07 -2.6014385628e-07 1.0780294326e-20
-3.2977519591e-07 -4.4463133469e-07 1.6170472931e-20
-1.3547876538e-07 -3.2191319131e-07 1.3475364613e-20
2.5715751724e-10 -2.1923285552e-07 1.0780300416e-20
1.6825975198e-07 -1.5274483888e-07 8.0852546471e-21
-4.9474540370e-07 -4.6220026957e-07 1.6170580190e-20
-2.5172347364e-07 -2.7826436126e-07 1.1948246914e-20
6.0192491967e-08 -1.1212839008e-07 7.0071964644e-21
2.3212808055e-07 -8.7129885741e-08 5.3902229923e-21
-8.3036730430e-08 -1.4196446399e-07 8.0853384541e-21
2.2372462267e-10 -7.0857357565e-08 5.3901814750e-21
-3.6420857569e-07 -2.5981646904e-07 1.0780516549e-20
-1.6373131039e-07 -1.2481559492e-07 7.0073520968e-21
0.0000000000e+00 0.0000000000e+00 0.0000000000e+00
0.0000000000e+00 0.0000000000e+00 0.0000000000e+00
-2.3099933723e-07 -8.8058215599e-08 5.3902646778e-21
0.0000000000e+00 0.0000000000e+00 0.0000000000e+00
0.0000000000e+00 0.0000000000e+00 0.0000000000e+00
0.0000000000e+00 0.0000000000e+00 0.0000000000e+00
0.0000000000e+00 0.0000000000e+00 0.0000000000e+00
VECTORS DISPLACEMENT_STD double
1.9212794794e-07 2.8073548583e-07 3.2881089596e-20
1.7546570006e-07 2.2982956717e-07 2.9593069979e-20
1.4850426561e-07 2.7146751331e-07 3.2881081942e-20
1.4765184273e-07 2.1459749983e-07 2.8223128065e-20
1.6446180654e-07 1.9621422942e-07 2.6305073459e-20
1.5038404750e-07 2.6925064246e-07 3.2881273075e-20
0.0000000000e+00 0.0000000000e+00 0.0000000000e+00
1.4227400572e-07 1.9647973654e-07 2.6305216177e-20
1.4398807312e-07 1.8306605201e-07 2.4661131540e-20
1.4902887643e-07 2.2942817271e-07 2.9593330030e-20
1.5367214947e-07 1.7050741897e-07 2.3017072974e-20
1.4670401730e-07 1.9656510370e-07 2.6305294687e-20
1.3823394957e-07 1.7698646329e-07 2.3729579870e-20
1.3839361436e-07 1.6163994151e-07 2.1373105188e-20
1.4894073802e-07 2.7319863328e-07 3.2881841451e-20
1.4497345765e-07 2.1485959864e-07 2.8223538541e-20
1.4105085260e-07 1.7253720453e-07 2.3017200262e-20
1.4763587172e-07 1.4992888337e-07 1.9729052749e-20
1.3306412433e-07 1.5938463650e-07 2.0715511387e-20
1.4016157795e-07 1.8348129804e-07 2.4661318960e-20
1.4879255718e-07 1.9656396152e-07 2.6305537766e-20
1.3290259656e-07 1.5422433813e-07 1.9729094092e-20
1.3486106928e-07 1.6281750712e-07 2.1373153515e-20
1.5773873736e-07 1.2883674391e-07 1.6440904966e-20
0.0000000000e+00 0.0000000000e+00 0.0000000000e+00
1.9456240602e-07 2.8548543717e-07 3.2882380074e-20
1.4317647240e-07 1.7657148706e-07 2.3729734646e-20
1.7618514481e-07 2.3056443213e-07 2.9594024096e-20
1.3276008439e-07 1.3043282721e-07 1.6440982549e-20
1.6415256539e-07 1.9655048293e-07 2.6305673989e-20
0.0000000000e+00 0.0000000000e+00 0.0000000000e+00
1.2446799969e-07 1.3094471869e-07 1.6441019161e-20
0.0000000000e+00 0.0000000000e+00 0.0000000000e+00
1.3954611001e-07 1.5791381373e-07 2.0715535028e-20
1.5325114208e-07 1.7081717278e-07 2.3017365207e-20
1.3177391812e-07 9.5276937496e-08 1.3152975015e-20
1.3511784961e-07 1.3091488165e-07 1.6440894117e-20
1.4802052034e-07 1.5012045401e-07 1.9729077609e-20
1.1112409362e-07 9.0680670505e-08 1.3152953166e-20
1.0385473146e-07 7.7981430212e-08 1.1782968246e-20
1.0329116713e-07 6.2962110558e-08 9.8649316234e-21
0.0000000000e+00 0.0000000000e+00 0.0000000000e+00
1.6069054829e-07 1.2946240815e-07 1.6440831782e-20
8.7905671056e-08 5.7406985693e-08 9.8648828316e-21
1.0263093177e-07 7.7249536274e-08 1.1782848770e-20
9.3264095963e-08 5.6755250484e-08 9.8648546283e-21
7.7404937446e-08 4.5334737295e-08 8.2208084751e-21
1.3468475898e-07 9.5528450102e-08 1.3152862940e-20
6.7659507738e-08 3.5083393026e-08 7.2891262793e-21
7.4309449586e-08 3.7021634744e-08 6.5767194146e-21
9.3936234073e-08 6.0082923857e-08 9.8647826855e-21
7.6040548518e-08 4.3096702614e-08 8.2207364543e-21
6.8551414208e-08 2.9063079365e-08 6.5766603534e-21
4.8298585685e-08 2.1659444026e-08 4.9325896615e-21
1.0547806627e-07 6.3179618901e-08 9.8648118237e-21
7.1564641444e-08 3.8336391232e-08 7.2890966685e-21
4.1466003259e-08 1.5149673591e-08 4.2749057797e-21
4.7240295681e-08 1.3835158463e-08 3.2884451653e-21
4.7586352340e-08 1.9305335880e-08 4.9325612567e-21
3.6581364228e-08 9.3065358276e-09 3.2884033152e-21
7.5777020932e-08 3.7352923376e-08 6.5766913363e-21
4.4193066820e-08 1.8437028852e-08 4.2749997506e-21
0.0000000000e+00 0.0000000000e+00 0.0000000000e+00
0.0000000000e+00 0.0000000000e+00 0.0000000000e+00
4.7967535072e-08 1.4085474633e-08 3.2885720915e-21
0.0000000000e+00 0.0000000000e+00 0.0000000000e+00
0.0000000000e+00 0.0000000000e+00 0.0000000000e+00
0.0000000000e+00 0.0000000000e+00 0.0000000000e+00
0.0000000000e+00 0.0000000000e+00 0.0000000000e+00

CELL_DATA 96
SCALARS YOUNG_MODULUS_MEAN double 1
LOOKUP_TABLE default
7.4170842988e+10
7.4170842988e+10
7.4170842988e+10
7.4170842988e+10
7.4170842988e+10
7.4170842988e+10
7.4170842988e+10
7.4170842988e+10
7.4170842988e+10
7.4170842988e+10
7.4170842988e+10
7.4170842988e+10
7.4170842988e+10
7.4170842988e+10
7.4170842988e+10
7.4170842988e+10
7.4170842988e+10
7.4170842988e+10
7.4170842988e+10
7.4170842988e+10
7.4170842988e+10
7.4170842988e+10
7.4170842988e+10
7.4170842988e+10
7.4055539328e+10
7.4055539328e+10
7.4055539328e+10
7.4055539328e+10
7.4055539328e+10
7.4055539328e+10
7.4055539328e+10
7.4055539328e+10
7.4055539328e+10
7.4055539328e+10
7.4055539328e+10
7.4055539328e+10
7.4055539328e+10
7.4055539328e+10
7.4055539328e+10
7.4055539328e+10
7.4055539328e+10
7.4055539328e+10
7.4055539328e+10
7.4055539328e+10
7.4055539328e+10
7.4055539328e+10
7.4055539328e+10
7.4055539328e+10
7.2219165586e+10
7.2219165586e+10
7.2219165586e+10
7.2219165586e+10
7.2219165586e+10
7.2219165586e+10
7.2219165586e+10
7.2219165586e+10
7.2219165586e+10
7.2219165586e+10
7.2219165586e+10
7.2219165586e+10
7.2219165586e+10
7.2219165586e+10
7.2219165586e+10
7.2219165586e+10
7.2219165586e+10
7.2219165586e+10
7.2219165586e+10
7.2219165586e+10
7.2219165586e+10
7.2219165586e+10
7.2219165586e+10
7.2219165586e+10
7.3913689259e+10
7.3913689259e+10
7.3913689259e+10
7.3913689259e+10
7.3913689259e+10
7.3913689259e+10
7.3913689259e+10
7.3913689259e+10
7.3913689259e+10
7.3913689259e+10
7.3913689259e+10
7.3913689259e+10
7.3913689259e+10
7.3913689259e+10
7.3913689259e+10
7.3913689259e+10
7.3913689259e+10
7.3913689259e+10
7.3913689259e+10
7.3913689259e+10
7.3913689259e+10
7.3913689259e+10
7.3913689259e+10
7.3913689259e+10
SCALARS YOUNG_MODULUS_STD double 1
LOOKUP_TABLE default
2.8684166737e+10
2.8684166737e+10
2.8684166737e+10
2.8684166737e+10
2.8684166737e+10
2.8684166737e+10
2.8684166737e+10
2.8684166737e+10
2.8684166737e+10
2.8684166737e+10
2.8684166737e+10
2.8684166737e+10
2.8684166737e+10
2.8684166737e+10
2.8684166737e+10
2.8684166737e+10
2.8684166737e+10
2.8684166737e+10
2.8684166737e+10
2.8684166737e+10
2.8684166737e+10
2.8684166737e+10
2.8684166737e+10
2.8684166737e+10
2.9044231424e+10
2.9044231424e+10
2.9044231424e+10
2.9044231424e+10
2.9044231424e+10
2.9044231424e+10
2.9044231424e+10
2.9044231424e+10
2.9044231424e+10
2.9044231424e+10
2.9044231424e+10
2.9044231424e+10
2.9044231424e+10
2.9044231424e+10
2.9044231424e+10
2.9044231424e+10
2.9044231424e+10
2.9044231424e+10
2.9044231424e+10
2.9044231424e+10
2.9044231424e+10
2.9044231424e+10
2.9044231424e+10
2.9044231424e+10
3.5388867218e+10
3.5388867218e+10
3.5388867218e+10
3.5388867218e+10
3.5388867218e+10
3.5388867218e+10
3.5388867218e+10
3.5388867218e+10
3.5388867218e+10
3.5388867218e+10
3.5388867218e+10
3.5388867218e+10
3.5388867218e+10
3.5388867218e+10
3.5388867218e+10
3.5388867218e+10
3.5388867218e+10
3.5388867218e+10
3.5388867218e+10
3.5388867218e+10
3.5388867218e+10
3.5388867218e+10
3.5388867218e+10
3.5388867218e+10
3.6058635622e+10
3.6058635622e+10
3.6058635622e+10
3.6058635622e+10
3.6058635622e+10
3.6058635622e+10
3.6058635622e+10
3.6058635622e+10
3.6058635622e+10
3.6058635622e+10
3.6058635622e+10
3.6058635622e+10
3.6058635622e+10
3.6058635622e+10
3.6058635622e+10
3.6058635622e+10
3.6058635622e+10
3.6058635622e+10
3.6058635622e+10
3.6058635622e+10
3.6058635622e+10
3.6058635622e+10
3.6058635622e+10
3.6058635622e+10
