# vtk DataFile Version 4.2
SMC_aCS level 2, q = 0.2183
ASCII
DATASET UNSTRUCTURED_GRID
POINTS 22 double
0.0000000000e+00 0.0000000000e+00 0.0000000000e+00
0.0000000000e+00 1.0000000000e-01 0.0000000000e+00
1.0000000000e-01 0.0000000000e+00 0.0000000000e+00
1.0000000000e-01 1.0000000000e-01 0.0000000000e+00
2.0000000000e-01 0.0000000000e+00 0.0000000000e+00
2.0000000000e-01 1.0000000000e-01 0.0000000000e+00
3.0000000000e-01 0.0000000000e+00 0.0000000000e+00
3.0000000000e-01 1.0000000000e-01 0.0000000000e+00
4.0000000000e-01 0.0000000000e+00 0.0000000000e+00
4.0000000000e-01 1.0000000000e-01 0.0000000000e+00
5.0000000000e-01 0.0000000000e+00 0.0000000000e+00
5.0000000000e-01 1.0000000000e-01 0.0000000000e+00
6.0000000000e-01 0.0000000000e+00 0.0000000000e+00
6.0000000000e-01 1.0000000000e-01 0.0000000000e+00
7.0000000000e-01 0.0000000000e+00 0.0000000000e+00
7.0000000000e-01 1.0000000000e-01 0.0000000000e+00
8.0000000000e-01 0.0000000000e+00 0.0000000000e+00
8.0000000000e-01 1.0000000000e-01 0.0000000000e+00
9.0000000000e-01 0.0000000000e+00 0.0000000000e+00
9.0000000000e-01 1.0000000000e-01 0.0000000000e+00
1.0000000000e+00 0.0000000000e+00 0.0000000000e+00
1.0000000000e+00 1.0000000000e-01 0.0000000000e+00

CELLS 20 80
3 0 2 1
3 16 18 17
3 11 9 8
3 16 17 14
3 8 9 7
3 8 10 11
3 11 10 13
3 19 17 18
3 19 18 21
3 3 1 2
3 3 2 4
3 4 6 5
3 4 5 3
3 20 21 18
3 7 5 6
3 7 6 8
3 12 14 13
3 12 13 10
3 15 13 14
3 15 14 17

CELL_TYPES 20
5
5
5
5
5
5
5
5
5
5
5
5
5
5
5
5
5
5
5
5

POINT_DATA 22
VECTORS DISPLACEMENT_MEAN double
0.0000000000e+00 0.0000000000e+00 0.0000000000e+00
0.0000000000e+00 0.0000000000e+00 0.0000000000e+00
-3.1557149395e-08 -2.9517035551e-08 -5.8002987897e-22
3.1175078947e-08 -2.9527203985e-08 -5.8003853577e-22
-5.7762159956e-08 -1.1992489198e-07 -1.1600591281e-21
5.7367485351e-08 -1.2007321996e-07 -1.1600686769e-21
-8.0641820384e-08 -2.5978291830e-07 -1.7400910338e-21
8.0498656529e-08 -2.6003290806e-07 -1.7401010539e-21
-1.0032100903e-07 -4.4205798867e-07 -2.3201230971e-21
1.0107010272e-07 -4.4384523377e-07 -2.3201326843e-21
-1.1711195542e-07 -6.6329908532e-07 -2.9001474987e-21
1.1851098787e-07 -6.6318240186e-07 -2.9001575414e-21
-1.3127774303e-07 -9.1515828406e-07 -3.4801715884e-21
1.3223744183e-07 -9.1400294877e-07 -3.4801816404e-21
-1.4236156587e-07 -1.1904900019e-06 -4.0601973485e-21
1.4315632138e-07 -1.1912766257e-06 -4.0602065313e-21
-1.5019759435e-07 -1.4862788601e-06 -4.6402186702e-21
1.5103460926e-07 -1.4857651406e-06 -4.6402275274e-21
-1.5492411181e-07 -1.7935976367e-06 -5.2202419996e-21
1.5574080638e-07 -1.7938666197e-06 -5.2202512761e-21
-1.5674103754e-07 -2.1080528062e-06 -5.8002641829e-21
1.5720586142e-07 -2.1075413806e-06 -5.8002749950e-21
VECTORS DISPLACEMENT_STD double
0.0000000000e+00 0.0000000000e+00 0.0000000000e+00
0.0000000000e+00 0.0000000000e+00 0.0000000000e+00
1.2280664227e-09 1.1486741025e-09 1.7308963804e-22
1.2131979097e-09 1.1490698135e-09 1.7308951293e-22
2.2478509785e-09 4.6669530014e-09 3.4618387110e-22
2.2324919667e-09 4.6727252787e-09 3.4618361052e-22
3.1382274312e-09 1.0109616530e-08 5.1927599297e-22
3.1326561192e-09 1.0119345040e-08 5.1927511220e-22
3.9040555008e-09 1.7202966148e-08 6.9236221653e-22
3.9332069553e-09 1.7272517922e-08 6.9235935140e-22
4.5574857966e-09 2.5812703318e-08 8.6544869791e-22
4.6119300293e-09 2.5808162508e-08 8.6544333890e-22
5.1087563789e-09 3.5613963291e-08 1.0385332349e-21
5.1461036643e-09 3.5569002688e-08 1.0385283400e-21
5.5400903532e-09 4.6328671189e-08 1.2116200179e-21
5.5710187662e-09 4.6359283151e-08 1.2116144395e-21
5.8450343560e-09 5.7839481634e-08 1.3847076567e-21
5.8776073207e-09 5.7819489916e-08 1.3847004186e-21
6.0289697716e-09 6.9798986149e-08 1.5577936773e-21
6.0607519575e-09 6.9809453793e-08 1.5577860508e-21
6.0996765853e-09 8.2036207904e-08 1.7308786942e-21
6.1177655005e-09 8.2016305452e-08 1.7308704688e-21

CELL_DATA 20
SCALARS YOUNG_MODULUS_MEAN double 1
LOOKUP_TABLE default
1.8620137737e+11
1.8620137737e+11
1.8620137737e+11
1.8620137737e+11
1.8620137737e+11
1.8620137737e+11
1.8620137737e+11
1.8620137737e+11
1.8620137737e+11
1.8620137737e+11
1.8620137737e+11
1.8620137737e+11
1.8620137737e+11
1.8620137737e+11
1.8620137737e+11
1.8620137737e+11
1.8620137737e+11
1.8620137737e+11
1.8620137737e+11
1.8620137737e+11
SCALARS YOUNG_MODULUS_STD double 1
LOOKUP_TABLE default
7.2845204871e+09
7.2845204871e+09
7.2845204871e+09
7.2845204871e+09
7.2845204871e+09
7.2845204871e+09
7.2845204871e+09
7.2845204871e+09
7.2845204871e+09
7.2845204871e+09
7.2845204871e+09
7.2845204871e+09
7.2845204871e+09
7.2845204871e+09
7.2845204871e+09
7.2845204871e+09
7.2845204871e+09
7.2845204871e+09
7.2845204871e+09
7.2845204871e+09
