# vtk DataFile Version 4.2
SMC_aCS level 0, q = 0.0000
ASCII
DATASET UNSTRUCTURED_GRID
POINTS 22 double
0.0000000000e+00 0.0000000000e+00 0.0000000000e+00
0.0000000000e+00 1.0000000000e-01 0.0000000000e+00
1.0000000000e-01 0.0000000000e+00 0.0000000000e+00
1.0000000000e-01 1.0000000000e-01 0.0000000000e+00
2.0000000000e-01 0.0000000000e+00 0.0000000000e+00
2.0000000000e-01 1.0000000000e-01 0.0000000000e+00
3.0000000000e-01 0.0000000000e+00 0.0000000000e+00
3.0000000000e-01 1.0000000000e-01 0.0000000000e+00
4.0000000000e-01 0.0000000000e+00 0.0000000000e+00
4.0000000000e-01 1.0000000000e-01 0.0000000000e+00
5.0000000000e-01 0.0000000000e+00 0.0000000000e+00
5.0000000000e-01 1.0000000000e-01 0.0000000000e+00
6.0000000000e-01 0.0000000000e+00 0.0000000000e+00
6.0000000000e-01 1.0000000000e-01 0.0000000000e+00
7.0000000000e-01 0.0000000000e+00 0.0000000000e+00
7.0000000000e-01 1.0000000000e-01 0.0000000000e+00
8.0000000000e-01 0.0000000000e+00 0.0000000000e+00
8.0000000000e-01 1.0000000000e-01 0.0000000000e+00
9.0000000000e-01 0.0000000000e+00 0.0000000000e+00
9.0000000000e-01 1.0000000000e-01 0.0000000000e+00
1.0000000000e+00 0.0000000000e+00 0.0000000000e+00
1.0000000000e+00 1.0000000000e-01 0.0000000000e+00

CELLS 20 80
3 0 2 1
3 16 18 17
3 11 9 8
3 16 17 14
3 8 9 7
3 8 10 11
3 11 10 13
3 19 17 18
3 19 18 21
3 3 1 2
3 3 2 4
3 4 6 5
3 4 5 3
3 20 21 18
3 7 5 6
3 7 6 8
3 12 14 13
3 12 13 10
3 15 13 14
3 15 14 17

CELL_TYPES 20
5
5
5
5
5
5
5
5
5
5
5
5
5
5
5
5
5
5
5
5

POINT_DATA 22
VECTORS DISPLACEMENT_MEAN double
0.0000000000e+00 0.0000000000e+00 0.0000000000e+00
0.0000000000e+00 0.0000000000e+00 0.0000000000e+00
-3.6814157817e-08 -3.4434187685e-08 -1.9536230078e-22
3.6368439429e-08 -3.4446050048e-08 -1.9537038297e-22
-6.7384580460e-08 -1.3990281074e-07 -3.9072225020e-22
6.6924158227e-08 -1.4007584823e-07 -3.9073164199e-22
-9.4075693123e-08 -3.0305935536e-07 -5.8607804710e-22
9.3908680041e-08 -3.0335099015e-07 -5.8608651466e-22
-1.1703317726e-07 -5.1569906888e-07 -7.8143646941e-22
1.1790706016e-07 -5.1778404564e-07 -7.8144533627e-22
-1.3662127574e-07 -7.7379603910e-07 -9.7679045537e-22
1.3825336871e-07 -7.7365991770e-07 -9.7679962656e-22
-1.5314689833e-07 -1.0676116868e-06 -1.1721424378e-21
1.5426647039e-07 -1.0662638878e-06 -1.1721523692e-21
-1.6607714111e-07 -1.3888100684e-06 -1.3674984134e-21
1.6700429249e-07 -1.3897277335e-06 -1.3675084151e-21
-1.7521854946e-07 -1.7338734824e-06 -1.5628516780e-21
1.7619500011e-07 -1.7332741840e-06 -1.5628617112e-21
-1.8073244292e-07 -2.0923875485e-06 -1.7582075599e-21
1.8168518813e-07 -2.0927013405e-06 -1.7582176588e-21
-1.8285204472e-07 -2.4592268371e-06 -1.9535625579e-21
1.8339430218e-07 -2.4586302146e-06 -1.9535732347e-21
VECTORS DISPLACEMENT_STD double
0.0000000000e+00 0.0000000000e+00 0.0000000000e+00
0.0000000000e+00 0.0000000000e+00 0.0000000000e+00
2.7615961797e-08 2.5830638754e-08 2.8060366873e-22
2.7281608311e-08 2.5839537248e-08 2.8060634871e-22
5.0548215958e-08 1.0494741441e-07 5.6121109005e-22
5.0202832455e-08 1.0507721764e-07 5.6121366316e-22
7.0570424568e-08 2.2733850442e-07 8.4182067841e-22
7.0445140515e-08 2.2755727284e-07 8.4182154223e-22
8.7791869860e-08 3.8684915340e-07 1.1224284415e-21
8.8447408876e-08 3.8841318860e-07 1.1224289270e-21
1.0248578686e-07 5.8045934285e-07 1.4030369565e-21
1.0371009348e-07 5.8035723204e-07 1.4030376407e-21
1.1488240243e-07 8.0086372486e-07 1.6836449269e-21
1.1572224398e-07 7.9985267996e-07 1.6836461435e-21
1.2458196129e-07 1.0418091318e-06 1.9642548989e-21
1.2527745940e-07 1.0424975138e-06 1.9642559755e-21
1.3143934439e-07 1.3006567769e-06 2.2448652650e-21
1.3217182411e-07 1.3002072161e-06 2.2448657764e-21
1.3557556481e-07 1.5695943634e-06 2.5254752041e-21
1.3629026201e-07 1.5698297530e-06 2.5254761059e-21
1.3716557381e-07 1.8447770752e-06 2.8060843970e-21
1.3757234561e-07 1.8443295217e-06 2.8060852985e-21

CELL_DATA 20
SCALARS YOUNG_MODULUS_MEAN double 1
LOOKUP_TABLE default
2.2800136256e+11
2.2800136256e+11
2.2800136256e+11
2.2800136256e+11
2.2800136256e+11
2.2800136256e+11
2.2800136256e+11
2.2800136256e+11
2.2800136256e+11
2.2800136256e+11
2.2800136256e+11
2.2800136256e+11
2.2800136256e+11
2.2800136256e+11
2.2800136256e+11
2.2800136256e+11
2.2800136256e+11
2.2800136256e+11
2.2800136256e+11
2.2800136256e+11
SCALARS YOUNG_MODULUS_STD double 1
LOOKUP_TABLE default
1.0890414419e+11
1.0890414419e+11
1.0890414419e+11
1.0890414419e+11
1.0890414419e+11
1.0890414419e+11
1.0890414419e+11
1.0890414419e+11
1.0890414419e+11
1.0890414419e+11
1.0890414419e+11
1.0890414419e+11
1.0890414419e+11
1.0890414419e+11
1.0890414419e+11
1.0890414419e+11
1.0890414419e+11
1.0890414419e+11
1.0890414419e+11
1.0890414419e+11
