# vtk DataFile Version 4.2
SMC_aCS level 3, q = 1.0000
ASCII
DATASET UNSTRUCTURED_GRID
POINTS 22 double
0.0000000000e+00 0.0000000000e+00 0.0000000000e+00
0.0000000000e+00 1.0000000000e-01 0.0000000000e+00
1.0000000000e-01 0.0000000000e+00 0.0000000000e+00
1.0000000000e-01 1.0000000000e-01 0.0000000000e+00
2.0000000000e-01 0.0000000000e+00 0.0000000000e+00
2.0000000000e-01 1.0000000000e-01 0.0000000000e+00
3.0000000000e-01 0.0000000000e+00 0.0000000000e+00
3.0000000000e-01 1.0000000000e-01 0.0000000000e+00
4.0000000000e-01 0.0000000000e+00 0.0000000000e+00
4.0000000000e-01 1.0000000000e-01 0.0000000000e+00
5.0000000000e-01 0.0000000000e+00 0.0000000000e+00
5.0000000000e-01 1.0000000000e-01 0.0000000000e+00
6.0000000000e-01 0.0000000000e+00 0.0000000000e+00
6.0000000000e-01 1.0000000000e-01 0.0000000000e+00
7.0000000000e-01 0.0000000000e+00 0.0000000000e+00
7.0000000000e-01 1.0000000000e-01 0.0000000000e+00
8.0000000000e-01 0.0000000000e+00 0.0000000000e+00
8.0000000000e-01 1.0000000000e-01 0.0000000000e+00
9.0000000000e-01 0.0000000000e+00 0.0000000000e+00
9.0000000000e-01 1.0000000000e-01 0.0000000000e+00
1.0000000000e+00 0.0000000000e+00 0.0000000000e+00
1.0000000000e+00 1.0000000000e-01 0.0000000000e+00

CELLS 20 80
3 0 2 1
3 16 18 17
3 11 9 8
3 16 17 14
3 8 9 7
3 8 10 11
3 11 10 13
3 19 17 18
3 19 18 21
3 3 1 2
3 3 2 4
3 4 6 5
3 4 5 3
3 20 21 18
3 7 5 6
3 7 6 8
3 12 14 13
3 12 13 10
3 15 13 14
3 15 14 17

CELL_TYPES 20
5
5
5
5
5
5
5
5
5
5
5
5
5
5
5
5
5
5
5
5

POINT_DATA 22
VECTORS DISPLACEMENT_MEAN double
0.0000000000e+00 0.0000000000e+00 0.0000000000e+00
0.0000000000e+00 0.0000000000e+00 0.0000000000e+00
-3.1615523240e-08 -2.9571635630e-08 -5.6342301310e-22
3.1232746045e-08 -2.9581822874e-08 -5.6342854107e-22
-5.7869007356e-08 -1.2014672687e-07 -1.1268457016e-21
5.7473602689e-08 -1.2029532923e-07 -1.1268537557e-21
-8.0790990167e-08 -2.6026346005e-07 -1.6902703828e-21
8.0647561489e-08 -2.6051391224e-07 -1.6902787171e-21
-1.0050658102e-07 -4.4287569955e-07 -2.2536956400e-21
1.0125706037e-07 -4.4466625067e-07 -2.2537029087e-21
-1.1732858700e-07 -6.6452604398e-07 -2.8171124521e-21
1.1873020736e-07 -6.6440914468e-07 -2.8171192828e-21
-1.3152057823e-07 -9.1685112732e-07 -3.3805266794e-21
1.3248205226e-07 -9.1569365491e-07 -3.3805344318e-21
-1.4262490373e-07 -1.1926921488e-06 -3.9439439032e-21
1.4342112936e-07 -1.1934802277e-06 -3.9439501987e-21
-1.5047542714e-07 -1.4890281518e-06 -4.5073572522e-21
1.5131399035e-07 -1.4885134821e-06 -4.5073624335e-21
-1.5521068763e-07 -1.7969154012e-06 -5.0707703192e-21
1.5602889291e-07 -1.7971848818e-06 -5.0707766963e-21
-1.5703097428e-07 -2.1119522442e-06 -5.6341817983e-21
1.5749665798e-07 -2.1114398725e-06 -5.6341903341e-21
VECTORS DISPLACEMENT_STD double
0.0000000000e+00 0.0000000000e+00 0.0000000000e+00
0.0000000000e+00 0.0000000000e+00 0.0000000000e+00
5.7231446862e-10 5.3531535137e-10 1.1839998615e-22
5.6538531153e-10 5.3549976417e-10 1.1840086829e-22
1.0475635637e-09 2.1749350668e-09 2.3680353425e-22
1.0404058201e-09 2.1776251149e-09 2.3680427707e-22
1.4625047404e-09 4.7113736726e-09 3.5520489176e-22
1.4599083479e-09 4.7159074396e-09 3.5520534600e-22
1.8194027685e-09 8.0170797343e-09 4.7359835217e-22
1.8329881894e-09 8.0494928721e-09 4.7359698639e-22
2.1239201835e-09 1.2029466249e-08 5.9198854890e-22
2.1492927705e-09 1.2027350100e-08 5.9198433268e-22
2.3808282176e-09 1.6597136848e-08 7.1037491867e-22
2.3982331327e-09 1.6576183907e-08 7.1037139249e-22
2.5818423238e-09 2.1590500597e-08 8.2876517684e-22
2.5962558587e-09 2.1604766657e-08 8.2876086891e-22
2.7239550481e-09 2.6954871157e-08 9.4715691911e-22
2.7391349916e-09 2.6945554438e-08 9.4715144619e-22
2.8096742711e-09 3.2528346130e-08 1.0655480244e-21
2.8244856889e-09 3.2533224354e-08 1.0655418073e-21
2.8426256912e-09 3.8231245367e-08 1.1839380491e-21
2.8510556488e-09 3.8221970249e-08 1.1839309506e-21

CELL_DATA 20
SCALARS YOUNG_MODULUS_MEAN double 1
LOOKUP_TABLE default
1.8563597334e+11
1.8563597334e+11
1.8563597334e+11
1.8563597334e+11
1.8563597334e+11
1.8563597334e+11
1.8563597334e+11
1.8563597334e+11
1.8563597334e+11
1.8563597334e+11
1.8563597334e+11
1.8563597334e+11
1.8563597334e+11
1.8563597334e+11
1.8563597334e+11
1.8563597334e+11
1.8563597334e+11
1.8563597334e+11
1.8563597334e+11
1.8563597334e+11
SCALARS YOUNG_MODULUS_STD double 1
LOOKUP_TABLE default
3.3574156826e+09
3.3574156826e+09
3.3574156826e+09
3.3574156826e+09
3.3574156826e+09
3.3574156826e+09
3.3574156826e+09
3.3574156826e+09
3.3574156826e+09
3.3574156826e+09
3.3574156826e+09
3.3574156826e+09
3.3574156826e+09
3.3574156826e+09
3.3574156826e+09
3.3574156826e+09
3.3574156826e+09
3.3574156826e+09
3.3574156826e+09
3.3574156826e+09
