# vtk DataFile Version 4.2
SMC_aCS level 1, q = 0.0132
ASCII
DATASET UNSTRUCTURED_GRID
POINTS 22 double
0.0000000000e+00 0.0000000000e+00 0.0000000000e+00
0.0000000000e+00 1.0000000000e-01 0.0000000000e+00
1.0000000000e-01 0.0000000000e+00 0.0000000000e+00
1.0000000000e-01 1.0000000000e-01 0.0000000000e+00
2.0000000000e-01 0.0000000000e+00 0.0000000000e+00
2.0000000000e-01 1.0000000000e-01 0.0000000000e+00
3.0000000000e-01 0.0000000000e+00 0.0000000000e+00
3.0000000000e-01 1.0000000000e-01 0.0000000000e+00
4.0000000000e-01 0.0000000000e+00 0.0000000000e+00
4.0000000000e-01 1.0000000000e-01 0.0000000000e+00
5.0000000000e-01 0.0000000000e+00 0.0000000000e+00
5.0000000000e-01 1.0000000000e-01 0.0000000000e+00
6.0000000000e-01 0.0000000000e+00 0.0000000000e+00
6.0000000000e-01 1.0000000000e-01 0.0000000000e+00
7.0000000000e-01 0.0000000000e+00 0.0000000000e+00
7.0000000000e-01 1.0000000000e-01 0.0000000000e+00
8.0000000000e-01 0.0000000000e+00 0.0000000000e+00
8.0000000000e-01 1.0000000000e-01 0.0000000000e+00
9.0000000000e-01 0.0000000000e+00 0.0000000000e+00
9.0000000000e-01 1.0000000000e-01 0.0000000000e+00
1.0000000000e+00 0.0000000000e+00 0.0000000000e+00
1.0000000000e+00 1.0000000000e-01 0.0000000000e+00

CELLS 20 80
3 0 2 1
3 16 18 17
3 11 9 8
3 16 17 14
3 8 9 7
3 8 10 11
3 11 10 13
3 19 17 18
3 19 18 21
3 3 1 2
3 3 2 4
3 4 6 5
3 4 5 3
3 20 21 18
3 7 5 6
3 7 6 8
3 12 14 13
3 12 13 10
3 15 13 14
3 15 14 17

CELL_TYPES 20
5
5
5
5
5
5
5
5
5
5
5
5
5
5
5
5
5
5
5
5

POINT_DATA 22
VECTORS DISPLACEMENT_MEAN double
0.0000000000e+00 0.0000000000e+00 0.0000000000e+00
0.0000000000e+00 0.0000000000e+00 0.0000000000e+00
-2.9969538208e-08 -2.8032060617e-08 -5.1379017263e-22
2.9606689374e-08 -2.8041717487e-08 -5.1380009664e-22
-5.4856198769e-08 -1.1389158087e-07 -1.0275811222e-21
5.4481379881e-08 -1.1403244661e-07 -1.0275912207e-21
-7.6584804507e-08 -2.4671347841e-07 -1.5413707698e-21
7.6448843093e-08 -2.4695089142e-07 -1.5413814715e-21
-9.5273951258e-08 -4.1981845749e-07 -2.0551605811e-21
9.5985358730e-08 -4.2151578793e-07 -2.0551714186e-21
-1.1122016056e-07 -6.2992911787e-07 -2.5689443763e-21
1.1254880898e-07 -6.2981830465e-07 -2.5689549146e-21
-1.2467328042e-07 -8.6911751178e-07 -3.0827274521e-21
1.2558469765e-07 -8.6802030035e-07 -3.0827378982e-21
-1.3519948632e-07 -1.1305975439e-06 -3.5965122475e-21
1.3595425840e-07 -1.1313445934e-06 -3.5965222721e-21
-1.4264129140e-07 -1.4115055364e-06 -4.1102937669e-21
1.4343619686e-07 -1.4110176617e-06 -4.1103042491e-21
-1.4713002211e-07 -1.7033633878e-06 -4.6240784886e-21
1.4790562953e-07 -1.7036188386e-06 -4.6240889869e-21
-1.4885553998e-07 -2.0019986067e-06 -5.1378620649e-21
1.4929697900e-07 -2.0015129104e-06 -5.1378733756e-21
VECTORS DISPLACEMENT_STD double
0.0000000000e+00 0.0000000000e+00 0.0000000000e+00
0.0000000000e+00 0.0000000000e+00 0.0000000000e+00
5.1500772897e-09 4.8171339098e-09 2.1732705237e-22
5.0877239918e-09 4.8187933824e-09 2.1732586408e-22
9.4266939155e-09 1.9571554290e-08 4.3465776943e-22
9.3622836389e-09 1.9595761185e-08 4.3465640491e-22
1.3160618615e-08 4.2396164845e-08 6.5198886708e-22
1.3137254498e-08 4.2436962782e-08 6.5198693942e-22
1.6372231339e-08 7.2143170465e-08 8.6931664237e-22
1.6494482254e-08 7.2434846062e-08 8.6931460889e-22
1.9112487456e-08 1.0824937046e-07 1.0866461995e-21
1.9340807358e-08 1.0823032790e-07 1.0866426596e-21
2.1424321778e-08 1.4935239670e-07 1.3039772990e-21
2.1580943116e-08 1.4916384779e-07 1.3039732998e-21
2.3233184283e-08 1.9428610125e-07 1.5213085144e-21
2.3362887135e-08 1.9441447702e-07 1.5213044915e-21
2.4512011840e-08 2.4255837901e-07 1.7386398956e-21
2.4648611362e-08 2.4247454080e-07 1.7386353303e-21
2.5283372077e-08 2.9271232138e-07 1.9559716381e-21
2.5416655351e-08 2.9275621899e-07 1.9559668369e-21
2.5579891507e-08 3.4403091188e-07 2.1733035522e-21
2.5655750035e-08 3.4394744802e-07 2.1732985915e-21

CELL_DATA 20
SCALARS YOUNG_MODULUS_MEAN double 1
LOOKUP_TABLE default
2.0208413900e+11
2.0208413900e+11
2.0208413900e+11
2.0208413900e+11
2.0208413900e+11
2.0208413900e+11
2.0208413900e+11
2.0208413900e+11
2.0208413900e+11
2.0208413900e+11
2.0208413900e+11
2.0208413900e+11
2.0208413900e+11
2.0208413900e+11
2.0208413900e+11
2.0208413900e+11
2.0208413900e+11
2.0208413900e+11
2.0208413900e+11
2.0208413900e+11
SCALARS YOUNG_MODULUS_STD double 1
LOOKUP_TABLE default
3.8075459944e+10
3.8075459944e+10
3.8075459944e+10
3.8075459944e+10
3.8075459944e+10
3.8075459944e+10
3.8075459944e+10
3.8075459944e+10
3.8075459944e+10
3.8075459944e+10
3.8075459944e+10
3.8075459944e+10
3.8075459944e+10
3.8075459944e+10
3.8075459944e+10
3.8075459944e+10
3.8075459944e+10
3.8075459944e+10
3.8075459944e+10
3.8075459944e+10
