# vtk DataFile Version 4.2
SMC_aCS level 3, q = 1.0000
ASCII
DATASET UNSTRUCTURED_GRID
POINTS 22 double
0.0000000000e+00 0.0000000000e+00 0.0000000000e+00
0.0000000000e+00 1.0000000000e-01 0.0000000000e+00
1.0000000000e-01 0.0000000000e+00 0.0000000000e+00
1.0000000000e-01 1.0000000000e-01 0.0000000000e+00
2.0000000000e-01 0.0000000000e+00 0.0000000000e+00
2.0000000000e-01 1.0000000000e-01 0.0000000000e+00
3.0000000000e-01 0.0000000000e+00 0.0000000000e+00
3.0000000000e-01 1.0000000000e-01 0.0000000000e+00
4.0000000000e-01 0.0000000000e+00 0.0000000000e+00
4.0000000000e-01 1.0000000000e-01 0.0000000000e+00
5.0000000000e-01 0.0000000000e+00 0.0000000000e+00
5.0000000000e-01 1.0000000000e-01 0.0000000000e+00
6.0000000000e-01 0.0000000000e+00 0.0000000000e+00
6.0000000000e-01 1.0000000000e-01 0.0000000000e+00
7.0000000000e-01 0.0000000000e+00 0.0000000000e+00
7.0000000000e-01 1.0000000000e-01 0.0000000000e+00
8.0000000000e-01 0.0000000000e+00 0.0000000000e+00
8.0000000000e-01 1.0000000000e-01 0.0000000000e+00
9.0000000000e-01 0.0000000000e+00 0.0000000000e+00
9.0000000000e-01 1.0000000000e-01 0.0000000000e+00
1.0000000000e+00 0.0000000000e+00 0.0000000000e+00
1.0000000000e+00 1.0000000000e-01 0.0000000000e+00

CELLS 20 80
3 0 2 1
3 16 18 17
3 11 9 8
3 16 17 14
3 8 9 7
3 8 10 11
3 11 10 13
3 19 17 18
3 19 18 21
3 3 1 2
3 3 2 4
3 4 6 5
3 4 5 3
3 20 21 18
3 7 5 6
3 7 6 8
3 12 14 13
3 12 13 10
3 15 13 14
3 15 14 17

CELL_TYPES 20
5
5
5
5
5
5
5
5
5
5
5
5
5
5
5
5
5
5
5
5

POINT_DATA 22
VECTORS DISPLACEMENT_MEAN double
0.0000000000e+00 0.0000000000e+00 0.0000000000e+00
0.0000000000e+00 0.0000000000e+00 0.0000000000e+00
-2.8330284577e-08 -2.6498781831e-08 1.3637927262e-22
2.7987282603e-08 -2.6507910496e-08 1.3637554035e-22
-5.1855711327e-08 -1.0766201582e-07 2.7275872807e-22
5.1501394030e-08 -1.0779517658e-07 2.7275258896e-22
-7.2395820411e-08 -2.3321891060e-07 4.0913768335e-22
7.2267295723e-08 -2.3344333775e-07 4.0913055575e-22
-9.0062720791e-08 -3.9685551004e-07 5.4551563004e-22
9.0735216176e-08 -3.9846000104e-07 5.4550892653e-22
-1.0513671507e-07 -5.9547367892e-07 6.8190095001e-22
1.0639268997e-07 -5.9536892689e-07 6.8189530036e-22
-1.1785398523e-07 -8.2157910703e-07 8.1828524986e-22
1.1871555038e-07 -8.2054191013e-07 8.1827899448e-22
-1.2780443580e-07 -1.0687568804e-06 9.5466753324e-22
1.2851792388e-07 -1.0694630682e-06 9.5466170191e-22
-1.3483919404e-07 -1.3342999565e-06 1.0910532031e-21
1.3559062030e-07 -1.3338387673e-06 1.0910481285e-21
-1.3908240318e-07 -1.6101939636e-06 1.2274395678e-21
1.3981558695e-07 -1.6104354419e-06 1.2274325579e-21
-1.4071353983e-07 -1.8924946343e-06 1.3638277805e-21
1.4113083331e-07 -1.8920355043e-06 1.3638185165e-21
VECTORS DISPLACEMENT_STD double
0.0000000000e+00 0.0000000000e+00 0.0000000000e+00
0.0000000000e+00 0.0000000000e+00 0.0000000000e+00
5.6665606451e-10 5.3002275306e-10 6.1921767102e-23
5.5979541516e-10 5.3020534259e-10 6.1922804064e-23
1.0372064292e-09 2.1534317461e-09 1.2384348367e-22
1.0301194532e-09 2.1560951981e-09 1.2384355088e-22
1.4480451324e-09 4.6647928895e-09 1.8576168547e-22
1.4454744101e-09 4.6692818316e-09 1.8576047373e-22
1.8014145528e-09 7.9378158341e-09 2.4767771577e-22
1.8148656563e-09 7.9699085070e-09 2.4767694516e-22
2.1029212409e-09 1.1910532367e-08 3.0959561382e-22
2.1280429721e-09 1.1908437140e-08 3.0959438081e-22
2.3572892562e-09 1.6433042958e-08 3.7151472963e-22
2.3745220910e-09 1.6412297176e-08 3.7151264553e-22
2.5563159602e-09 2.1377037922e-08 4.3343269443e-22
2.5705869902e-09 2.1391162935e-08 4.3343034222e-22
2.6970236331e-09 2.6688371597e-08 4.9535213276e-22
2.7120534944e-09 2.6679146992e-08 4.9535025581e-22
2.7818953606e-09 3.2206742295e-08 5.5727258373e-22
2.7965603396e-09 3.2211572290e-08 5.5727039499e-22
2.8145209939e-09 3.7853257656e-08 6.1919393358e-22
2.8228676055e-09 3.7844074240e-08 6.1919160908e-22

CELL_DATA 20
SCALARS YOUNG_MODULUS_MEAN double 1
LOOKUP_TABLE default
2.0717785556e+11
2.0717785556e+11
2.0717785556e+11
2.0717785556e+11
2.0717785556e+11
2.0717785556e+11
2.0717785556e+11
2.0717785556e+11
2.0717785556e+11
2.0717785556e+11
2.0717785556e+11
2.0717785556e+11
2.0717785556e+11
2.0717785556e+11
2.0717785556e+11
2.0717785556e+11
2.0717785556e+11
2.0717785556e+11
2.0717785556e+11
2.0717785556e+11
SCALARS YOUNG_MODULUS_STD double 1
LOOKUP_TABLE default
4.1495688853e+09
4.1495688853e+09
4.1495688853e+09
4.1495688853e+09
4.1495688853e+09
4.1495688853e+09
4.1495688853e+09
4.1495688853e+09
4.1495688853e+09
4.1495688853e+09
4.1495688853e+09
4.1495688853e+09
4.1495688853e+09
4.1495688853e+09
4.1495688853e+09
4.1495688853e+09
4.1495688853e+09
4.1495688853e+09
4.1495688853e+09
4.1495688853e+09
