# vtk DataFile Version 4.2
SMC_aCS level 2, q = 0.3775
ASCII
DATASET UNSTRUCTURED_GRID
POINTS 22 double
0.0000000000e+00 0.0000000000e+00 0.0000000000e+00
0.0000000000e+00 1.0000000000e-01 0.0000000000e+00
1.0000000000e-01 0.0000000000e+00 0.0000000000e+00
1.0000000000e-01 1.0000000000e-01 0.0000000000e+00
2.0000000000e-01 0.0000000000e+00 0.0000000000e+00
2.0000000000e-01 1.0000000000e-01 0.0000000000e+00
3.0000000000e-01 0.0000000000e+00 0.0000000000e+00
3.0000000000e-01 1.0000000000e-01 0.0000000000e+00
4.0000000000e-01 0.0000000000e+00 0.0000000000e+00
4.0000000000e-01 1.0000000000e-01 0.0000000000e+00
5.0000000000e-01 0.0000000000e+00 0.0000000000e+00
5.0000000000e-01 1.0000000000e-01 0.0000000000e+00
6.0000000000e-01 0.0000000000e+00 0.0000000000e+00
6.0000000000e-01 1.0000000000e-01 0.0000000000e+00
7.0000000000e-01 0.0000000000e+00 0.0000000000e+00
7.0000000000e-01 1.0000000000e-01 0.0000000000e+00
8.0000000000e-01 0.0000000000e+00 0.0000000000e+00
8.0000000000e-01 1.0000000000e-01 0.0000000000e+00
9.0000000000e-01 0.0000000000e+00 0.0000000000e+00
9.0000000000e-01 1.0000000000e-01 0.0000000000e+00
1.0000000000e+00 0.0000000000e+00 0.0000000000e+00
1.0000000000e+00 1.0000000000e-01 0.0000000000e+00

CELLS 20 80
3 0 2 1
3 16 18 17
3 11 9 8
3 16 17 14
3 8 9 7
3 8 10 11
3 11 10 13
3 19 17 18
3 19 18 21
3 3 1 2
3 3 2 4
3 4 6 5
3 4 5 3
3 20 21 18
3 7 5 6
3 7 6 8
3 12 14 13
3 12 13 10
3 15 13 14
3 15 14 17

CELL_TYPES 20
5
5
5
5
5
5
5
5
5
5
5
5
5
5
5
5
5
5
5
5

POINT_DATA 22
VECTORS DISPLACEMENT_MEAN double
0.0000000000e+00 0.0000000000e+00 0.0000000000e+00
0.0000000000e+00 0.0000000000e+00 0.0000000000e+00
-2.8294299478e-08 -2.6465123105e-08 9.3407379588e-23
2.7951733185e-08 -2.6474240174e-08 9.3401632058e-23
-5.1789844255e-08 -1.0752526364e-07 1.8681705613e-22
5.1435977011e-08 -1.0765825526e-07 1.8681010018e-22
-7.2303863313e-08 -2.3292267618e-07 2.8022876290e-22
7.2175501877e-08 -2.3314681826e-07 2.8022130325e-22
-8.9948323213e-08 -3.9635142457e-07 3.7364376640e-22
9.0619964396e-08 -3.9795387755e-07 3.7363567510e-22
-1.0500317052e-07 -5.9471730886e-07 4.6706344815e-22
1.0625755008e-07 -5.9461268987e-07 4.6705536891e-22
-1.1770428722e-07 -8.2053553807e-07 5.6048418353e-22
1.1856475800e-07 -8.1949965862e-07 5.6047566689e-22
-1.2764209874e-07 -1.0673993465e-06 6.5390405387e-22
1.2835468054e-07 -1.0681046373e-06 6.5389486531e-22
-1.3466792143e-07 -1.3326051301e-06 7.4732599147e-22
1.3541839323e-07 -1.3321445266e-06 7.4731635108e-22
-1.3890574085e-07 -1.6081486969e-06 8.4074563916e-22
1.3963799333e-07 -1.6083898684e-06 8.4073446598e-22
-1.4053480563e-07 -1.8900907895e-06 9.3416580748e-22
1.4095156907e-07 -1.8896322427e-06 9.3415224810e-22
VECTORS DISPLACEMENT_STD double
0.0000000000e+00 0.0000000000e+00 0.0000000000e+00
0.0000000000e+00 0.0000000000e+00 0.0000000000e+00
8.8542985529e-10 8.2818838258e-10 9.1012534347e-23
8.7470973043e-10 8.2847368831e-10 9.1011843938e-23
1.6206895081e-09 3.3648501776e-09 1.8202414158e-22
1.6096157361e-09 3.3690119612e-09 1.8202340162e-22
2.2626465546e-09 7.2889838330e-09 2.7303495077e-22
2.2586296661e-09 7.2959980407e-09 2.7303394661e-22
2.8148048291e-09 1.2403254047e-08 3.6404372151e-22
2.8358228845e-09 1.2453400533e-08 3.6404293979e-22
3.2859248610e-09 1.8610832232e-08 4.5505450063e-22
3.3251788851e-09 1.8607558330e-08 4.5505330088e-22
3.6833882415e-09 2.5677492503e-08 5.4606582953e-22
3.7103154508e-09 2.5645076129e-08 5.4606434885e-22
3.9943779171e-09 3.3402744238e-08 6.3707713404e-22
4.0166771509e-09 3.3424815313e-08 6.3707505110e-22
4.2142410444e-09 4.1701981998e-08 7.2808906199e-22
4.2377259919e-09 4.1687568068e-08 7.2808692221e-22
4.3468575751e-09 5.0324725977e-08 8.1910023010e-22
4.3697723750e-09 5.0332273097e-08 8.1909794366e-22
4.3978368403e-09 5.9147702720e-08 9.1011197546e-22
4.4108788593e-09 5.9133353150e-08 9.1010947326e-22

CELL_DATA 20
SCALARS YOUNG_MODULUS_MEAN double 1
LOOKUP_TABLE default
2.0756107672e+11
2.0756107672e+11
2.0756107672e+11
2.0756107672e+11
2.0756107672e+11
2.0756107672e+11
2.0756107672e+11
2.0756107672e+11
2.0756107672e+11
2.0756107672e+11
2.0756107672e+11
2.0756107672e+11
2.0756107672e+11
2.0756107672e+11
2.0756107672e+11
2.0756107672e+11
2.0756107672e+11
2.0756107672e+11
2.0756107672e+11
2.0756107672e+11
SCALARS YOUNG_MODULUS_STD double 1
LOOKUP_TABLE default
6.4906146467e+09
6.4906146467e+09
6.4906146467e+09
6.4906146467e+09
6.4906146467e+09
6.4906146467e+09
6.4906146467e+09
6.4906146467e+09
6.4906146467e+09
6.4906146467e+09
6.4906146467e+09
6.4906146467e+09
6.4906146467e+09
6.4906146467e+09
6.4906146467e+09
6.4906146467e+09
6.4906146467e+09
6.4906146467e+09
6.4906146467e+09
6.4906146467e+09
