# vtk DataFile Version 4.2
SMC_aCS level 1, q = 0.0185
ASCII
DATASET UNSTRUCTURED_GRID
POINTS 22 double
0.0000000000e+00 0.0000000000e+00 0.0000000000e+00
0.0000000000e+00 1.0000000000e-01 0.0000000000e+00
1.0000000000e-01 0.0000000000e+00 0.0000000000e+00
1.0000000000e-01 1.0000000000e-01 0.0000000000e+00
2.0000000000e-01 0.0000000000e+00 0.0000000000e+00
2.0000000000e-01 1.0000000000e-01 0.0000000000e+00
3.0000000000e-01 0.0000000000e+00 0.0000000000e+00
3.0000000000e-01 1.0000000000e-01 0.0000000000e+00
4.0000000000e-01 0.0000000000e+00 0.0000000000e+00
4.0000000000e-01 1.0000000000e-01 0.0000000000e+00
5.0000000000e-01 0.0000000000e+00 0.0000000000e+00
5.0000000000e-01 1.0000000000e-01 0.0000000000e+00
6.0000000000e-01 0.0000000000e+00 0.0000000000e+00
6.0000000000e-01 1.0000000000e-01 0.0000000000e+00
7.0000000000e-01 0.0000000000e+00 0.0000000000e+00
7.0000000000e-01 1.0000000000e-01 0.0000000000e+00
8.0000000000e-01 0.0000000000e+00 0.0000000000e+00
8.0000000000e-01 1.0000000000e-01 0.0000000000e+00
9.0000000000e-01 0.0000000000e+00 0.0000000000e+00
9.0000000000e-01 1.0000000000e-01 0.0000000000e+00
1.0000000000e+00 0.0000000000e+00 0.0000000000e+00
1.0000000000e+00 1.0000000000e-01 0.0000000000e+00

CELLS 20 80
3 0 2 1
3 16 18 17
3 11 9 8
3 16 17 14
3 8 9 7
3 8 10 11
3 11 10 13
3 19 17 18
3 19 18 21
3 3 1 2
3 3 2 4
3 4 6 5
3 4 5 3
3 20 21 18
3 7 5 6
3 7 6 8
3 12 14 13
3 12 13 10
3 15 13 14
3 15 14 17

CELL_TYPES 20
5
5
5
5
5
5
5
5
5
5
5
5
5
5
5
5
5
5
5
5

POINT_DATA 22
VECTORS DISPLACEMENT_MEAN double
0.0000000000e+00 0.0000000000e+00 0.0000000000e+00
0.0000000000e+00 0.0000000000e+00 0.0000000000e+00
-2.7067093113e-08 -2.5317253459e-08 9.2797048467e-24
2.6739384921e-08 -2.5325975095e-08 9.2719954594e-24
-4.9543567525e-08 -1.0286157907e-07 1.8561189782e-23
4.9205048537e-08 -1.0298880245e-07 1.8553764162e-23
-6.9167833692e-08 -2.2282013977e-07 2.7843380667e-23
6.9045039667e-08 -2.2303456015e-07 2.7834990932e-23
-8.6047001860e-08 -3.7916050626e-07 3.7126114194e-23
8.6689512004e-08 -3.8069345618e-07 3.7117437554e-23
-1.0044887649e-07 -5.6892268308e-07 4.6412622456e-23
1.0164884995e-07 -5.6882260173e-07 4.6403671967e-23
-1.1259910868e-07 -7.8494651649e-07 5.5699945479e-23
1.1342225834e-07 -7.8395556616e-07 5.5690646743e-23
-1.2210588831e-07 -1.0211031209e-06 6.4984205728e-23
1.2278756335e-07 -1.0217778212e-06 6.4974480083e-23
-1.2882698056e-07 -1.2748061555e-06 7.4271225869e-23
1.2954490220e-07 -1.2743655297e-06 7.4261193298e-23
-1.3288099338e-07 -1.5383985934e-06 8.3556005248e-23
1.3358148593e-07 -1.5386293046e-06 8.3545034326e-23
-1.3443940087e-07 -1.8081120344e-06 9.2841551006e-23
1.3483808806e-07 -1.8076733761e-06 9.2828780621e-23
VECTORS DISPLACEMENT_STD double
0.0000000000e+00 0.0000000000e+00 0.0000000000e+00
0.0000000000e+00 0.0000000000e+00 0.0000000000e+00
4.0957476588e-09 3.8309648232e-09 7.8060444364e-23
4.0461593983e-09 3.8322845666e-09 7.8060617185e-23
7.4968505059e-09 1.5564843624e-08 1.5611977155e-22
7.4456263738e-09 1.5584094855e-08 1.5612049531e-22
1.0466361930e-08 3.3716774164e-08 2.3418016850e-22
1.0447780941e-08 3.3749219902e-08 2.3418039627e-22
1.3020489675e-08 5.7373939246e-08 3.1223801726e-22
1.3117713245e-08 5.7605902686e-08 3.1223821504e-22
1.5199757469e-08 8.6088437259e-08 3.9029358510e-22
1.5381335464e-08 8.6073293115e-08 3.9029293329e-22
1.7038310462e-08 1.1877680561e-07 4.6834954599e-22
1.7162868103e-08 1.1862685665e-07 4.6834842643e-22
1.8476860594e-08 1.5451163149e-07 5.4640450828e-22
1.8580010532e-08 1.5461372603e-07 5.4640316792e-22
1.9493885132e-08 1.9290155411e-07 6.2445864252e-22
1.9602519845e-08 1.9283487935e-07 6.2445668873e-22
2.0107331631e-08 2.3278792484e-07 7.0251246894e-22
2.0213329003e-08 2.3282283567e-07 7.0251019308e-22
2.0343147269e-08 2.7360051561e-07 7.8056618733e-22
2.0403475954e-08 2.7353413856e-07 7.8056344579e-22

CELL_DATA 20
SCALARS YOUNG_MODULUS_MEAN double 1
LOOKUP_TABLE default
2.2209310745e+11
2.2209310745e+11
2.2209310745e+11
2.2209310745e+11
2.2209310745e+11
2.2209310745e+11
2.2209310745e+11
2.2209310745e+11
2.2209310745e+11
2.2209310745e+11
2.2209310745e+11
2.2209310745e+11
2.2209310745e+11
2.2209310745e+11
2.2209310745e+11
2.2209310745e+11
2.2209310745e+11
2.2209310745e+11
2.2209310745e+11
2.2209310745e+11
SCALARS YOUNG_MODULUS_STD double 1
LOOKUP_TABLE default
3.6140045222e+10
3.6140045222e+10
3.6140045222e+10
3.6140045222e+10
3.6140045222e+10
3.6140045222e+10
3.6140045222e+10
3.6140045222e+10
3.6140045222e+10
3.6140045222e+10
3.6140045222e+10
3.6140045222e+10
3.6140045222e+10
3.6140045222e+10
3.6140045222e+10
3.6140045222e+10
3.6140045222e+10
3.6140045222e+10
3.6140045222e+10
3.6140045222e+10
