# vtk DataFile Version 4.2
MCMC posterior statistics from 7996 samples
ASCII
DATASET UNSTRUCTURED_GRID
POINTS 22 double
0.0000000000e+00 0.0000000000e+00 0.0000000000e+00
0.0000000000e+00 1.0000000000e-01 0.0000000000e+00
1.0000000000e-01 0.0000000000e+00 0.0000000000e+00
1.0000000000e-01 1.0000000000e-01 0.0000000000e+00
2.0000000000e-01 0.0000000000e+00 0.0000000000e+00
2.0000000000e-01 1.0000000000e-01 0.0000000000e+00
3.0000000000e-01 0.0000000000e+00 0.0000000000e+00
3.0000000000e-01 1.0000000000e-01 0.0000000000e+00
4.0000000000e-01 0.0000000000e+00 0.0000000000e+00
4.0000000000e-01 1.0000000000e-01 0.0000000000e+00
5.0000000000e-01 0.0000000000e+00 0.0000000000e+00
5.0000000000e-01 1.0000000000e-01 0.0000000000e+00
6.0000000000e-01 0.0000000000e+00 0.0000000000e+00
6.0000000000e-01 1.0000000000e-01 0.0000000000e+00
7.0000000000e-01 0.0000000000e+00 0.0000000000e+00
7.0000000000e-01 1.0000000000e-01 0.0000000000e+00
8.0000000000e-01 0.0000000000e+00 0.0000000000e+00
8.0000000000e-01 1.0000000000e-01 0.0000000000e+00
9.0000000000e-01 0.0000000000e+00 0.0000000000e+00
9.0000000000e-01 1.0000000000e-01 0.0000000000e+00
1.0000000000e+00 0.0000000000e+00 0.0000000000e+00
1.0000000000e+00 1.0000000000e-01 0.0000000000e+00

CELLS 20 80
3 0 2 1
3 16 18 17
3 11 9 8
3 16 17 14
3 8 9 7
3 8 10 11
3 11 10 13
3 19 17 18
3 19 18 21
3 3 1 2
3 3 2 4
3 4 6 5
3 4 5 3
3 20 21 18
3 7 5 6
3 7 6 8
3 12 14 13
3 12 13 10
3 15 13 14
3 15 14 17

CELL_TYPES 20
5
5
5
5
5
5
5
5
5
5
5
5
5
5
5
5
5
5
5
5

POINT_DATA 22
VECTORS DISPLACEMENT_MEAN double
0.0000000000e+00 0.0000000000e+00 0.0000000000e+00
0.0000000000e+00 0.0000000000e+00 0.0000000000e+00
-2.8860696248e-08 -2.6994903326e-08 -2.7821806696e-23
2.8511272445e-08 -2.7004202902e-08 -2.7823176453e-23
-5.2826576071e-08 -1.0967771000e-07 -5.5643700257e-23
5.2465625094e-08 -1.0981336385e-07 -5.5648725080e-23
-7.3751245837e-08 -2.3758533451e-07 -8.3469668050e-23
7.3620314856e-08 -2.3781396349e-07 -8.3475858981e-23
-9.1748913461e-08 -4.0428560816e-07 -1.1129413782e-22
9.2433999592e-08 -4.0592013913e-07 -1.1129851229e-22
-1.0710512949e-07 -6.0662239111e-07 -1.3910925648e-22
1.0838461929e-07 -6.0651567786e-07 -1.3911373516e-22
-1.2006049781e-07 -8.3696106147e-07 -1.6692386916e-22
1.2093819354e-07 -8.3590444573e-07 -1.6692923398e-22
-1.3019724496e-07 -1.0887666025e-06 -1.9473942839e-22
1.3092409126e-07 -1.0894860119e-06 -1.9474419447e-22
-1.3736371094e-07 -1.3592812894e-06 -2.2255222399e-22
1.3812920572e-07 -1.3588114655e-06 -2.2255509229e-22
-1.4168636325e-07 -1.6403407017e-06 -2.5036348129e-22
1.4243327400e-07 -1.6405867011e-06 -2.5036829196e-22
-1.4334803874e-07 -1.9279267259e-06 -2.7817234782e-22
1.4377314497e-07 -1.9274589999e-06 -2.7818011000e-22
VECTORS DISPLACEMENT_STD double
0.0000000000e+00 0.0000000000e+00 0.0000000000e+00
0.0000000000e+00 0.0000000000e+00 0.0000000000e+00
5.7236396076e-10 5.3536164392e-10 1.0948388758e-23
5.6543420445e-10 5.3554607267e-10 1.0948282192e-23
1.0476541541e-09 2.1751231490e-09 2.1892635015e-23
1.0404957914e-09 2.1778134298e-09 2.1892350476e-23
1.4626312136e-09 4.7117810989e-09 3.2836806911e-23
1.4600345966e-09 4.7163152579e-09 3.2836115746e-23
1.8195601053e-09 8.0177730286e-09 4.3779485587e-23
1.8331467010e-09 8.0501889694e-09 4.3778927522e-23
2.1241038541e-09 1.2030506523e-08 5.4720955131e-23
2.1494786352e-09 1.2028390191e-08 5.4720357097e-23
2.3810341049e-09 1.6598572122e-08 6.5661062868e-23
2.3984405251e-09 1.6577617368e-08 6.5660339305e-23
2.5820655942e-09 2.1592367683e-08 7.6600302561e-23
2.5964803755e-09 2.1606634976e-08 7.6599563582e-23
2.7241906080e-09 2.6957202138e-08 8.7538955052e-23
2.7393718642e-09 2.6947884613e-08 8.7538150788e-23
2.8099172438e-09 3.2531159089e-08 9.8477345294e-23
2.8247299424e-09 3.2536037735e-08 9.8476632914e-23
2.8428715134e-09 3.8234551497e-08 1.0941565065e-22
2.8513022000e-09 3.8225275576e-08 1.0941516220e-22

CELL_DATA 20
SCALARS YOUNG_MODULUS_MEAN double 1
LOOKUP_TABLE default
2.0336886458e+11
2.0336886458e+11
2.0336886458e+11
2.0336886458e+11
2.0336886458e+11
2.0336886458e+11
2.0336886458e+11
2.0336886458e+11
2.0336886458e+11
2.0336886458e+11
2.0336886458e+11
2.0336886458e+11
2.0336886458e+11
2.0336886458e+11
2.0336886458e+11
2.0336886458e+11
2.0336886458e+11
2.0336886458e+11
2.0336886458e+11
2.0336886458e+11
SCALARS YOUNG_MODULUS_STD double 1
LOOKUP_TABLE default
4.0334056554e+09
4.0334056554e+09
4.0334056554e+09
4.0334056554e+09
4.0334056554e+09
4.0334056554e+09
4.0334056554e+09
4.0334056554e+09
4.0334056554e+09
4.0334056554e+09
4.0334056554e+09
4.0334056554e+09
4.0334056554e+09
4.0334056554e+09
4.0334056554e+09
4.0334056554e+09
4.0334056554e+09
4.0334056554e+09
4.0334056554e+09
4.0334056554e+09
