# vtk DataFile Version 4.2
MCMC posterior statistics from 7996 samples
ASCII
DATASET UNSTRUCTURED_GRID
POINTS 22 double
0.0000000000e+00 0.0000000000e+00 0.0000000000e+00
0.0000000000e+00 1.0000000000e-01 0.0000000000e+00
1.0000000000e-01 0.0000000000e+00 0.0000000000e+00
1.0000000000e-01 1.0000000000e-01 0.0000000000e+00
2.0000000000e-01 0.0000000000e+00 0.0000000000e+00
2.0000000000e-01 1.0000000000e-01 0.0000000000e+00
3.0000000000e-01 0.0000000000e+00 0.0000000000e+00
3.0000000000e-01 1.0000000000e-01 0.0000000000e+00
4.0000000000e-01 0.0000000000e+00 0.0000000000e+00
4.0000000000e-01 1.0000000000e-01 0.0000000000e+00
5.0000000000e-01 0.0000000000e+00 0.0000000000e+00
5.0000000000e-01 1.0000000000e-01 0.0000000000e+00
6.0000000000e-01 0.0000000000e+00 0.0000000000e+00
6.0000000000e-01 1.0000000000e-01 0.0000000000e+00
7.0000000000e-01 0.0000000000e+00 0.0000000000e+00
7.0000000000e-01 1.0000000000e-01 0.0000000000e+00
8.0000000000e-01 0.0000000000e+00 0.0000000000e+00
8.0000000000e-01 1.0000000000e-01 0.0000000000e+00
9.0000000000e-01 0.0000000000e+00 0.0000000000e+00
9.0000000000e-01 1.0000000000e-01 0.0000000000e+00
1.0000000000e+00 0.0000000000e+00 0.0000000000e+00
1.0000000000e+00 1.0000000000e-01 0.0000000000e+00

CELLS 20 80
3 0 2 1
3 16 18 17
3 11 9 8
3 16 17 14
3 8 9 7
3 8 10 11
3 11 10 13
3 19 17 18
3 19 18 21
3 3 1 2
3 3 2 4
3 4 6 5
3 4 5 3
3 20 21 18
3 7 5 6
3 7 6 8
3 12 14 13
3 12 13 10
3 15 13 14
3 15 14 17

CELL_TYPES 20
5
5
5
5
5
5
5
5
5
5
5
5
5
5
5
5
5
5
5
5

POINT_DATA 22
VECTORS DISPLACEMENT_MEAN double
0.0000000000e+00 0.0000000000e+00 0.0000000000e+00
0.0000000000e+00 0.0000000000e+00 0.0000000000e+00
-2.8866064464e-08 -2.7001019480e-08 -7.5107192283e+20
2.8515329828e-08 -2.7008401105e-08 -7.5107192283e+20
-5.2839629812e-08 -1.0970453372e-07 -1.5021438457e+21
5.2479751807e-08 -1.0984217768e-07 -1.5021438457e+21
-7.3755230171e-08 -2.3763794688e-07 -2.2532157685e+21
7.3639618264e-08 -2.3788238429e-07 -2.2532157685e+21
-9.1760557753e-08 -4.0436982536e-07 -3.0042876913e+21
9.2438088933e-08 -4.0599309988e-07 -3.0042876913e+21
-1.0710952180e-07 -6.0678576401e-07 -3.7553596142e+21
1.0839515514e-07 -6.0663488071e-07 -3.7553596142e+21
-1.2006951493e-07 -8.3716984318e-07 -4.5064315370e+21
1.2096491204e-07 -8.3611440635e-07 -4.5064315370e+21
-1.3017931261e-07 -1.0890833264e-06 -5.2575034598e+21
1.3091713747e-07 -1.0898356159e-06 -5.2575034598e+21
-1.3740663816e-07 -1.3598454537e-06 -6.0085753827e+21
1.3816093125e-07 -1.3593339020e-06 -6.0085753827e+21
-1.4175902499e-07 -1.6412116276e-06 -6.7596473055e+21
1.4256054606e-07 -1.6414893118e-06 -6.7596473055e+21
-1.4354642434e-07 -1.9292998257e-06 -7.5107192283e+21
1.4403447062e-07 -1.9288614474e-06 -7.5107192283e+21
VECTORS DISPLACEMENT_STD double
0.0000000000e+00 0.0000000000e+00 0.0000000000e+00
0.0000000000e+00 0.0000000000e+00 0.0000000000e+00
5.7354096179e-10 5.3713819282e-10 6.1674333179e+20
5.6686105221e-10 5.3766141455e-10 6.1674333179e+20
1.0478276668e-09 2.1742910927e-09 1.2334866636e+21
1.0430898181e-09 2.1793767957e-09 1.2334866636e+21
1.4638686040e-09 4.7120103392e-09 1.8502299954e+21
1.4609684372e-09 4.7131057174e-09 1.8502299954e+21
1.8263380627e-09 8.0082848980e-09 2.4669733272e+21
1.8377679668e-09 8.0386406605e-09 2.4669733272e+21
2.1272532914e-09 1.2005580751e-08 3.0837166590e+21
2.1637880781e-09 1.2001951653e-08 3.0837166590e+21
2.3832691869e-09 1.6546490052e-08 3.7004599908e+21
2.4074531347e-09 1.6525096332e-08 3.7004599908e+21
2.6044487209e-09 2.1504921291e-08 4.3172033226e+21
2.6080148460e-09 2.1519145221e-08 4.3172033226e+21
2.7429637193e-09 2.6802025713e-08 4.9339466544e+21
2.7567618895e-09 2.6796051040e-08 4.9339466544e+21
2.8508680846e-09 3.2300433692e-08 5.5506899861e+21
2.8498465555e-09 3.2302728433e-08 5.5506899861e+21
2.9091124180e-09 3.7923730382e-08 6.1674333179e+21
2.9106194658e-09 3.7913814812e-08 6.1674333179e+21

CELL_DATA 20
SCALARS YOUNG_MODULUS_MEAN double 1
LOOKUP_TABLE default
2.0333696315e+11
2.0333696315e+11
2.0333696315e+11
2.0333696315e+11
2.0333696315e+11
2.0333696315e+11
2.0333696315e+11
2.0333696315e+11
2.0333696315e+11
2.0333696315e+11
2.0333696315e+11
2.0333696315e+11
2.0333696315e+11
2.0333696315e+11
2.0333696315e+11
2.0333696315e+11
2.0333696315e+11
2.0333696315e+11
2.0333696315e+11
2.0333696315e+11
SCALARS YOUNG_MODULUS_STD double 1
LOOKUP_TABLE default
4.0441375025e+09
4.0441375025e+09
4.0441375025e+09
4.0441375025e+09
4.0441375025e+09
4.0441375025e+09
4.0441375025e+09
4.0441375025e+09
4.0441375025e+09
4.0441375025e+09
4.0441375025e+09
4.0441375025e+09
4.0441375025e+09
4.0441375025e+09
4.0441375025e+09
4.0441375025e+09
4.0441375025e+09
4.0441375025e+09
4.0441375025e+09
4.0441375025e+09
