# vtk DataFile Version 4.0
vtk output
ASCII
DATASET UNSTRUCTURED_GRID
POINTS 69 float
5.0000000e-01 2.5000000e-01 0.0000000e+00 
4.0000001e-01 2.5000000e-01 0.0000000e+00 
5.0000000e-01 1.2500000e-01 0.0000000e+00 
3.5833332e-01 1.4419873e-01 0.0000000e+00 
3.0000001e-01 2.5000000e-01 0.0000000e+00 
5.0000000e-01 0.0000000e+00 0.0000000e+00 
5.0000000e-01 0.0000000e+00 0.0000000e+00 
3.0000001e-01 7.6794922e-02 0.0000000e+00 
2.5000000e-01 1.6339746e-01 0.0000000e+00 
4.0000001e-01 0.0000000e+00 0.0000000e+00 
2.0000000e-01 2.5000000e-01 0.0000000e+00 
3.0000001e-01 0.0000000e+00 0.0000000e+00 
2.2166666e-01 7.9438053e-02 0.0000000e+00 
1.5000001e-01 1.6339746e-01 0.0000000e+00 
5.0000000e-01 -1.2500000e-01 0.0000000e+00 
3.5833332e-01 -1.0580127e-01 0.0000000e+00 
2.0000000e-01 0.0000000e+00 0.0000000e+00 
1.0000000e-01 2.5000000e-01 0.0000000e+00 
1.3000000e-01 7.3038474e-02 0.0000000e+00 
2.5000000e-01 -8.6602539e-02 0.0000000e+00 
3.0000001e-01 -1.7320508e-01 0.0000000e+00 
1.0000000e-01 0.0000000e+00 0.0000000e+00 
1.5000001e-01 -8.6602539e-02 0.0000000e+00 
0.0000000e+00 2.5000000e-01 0.0000000e+00 
0.0000000e+00 2.5000000e-01 0.0000000e+00 
5.0000000e-01 -2.5000000e-01 0.0000000e+00 
2.2166666e-01 -1.7056195e-01 0.0000000e+00 
4.0000001e-01 -2.5000000e-01 0.0000000e+00 
0.0000000e+00 1.2500000e-01 0.0000000e+00 
3.0000001e-01 -2.5000000e-01 0.0000000e+00 
0.0000000e+00 0.0000000e+00 0.0000000e+00 
0.0000000e+00 0.0000000e+00 0.0000000e+00 
0.0000000e+00 0.0000000e+00 0.0000000e+00 
1.3000000e-01 -1.7696153e-01 0.0000000e+00 
2.0000000e-01 -2.5000000e-01 0.0000000e+00 
-1.0000000e-01 2.5000000e-01 0.0000000e+00 
0.0000000e+00 -1.2500000e-01 0.0000000e+00 
1.0000000e-01 -2.5000000e-01 0.0000000e+00 
-1.0000000e-01 0.0000000e+00 0.0000000e+00 
-1.4166667e-01 1.4419873e-01 0.0000000e+00 
-2.0000000e-01 2.5000000e-01 0.0000000e+00 
0.0000000e+00 -2.5000000e-01 0.0000000e+00 
0.0000000e+00 -2.5000000e-01 0.0000000e+00 
-2.0000000e-01 7.6794922e-02 0.0000000e+00 
-1.4166667e-01 -1.0580127e-01 0.0000000e+00 
-2.0000000e-01 0.0000000e+00 0.0000000e+00 
-2.5000000e-01 1.6339746e-01 0.0000000e+00 
-1.0000000e-01 -2.5000000e-01 0.0000000e+00 
-2.7833334e-01 7.9438053e-02 0.0000000e+00 
-3.0000001e-01 2.5000000e-01 0.0000000e+00 
-2.0000000e-01 -1.7320508e-01 0.0000000e+00 
-2.5000000e-01 -8.6602539e-02 0.0000000e+00 
-3.0000001e-01 0.0000000e+00 0.0000000e+00 
-3.4999999e-01 1.6339746e-01 0.0000000e+00 
-2.0000000e-01 -2.5000000e-01 0.0000000e+00 
-2.7833334e-01 -1.7056195e-01 0.0000000e+00 
-3.7000000e-01 7.3038474e-02 0.0000000e+00 
-4.0000001e-01 2.5000000e-01 0.0000000e+00 
-3.4999999e-01 -8.6602539e-02 0.0000000e+00 
-4.0000001e-01 0.0000000e+00 0.0000000e+00 
-3.0000001e-01 -2.5000000e-01 0.0000000e+00 
-3.7000000e-01 -1.7696153e-01 0.0000000e+00 
-5.0000000e-01 2.5000000e-01 0.0000000e+00 
-5.0000000e-01 1.2500000e-01 0.0000000e+00 
-4.0000001e-01 -2.5000000e-01 0.0000000e+00 
-5.0000000e-01 0.0000000e+00 0.0000000e+00 
-5.0000000e-01 0.0000000e+00 0.0000000e+00 
-5.0000000e-01 -1.2500000e-01 0.0000000e+00 
-5.0000000e-01 -2.5000000e-01 0.0000000e+00 

CELLS 96 384
3 68 64 67
3 47 42 36
3 52 59 58
3 58 59 67
3 52 58 51
3 51 58 55
3 52 51 45
3 55 58 61
3 51 55 50
3 45 51 44
3 61 58 67
3 50 55 54
3 50 54 47
3 44 51 50
3 50 47 44
3 44 47 36
3 60 54 55
3 60 55 61
3 38 45 44
3 38 44 36
3 64 60 61
3 64 61 67
3 31 38 36
3 59 66 67
3 66 59 63
3 38 31 28
3 49 57 53
3 53 57 63
3 49 53 46
3 46 53 48
3 49 46 40
3 48 53 56
3 46 48 43
3 40 46 39
3 56 53 63
3 43 48 45
3 43 45 38
3 39 46 43
3 43 38 39
3 39 38 28
3 52 45 48
3 52 48 56
3 35 40 39
3 35 39 28
3 59 52 56
3 59 56 63
3 23 35 28
3 57 62 63
3 42 37 36
3 27 25 14
3 16 21 22
3 22 21 36
3 16 22 19
3 19 22 26
3 16 19 11
3 26 22 33
3 19 26 20
3 11 19 15
3 33 22 36
3 20 26 29
3 20 29 27
3 15 19 20
3 20 27 15
3 15 27 14
3 34 29 26
3 34 26 33
3 9 11 15
3 9 15 14
3 37 34 33
3 37 33 36
3 5 9 14
3 21 31 36
3 31 21 28
3 9 5 2
3 10 17 13
3 13 17 28
3 10 13 8
3 8 13 12
3 10 8 4
3 12 13 18
3 8 12 7
3 4 8 3
3 18 13 28
3 7 12 11
3 7 11 9
3 3 8 7
3 7 9 3
3 3 9 2
3 16 11 12
3 16 12 18
3 1 4 3
3 1 3 2
3 21 16 18
3 21 18 28
3 0 1 2
3 17 23 28

CELL_TYPES 96
5
5
5
5
5
5
5
5
5
5
5
5
5
5
5
5
5
5
5
5
5
5
5
5
5
5
5
5
5
5
5
5
5
5
5
5
5
5
5
5
5
5
5
5
5
5
5
5
5
5
5
5
5
5
5
5
5
5
5
5
5
5
5
5
5
5
5
5
5
5
5
5
5
5
5
5
5
5
5
5
5
5
5
5
5
5
5
5
5
5
5
5
5
5
5
5
POINT_DATA 69
FIELD FieldData 2
DISPLACEMENT 3 69  float
1.0366432e-06 -3.1302220e-06 -3.5974733e-22 
9.9667318e-07 -2.6231808e-06 -3.1919291e-22 
4.5408476e-07 -3.0863832e-06 -3.6087822e-22 
5.2512070e-07 -2.4272729e-06 -3.0747148e-22 
9.5752205e-07 -2.1698604e-06 -2.7875232e-22 
-4.7565646e-08 -3.0757985e-06 -3.6034732e-22 
0.0000000e+00 0.0000000e+00 0.0000000e+00 
2.4909633e-07 -2.1606693e-06 -2.8919603e-22 
5.7501580e-07 -1.9428219e-06 -2.6513716e-22 
-4.6335902e-08 -2.6191069e-06 -3.2741110e-22 
8.9597154e-07 -1.7403586e-06 -2.3811505e-22 
-4.3483247e-08 -2.1610706e-06 -2.9363516e-22 
2.4975216e-07 -1.8144239e-06 -2.6055826e-22 
5.3067720e-07 -1.5240989e-06 -2.2655530e-22 
-5.2683862e-07 -3.1040095e-06 -3.6635950e-22 
-4.3709539e-07 -2.4316093e-06 -3.1973709e-22 
-3.6587757e-08 -1.7211514e-06 -2.5892952e-22 
8.1057732e-07 -1.3423236e-06 -1.9764583e-22 
2.1135136e-07 -1.4340960e-06 -2.2730720e-22 
-3.4136352e-07 -1.9406395e-06 -2.8282632e-22 
-6.8851858e-07 -2.1677595e-06 -3.0603900e-22 
-2.4865882e-08 -1.3127436e-06 -2.2344491e-22 
-3.0503270e-07 -1.5168653e-06 -2.4909466e-22 
6.9760802e-07 -9.8846340e-07 -1.5752555e-22 
0.0000000e+00 0.0000000e+00 0.0000000e+00 
-1.1288002e-06 -3.1755608e-06 -3.7658993e-22 
-6.3613180e-07 -1.8249704e-06 -2.8025396e-22 
-1.0665860e-06 -2.6331882e-06 -3.4445163e-22 
3.2536963e-07 -9.6663143e-07 -1.7263879e-22 
-1.0106866e-06 -2.1754875e-06 -3.1223726e-22 
0.0000000e+00 0.0000000e+00 0.0000000e+00 
-1.0906007e-08 -9.5646806e-07 -1.8708600e-22 
0.0000000e+00 0.0000000e+00 0.0000000e+00 
-5.9271383e-07 -1.4484741e-06 -2.5020454e-22 
-9.3292630e-07 -1.7469350e-06 -2.7981856e-22 
5.9213812e-07 -6.9109183e-07 -1.1998451e-22 
-3.2454489e-07 -9.6234089e-07 -1.9981193e-22 
-8.2392222e-07 -1.3480669e-06 -2.4653244e-22 
-5.3268221e-09 -6.6383319e-07 -1.4946079e-22 
2.9859760e-07 -5.6533042e-07 -1.1712588e-22 
4.7796289e-07 -4.4873883e-07 -8.4436314e-23 
0.0000000e+00 0.0000000e+00 0.0000000e+00 
-6.7821588e-07 -9.8727639e-07 -2.1180941e-22 
1.3299713e-07 -4.1872659e-07 -1.0341006e-22 
-2.1510488e-07 -5.6400961e-07 -1.4527204e-22 
-1.9872417e-09 -4.1644520e-07 -1.1196834e-22 
2.5511545e-07 -3.2478241e-07 -7.6013463e-23 
-5.8219769e-07 -6.9106716e-07 -1.7509377e-22 
1.0552784e-07 -2.5573402e-07 -7.4524851e-23 
3.5124447e-07 -2.5273891e-07 -5.1049086e-23 
-3.1524036e-07 -4.3435463e-07 -1.2989387e-22 
-1.2982217e-07 -3.1504371e-07 -1.0222903e-22 
-6.0551641e-10 -2.1445855e-07 -7.4581068e-23 
1.6166196e-07 -1.4891936e-07 -4.2053515e-23 
-4.7391947e-07 -4.5078926e-07 -1.3706824e-22 
-2.4120354e-07 -2.7271875e-07 -9.9079459e-23 
5.6949599e-08 -1.1005691e-07 -4.2596555e-23 
2.2423040e-07 -8.4921538e-08 -2.1427508e-23 
-7.9249183e-08 -1.3986897e-07 -6.3358809e-23 
9.1595967e-12 -7.0542050e-08 -3.7296167e-23 
-3.5050937e-07 -2.5425138e-07 -9.6797859e-23 
-1.5726191e-07 -1.2283155e-07 -6.1885236e-23 
0.0000000e+00 0.0000000e+00 0.0000000e+00 
0.0000000e+00 0.0000000e+00 0.0000000e+00 
-2.2311369e-07 -8.6681403e-08 -5.2607256e-23 
0.0000000e+00 0.0000000e+00 0.0000000e+00 
0.0000000e+00 0.0000000e+00 0.0000000e+00 
0.0000000e+00 0.0000000e+00 0.0000000e+00 
0.0000000e+00 0.0000000e+00 0.0000000e+00 
REACTION 3 69  float
-4.5119464e-13 4.7606363e-13 2.2239154e-16 
3.6237680e-13 -3.6664005e-12 -1.4308194e-16 
-7.9580786e-13 5.8406613e-12 8.6647325e-16 
-6.4659389e-13 7.1622708e-12 -1.3473261e-15 
-3.2684966e-13 -2.6147973e-12 1.6380041e-16 
2.1316282e-14 2.9274361e-12 -8.1532003e-17 
0.0000000e+00 0.0000000e+00 0.0000000e+00 
2.0605739e-12 -1.0544454e-11 5.5404843e-16 
1.2789769e-12 8.7396756e-13 7.2796669e-16 
1.4210855e-13 -6.5121242e-12 3.1012201e-15 
-1.3926638e-12 1.6484591e-12 1.4717033e-15 
-3.3395509e-13 6.3948846e-13 -3.9554211e-15 
-2.2453150e-12 1.0757617e-11 1.5480572e-15 
-1.2327916e-12 5.7411853e-12 -3.4189799e-15 
1.7479351e-12 -2.5437430e-12 -9.5558191e-16 
5.1159077e-13 3.9506176e-12 4.5268644e-16 
-7.7626794e-13 -5.9401373e-12 -1.6316155e-15 
9.0949470e-13 -2.3518965e-12 -4.8445766e-15 
1.1191048e-12 1.9355184e-11 -2.4547125e-15 
2.4868996e-13 7.6312290e-12 -4.3446432e-16 
-1.3073986e-12 1.3884005e-11 2.1283005e-15 
1.4068746e-12 4.4551030e-12 2.4862367e-15 
-6.8212103e-13 6.2527761e-13 -9.7065592e-16 
1.4779289e-12 2.7711167e-13 1.3211654e-15 
0.0000000e+00 0.0000000e+00 0.0000000e+00 
5.7021055e-13 1.3358203e-12 -7.2476745e-16 
-7.8159701e-13 1.1439738e-12 1.0414606e-15 
1.3500312e-12 2.2026825e-13 -2.7843596e-16 
-9.0238927e-13 -1.6025847e-11 4.5470558e-15 
4.5474735e-13 4.0092374e-12 6.1746812e-16 
0.0000000e+00 0.0000000e+00 0.0000000e+00 
-4.7606363e-13 5.7411853e-12 2.7589043e-15 
0.0000000e+00 0.0000000e+00 0.0000000e+00 
2.8705927e-12 4.2916781e-12 -8.5153080e-16 
-5.6843419e-14 3.7196912e-12 2.0975481e-15 
-1.9326762e-12 -1.4921397e-12 -9.5978972e-15 
8.5265128e-14 -6.0937921e-12 6.7189041e-16 
-9.0949470e-13 -4.7606363e-13 -5.8381458e-15 
8.0291329e-13 -2.4655833e-12 3.2433580e-15 
-4.5474735e-12 3.2258640e-12 2.6525889e-15 
1.1368684e-13 4.8316906e-13 -2.3192783e-15 
0.0000000e+00 0.0000000e+00 0.0000000e+00 
-1.1368684e-13 4.2987836e-13 3.4861003e-15 
-7.3896445e-13 -1.2221335e-12 2.9896513e-15 
1.1368684e-12 2.6432190e-12 -4.7381715e-16 
-3.5527137e-14 -2.3021585e-12 2.7647543e-15 
2.0463631e-12 3.2969183e-12 5.5333414e-15 
-4.7748472e-12 1.0977885e-12 -9.4543124e-15 
-7.8159701e-13 1.7834623e-12 -4.0540496e-15 
9.0949470e-13 -2.3803182e-13 -4.1423837e-16 
-1.2505552e-12 -3.4106051e-12 -6.9753286e-15 
-4.2632564e-13 1.4779289e-12 -5.8966860e-16 
-9.9475983e-14 -6.1106675e-13 -1.8092105e-15 
4.2632564e-13 -1.7763568e-13 1.7602394e-15 
-5.6843419e-13 -1.0818013e-12 -1.5629377e-15 
-1.7053026e-13 -1.6378010e-12 1.5122364e-14 
-1.9895197e-13 3.5882408e-13 8.9688126e-15 
-1.1368684e-12 -8.5265128e-14 -1.0976267e-14 
2.2737368e-13 4.4053650e-13 -5.4043884e-16 
2.7355895e-13 -2.2026825e-13 -8.1316820e-16 
1.1368684e-13 -6.1461947e-13 2.1741887e-15 
-1.1368684e-13 -3.4106051e-13 -6.0259762e-15 
-5.6704950e+02 3.7170236e+02 1.1279866e-14 
-8.6504358e+02 -1.7112680e+02 -6.7411546e-16 
2.2737368e-13 3.4106051e-13 6.4026462e-15 
0.0000000e+00 0.0000000e+00 0.0000000e+00 
-6.2941813e-01 9.3222061e+01 -6.8278716e-15 
8.6458734e+02 -1.6806451e+02 5.7879023e-15 
5.6813507e+02 3.7426691e+02 -7.9047876e-15 
CELL_DATA 96
FIELD FieldData 1
YOUNG_MODULUS 1 96  float
6.9000004e+10
6.9000004e+10
6.9000004e+10
6.9000004e+10
6.9000004e+10
6.9000004e+10
6.9000004e+10
6.9000004e+10
6.9000004e+10
6.9000004e+10
6.9000004e+10
6.9000004e+10
6.9000004e+10
6.9000004e+10
6.9000004e+10
6.9000004e+10
6.9000004e+10
6.9000004e+10
6.9000004e+10
6.9000004e+10
6.9000004e+10
6.9000004e+10
6.9000004e+10
6.9000004e+10
6.9000004e+10
6.9000004e+10
6.9000004e+10
6.9000004e+10
6.9000004e+10
6.9000004e+10
6.9000004e+10
6.9000004e+10
6.9000004e+10
6.9000004e+10
6.9000004e+10
6.9000004e+10
6.9000004e+10
6.9000004e+10
6.9000004e+10
6.9000004e+10
6.9000004e+10
6.9000004e+10
6.9000004e+10
6.9000004e+10
6.9000004e+10
6.9000004e+10
6.9000004e+10
6.9000004e+10
3.4500002e+10
3.4500002e+10
3.4500002e+10
3.4500002e+10
3.4500002e+10
3.4500002e+10
3.4500002e+10
3.4500002e+10
3.4500002e+10
3.4500002e+10
3.4500002e+10
3.4500002e+10
3.4500002e+10
3.4500002e+10
3.4500002e+10
3.4500002e+10
3.4500002e+10
3.4500002e+10
3.4500002e+10
3.4500002e+10
3.4500002e+10
3.4500002e+10
3.4500002e+10
3.4500002e+10
5.5199998e+10
5.5199998e+10
5.5199998e+10
5.5199998e+10
5.5199998e+10
5.5199998e+10
5.5199998e+10
5.5199998e+10
5.5199998e+10
5.5199998e+10
5.5199998e+10
5.5199998e+10
5.5199998e+10
5.5199998e+10
5.5199998e+10
5.5199998e+10
5.5199998e+10
5.5199998e+10
5.5199998e+10
5.5199998e+10
5.5199998e+10
5.5199998e+10
5.5199998e+10
5.5199998e+10
