# vtk DataFile Version 4.2
posterior statistics, q = 1
ASCII
DATASET UNSTRUCTURED_GRID
POINTS 22 double
0.0000000000e+00 0.0000000000e+00 0.0000000000e+00
0.0000000000e+00 1.0000000000e-01 0.0000000000e+00
1.0000000000e-01 0.0000000000e+00 0.0000000000e+00
1.0000000000e-01 1.0000000000e-01 0.0000000000e+00
2.0000000000e-01 0.0000000000e+00 0.0000000000e+00
2.0000000000e-01 1.0000000000e-01 0.0000000000e+00
3.0000000000e-01 0.0000000000e+00 0.0000000000e+00
3.0000000000e-01 1.0000000000e-01 0.0000000000e+00
4.0000000000e-01 0.0000000000e+00 0.0000000000e+00
4.0000000000e-01 1.0000000000e-01 0.0000000000e+00
5.0000000000e-01 0.0000000000e+00 0.0000000000e+00
5.0000000000e-01 1.0000000000e-01 0.0000000000e+00
6.0000000000e-01 0.0000000000e+00 0.0000000000e+00
6.0000000000e-01 1.0000000000e-01 0.0000000000e+00
7.0000000000e-01 0.0000000000e+00 0.0000000000e+00
7.0000000000e-01 1.0000000000e-01 0.0000000000e+00
8.0000000000e-01 0.0000000000e+00 0.0000000000e+00
8.0000000000e-01 1.0000000000e-01 0.0000000000e+00
9.0000000000e-01 0.0000000000e+00 0.0000000000e+00
9.0000000000e-01 1.0000000000e-01 0.0000000000e+00
1.0000000000e+00 0.0000000000e+00 0.0000000000e+00
1.0000000000e+00 1.0000000000e-01 0.0000000000e+00

CELLS 20 80
3 0 2 1
3 16 18 17
3 11 9 8
3 16 17 14
3 8 9 7
3 8 10 11
3 11 10 13
3 19 17 18
3 19 18 21
3 3 1 2
3 3 2 4
3 4 6 5
3 4 5 3
3 20 21 18
3 7 5 6
3 7 6 8
3 12 14 13
3 12 13 10
3 15 13 14
3 15 14 17

CELL_TYPES 20
5
5
5
5
5
5
5
5
5
5
5
5
5
5
5
5
5
5
5
5

POINT_DATA 22
VECTORS DISPLACEMENT_MEAN double
0.0000000000e+00 0.0000000000e+00 0.0000000000e+00
0.0000000000e+00 0.0000000000e+00 0.0000000000e+00
-2.7328926720e-08 -2.5562159987e-08 -1.6061675377e-21
2.6998048442e-08 -2.5570965992e-08 -1.6061718782e-21
-5.0022827376e-08 -1.0385661087e-07 -3.2123342105e-21
4.9681033723e-08 -1.0398506495e-07 -3.2123414619e-21
-6.9836928941e-08 -2.2497559106e-07 -4.8185038459e-21
6.9712947067e-08 -2.2519208565e-07 -4.8185124328e-21
-8.6879377793e-08 -3.8282831657e-07 -6.4246741550e-21
8.7528103260e-08 -3.8437609548e-07 -6.4246820729e-21
-1.0142056900e-07 -5.7442615838e-07 -8.0308368073e-21
1.0263215041e-07 -5.7432510889e-07 -8.0308449291e-21
-1.1368833650e-07 -7.9253969900e-07 -9.6369996984e-21
1.1451944890e-07 -7.9153916270e-07 -9.6370091680e-21
-1.2328707999e-07 -1.0309807650e-06 -1.1243165494e-20
1.2397534922e-07 -1.0316619921e-06 -1.1243174806e-20
-1.3007318874e-07 -1.2871379967e-06 -1.2849328060e-20
1.3079805521e-07 -1.2866931085e-06 -1.2849336321e-20
-1.3416641807e-07 -1.5532802968e-06 -1.4455489585e-20
1.3487368684e-07 -1.5535132398e-06 -1.4455499320e-20
-1.3573990082e-07 -1.8256028116e-06 -1.6061649405e-20
1.3614244471e-07 -1.8251599100e-06 -1.6061661308e-20
VECTORS DISPLACEMENT_STD double
0.0000000000e+00 0.0000000000e+00 0.0000000000e+00
0.0000000000e+00 0.0000000000e+00 0.0000000000e+00
5.6325872116e-10 5.2684504195e-10 2.2530049594e-22
5.5643920431e-10 5.2702653678e-10 2.2529825162e-22
1.0309879369e-09 2.1405210098e-09 4.5059439270e-22
1.0239434504e-09 2.1431684933e-09 4.5059202032e-22
1.4393634879e-09 4.6368254784e-09 6.7587933976e-22
1.4368081782e-09 4.6412875074e-09 6.7587925656e-22
1.7906143088e-09 7.8902252628e-09 9.0116376420e-22
1.8039847672e-09 7.9221255266e-09 9.0116325014e-22
2.0903133365e-09 1.1839123676e-08 1.1264458277e-21
2.1152844523e-09 1.1837041011e-08 1.1264445637e-21
2.3431563077e-09 1.6334519899e-08 1.3517251611e-21
2.3602858244e-09 1.6313898496e-08 1.3517232335e-21
2.5409897622e-09 2.1248873517e-08 1.5770040453e-21
2.5551752314e-09 2.1262913844e-08 1.5770017378e-21
2.6808538330e-09 2.6528363495e-08 1.8022835167e-21
2.6957935839e-09 2.6519194195e-08 1.8022813190e-21
2.7652167184e-09 3.2013649221e-08 2.0275621603e-21
2.7797937747e-09 3.2018450257e-08 2.0275600284e-21
2.7976467472e-09 3.7626311328e-08 2.2528405987e-21
2.8059433174e-09 3.7617182970e-08 2.2528384106e-21

CELL_DATA 20
SCALARS YOUNG_MODULUS_MEAN double 1
LOOKUP_TABLE default
2.1477411338e+11
2.1477411338e+11
2.1477411338e+11
2.1477411338e+11
2.1477411338e+11
2.1477411338e+11
2.1477411338e+11
2.1477411338e+11
2.1477411338e+11
2.1477411338e+11
2.1477411338e+11
2.1477411338e+11
2.1477411338e+11
2.1477411338e+11
2.1477411338e+11
2.1477411338e+11
2.1477411338e+11
2.1477411338e+11
2.1477411338e+11
2.1477411338e+11
SCALARS YOUNG_MODULUS_STD double 1
LOOKUP_TABLE default
4.4204145208e+09
4.4204145208e+09
4.4204145208e+09
4.4204145208e+09
4.4204145208e+09
4.4204145208e+09
4.4204145208e+09
4.4204145208e+09
4.4204145208e+09
4.4204145208e+09
4.4204145208e+09
4.4204145208e+09
4.4204145208e+09
4.4204145208e+09
4.4204145208e+09
4.4204145208e+09
4.4204145208e+09
4.4204145208e+09
4.4204145208e+09
4.4204145208e+09
