# vtk DataFile Version 4.2
SMC_aCS level 0, q = 0.0000
ASCII
DATASET UNSTRUCTURED_GRID
POINTS 22 double
0.0000000000e+00 0.0000000000e+00 0.0000000000e+00
0.0000000000e+00 1.0000000000e-01 0.0000000000e+00
1.0000000000e-01 0.0000000000e+00 0.0000000000e+00
1.0000000000e-01 1.0000000000e-01 0.0000000000e+00
2.0000000000e-01 0.0000000000e+00 0.0000000000e+00
2.0000000000e-01 1.0000000000e-01 0.0000000000e+00
3.0000000000e-01 0.0000000000e+00 0.0000000000e+00
3.0000000000e-01 1.0000000000e-01 0.0000000000e+00
4.0000000000e-01 0.0000000000e+00 0.0000000000e+00
4.0000000000e-01 1.0000000000e-01 0.0000000000e+00
5.0000000000e-01 0.0000000000e+00 0.0000000000e+00
5.0000000000e-01 1.0000000000e-01 0.0000000000e+00
6.0000000000e-01 0.0000000000e+00 0.0000000000e+00
6.0000000000e-01 1.0000000000e-01 0.0000000000e+00
7.0000000000e-01 0.0000000000e+00 0.0000000000e+00
7.0000000000e-01 1.0000000000e-01 0.0000000000e+00
8.0000000000e-01 0.0000000000e+00 0.0000000000e+00
8.0000000000e-01 1.0000000000e-01 0.0000000000e+00
9.0000000000e-01 0.0000000000e+00 0.0000000000e+00
9.0000000000e-01 1.0000000000e-01 0.0000000000e+00
1.0000000000e+00 0.0000000000e+00 0.0000000000e+00
1.0000000000e+00 1.0000000000e-01 0.0000000000e+00

CELLS 20 80
3 0 2 1
3 16 18 17
3 11 9 8
3 16 17 14
3 8 9 7
3 8 10 11
3 11 10 13
3 19 17 18
3 19 18 21
3 3 1 2
3 3 2 4
3 4 6 5
3 4 5 3
3 20 21 18
3 7 5 6
3 7 6 8
3 12 14 13
3 12 13 10
3 15 13 14
3 15 14 17

CELL_TYPES 20
5
5
5
5
5
5
5
5
5
5
5
5
5
5
5
5
5
5
5
5

POINT_DATA 22
VECTORS DISPLACEMENT_MEAN double
0.0000000000e+00 0.0000000000e+00 0.0000000000e+00
0.0000000000e+00 0.0000000000e+00 0.0000000000e+00
-3.6521324030e-08 -3.4160285084e-08 -1.1502783411e-21
3.6079151055e-08 -3.4172053089e-08 -1.1502838871e-21
-6.6848577926e-08 -1.3878997068e-07 -2.3005616879e-21
6.6391818065e-08 -1.3896163176e-07 -2.3005686397e-21
-9.3327379345e-08 -3.0064870619e-07 -3.4508453965e-21
9.3161694749e-08 -3.0093802121e-07 -3.4508534539e-21
-1.1610225094e-07 -5.1159700270e-07 -4.6011284817e-21
1.1696918264e-07 -5.1366539477e-07 -4.6011382761e-21
-1.3553453825e-07 -7.6764097164e-07 -5.7514091248e-21
1.3715364893e-07 -7.6750593300e-07 -5.7514198030e-21
-1.5192870976e-07 -1.0591194982e-06 -6.9016899784e-21
1.5303937632e-07 -1.0577824200e-06 -6.9017028249e-21
-1.6475610048e-07 -1.3777629459e-06 -8.0519742290e-21
1.6567587695e-07 -1.3786733115e-06 -8.0519881418e-21
-1.7382479460e-07 -1.7200815945e-06 -9.2022552992e-21
1.7479347819e-07 -1.7194870631e-06 -9.2022706640e-21
-1.7929482846e-07 -2.0757439036e-06 -1.0352536841e-20
1.8023999517e-07 -2.0760551996e-06 -1.0352554510e-20
-1.8139757014e-07 -2.4396652132e-06 -1.1502817389e-20
1.8193551428e-07 -2.4390733365e-06 -1.1502837132e-20
VECTORS DISPLACEMENT_STD double
0.0000000000e+00 0.0000000000e+00 0.0000000000e+00
0.0000000000e+00 0.0000000000e+00 0.0000000000e+00
2.6850038683e-08 2.5114231213e-08 7.5793825056e-22
2.6524958423e-08 2.5122882909e-08 7.5793306805e-22
4.9146271414e-08 1.0203671911e-07 1.5158762726e-21
4.8810467052e-08 1.0216292227e-07 1.5158722714e-21
6.8613168118e-08 2.2103331699e-07 2.2738164756e-21
6.8491358794e-08 2.2124601791e-07 2.2738132063e-21
8.5356980109e-08 3.7611997038e-07 3.0317606206e-21
8.5994337883e-08 3.7764062738e-07 3.0317576257e-21
9.9643364293e-08 5.6436042039e-07 3.7897082300e-21
1.0083371501e-07 5.6426114161e-07 3.7897051815e-21
1.1169616224e-07 7.7865193146e-07 4.5476602414e-21
1.1251271095e-07 7.7766892768e-07 4.5476571260e-21
1.2112670580e-07 1.0129147663e-06 5.3056119419e-21
1.2180291441e-07 1.0135840561e-06 5.3056081614e-21
1.2779390077e-07 1.2645833243e-06 6.0635654966e-21
1.2850606531e-07 1.2641462319e-06 6.0635621291e-21
1.3181540395e-07 1.5260619812e-06 6.8215187251e-21
1.3251027916e-07 1.5262908423e-06 6.8215159729e-21
1.3336131437e-07 1.7936125562e-06 7.5794725971e-21
1.3375680444e-07 1.7931774155e-06 7.5794695650e-21

CELL_DATA 20
SCALARS YOUNG_MODULUS_MEAN double 1
LOOKUP_TABLE default
2.2689746647e+11
2.2689746647e+11
2.2689746647e+11
2.2689746647e+11
2.2689746647e+11
2.2689746647e+11
2.2689746647e+11
2.2689746647e+11
2.2689746647e+11
2.2689746647e+11
2.2689746647e+11
2.2689746647e+11
2.2689746647e+11
2.2689746647e+11
2.2689746647e+11
2.2689746647e+11
2.2689746647e+11
2.2689746647e+11
2.2689746647e+11
2.2689746647e+11
SCALARS YOUNG_MODULUS_STD double 1
LOOKUP_TABLE default
1.0689637794e+11
1.0689637794e+11
1.0689637794e+11
1.0689637794e+11
1.0689637794e+11
1.0689637794e+11
1.0689637794e+11
1.0689637794e+11
1.0689637794e+11
1.0689637794e+11
1.0689637794e+11
1.0689637794e+11
1.0689637794e+11
1.0689637794e+11
1.0689637794e+11
1.0689637794e+11
1.0689637794e+11
1.0689637794e+11
1.0689637794e+11
1.0689637794e+11
