# vtk DataFile Version 4.2
SMC_aCS level 1, q = 0.0246
ASCII
DATASET UNSTRUCTURED_GRID
POINTS 22 double
0.0000000000e+00 0.0000000000e+00 0.0000000000e+00
0.0000000000e+00 1.0000000000e-01 0.0000000000e+00
1.0000000000e-01 0.0000000000e+00 0.0000000000e+00
1.0000000000e-01 1.0000000000e-01 0.0000000000e+00
2.0000000000e-01 0.0000000000e+00 0.0000000000e+00
2.0000000000e-01 1.0000000000e-01 0.0000000000e+00
3.0000000000e-01 0.0000000000e+00 0.0000000000e+00
3.0000000000e-01 1.0000000000e-01 0.0000000000e+00
4.0000000000e-01 0.0000000000e+00 0.0000000000e+00
4.0000000000e-01 1.0000000000e-01 0.0000000000e+00
5.0000000000e-01 0.0000000000e+00 0.0000000000e+00
5.0000000000e-01 1.0000000000e-01 0.0000000000e+00
6.0000000000e-01 0.0000000000e+00 0.0000000000e+00
6.0000000000e-01 1.0000000000e-01 0.0000000000e+00
7.0000000000e-01 0.0000000000e+00 0.0000000000e+00
7.0000000000e-01 1.0000000000e-01 0.0000000000e+00
8.0000000000e-01 0.0000000000e+00 0.0000000000e+00
8.0000000000e-01 1.0000000000e-01 0.0000000000e+00
9.0000000000e-01 0.0000000000e+00 0.0000000000e+00
9.0000000000e-01 1.0000000000e-01 0.0000000000e+00
1.0000000000e+00 0.0000000000e+00 0.0000000000e+00
1.0000000000e+00 1.0000000000e-01 0.0000000000e+00

CELLS 20 80
3 0 2 1
3 16 18 17
3 11 9 8
3 16 17 14
3 8 9 7
3 8 10 11
3 11 10 13
3 19 17 18
3 19 18 21
3 3 1 2
3 3 2 4
3 4 6 5
3 4 5 3
3 20 21 18
3 7 5 6
3 7 6 8
3 12 14 13
3 12 13 10
3 15 13 14
3 15 14 17

CELL_TYPES 20
5
5
5
5
5
5
5
5
5
5
5
5
5
5
5
5
5
5
5
5

POINT_DATA 22
VECTORS DISPLACEMENT_MEAN double
0.0000000000e+00 0.0000000000e+00 0.0000000000e+00
0.0000000000e+00 0.0000000000e+00 0.0000000000e+00
-2.6175964240e-08 -2.4483734490e-08 -1.5094339581e-21
2.5859045172e-08 -2.4492168984e-08 -1.5094411690e-21
-4.7912446543e-08 -9.9475071229e-08 -3.0188680628e-21
4.7585072602e-08 -9.9598106043e-08 -3.0188767824e-21
-6.6890623744e-08 -2.1548424081e-07 -4.5283015597e-21
6.6771872462e-08 -2.1569160184e-07 -4.5283102830e-21
-8.3214079702e-08 -3.6667741939e-07 -6.0377304997e-21
8.3835436509e-08 -3.6815990005e-07 -6.0377406255e-21
-9.7141801965e-08 -5.5019206330e-07 -7.5471531444e-21
9.8302268745e-08 -5.5009527693e-07 -7.5471629454e-21
-1.0889201252e-07 -7.5910375229e-07 -9.0565744004e-21
1.0968806165e-07 -7.5814542698e-07 -9.0565851994e-21
-1.1808580081e-07 -9.8748538179e-07 -1.0565999439e-20
1.1874503309e-07 -9.8813786901e-07 -1.0566010163e-20
-1.2458561479e-07 -1.2328357611e-06 -1.2075421671e-20
1.2527990033e-07 -1.2324096420e-06 -1.2075433049e-20
-1.2850615750e-07 -1.4877499552e-06 -1.3584846849e-20
1.2918358777e-07 -1.4879730707e-06 -1.3584859174e-20
-1.3001325760e-07 -1.7485836309e-06 -1.5094271168e-20
1.3039881883e-07 -1.7481594146e-06 -1.5094284634e-20
VECTORS DISPLACEMENT_STD double
0.0000000000e+00 0.0000000000e+00 0.0000000000e+00
0.0000000000e+00 0.0000000000e+00 0.0000000000e+00
3.7884288324e-09 3.5435136148e-09 4.4064676809e-22
3.7425613593e-09 3.5447343332e-09 4.4064621711e-22
6.9343345769e-09 1.4396956861e-08 8.8128922088e-22
6.8869539775e-09 1.4414763602e-08 8.8128880137e-22
9.6810327706e-09 3.1186882108e-08 1.3219280599e-21
9.6638459813e-09 3.1216893324e-08 1.3219282086e-21
1.2043515032e-08 5.3068964148e-08 1.7625694293e-21
1.2133443564e-08 5.3283522529e-08 1.7625677426e-21
1.4059264447e-08 7.9628909058e-08 2.2032083607e-21
1.4227217985e-08 7.9614901234e-08 2.2032062937e-21
1.5759864129e-08 1.0986455038e-07 2.6438482352e-21
1.5875075758e-08 1.0972585263e-07 2.6438454458e-21
1.7090474619e-08 1.4291806245e-07 3.0844889448e-21
1.7185884842e-08 1.4301249646e-07 3.0844850207e-21
1.8031188111e-08 1.7842744970e-07 3.5251300002e-21
1.8131671567e-08 1.7836577779e-07 3.5251254966e-21
1.8598605490e-08 2.1532100113e-07 3.9657711353e-21
1.8696649494e-08 2.1535329248e-07 3.9657661805e-21
1.8816727024e-08 2.5307127495e-07 4.4064122647e-21
1.8872529029e-08 2.5300987841e-07 4.4064064058e-21

CELL_DATA 20
SCALARS YOUNG_MODULUS_MEAN double 1
LOOKUP_TABLE default
2.2902166933e+11
2.2902166933e+11
2.2902166933e+11
2.2902166933e+11
2.2902166933e+11
2.2902166933e+11
2.2902166933e+11
2.2902166933e+11
2.2902166933e+11
2.2902166933e+11
2.2902166933e+11
2.2902166933e+11
2.2902166933e+11
2.2902166933e+11
2.2902166933e+11
2.2902166933e+11
2.2902166933e+11
2.2902166933e+11
2.2902166933e+11
2.2902166933e+11
SCALARS YOUNG_MODULUS_STD double 1
LOOKUP_TABLE default
3.4495427677e+10
3.4495427677e+10
3.4495427677e+10
3.4495427677e+10
3.4495427677e+10
3.4495427677e+10
3.4495427677e+10
3.4495427677e+10
3.4495427677e+10
3.4495427677e+10
3.4495427677e+10
3.4495427677e+10
3.4495427677e+10
3.4495427677e+10
3.4495427677e+10
3.4495427677e+10
3.4495427677e+10
3.4495427677e+10
3.4495427677e+10
3.4495427677e+10
