# vtk DataFile Version 4.2
SMC_aCS level 2, q = 0.4047
ASCII
DATASET UNSTRUCTURED_GRID
POINTS 22 double
0.0000000000e+00 0.0000000000e+00 0.0000000000e+00
0.0000000000e+00 1.0000000000e-01 0.0000000000e+00
1.0000000000e-01 0.0000000000e+00 0.0000000000e+00
1.0000000000e-01 1.0000000000e-01 0.0000000000e+00
2.0000000000e-01 0.0000000000e+00 0.0000000000e+00
2.0000000000e-01 1.0000000000e-01 0.0000000000e+00
3.0000000000e-01 0.0000000000e+00 0.0000000000e+00
3.0000000000e-01 1.0000000000e-01 0.0000000000e+00
4.0000000000e-01 0.0000000000e+00 0.0000000000e+00
4.0000000000e-01 1.0000000000e-01 0.0000000000e+00
5.0000000000e-01 0.0000000000e+00 0.0000000000e+00
5.0000000000e-01 1.0000000000e-01 0.0000000000e+00
6.0000000000e-01 0.0000000000e+00 0.0000000000e+00
6.0000000000e-01 1.0000000000e-01 0.0000000000e+00
7.0000000000e-01 0.0000000000e+00 0.0000000000e+00
7.0000000000e-01 1.0000000000e-01 0.0000000000e+00
8.0000000000e-01 0.0000000000e+00 0.0000000000e+00
8.0000000000e-01 1.0000000000e-01 0.0000000000e+00
9.0000000000e-01 0.0000000000e+00 0.0000000000e+00
9.0000000000e-01 1.0000000000e-01 0.0000000000e+00
1.0000000000e+00 0.0000000000e+00 0.0000000000e+00
1.0000000000e+00 1.0000000000e-01 0.0000000000e+00

CELLS 20 80
3 0 2 1
3 16 18 17
3 11 9 8
3 16 17 14
3 8 9 7
3 8 10 11
3 11 10 13
3 19 17 18
3 19 18 21
3 3 1 2
3 3 2 4
3 4 6 5
3 4 5 3
3 20 21 18
3 7 5 6
3 7 6 8
3 12 14 13
3 12 13 10
3 15 13 14
3 15 14 17

CELL_TYPES 20
5
5
5
5
5
5
5
5
5
5
5
5
5
5
5
5
5
5
5
5

POINT_DATA 22
VECTORS DISPLACEMENT_MEAN double
0.0000000000e+00 0.0000000000e+00 0.0000000000e+00
0.0000000000e+00 0.0000000000e+00 0.0000000000e+00
-2.7299219443e-08 -2.5534373233e-08 -1.5312409909e-21
2.6968700838e-08 -2.5543169665e-08 -1.5312482161e-21
-4.9968451219e-08 -1.0374371594e-07 -3.0624832369e-21
4.9627029105e-08 -1.0387203039e-07 -3.0624924147e-21
-6.9761014323e-08 -2.2473103655e-07 -4.5937280032e-21
6.9637167221e-08 -2.2494729580e-07 -4.5937365117e-21
-8.6784937575e-08 -3.8241217190e-07 -6.1249696800e-21
8.7432957861e-08 -3.8395826834e-07 -6.1249777850e-21
-1.0131032212e-07 -5.7380174171e-07 -7.6562056226e-21
1.0252058650e-07 -5.7370080207e-07 -7.6562142976e-21
-1.1356475423e-07 -7.9167818705e-07 -9.1874409992e-21
1.1439496318e-07 -7.9067873837e-07 -9.1874499739e-21
-1.2315306362e-07 -1.0298600612e-06 -1.0718677730e-20
1.2384058468e-07 -1.0305405478e-06 -1.0718686970e-20
-1.2993179569e-07 -1.2857388431e-06 -1.2249911413e-20
1.3065587421e-07 -1.2852944385e-06 -1.2249920408e-20
-1.3402057557e-07 -1.5515918394e-06 -1.3781145915e-20
1.3472707552e-07 -1.5518245292e-06 -1.3781155785e-20
-1.3559234790e-07 -1.8236183323e-06 -1.5312379165e-20
1.3599445422e-07 -1.8231759121e-06 -1.5312390605e-20
VECTORS DISPLACEMENT_STD double
0.0000000000e+00 0.0000000000e+00 0.0000000000e+00
0.0000000000e+00 0.0000000000e+00 0.0000000000e+00
8.8774628098e-10 8.3035505545e-10 3.4616160864e-22
8.7699811056e-10 8.3064110758e-10 3.4615890578e-22
1.6249294903e-09 3.3736531623e-09 6.9231207495e-22
1.6138267475e-09 3.3778258337e-09 6.9230980792e-22
2.2685659988e-09 7.3080529769e-09 1.0384525376e-21
2.2645386015e-09 7.3150855350e-09 1.0384524587e-21
2.8221688074e-09 1.2435702937e-08 1.3845931205e-21
2.8432418494e-09 1.2485980615e-08 1.3845916593e-21
3.2945213644e-09 1.8659521137e-08 1.7307314730e-21
3.3338780833e-09 1.8656238670e-08 1.7307290706e-21
3.6930245725e-09 2.5744668918e-08 2.0768680995e-21
3.7200222276e-09 2.5712167738e-08 2.0768654103e-21
4.0048278467e-09 3.3490131144e-08 2.4230055359e-21
4.0271854188e-09 3.3512259960e-08 2.4230026047e-21
4.2252661710e-09 4.1811081033e-08 2.7691422451e-21
4.2488125588e-09 4.1796629393e-08 2.7691388436e-21
4.3582296477e-09 5.0456383485e-08 3.1152777884e-21
4.3812043963e-09 5.0463950349e-08 3.1152744178e-21
4.4093422827e-09 5.9302442542e-08 3.4614128883e-21
4.4224184217e-09 5.9288055431e-08 3.4614094441e-21

CELL_DATA 20
SCALARS YOUNG_MODULUS_MEAN double 1
LOOKUP_TABLE default
2.1514409679e+11
2.1514409679e+11
2.1514409679e+11
2.1514409679e+11
2.1514409679e+11
2.1514409679e+11
2.1514409679e+11
2.1514409679e+11
2.1514409679e+11
2.1514409679e+11
2.1514409679e+11
2.1514409679e+11
2.1514409679e+11
2.1514409679e+11
2.1514409679e+11
2.1514409679e+11
2.1514409679e+11
2.1514409679e+11
2.1514409679e+11
2.1514409679e+11
SCALARS YOUNG_MODULUS_STD double 1
LOOKUP_TABLE default
7.0054052394e+09
7.0054052394e+09
7.0054052394e+09
7.0054052394e+09
7.0054052394e+09
7.0054052394e+09
7.0054052394e+09
7.0054052394e+09
7.0054052394e+09
7.0054052394e+09
7.0054052394e+09
7.0054052394e+09
7.0054052394e+09
7.0054052394e+09
7.0054052394e+09
7.0054052394e+09
7.0054052394e+09
7.0054052394e+09
7.0054052394e+09
7.0054052394e+09
